<svg width="159" height="34" viewBox="0 0 159 34" fill="none" xmlns="http://www.w3.org/2000/svg">
<path d="M0 30.9822C0 20.6817 0 10.3207 0 0C52.9113 0 105.802 0 158.714 0C158.714 11.3266 158.714 22.6533 158.714 34C145.375 34 132.037 34 118.698 34C118.678 33.9396 118.638 33.8592 118.618 33.7988C118.115 32.9538 117.592 32.129 117.089 31.284C116.968 31.0627 116.827 31.0024 116.586 31.0024C97.755 31.0024 78.9243 31.0024 60.0734 31.0024C54.1988 31.0024 48.3444 31.0024 42.4698 31.0024C37.8828 31.0024 33.2757 31.0024 28.6888 31.0024C19.1258 31.0024 9.56293 30.9822 0 30.9822ZM1.91124 1.89112C1.9716 10.9645 2.03195 19.9976 2.09231 29.0509C21.5065 29.0509 40.9006 29.0509 60.2746 29.0509C60.2746 19.9976 60.2746 10.9444 60.2746 1.89112C40.8201 1.89112 21.3858 1.89112 1.91124 1.89112ZM100.773 4.88876C101.115 6.98107 101.477 9.03314 101.819 11.1053C102.221 13.5598 102.644 15.9941 103.046 18.4485C103.469 20.9231 103.871 23.4178 104.294 25.8923C104.314 26.0533 104.394 26.0734 104.535 26.0734C105.42 26.0734 106.305 26.0734 107.191 26.0734C107.351 26.0734 107.392 26.013 107.412 25.8722C107.553 24.8462 107.714 23.8 107.854 22.774C108.136 20.8426 108.418 18.9112 108.699 16.9799C108.82 16.1751 108.941 15.3905 109.062 14.5858C109.142 14.7065 109.162 14.8272 109.182 14.968C109.746 18.6095 110.309 22.2308 110.872 25.8722C110.892 26.0331 110.953 26.0935 111.114 26.0935C111.999 26.0935 112.864 26.0935 113.749 26.0935C113.809 26.0935 113.87 26.0935 113.95 26.0734C115.057 19.0118 116.163 11.9704 117.27 4.90888C116.143 4.90888 115.037 4.90888 113.93 4.90888C113.427 8.63077 112.904 12.3728 112.401 16.0947C112.381 16.0947 112.361 16.0947 112.361 16.0947C111.818 12.3728 111.254 8.63077 110.711 4.90888C109.585 4.90888 108.478 4.90888 107.372 4.90888C106.869 8.65089 106.366 12.3728 105.863 16.0947C105.843 16.0947 105.823 16.0947 105.802 16.0947C105.259 12.3728 104.696 8.65089 104.153 4.90888C103.006 4.88876 101.899 4.88876 100.773 4.88876ZM88.6817 4.86864C88.6817 11.9503 88.6817 18.9917 88.6817 26.0331C89.7479 26.0331 90.7941 26.0331 91.8604 26.0331C91.8604 23.3775 91.8604 20.742 91.8604 18.0864C91.961 18.0864 92.0414 18.0663 92.1219 18.0663C92.6651 18.0663 93.2083 18.0864 93.7716 18.0663C93.9929 18.0663 94.0332 18.1467 94.0935 18.3278C94.6971 20.8426 95.3006 23.3373 95.9042 25.8521C95.9444 26.013 96.0048 26.0734 96.1858 26.0734C97.1917 26.0734 98.1775 26.0734 99.1834 26.0734C99.2438 26.0734 99.3243 26.0734 99.4048 26.0533C99.3846 25.9728 99.3645 25.9124 99.3645 25.8521C98.6201 22.9349 97.8758 19.9976 97.1113 17.0805C97.071 16.8994 97.0911 16.7787 97.232 16.6379C98.258 15.632 98.761 14.4249 98.761 12.9763C98.761 11.9503 98.7811 10.9243 98.761 9.87811C98.761 9.41538 98.7207 8.93254 98.6403 8.46982C98.4391 7.38343 97.9562 6.41775 97.0308 5.75385C96.1657 5.13018 95.1598 4.90888 94.1136 4.88876C92.7657 4.86864 91.4178 4.86864 90.09 4.86864C89.6071 4.86864 89.1444 4.86864 88.6817 4.86864ZM134.29 18.0864C134.411 18.0864 134.491 18.0864 134.572 18.0864C135.095 18.0864 135.618 18.1065 136.141 18.0864C136.382 18.0663 136.443 18.1669 136.503 18.3882C137.107 20.8828 137.71 23.3775 138.314 25.8923C138.354 26.0533 138.414 26.0935 138.575 26.0935C139.259 26.0935 139.963 26.0935 140.647 26.0935C141.03 26.0935 141.412 26.0935 141.794 26.0935C141.774 25.9929 141.754 25.9124 141.734 25.8521C140.989 22.955 140.265 20.058 139.501 17.1609C139.44 16.9195 139.481 16.7787 139.662 16.5976C140.587 15.6722 141.11 14.5657 141.13 13.2379C141.15 12.1515 141.17 11.045 141.15 9.95858C141.13 9.41538 141.09 8.87219 140.969 8.32899C140.708 7.0213 140.024 5.99527 138.776 5.41183C138.052 5.06982 137.288 4.90888 136.503 4.90888C134.733 4.88876 132.982 4.88876 131.212 4.88876C131.172 4.88876 131.131 4.90888 131.071 4.90888C131.071 11.9704 131.071 19.0118 131.071 26.0734C132.137 26.0734 133.163 26.0734 134.25 26.0734C134.29 23.3976 134.29 20.7621 134.29 18.0864ZM144.591 26.0533C144.651 26.0533 144.691 26.0533 144.731 26.0533C146.421 26.0533 148.091 26.0734 149.781 26.0331C150.304 26.013 150.847 25.9124 151.33 25.7314C153.322 25.0071 154.609 23.0959 154.609 20.9432C154.609 17.3018 154.609 13.6604 154.609 9.99882C154.609 9.61657 154.569 9.23432 154.509 8.87219C154.147 6.71953 152.115 4.90888 149.922 4.84852C148.172 4.80828 146.421 4.8284 144.651 4.8284C144.631 4.8284 144.591 4.84852 144.55 4.84852C144.591 11.9503 144.591 18.9917 144.591 26.0533ZM85.845 15.471C85.845 13.5195 85.845 11.568 85.845 9.59645C85.845 9.25444 85.8048 8.91243 85.7444 8.59053C85.3823 6.63905 83.5113 4.72781 81.1172 4.6071C78.2201 4.44615 75.7255 6.71953 75.7255 9.61657C75.7255 13.5195 75.7255 17.4024 75.7255 21.3053C75.7255 24.4438 78.6024 26.8178 81.6805 26.2343C84.1349 25.7716 85.845 23.7195 85.845 21.245C85.845 19.3136 85.845 17.4024 85.845 15.471ZM128.395 26.0533C127.208 18.9917 126.021 11.9302 124.854 4.90888C124.814 4.88876 124.794 4.88876 124.794 4.88876C123.406 4.88876 122.018 4.88876 120.609 4.88876C120.449 4.88876 120.449 4.98935 120.428 5.11006C120.247 6.19645 120.066 7.28284 119.885 8.36923C119.402 11.1657 118.94 13.9822 118.457 16.7787C118.014 19.3941 117.572 22.0095 117.129 24.6249C117.049 25.1077 116.968 25.5905 116.888 26.0734C118.014 26.0734 119.101 26.0734 120.207 26.0734C120.469 24.4438 120.73 22.8343 120.992 21.2249C122.118 21.2249 123.225 21.2249 124.331 21.2249C124.573 22.8544 124.834 24.4639 125.076 26.0734C126.182 26.0533 127.289 26.0533 128.395 26.0533ZM71.903 17.0604C71.903 15.974 71.903 14.9077 71.903 13.8414C70.4746 13.8414 69.0462 13.8414 67.6379 13.8414C67.6379 11.9101 67.6379 9.99882 67.6379 8.04734C69.6095 8.04734 71.561 8.04734 73.5124 8.04734C73.5124 6.98107 73.5124 5.91479 73.5124 4.86864C70.4746 4.86864 67.4769 4.86864 64.4592 4.86864C64.4592 11.9302 64.4592 18.9917 64.4592 26.0331C65.5255 26.0331 66.5716 26.0331 67.6379 26.0331C67.6379 23.0355 67.6379 20.058 67.6379 17.0402C69.0462 17.0604 70.4746 17.0604 71.903 17.0604Z" fill="#E5E1E1"/>
<path d="M0 33.9985V32.5098C29.4063 32.5098 58.8126 32.5098 88.2189 32.5098C92.8059 32.5098 97.3728 32.5098 101.96 32.5098C102.161 32.5098 102.282 32.5701 102.382 32.7512C102.604 33.1737 102.865 33.5962 103.107 33.9985C68.7645 33.9985 34.342 33.9985 0 33.9985Z" fill="#E5E1E1"/>
<path d="M104.775 33.9985C104.493 33.5157 104.231 33.053 103.93 32.5299C104.03 32.5299 104.091 32.5098 104.151 32.5098C104.915 32.5098 105.68 32.5098 106.444 32.5098C106.585 32.5098 106.686 32.55 106.746 32.6908C106.988 33.1334 107.229 33.576 107.491 33.9985C106.585 33.9985 105.68 33.9985 104.775 33.9985Z" fill="#E5E1E1"/>
<path d="M113.323 33.9985C113.041 33.5157 112.759 33.0328 112.438 32.5098C112.659 32.5098 112.82 32.5098 113.001 32.5098C113.584 32.5098 114.168 32.5098 114.751 32.5098C114.912 32.5098 114.993 32.55 115.073 32.6908C115.294 33.1334 115.536 33.5559 115.777 33.9985C114.972 33.9985 114.148 33.9985 113.323 33.9985Z" fill="#E5E1E1"/>
<path d="M109.184 33.9985C108.963 33.6163 108.742 33.2139 108.52 32.8317C108.46 32.7512 108.42 32.6506 108.359 32.5299C108.44 32.5299 108.5 32.5098 108.561 32.5098C109.245 32.5098 109.908 32.5098 110.593 32.5098C110.733 32.5098 110.814 32.55 110.874 32.6707C111.136 33.1133 111.397 33.5559 111.659 33.9985C110.814 33.9985 110.009 33.9985 109.184 33.9985Z" fill="#E5E1E1"/>
<path d="M35.4277 26.2514C34.3011 26.2514 33.2348 26.2514 32.1484 26.2514C32.1484 19.029 32.1484 11.8266 32.1484 4.58398C33.3757 4.58398 34.5828 4.58398 35.81 4.58398C37.2384 9.37215 38.6668 14.1603 40.0952 18.9485C40.1153 18.9485 40.1153 18.9485 40.1354 18.9485C40.1354 14.1603 40.1354 9.39227 40.1354 4.58398C41.2419 4.58398 42.3082 4.58398 43.3946 4.58398C43.3946 11.7864 43.3946 19.0088 43.3946 26.2313C43.3141 26.2313 43.2336 26.2514 43.1733 26.2514C42.1674 26.2514 41.1413 26.2514 40.1354 26.2514C39.9544 26.2514 39.894 26.1911 39.8336 26.0301C38.4052 21.6041 36.9768 17.1982 35.5484 12.7722C35.5283 12.6917 35.4881 12.6313 35.4277 12.5508C35.4277 17.1378 35.4277 21.6846 35.4277 26.2514Z" fill="#E5E1E1"/>
<path d="M56.6545 12.0122C55.5078 12.0122 54.4012 12.0122 53.2746 12.0122C53.2746 11.63 53.2746 11.2679 53.2746 10.9057C53.2746 10.3424 53.3149 9.79923 53.2545 9.23592C53.1539 8.25012 52.2486 7.52586 51.303 7.60633C50.2569 7.68681 49.5326 8.47142 49.5326 9.49746C49.5326 11.7909 49.5326 14.0844 49.5326 16.3779C49.5326 18.0276 49.5326 19.6773 49.5326 21.327C49.5326 22.2122 50.0959 22.9365 50.9208 23.1578C51.7657 23.3791 52.651 22.9969 53.0332 22.2122C53.174 21.9306 53.2344 21.6087 53.2545 21.2868C53.2746 20.4016 53.2545 19.5164 53.2545 18.6312C53.2545 18.5507 53.2545 18.4501 53.2545 18.3495C54.3811 18.3495 55.4876 18.3495 56.6344 18.3495C56.6344 18.43 56.6344 18.5105 56.6344 18.5909C56.6344 19.5767 56.6344 20.5625 56.6344 21.5282C56.6344 23.9827 54.6024 26.2158 52.148 26.4773C49.6533 26.7389 47.4604 25.4714 46.6154 23.2383C46.374 22.6146 46.2734 21.9909 46.2734 21.327C46.2734 17.3838 46.2734 13.4608 46.2734 9.51758C46.2734 7.0229 47.9433 4.93059 50.3575 4.42764C54.019 3.66314 56.7149 6.60042 56.6344 9.45722C56.6344 10.3424 56.6545 11.1673 56.6545 12.0122Z" fill="#E5E1E1"/>
<path d="M16.2543 9.31211C15.1881 9.5133 14.162 9.69436 13.136 9.87543C13.0555 9.53341 13.0153 9.21152 12.9147 8.90975C12.8342 8.64821 12.7135 8.38667 12.5727 8.14525C11.9892 7.05886 10.5608 7.0991 9.99752 7.68253C9.59516 8.10501 9.39397 8.60797 9.33362 9.17128C9.17267 10.3985 9.63539 11.4447 10.3395 12.3902C10.923 13.1748 11.6673 13.7784 12.4117 14.4021C13.5384 15.3476 14.5644 16.3938 15.3088 17.6612C15.8117 18.5263 16.2342 19.4316 16.3348 20.4376C16.4957 22.3488 16.0531 24.079 14.5845 25.4068C13.7798 26.1512 12.7739 26.4328 11.6875 26.5133C10.5206 26.5938 9.39397 26.4731 8.34782 25.8494C7.08036 25.105 6.33598 23.9583 5.93362 22.5902C5.73243 21.9263 5.67208 21.2021 5.53125 20.518C5.53125 20.4778 5.53125 20.4376 5.55137 20.3772C6.5774 20.2967 7.60344 20.2364 8.62948 20.1559C8.73007 20.5985 8.81054 21.0411 8.91113 21.4636C9.05196 22.0269 9.3135 22.55 9.73598 22.9725C10.3597 23.5961 11.2247 23.6967 11.9691 23.234C12.7135 22.7512 13.0354 22.047 13.0555 21.1819C13.0756 19.9547 12.4922 19.0092 11.6472 18.2044C10.4602 16.9973 9.19279 15.8305 8.00581 14.6234C7.1206 13.718 6.41646 12.692 6.11468 11.4245C5.77267 9.91566 5.79279 8.42691 6.45669 7.01862C7.24131 5.38904 8.56912 4.50383 10.3597 4.363C11.4259 4.28253 12.4721 4.38312 13.4378 4.84584C14.9265 5.54998 15.691 6.79732 16.0531 8.34643C16.1537 8.64821 16.194 8.9701 16.2543 9.31211Z" fill="#E5E1E1"/>
<path d="M23.5589 12.2516C23.8205 11.4066 24.082 10.5416 24.3436 9.69658C24.8465 8.067 25.3495 6.43741 25.8524 4.80783C25.9128 4.62676 25.9731 4.56641 26.1743 4.56641C27.2205 4.58652 28.2666 4.56641 29.3128 4.56641C29.3933 4.56641 29.4536 4.56641 29.5542 4.56641C29.4737 4.78771 29.4134 4.98889 29.3329 5.19007C27.9649 9.13327 26.5767 13.0765 25.2086 17.0197C25.1684 17.1404 25.1483 17.2812 25.1483 17.422C25.1483 20.2587 25.1483 23.0954 25.1483 25.912C25.1483 26.0126 25.1483 26.093 25.1483 26.2137C24.0619 26.2137 22.9755 26.2137 21.869 26.2137C21.869 26.1132 21.869 26.0327 21.869 25.9321C21.869 23.1356 21.869 20.3392 21.869 17.5629C21.869 17.3214 21.8288 17.0599 21.7483 16.8185C20.3601 12.835 18.9921 8.8315 17.6039 4.84806C17.5637 4.76759 17.5436 4.667 17.5234 4.56641C18.3684 4.56641 19.1933 4.56641 19.998 4.56641C20.2797 4.56641 20.5814 4.58652 20.8631 4.56641C21.0441 4.56641 21.1246 4.60664 21.185 4.78771C21.9294 7.20191 22.6737 9.59599 23.4181 12.0102C23.4382 12.0907 23.4785 12.151 23.4986 12.2315C23.5187 12.2516 23.5388 12.2516 23.5589 12.2516Z" fill="#E5E1E1"/>
<path d="M91.8561 14.9088C91.8561 14.8283 91.8359 14.7478 91.8359 14.6674C91.8359 12.5751 91.8359 10.5029 91.8359 8.41056C91.8359 8.18926 91.8963 8.12891 92.1176 8.12891C92.7815 8.14902 93.4454 8.10879 94.1093 8.14902C94.9945 8.20938 95.5578 8.77269 95.578 9.6579C95.5981 10.865 95.5981 12.0721 95.578 13.2792C95.5578 14.0437 94.914 14.7881 94.1093 14.8686C93.385 14.949 92.6407 14.9088 91.8561 14.9088Z" fill="#E5E1E1"/>
<path d="M134.312 8.12417C134.614 8.12417 134.916 8.12417 135.218 8.12417C135.66 8.12417 136.103 8.10405 136.546 8.14429C137.471 8.20464 138.034 8.78808 138.055 9.71352C138.075 10.8804 138.075 12.0472 138.055 13.2141C138.034 14.1194 137.27 14.8839 136.365 14.9041C135.681 14.9242 135.017 14.9041 134.312 14.9041C134.312 12.6508 134.312 10.4177 134.312 8.12417Z" fill="#E5E1E1"/>
<path d="M147.766 22.9159C147.766 17.9869 147.766 13.0579 147.766 8.12891C147.927 8.12891 148.088 8.12891 148.248 8.12891C148.731 8.12891 149.194 8.12891 149.677 8.12891C150.703 8.14902 151.508 8.93364 151.508 9.93956C151.508 13.6615 151.508 17.3833 151.508 21.1254C151.508 22.1514 150.683 22.9159 149.657 22.9159C149.033 22.9159 148.409 22.9159 147.766 22.9159Z" fill="#E5E1E1"/>
<path d="M78.841 15.4096C78.841 13.4983 78.8611 11.6072 78.841 9.69596C78.8208 8.52909 79.8066 7.70424 80.8327 7.78471C81.7581 7.84507 82.4623 8.56933 82.5226 9.49477C82.5226 9.57524 82.5226 9.67584 82.5226 9.75631C82.5226 13.5386 82.5226 17.3208 82.5226 21.1031C82.5226 21.9681 82.1203 22.6321 81.396 22.9338C80.2291 23.4167 78.9416 22.6321 78.8611 21.3847C78.8208 20.8415 78.841 20.2983 78.841 19.7752C78.841 18.3066 78.841 16.8581 78.841 15.4096Z" fill="#E5E1E1"/>
<path d="M123.827 18.0847C123.022 18.0847 122.258 18.0847 121.453 18.0847C121.835 15.3486 122.238 12.6125 122.62 9.89648C122.64 9.89648 122.66 9.89648 122.68 9.89648C123.063 12.6125 123.445 15.3284 123.827 18.0847Z" fill="#E5E1E1"/>
</svg>
