<?xml version="1.0" standalone="no"?>
<!DOCTYPE svg PUBLIC "-//W3C//DTD SVG 1.1//EN" "http://www.w3.org/Graphics/SVG/1.1/DTD/svg11.dtd">
<svg xmlns="http://www.w3.org/2000/svg"><metadata>This SVG WebFont was generated by YouWorkForThem.
Â© 2017 Connary Fagen</metadata><defs><font horiz-adv-x="994" id="ywftsvg"><font-face ascent="960" bbox="-513 -472 1608 1109" cap-height="840" descent="-240" font-family="" font-stretch="normal" font-weight="700" panose-1="0 0 8 0 0 0 0 0 0 0" underline-position="0" underline-thickness="0" unicode-range="U+0020-25CA" units-per-em="1200" x-height="840"/><missing-glyph d="M431 900v-1050h-333v1050h333zM350 830h-174v-35h69v-39h-70v-34h175v34h-70v39h70v35zM280 694h-105v-109h175v36h-70v73zM245 659v-38h-35v38h35zM350 557h-175v-35h70v-39h-70v-34h105v73h70v35zM350 494h-35v-70h-140v-35h175v105zM350 366h-105v-59h35v24h35v-49 h-105v84h-35v-119h175v119zM350 184h-175v-119h175v119zM315 149v-49h-105v49h105zM350 41h-175v-35h74l-74 -49v-35h175v35h-107l73 49h34v35z" horiz-adv-x="525"/><glyph d="M431 900v-1050h-333v1050h333zM350 830h-174v-35h69v-39h-70v-34h175v34h-70v39h70v35zM280 694h-105v-109h175v36h-70v73zM245 659v-38h-35v38h35zM350 557h-175v-35h70v-39h-70v-34h105v73h70v35zM350 494h-35v-70h-140v-35h175v105zM350 366h-105v-59h35v24h35v-49 h-105v84h-35v-119h175v119zM350 184h-175v-119h175v119zM315 149v-49h-105v49h105zM350 41h-175v-35h74l-74 -49v-35h175v35h-107l73 49h34v35z" glyph-name=".notdef" horiz-adv-x="525"/><glyph glyph-name="glyph1" horiz-adv-x="0"/><glyph glyph-name="glyph2" horiz-adv-x="400"/><glyph glyph-name="space" horiz-adv-x="260" unicode=" "/><glyph d="M43 318l124 522h286l-238 -522h-172zM56 -16q-52 0 -84 32.5t-32 83.5q0 66 47 111t111 45q52 0 84 -32.5t32 -83.5q0 -66 -47 -111t-111 -45z" glyph-name="exclam" horiz-adv-x="348" unicode="!"/><glyph d="M83 466l103 374h240l-141 -374h-202zM368 466l103 374h240l-141 -374h-202z" glyph-name="quotedbl" horiz-adv-x="625" unicode="&quot;"/><glyph d="M829 478h-105l-33 -102h104l-66 -207h-105l-55 -169h-233l55 169h-104l-55 -169h-233l55 169h-105l66 207h106l33 102h-105l62 193h105l55 169h233l-55 -169h104l55 169h233l-55 -169h105zM458 376l33 102h-104l-33 -102h104z" glyph-name="numbersign" horiz-adv-x="840" unicode="#"/><glyph d="M783 535h-238q10 36 -0.5 54t-42.5 24l-39 -118q31 -4 50.5 -7t51.5 -10.5t53 -15.5t46 -22t39.5 -31t24.5 -41.5t10 -54.5q0 -78 -57.5 -138t-152 -93.5t-211.5 -39.5l-20 -60h-86l19 60q-153 7 -219.5 70.5t-24.5 189.5h244q-22 -63 61 -74l38 117q-42 7 -67.5 13 t-66.5 20.5t-64.5 32t-42 49t-18.5 70.5q0 111 117.5 185.5t288.5 81.5l21 66h86l-22 -67q306 -19 222 -261zM330 554q0 -28 52 -45l34 106q-37 -6 -61.5 -22t-24.5 -39zM471 282q0 28 -62 45l-32 -99q94 9 94 54z" glyph-name="dollar" horiz-adv-x="798" unicode="$"/><glyph d="M238 -29l-101 78l805 825l99 -78zM301 405q-86 0 -136.5 44.5t-50.5 125.5q0 108 83.5 192.5t200.5 84.5q84 0 135.5 -45t51.5 -127q0 -111 -82 -193t-202 -82zM333 564q32 0 56.5 24t24.5 56q0 49 -49 49q-31 0 -55.5 -24.5t-24.5 -55.5q0 -49 48 -49zM782 -12 q-86 0 -136.5 44.5t-50.5 125.5q0 108 83.5 192.5t200.5 84.5q84 0 135.5 -45t51.5 -127q0 -111 -82 -193t-202 -82zM814 147q32 0 56.5 24t24.5 56q0 49 -49 49q-32 0 -56 -24t-24 -56q0 -49 48 -49z" glyph-name="percent" horiz-adv-x="1181" unicode="%"/><glyph d="M1004 446q-50 -153 -141 -256l70 -64l-166 -160l-86 82q-150 -75 -343 -75q-178 0 -273.5 61.5t-95.5 175.5q0 101 74.5 176.5t193.5 112.5q-25 57 -25 110q0 116 115 184.5t295 68.5q173 0 259.5 -83.5t34.5 -237.5h-232q20 60 -11 88.5t-93 28.5q-54 0 -89.5 -19 t-35.5 -49q0 -20 16.5 -39t68.5 -66q6 -5 9 -8l154 -141q51 59 68 110h233zM389 187q62 0 123 21l-174 165q-86 -35 -86 -100q0 -86 137 -86z" glyph-name="ampersand" horiz-adv-x="1054" unicode="&amp;"/><glyph d="M83 466l103 374h240l-141 -374h-202z" glyph-name="quotesingle" horiz-adv-x="340" unicode="'"/><glyph d="M369 -145q-370 0 -370 365q0 118 29.5 229t90.5 208t147 169.5t206.5 114.5t261.5 42l-68 -227q-78 0 -147 -32t-117 -83.5t-83 -117.5t-52 -134t-17 -132q0 -96 43.5 -135.5t145.5 -39.5z" glyph-name="parenleft" horiz-adv-x="590" unicode="("/><glyph d="M221 983q370 0 370 -365q0 -118 -29.5 -229t-90.5 -208t-147 -169.5t-206.5 -114.5t-261.5 -42l68 227q78 0 147 32t117 83.5t83 117.5t52 134t17 132q0 96 -43.5 135.5t-145.5 39.5z" glyph-name="parenright" horiz-adv-x="592" unicode=")"/><glyph d="M676 632l-165 -70l125 -68l-120 -139l-108 95l-41 -164h-160l62 155l-151 -86l-40 139l165 70l-125 68l120 139l108 -95l41 164h160l-62 -155l151 86z" glyph-name="asterisk" horiz-adv-x="663" unicode="*"/><glyph d="M754 532l-72 -223h-215l-69 -212h-243l69 212h-210l72 223h211l70 213h243l-70 -213h214z" glyph-name="plus" horiz-adv-x="768" unicode="+"/><glyph d="M317 234l-1 -3v1zM-86 0l74 231h328q-112 -332 -229 -471h-149q59 131 88 240h-112z" glyph-name="comma" horiz-adv-x="427" unicode=","/><glyph d="M0 300l77 231h580l-77 -231h-580z" glyph-name="hyphen" horiz-adv-x="660" unicode="-"/><glyph d="M56 -16q-52 0 -84 32.5t-32 83.5q0 66 47 111t111 45q52 0 84 -32.5t32 -83.5q0 -66 -47 -111t-111 -45z" glyph-name="period" horiz-adv-x="343" unicode="."/><glyph d="M-126 0l658 840h326l-658 -840h-326z" glyph-name="slash" horiz-adv-x="732" unicode="/"/><glyph d="M330 -22q-213 0 -292 123t-5 348q66 203 203 308t334 105q213 0 291.5 -123t5.5 -348q-65 -203 -202.5 -308t-334.5 -105zM374 201q86 0 149.5 63t98.5 181q28 95 3.5 144.5t-99.5 49.5q-86 0 -149 -62.5t-99 -181.5q-29 -95 -4 -144.5t100 -49.5z" glyph-name="zero" horiz-adv-x="895" unicode="0"/><glyph d="M685 840l-205 -630h177l-68 -210h-685l68 210h231l115 355q-82 -48 -230 -41l74 226q119 0 246 90h277z" glyph-name="one" horiz-adv-x="760" unicode="1"/><glyph d="M852 655q0 -75 -41.5 -136t-112 -104.5t-141 -75.5t-152.5 -67.5t-123 -61.5h438l-68 -210h-763l40 126q18 56 63.5 104.5t104.5 83.5t125.5 66.5t129.5 56.5t114.5 49t83 50.5t31.5 53.5q0 54 -87 54q-124 0 -156 -89h-257q32 145 150.5 226t299.5 81q156 0 238.5 -53 t82.5 -154z" glyph-name="two" horiz-adv-x="819" unicode="2"/><glyph d="M291 -22q-192 0 -278 74.5t-33 228.5h238q-8 -49 26 -67t96 -18q77 0 125 23t48 63q0 66 -132 66h-51l49 156h47q77 0 124.5 21t47.5 62q0 57 -107 57q-70 0 -110 -21.5t-58 -66.5h-235q17 82 59 142.5t102.5 95.5t131.5 51.5t154 16.5q152 0 236.5 -52t84.5 -140 q0 -76 -51 -136.5t-144 -91.5l-5 -16q49 -18 82 -60t33 -100q0 -73 -41 -129.5t-110 -90.5t-153 -51t-176 -17z" glyph-name="three" horiz-adv-x="858" unicode="3"/><glyph d="M898 840l-159 -488h127l-67 -210h-127l-46 -142h-285l49 142h-447l69 210l556 488h330zM273 352h189l81 235z" glyph-name="four" horiz-adv-x="919" unicode="4"/><glyph d="M278 -22q-183 0 -263.5 80t-32.5 221h238q-3 -47 27 -66t81 -19q85 0 132.5 37t47.5 86q0 79 -111 79q-101 0 -160 -56h-236l166 500h676l-68 -209h-441l-39 -110q2 1 25 9t35 11t36.5 8.5t51.5 8t58 2.5q116 0 187 -55.5t71 -159.5q0 -163 -131 -265t-350 -102z" glyph-name="five" horiz-adv-x="826" unicode="5"/><glyph d="M862 579h-219q8 39 -21 60t-79 21q-175 0 -233 -172q80 44 211 44q276 0 276 -205q0 -108 -61.5 -188.5t-164 -120.5t-231.5 -40q-162 0 -242 82t-80 218q0 89 22.5 173t69.5 159t114 131t161.5 88.5t206.5 32.5q160 0 239.5 -80t30.5 -203zM542 301q0 34 -28.5 51.5 t-75.5 17.5q-75 0 -120 -37t-45 -88q0 -31 26.5 -50t77.5 -19q71 0 118 36.5t47 88.5z" glyph-name="six" horiz-adv-x="875" unicode="6"/><glyph d="M163 840h730l-72 -217l-599 -623h-297l608 623h-442z" glyph-name="seven" horiz-adv-x="775" unicode="7"/><glyph d="M318 -22q-181 0 -266.5 62t-85.5 161q0 86 57 153.5t164 104.5l6 13q-52 46 -52 124q0 118 106.5 192t284.5 74q150 0 225 -51t75 -138q0 -69 -42 -119t-108 -80l-5 -13q46 -30 73.5 -78t27.5 -107q0 -141 -130.5 -219.5t-329.5 -78.5zM459 532q53 0 87.5 22t34.5 60 q0 62 -84 62q-52 0 -86 -23.5t-34 -59.5q0 -61 82 -61zM346 182q76 0 121.5 31t45.5 78q0 41 -33 59t-79 18q-77 0 -121.5 -31.5t-44.5 -79.5q0 -75 111 -75z" glyph-name="eight" horiz-adv-x="858" unicode="8"/><glyph d="M535 862q162 0 242 -82t80 -218q0 -89 -22.5 -173t-69.5 -159t-114 -131t-161.5 -88.5t-206.5 -32.5q-160 0 -239.5 80t-30.5 203h219q-8 -39 21 -60t79 -21q175 0 233 172q-80 -44 -211 -44q-276 0 -276 205q0 108 61.5 188.5t164 120.5t231.5 40zM333 539 q0 -34 28.5 -51.5t75.5 -17.5q75 0 120 37t45 88q0 31 -26.5 50t-77.5 19q-71 0 -118 -36.5t-47 -88.5z" glyph-name="nine" horiz-adv-x="875" unicode="9"/><glyph d="M221 492q-52 0 -84 32.5t-32 83.5q0 66 47 111t111 45q52 0 84 -32.5t32 -83.5q0 -66 -47 -111t-111 -45zM83 66q-52 0 -84 32.5t-32 83.5q0 66 47 111t111 45q52 0 84 -32.5t32 -83.5q0 -66 -47 -111t-111 -45z" glyph-name="colon" horiz-adv-x="344" unicode=":"/><glyph d="M263 764q52 0 84 -32.5t32 -83.5q0 -66 -47 -111t-111 -45q-52 0 -84 32.5t-32 83.5q0 66 47 111t111 45zM332 321v1l1 2zM-70 90l74 231h328q-112 -332 -229 -471h-149q59 131 88 240h-112z" glyph-name="semicolon" horiz-adv-x="395" unicode=";"/><glyph d="M547 68l-541 203l91 294l676 207l-74 -234l-423 -104l-8 -26l353 -104z" glyph-name="less" horiz-adv-x="712" unicode="&lt;"/><glyph d="M58 447l76 231h628l-76 -231h-628zM-34 163l76 231h628l-76 -231h-628z" glyph-name="equal" horiz-adv-x="728" unicode="="/><glyph d="M164 772l541 -203l-91 -294l-676 -207l74 234l423 104l8 26l-353 104z" glyph-name="greater" horiz-adv-x="711" unicode=">"/><glyph d="M245 308q12 64 53 109t89.5 66.5t95.5 37t78.5 32.5t31.5 42q0 21 -30 35t-80 14q-133 0 -179 -109h-249q23 117 93.5 192t165.5 105t219 30q158 0 255 -54.5t97 -158.5q0 -55 -25.5 -99.5t-63.5 -71.5t-84 -51t-86 -39.5t-70 -36.5t-36 -43h-275zM315 -16 q-52 0 -84 32.5t-32 83.5q0 66 47 111t111 45q52 0 84 -32.5t32 -83.5q0 -66 -47 -111t-111 -45z" glyph-name="question" horiz-adv-x="836" unicode="?"/><glyph d="M857 199q-81 -107 -201.5 -167t-268.5 -60q-175 0 -276 90.5t-101 246.5q0 108 46.5 209.5t125.5 178.5t191.5 124t237.5 47q173 0 276 -88.5t103 -231.5q0 -107 -58.5 -184.5t-165.5 -77.5q-58 0 -76 23.5t1 84.5l101 248h-85l-33 -44h-12q-36 58 -126 58 q-126 0 -216.5 -100t-90.5 -218q0 -78 43 -120t117 -42q57 0 106.5 21.5t80.5 57.5h12q9 -36 44.5 -57.5t92.5 -21.5q73 0 123 30zM513 548q74 0 76 -80q0 -65 -48.5 -124.5t-112.5 -59.5q-74 0 -76 81q0 66 49 124.5t112 58.5z" glyph-name="at" horiz-adv-x="986" unicode="@"/><glyph d="M593 0l-2 111h-354l-73 -111h-295l571 840h390l38 -840h-275zM372 316h217l-4 264h-40z" glyph-name="A" unicode="A"/><glyph d="M915 664q0 -67 -42.5 -123.5t-126.5 -85.5l-7 -16q31 -17 50.5 -32.5t36.5 -50.5t17 -83q0 -95 -59.5 -157.5t-155 -89t-225.5 -26.5h-504l271 840h478q267 0 267 -176zM533 502q50 0 79.5 22.5t29.5 52.5q0 50 -71 50h-191l-41 -125h194zM465 213q50 0 82 22.5t32 60.5 q0 21 -16 38t-58 17h-215l-45 -138h220z" glyph-name="B" horiz-adv-x="920" unicode="B"/><glyph d="M399 -28q-183 0 -284.5 93t-101.5 257q0 107 45.5 206.5t123.5 174.5t191.5 120t242.5 45q193 0 299 -108.5t68 -263.5h-266q-2 64 -44.5 98.5t-109.5 34.5q-118 0 -196 -81.5t-78 -186.5q0 -72 45.5 -111t117.5 -39q145 0 222 129h267q-29 -85 -78.5 -151.5t-104 -106.5 t-120 -65.5t-123 -35t-116.5 -9.5z" glyph-name="C" horiz-adv-x="988" unicode="C"/><glyph d="M-99 0l270 840h388q195 0 289 -83.5t94 -233.5q0 -162 -79.5 -282t-213.5 -180.5t-303 -60.5h-445zM252 232h143q113 0 190 72.5t77 179.5q0 67 -44 95.5t-134 28.5h-110z" glyph-name="D" horiz-adv-x="957" unicode="D"/><glyph d="M859 619h-483l-35 -108h480l-58 -177h-479l-37 -113h482l-72 -221h-758l271 840h761z" glyph-name="E" horiz-adv-x="828" unicode="E"/><glyph d="M850 609h-478l-38 -118h453l-71 -219h-454l-88 -272h-275l271 840h755z" glyph-name="F" horiz-adv-x="824" unicode="F"/><glyph d="M563 629q-118 0 -196 -81.5t-78 -186.5q0 -72 45.5 -111t117.5 -39q23 0 46 3.5t55.5 14t62 35.5t48.5 61h-202l46 140h474l-150 -465h-142l28 102q-56 -60 -141 -95t-187 -35q-178 0 -277.5 90t-99.5 254q0 109 45.5 209.5t123.5 176.5t191.5 121t242.5 45 q179 0 285 -95t90 -231h-278q-16 40 -56 63.5t-94 23.5z" glyph-name="G" horiz-adv-x="997" unicode="G"/><glyph d="M770 840h277l-270 -840h-277l95 294h-322l-95 -294h-277l270 840h277l-102 -316h322z" glyph-name="H" horiz-adv-x="948" unicode="H"/><glyph d="M-101 0l271 840h277l-271 -840h-277z" glyph-name="I" horiz-adv-x="346" unicode="I"/><glyph d="M291 -28q-406 0 -291 370h275q-42 -135 71 -135q108 0 152 133l161 500h277l-160 -498q-34 -107 -82 -180t-110.5 -114t-133 -58.5t-159.5 -17.5z" glyph-name="J" horiz-adv-x="835" unicode="J"/><glyph d="M1060 840l-452 -381l270 -459h-276l-189 321h-23l-149 -117l-66 -204h-276l274 840h276l-95 -291h34l355 291h317z" glyph-name="K" horiz-adv-x="984" unicode="K"/><glyph d="M-101 0l273 840h277l-199 -609h464l-74 -231h-741z" glyph-name="L" horiz-adv-x="810" unicode="L"/><glyph d="M-99 0l270 840h336l-19 -473h24l285 472h365l-269 -839h-266l120 371h-26l-216 -371h-205l11 371h-26l-120 -371h-264z" glyph-name="M" horiz-adv-x="1064" unicode="M"/><glyph d="M-101 0l274 840h307l137 -462h29l152 462h270l-273 -840h-300l-146 456h-29l-151 -456h-270z" glyph-name="N" horiz-adv-x="967" unicode="N"/><glyph d="M399 -28q-183 0 -285 92t-102 254q0 144 77 270t214.5 203t303.5 77q183 0 285 -92t102 -254q0 -144 -77 -270t-214.5 -203t-303.5 -77zM444 211q117 0 194.5 83.5t79.5 183.5q0 73 -44.5 112t-111.5 39q-117 0 -194.5 -83.5t-79.5 -183.5q0 -73 44.5 -112t111.5 -39z " glyph-name="O" horiz-adv-x="1006" unicode="O"/><glyph d="M598 840q159 0 239.5 -60.5t80.5 -193.5q0 -192 -127 -302t-322 -110h-236l-57 -174h-277l274 840h425zM480 402q67 0 110.5 36.5t43.5 96.5q0 75 -95 75h-163l-69 -209z" glyph-name="P" horiz-adv-x="914" unicode="P"/><glyph d="M994 522q0 -108 -45.5 -208.5t-126.5 -177.5l66 -96q-90 -83 -204 -157l-91 119q-95 -30 -194 -30q-183 0 -285 92t-102 254q0 144 77 270t214.5 203t303.5 77q183 0 285 -92t102 -254zM288 362q0 -73 44.5 -112t111.5 -39q117 0 194.5 83.5t79.5 183.5q0 73 -44.5 112 t-111.5 39q-117 0 -194.5 -83.5t-79.5 -183.5z" glyph-name="Q" horiz-adv-x="1014" unicode="Q"/><glyph d="M925 595q0 -108 -56.5 -192t-148.5 -133l62 -270h-266l-47 216h-222l-69 -216h-277l270 840h438q316 0 316 -245zM374 610l-61 -191l192 1q51 0 94.5 31t43.5 85q0 41 -23.5 57.5t-73.5 16.5h-172z" glyph-name="R" horiz-adv-x="923" unicode="R"/><glyph d="M326 -28q-82 0 -145.5 10t-114 32t-76 57.5t-31.5 87t20 119.5h235q-10 -48 33 -71t118 -23q80 0 132.5 20t52.5 61q0 51 -97 65l-67 11q-29 4 -44 6.5t-51 10.5t-58 17t-52.5 26t-48 37t-30.5 50.5t-13 66.5q0 147 126.5 230t332.5 83q130 0 219.5 -35.5t121.5 -103 t-11 -165.5h-227q7 37 -27.5 64.5t-114.5 27.5q-71 0 -113.5 -22t-42.5 -59q0 -45 80 -59l49 -9q14 -3 49 -9t56 -10t55 -13t56 -18t47.5 -25.5t40.5 -35.5t25 -46t10 -60q0 -87 -39.5 -150t-110 -99t-156 -52.5t-189.5 -16.5z" glyph-name="S" horiz-adv-x="894" unicode="S"/><glyph d="M1042 840l-75 -231h-296l-199 -609h-277l199 609h-303l74 231h877z" glyph-name="T" horiz-adv-x="936" unicode="T"/><glyph d="M365 -28q-232 0 -320.5 104t-23.5 302l152 462h281l-160 -483q-25 -74 2 -114.5t108 -40.5q83 0 133.5 44t81.5 139l148 455h281l-159 -488q-67 -206 -189.5 -293t-334.5 -87z" glyph-name="U" horiz-adv-x="947" unicode="U"/><glyph d="M179 0l-38 840h272l9 -580h32l375 580h302l-571 -840h-381z" glyph-name="V" horiz-adv-x="1000" unicode="V"/><glyph d="M42 0l109 840h277l-86 -544h25l293 544h219l-53 -544h25l263 544h287l-434 -840h-373l52 404h-24l-207 -404h-373z" glyph-name="W" horiz-adv-x="1285" unicode="W"/><glyph d="M-132 0l417 417l10 24l-154 399h278l88 -245h26l218 245h306l-403 -405l-10 -24l159 -411h-291l-82 236h-26l-225 -236h-311z" glyph-name="X" horiz-adv-x="944" unicode="X"/><glyph d="M1085 840l-527 -582l-83 -258h-277l87 273l-149 567h279l74 -309h22l269 309h305z" glyph-name="Y" horiz-adv-x="959" unicode="Y"/><glyph d="M-109 0l73 227l541 362l9 22h-418l76 229h788l-74 -227l-541 -362l-9 -22h418l-76 -229h-787z" glyph-name="Z" horiz-adv-x="849" unicode="Z"/><glyph d="M-145 -135l360 1110h488l-75 -231h-211l-210 -648h211l-75 -231h-488z" glyph-name="bracketleft" horiz-adv-x="558" unicode="["/><glyph d="M524 0l-388 840h316l388 -840h-316z" glyph-name="backslash" horiz-adv-x="976" unicode="\"/><glyph d="M703 975l-360 -1110h-488l75 231h211l210 648h-211l75 231h488z" glyph-name="bracketright" horiz-adv-x="558" unicode="]"/><glyph d="M-1 266l372 608h314l8 -608h-223l24 402h-30l-236 -402h-229z" glyph-name="asciicircum" horiz-adv-x="794" unicode="^"/><glyph d="M-162 -231l76 231h620l-76 -231h-620z" glyph-name="underscore" horiz-adv-x="720" unicode="_"/><glyph d="M495 680h-252l-103 175h252z" glyph-name="grave" horiz-adv-x="411" unicode="`"/><glyph d="M593 0l-2 111h-354l-73 -111h-295l571 840h390l38 -840h-275zM372 316h217l-4 264h-40z" glyph-name="a" unicode="a"/><glyph d="M915 664q0 -67 -42.5 -123.5t-126.5 -85.5l-7 -16q31 -17 50.5 -32.5t36.5 -50.5t17 -83q0 -95 -59.5 -157.5t-155 -89t-225.5 -26.5h-504l271 840h478q267 0 267 -176zM533 502q50 0 79.5 22.5t29.5 52.5q0 50 -71 50h-191l-41 -125h194zM465 213q50 0 82 22.5t32 60.5 q0 21 -16 38t-58 17h-215l-45 -138h220z" glyph-name="b" horiz-adv-x="920" unicode="b"/><glyph d="M399 -28q-183 0 -284.5 93t-101.5 257q0 107 45.5 206.5t123.5 174.5t191.5 120t242.5 45q193 0 299 -108.5t68 -263.5h-266q-2 64 -44.5 98.5t-109.5 34.5q-118 0 -196 -81.5t-78 -186.5q0 -72 45.5 -111t117.5 -39q145 0 222 129h267q-29 -85 -78.5 -151.5t-104 -106.5 t-120 -65.5t-123 -35t-116.5 -9.5z" glyph-name="c" horiz-adv-x="988" unicode="c"/><glyph d="M-99 0l270 840h388q195 0 289 -83.5t94 -233.5q0 -162 -79.5 -282t-213.5 -180.5t-303 -60.5h-445zM252 232h143q113 0 190 72.5t77 179.5q0 67 -44 95.5t-134 28.5h-110z" glyph-name="d" horiz-adv-x="957" unicode="d"/><glyph d="M859 619h-483l-35 -108h480l-58 -177h-479l-37 -113h482l-72 -221h-758l271 840h761z" glyph-name="e" horiz-adv-x="828" unicode="e"/><glyph d="M850 609h-478l-38 -118h453l-71 -219h-454l-88 -272h-275l271 840h755z" glyph-name="f" horiz-adv-x="824" unicode="f"/><glyph d="M563 629q-118 0 -196 -81.5t-78 -186.5q0 -72 45.5 -111t117.5 -39q23 0 46 3.5t55.5 14t62 35.5t48.5 61h-202l46 140h474l-150 -465h-142l28 102q-56 -60 -141 -95t-187 -35q-178 0 -277.5 90t-99.5 254q0 109 45.5 209.5t123.5 176.5t191.5 121t242.5 45 q179 0 285 -95t90 -231h-278q-16 40 -56 63.5t-94 23.5z" glyph-name="g" horiz-adv-x="997" unicode="g"/><glyph d="M770 840h277l-270 -840h-277l95 294h-322l-95 -294h-277l270 840h277l-102 -316h322z" glyph-name="h" horiz-adv-x="948" unicode="h"/><glyph d="M-101 0l271 840h277l-271 -840h-277z" glyph-name="i" horiz-adv-x="346" unicode="i"/><glyph d="M291 -28q-406 0 -291 370h275q-42 -135 71 -135q108 0 152 133l161 500h277l-160 -498q-34 -107 -82 -180t-110.5 -114t-133 -58.5t-159.5 -17.5z" glyph-name="j" horiz-adv-x="835" unicode="j"/><glyph d="M1060 840l-452 -381l270 -459h-276l-189 321h-23l-149 -117l-66 -204h-276l274 840h276l-95 -291h34l355 291h317z" glyph-name="k" horiz-adv-x="984" unicode="k"/><glyph d="M-101 0l273 840h277l-199 -609h464l-74 -231h-741z" glyph-name="l" horiz-adv-x="810" unicode="l"/><glyph d="M-99 0l270 840h336l-19 -473h24l285 472h365l-269 -839h-266l120 371h-26l-216 -371h-205l11 371h-26l-120 -371h-264z" glyph-name="m" horiz-adv-x="1064" unicode="m"/><glyph d="M-101 0l274 840h307l137 -462h29l152 462h270l-273 -840h-300l-146 456h-29l-151 -456h-270z" glyph-name="n" horiz-adv-x="967" unicode="n"/><glyph d="M399 -28q-183 0 -285 92t-102 254q0 144 77 270t214.5 203t303.5 77q183 0 285 -92t102 -254q0 -144 -77 -270t-214.5 -203t-303.5 -77zM444 211q117 0 194.5 83.5t79.5 183.5q0 73 -44.5 112t-111.5 39q-117 0 -194.5 -83.5t-79.5 -183.5q0 -73 44.5 -112t111.5 -39z " glyph-name="o" horiz-adv-x="1006" unicode="o"/><glyph d="M598 840q159 0 239.5 -60.5t80.5 -193.5q0 -192 -127 -302t-322 -110h-236l-57 -174h-277l274 840h425zM480 402q67 0 110.5 36.5t43.5 96.5q0 75 -95 75h-163l-69 -209z" glyph-name="p" horiz-adv-x="914" unicode="p"/><glyph d="M994 522q0 -108 -45.5 -208.5t-126.5 -177.5l66 -96q-90 -83 -204 -157l-91 119q-95 -30 -194 -30q-183 0 -285 92t-102 254q0 144 77 270t214.5 203t303.5 77q183 0 285 -92t102 -254zM288 362q0 -73 44.5 -112t111.5 -39q117 0 194.5 83.5t79.5 183.5q0 73 -44.5 112 t-111.5 39q-117 0 -194.5 -83.5t-79.5 -183.5z" glyph-name="q" horiz-adv-x="1014" unicode="q"/><glyph d="M925 595q0 -108 -56.5 -192t-148.5 -133l62 -270h-266l-47 216h-222l-69 -216h-277l270 840h438q316 0 316 -245zM374 610l-61 -191l192 1q51 0 94.5 31t43.5 85q0 41 -23.5 57.5t-73.5 16.5h-172z" glyph-name="r" horiz-adv-x="923" unicode="r"/><glyph d="M326 -28q-82 0 -145.5 10t-114 32t-76 57.5t-31.5 87t20 119.5h235q-10 -48 33 -71t118 -23q80 0 132.5 20t52.5 61q0 51 -97 65l-67 11q-29 4 -44 6.5t-51 10.5t-58 17t-52.5 26t-48 37t-30.5 50.5t-13 66.5q0 147 126.5 230t332.5 83q130 0 219.5 -35.5t121.5 -103 t-11 -165.5h-227q7 37 -27.5 64.5t-114.5 27.5q-71 0 -113.5 -22t-42.5 -59q0 -45 80 -59l49 -9q14 -3 49 -9t56 -10t55 -13t56 -18t47.5 -25.5t40.5 -35.5t25 -46t10 -60q0 -87 -39.5 -150t-110 -99t-156 -52.5t-189.5 -16.5z" glyph-name="s" horiz-adv-x="894" unicode="s"/><glyph d="M1042 840l-75 -231h-296l-199 -609h-277l199 609h-303l74 231h877z" glyph-name="t" horiz-adv-x="936" unicode="t"/><glyph d="M365 -28q-232 0 -320.5 104t-23.5 302l152 462h281l-160 -483q-25 -74 2 -114.5t108 -40.5q83 0 133.5 44t81.5 139l148 455h281l-159 -488q-67 -206 -189.5 -293t-334.5 -87z" glyph-name="u" horiz-adv-x="947" unicode="u"/><glyph d="M179 0l-38 840h272l9 -580h32l375 580h302l-571 -840h-381z" glyph-name="v" horiz-adv-x="1000" unicode="v"/><glyph d="M42 0l109 840h277l-86 -544h25l293 544h219l-53 -544h25l263 544h287l-434 -840h-373l52 404h-24l-207 -404h-373z" glyph-name="w" horiz-adv-x="1285" unicode="w"/><glyph d="M-132 0l417 417l10 24l-154 399h278l88 -245h26l218 245h306l-403 -405l-10 -24l159 -411h-291l-82 236h-26l-225 -236h-311z" glyph-name="x" horiz-adv-x="944" unicode="x"/><glyph d="M1085 840l-527 -582l-83 -258h-277l87 273l-149 567h279l74 -309h22l269 309h305z" glyph-name="y" horiz-adv-x="959" unicode="y"/><glyph d="M-109 0l73 227l541 362l9 22h-418l76 229h788l-74 -227l-541 -362l-9 -22h418l-76 -229h-787z" glyph-name="z" horiz-adv-x="849" unicode="z"/><glyph d="M147 -135q-24 0 -46.5 6.5t-44.5 24.5t-25.5 49.5t10.5 81.5l81 240l-74 143l2 24l164 139l91 268q12 38 30.5 65t35 40t40.5 20t38 8t36 1h358l-75 -231h-165q-19 0 -41 -15t-28 -33l-36 -125l-167 -146l-4 -24l65 -132l-46 -153q-2 -6 -2.5 -10t-0.5 -6.5t3.5 -3t5 -1 t8.5 0t11 0.5h187l-75 -231h-336z" glyph-name="braceleft" horiz-adv-x="708" unicode="{"/><glyph d="M-134 -100l338 1040h277l-338 -1040h-277z" glyph-name="bar" horiz-adv-x="347" unicode="|"/><glyph d="M560 975q24 0 46.5 -6.5t44.5 -24.5t25.5 -49.5t-10.5 -81.5l-81 -240l74 -143l-2 -24l-164 -139l-91 -268q-12 -38 -30.5 -65t-35 -40t-40.5 -20t-38 -8t-36 -1h-358l75 231h165q19 0 41 15t28 33l36 125l167 146l4 24l-65 132l46 153q2 6 2.5 10t0.5 6.5t-3.5 3t-5 1 t-8.5 0t-11 -0.5h-187l75 231h336z" glyph-name="braceright" horiz-adv-x="707" unicode="}"/><glyph d="M432 309q-53 1 -118.5 37t-103.5 36q-70 0 -96 -60h-94q21 107 99.5 163t170.5 56q52 0 117 -36t103 -37q72 3 98 60h94q-21 -106 -100 -161.5t-170 -57.5z" glyph-name="asciitilde" horiz-adv-x="718" unicode="~"/><glyph d="M222 640q52 0 84 -32.5t32 -83.5q0 -66 -47 -111t-111 -45q-52 0 -84 32.5t-32 83.5q0 66 47 111t111 45zM235 306l-124 -522h-286l238 522h172z" glyph-name="exclamdown" horiz-adv-x="348" unicode="¡"/><glyph d="M655 489q-1 51 -33 83l-264 -334q27 -8 56 -8q132 0 202 117h242q-26 -77 -71 -137.5t-94.5 -96.5t-109 -59.5t-112 -32t-105.5 -8.5q-94 0 -163 27l-32 -40h-90l57 73q-123 83 -123 258q0 97 41 187.5t112.5 158.5t174.5 109t220 41q81 0 151 -24l29 37h90l-53 -68 q75 -46 106.5 -120.5t10.5 -162.5h-242zM266 366q0 -56 32 -91l260 330q-22 5 -43 5q-108 0 -178.5 -74.5t-70.5 -169.5z" glyph-name="cent" horiz-adv-x="903" unicode="¢"/><glyph d="M819 530h-259q21 55 -5 80t-77 25q-66 0 -102.5 -30.5t-36.5 -80.5q0 -19 8 -47.5t10 -42.5h305l-38 -115h-283q-31 -63 -96 -101v-8h475l-68 -210h-768l68 210q48 14 91 43t61 66h-112l38 115h70q-21 69 -21 122q0 92 59.5 162.5t159.5 107t222 36.5q120 0 201.5 -36.5 t112.5 -110.5t-15 -185z" glyph-name="sterling" horiz-adv-x="806" unicode="£"/><glyph d="M726 571q0 -46 -16 -92l56 -57l-123 -122l-43 43q-66 -41 -143 -41q-78 0 -142 39l-42 -41l-123 122l53 53q-17 46 -17 96q0 54 20 102l-56 57l123 122l48 -48q63 36 136 36q75 0 137 -37l49 49l123 -122l-58 -60q18 -51 18 -99zM457 464q35 0 59.5 13.5t34 34t13 34.5 t3.5 25t-3.5 25.5t-13 35t-34 34.5t-59.5 14q-36 0 -60.5 -13.5t-34.5 -35t-13 -35.5t-3 -25q0 -12 3 -25.5t13 -34t34.5 -34t60.5 -13.5z" glyph-name="currency" horiz-adv-x="815" unicode="¤"/><glyph d="M1085 840l-437 -483h206l-37 -109h-262l-13 -40h264l-37 -110h-262l-32 -98h-277l31 98h-262l37 110h260l13 40h-262l37 109h211l-127 483h279l74 -309h22l269 309h305z" glyph-name="yen" horiz-adv-x="959" unicode="¥"/><glyph d="M47 457l157 483h277l-157 -483h-277zM-134 -100l157 483h277l-157 -483h-277z" glyph-name="brokenbar" horiz-adv-x="347" unicode="¦"/><glyph d="M936 683h-247q8 45 -23.5 69t-108.5 24q-129 0 -152 -66q-17 -51 60 -65l81 -15q19 -4 52.5 -9.5t56.5 -9.5t54 -11t52.5 -15t44.5 -21.5t36.5 -29.5t22.5 -39.5t9 -51.5q0 -164 -150 -249q39 -41 39 -104q0 -106 -77 -184.5t-195.5 -116t-257.5 -36.5q-211 1 -297 76 t-27 235h251q-14 -46 19 -70t120 -25q76 -1 122 18t55 50q7 24 -8 42.5t-69 26.5l-98 17q-132 23 -184 48q-101 48 -101 155q0 141 174 211q-60 48 -60 140q0 154 137.5 234.5t361.5 80.5q53 0 98.5 -6t89 -20t73 -37.5t49 -58t18 -80.5t-20.5 -107zM591 379q0 57 -80 70 l-95 16q-49 3 -88 -25.5t-39 -71.5q0 -52 71 -66l71 -14q64 -10 112 17t48 74z" glyph-name="section" horiz-adv-x="899" unicode="§"/><glyph d="M200 683q-36 0 -59.5 24t-23.5 58q0 43 35.5 76.5t78.5 33.5q36 0 59.5 -24t23.5 -58q0 -43 -35.5 -76.5t-78.5 -33.5zM510 683q-36 0 -59.5 24t-23.5 58q0 43 35.5 76.5t78.5 33.5q36 0 59.5 -24t23.5 -58q0 -43 -35.5 -76.5t-78.5 -33.5z" glyph-name="dieresis" horiz-adv-x="507" unicode="¨"/><glyph d="M297 319q-97 0 -155.5 57t-58.5 154q0 134 96.5 233t241.5 99q97 0 155.5 -57t58.5 -154q0 -134 -96.5 -233t-241.5 -99zM316 418q53 0 105.5 25.5t82.5 86.5h-90q-31 -40 -80 -40q-33 0 -50.5 20t-17.5 53q0 50 37 90t87 40q24 0 42 -11t21 -32h90q-1 57 -41 86.5 t-98 29.5q-97 0 -160 -67.5t-63 -151.5q0 -61 35 -95t100 -34z" glyph-name="copyright" horiz-adv-x="607" unicode="©"/><glyph d="M516 840h129l-140 -433h-121l-9 28q-53 -28 -104 -28q-75 0 -121 47t-46 123q0 112 78.5 190.5t184.5 78.5q73 0 115 -49zM267 616q0 -51 55 -51q33 0 54 22t21 51q0 28 -16.5 40t-37.5 12q-32 0 -54 -23t-22 -51z" glyph-name="ordfeminine" horiz-adv-x="549" unicode="ª"/><glyph d="M647 720l-291 -299l109 -301h-299l-106 301l293 299h294zM1012 720l-291 -299l109 -301h-299l-106 301l293 299h294z" glyph-name="guillemotleft" horiz-adv-x="986" unicode="«"/><glyph d="M455 274l34 104h-452l60 188h682l-94 -292h-230z" glyph-name="logicalnot" horiz-adv-x="782" unicode="¬"/><glyph d="M0 300l77 231h580l-77 -231h-580z" glyph-name="uni00AD" horiz-adv-x="660" unicode="­"/><glyph d="M297 319q-97 0 -155.5 57t-58.5 154q0 134 96.5 233t241.5 99q97 0 155.5 -57t58.5 -154q0 -134 -96.5 -233t-241.5 -99zM183 433h79l30 96h75l26 -96h82l-33 111q84 38 84 113q0 39 -27.5 64t-89.5 25h-125zM313 594l27 84h63q22 0 32.5 -10.5t10.5 -25.5 q0 -21 -17.5 -34.5t-42.5 -13.5h-73z" glyph-name="registered" horiz-adv-x="607" unicode="®"/><glyph d="M86 684l66 201h460l-66 -201h-460z" glyph-name="macron" horiz-adv-x="462" unicode="¯"/><glyph d="M291 390q-84 0 -132.5 47t-48.5 126q0 116 84.5 199.5t203.5 83.5q84 0 132.5 -47.5t48.5 -126.5q0 -115 -84.5 -198.5t-203.5 -83.5zM327 562q30 0 51.5 23t21.5 48q0 41 -40 41q-31 0 -52 -23t-21 -49q0 -40 40 -40z" glyph-name="degree" horiz-adv-x="562" unicode="°"/><glyph d="M607 735h214l-72 -223h-215l-69 -212h-243l69 212h-210l72 223h211l70 213h243zM-48 0l76 231h628l-76 -231h-628z" glyph-name="plusminus" horiz-adv-x="767" unicode="±"/><glyph d="M84 680l103 175h252l-103 -175h-252z" glyph-name="acute" horiz-adv-x="299" unicode="´"/><glyph d="M600 680h277l-220 -680h-272l24 89h-23q-89 -103 -216 -105l-43 -134h-277l269 830h277l-125 -387q-9 -34 -8.5 -54.5t12.5 -31t22 -13.5t21 -3q54 0 99.5 36.5t60.5 75.5z" glyph-name="uni00B5" horiz-adv-x="828" unicode="µ"/><glyph d="M437 0l62 192h-136q-316 0 -316 241q0 190 140.5 298.5t364.5 108.5h434l-272 -840h-277zM835 0l272 840h277l-272 -840h-277z" glyph-name="paragraph" horiz-adv-x="1283" unicode="¶"/><glyph d="M197 284q-52 0 -84 32.5t-32 83.5q0 66 47 111t111 45q52 0 84 -32.5t32 -83.5q0 -66 -47 -111t-111 -45z" glyph-name="periodcentered" horiz-adv-x="436" unicode="·"/><glyph d="M-1 -35q34 -8 55.5 -34.5t21.5 -70.5q0 -60 -42 -97.5t-107 -42.5t-144 16l30 98q38 -13 81.5 -7.5t43.5 28.5q0 9 -13 15.5t-38.5 8t-63.5 -6.5l17 56l104 72h114z" glyph-name="cedilla" horiz-adv-x="265" unicode="¸"/><glyph d="M277 409q-77 0 -125.5 48.5t-48.5 123.5q0 106 79.5 185.5t190.5 79.5q78 0 125.5 -48t47.5 -124q0 -107 -80 -186t-189 -79zM313 565q32 0 53 22.5t21 51.5q0 25 -15 38t-36 13q-32 0 -53 -23.5t-21 -52.5q0 -49 51 -49z" glyph-name="ordmasculine" horiz-adv-x="514" unicode="º"/><glyph d="M-26 120l291 299l-109 301h299l106 -301l-293 -299h-294zM339 120l291 299l-109 301h299l106 -301l-293 -299h-294z" glyph-name="guillemotright" horiz-adv-x="986" unicode="»"/><glyph d="M423 640q52 0 84 -32.5t32 -83.5q0 -66 -47 -111t-111 -45q-52 0 -84 32.5t-32 83.5q0 66 47 111t111 45zM493 316q-12 -64 -53 -109t-89.5 -66.5t-95.5 -37t-78.5 -32.5t-31.5 -42q0 -21 30 -35t80 -14q133 0 179 109h249q-23 -117 -93.5 -192t-165.5 -105t-219 -30 q-158 0 -255 54.5t-97 158.5q0 55 25.5 99.5t63.5 71.5t84 51t86 39.5t70 36.5t36 43h275z" glyph-name="questiondown" horiz-adv-x="818" unicode="¿"/><glyph d="M781 890h-252l-103 175h252zM593 0l-2 111h-354l-73 -111h-295l571 840h390l38 -840h-275zM372 316h217l-4 264h-40z" glyph-name="Agrave" unicode="À"/><glyph d="M881 1065l-103 -175h-252l103 175h252zM440 840h390l38 -840h-275l-2 111h-354l-73 -111h-295zM372 316h217l-4 264h-40z" glyph-name="Aacute" unicode="Á"/><glyph d="M651 965l-64 -75h-248l175 175h352l77 -175h-228l-28 75h-36zM440 840h390l38 -840h-275l-2 111h-354l-73 -111h-295zM372 316h217l-4 264h-40z" glyph-name="Acircumflex" unicode="Â"/><glyph d="M913 1025q13 -84 -32 -126.5t-113 -42.5q-49 0 -113 29t-93 29q-25 0 -42.5 -11t-19.5 -31h-75q-13 83 32.5 126t112.5 43q48 0 112.5 -29t93.5 -29q25 0 42.5 11t19.5 31h75zM440 840h390l38 -840h-275l-2 111h-354l-73 -111h-295zM372 316h217l-4 264h-40z" glyph-name="Atilde" unicode="Ã"/><glyph d="M503 893q-36 0 -59.5 24t-23.5 58q0 43 35.5 76.5t78.5 33.5q36 0 59.5 -24t23.5 -58q0 -43 -35.5 -76.5t-78.5 -33.5zM844 1085q36 0 59.5 -24t23.5 -58q0 -43 -35.5 -76.5t-78.5 -33.5q-36 0 -59.5 24t-23.5 58q0 43 35.5 76.5t78.5 33.5zM440 840h390l38 -840h-275 l-2 111h-354l-73 -111h-295zM372 316h217l-4 264h-40z" glyph-name="Adieresis" unicode="Ä"/><glyph d="M593 0l-2 111h-354l-73 -111h-295l571 840h137q-57 32 -57 103q0 72 50 119t116 47q53 0 85 -32.5t32 -83.5q0 -50 -26.5 -91.5t-70.5 -61.5h124l38 -840h-275zM669 997q-15 0 -25 -11t-10 -26q0 -8 6 -14.5t17 -6.5q15 0 25 11t10 26q0 8 -6 14.5t-17 6.5zM372 316h217 l-4 264h-40z" glyph-name="Aring" unicode="Å"/><glyph d="M1466 619h-483l-35 -108h480l-58 -177h-479l-37 -113h482l-72 -221h-758l43 133h-287l-100 -133h-293l664 840h1005zM415 336h199l88 273h-81z" glyph-name="AE" horiz-adv-x="1435" unicode="Æ"/><glyph d="M563 629q-118 0 -196 -81.5t-78 -186.5q0 -72 45.5 -111t117.5 -39q145 0 222 129h267q-29 -85 -78.5 -151.5t-104 -106.5t-120 -65.5t-123 -35t-116.5 -9.5h-16l-12 -7q34 -8 55.5 -34.5t21.5 -70.5q0 -60 -42 -97.5t-107 -42.5t-144 16l30 98q38 -13 81.5 -7.5 t43.5 28.5q0 9 -13 15.5t-38.5 8t-63.5 -6.5l17 56l78 54q-133 25 -205 114t-72 226q0 107 45.5 206.5t123.5 174.5t191.5 120t242.5 45q193 0 299 -108.5t68 -263.5h-266q-2 64 -44.5 98.5t-109.5 34.5z" glyph-name="Ccedilla" horiz-adv-x="988" unicode="Ç"/><glyph d="M684 890h-252l-103 175h252zM859 619h-483l-35 -108h480l-58 -177h-479l-37 -113h482l-72 -221h-758l271 840h761z" glyph-name="Egrave" horiz-adv-x="828" unicode="È"/><glyph d="M784 1065l-103 -175h-252l103 175h252zM859 619h-483l-35 -108h480l-58 -177h-479l-37 -113h482l-72 -221h-758l271 840h761z" glyph-name="Eacute" horiz-adv-x="828" unicode="É"/><glyph d="M554 965l-64 -75h-248l175 175h352l77 -175h-228l-28 75h-36zM859 619h-483l-35 -108h480l-58 -177h-479l-37 -113h482l-72 -221h-758l271 840h761z" glyph-name="Ecircumflex" horiz-adv-x="828" unicode="Ê"/><glyph d="M406 893q-36 0 -59.5 24t-23.5 58q0 43 35.5 76.5t78.5 33.5q36 0 59.5 -24t23.5 -58q0 -43 -35.5 -76.5t-78.5 -33.5zM716 893q-36 0 -59.5 24t-23.5 58q0 43 35.5 76.5t78.5 33.5q36 0 59.5 -24t23.5 -58q0 -43 -35.5 -76.5t-78.5 -33.5zM859 619h-483l-35 -108h480 l-58 -177h-479l-37 -113h482l-72 -221h-758l271 840h761z" glyph-name="Edieresis" horiz-adv-x="828" unicode="Ë"/><glyph d="M440 890h-252l-103 175h252zM-101 0l271 840h277l-271 -840h-277z" glyph-name="Igrave" horiz-adv-x="346" unicode="Ì"/><glyph d="M185 890l103 175h252l-103 -175h-252zM-101 0l271 840h277l-271 -840h-277z" glyph-name="Iacute" horiz-adv-x="346" unicode="Í"/><glyph d="M-2 890l175 175h352l77 -175h-228l-28 75h-36l-64 -75h-248zM-101 0l271 840h277l-271 -840h-277z" glyph-name="Icircumflex" horiz-adv-x="346" unicode="Î"/><glyph d="M162 893q-36 0 -59.5 24t-23.5 58q0 43 35.5 76.5t78.5 33.5q36 0 59.5 -24t23.5 -58q0 -43 -35.5 -76.5t-78.5 -33.5zM472 893q-36 0 -59.5 24t-23.5 58q0 43 35.5 76.5t78.5 33.5q36 0 59.5 -24t23.5 -58q0 -43 -35.5 -76.5t-78.5 -33.5zM-101 0l271 840h277l-271 -840 h-277z" glyph-name="Idieresis" horiz-adv-x="346" unicode="Ï"/><glyph d="M634 840q195 0 289 -83.5t94 -233.5q0 -162 -79.5 -282t-213.5 -180.5t-303 -60.5h-445l102 317h-101l66 201h100l103 322h388zM470 232q113 0 190 72.5t77 179.5q0 67 -44 95.5t-134 28.5h-110l-29 -90h133l-66 -201h-132l-28 -85h143z" glyph-name="Eth" horiz-adv-x="1032" unicode="Ð"/><glyph d="M741 856q-49 0 -113 29t-93 29q-57 0 -62 -42h-75q-13 83 32.5 126t112.5 43q48 0 112.5 -29t93.5 -29q57 0 62 42h75q13 -84 -32 -126.5t-113 -42.5zM-101 0l274 840h307l137 -462h29l152 462h270l-273 -840h-300l-146 456h-29l-151 -456h-270z" glyph-name="Ntilde" horiz-adv-x="967" unicode="Ñ"/><glyph d="M771 894h-252l-103 175h252zM399 -28q-183 0 -285 92t-102 254q0 144 77 270t214.5 203t303.5 77q183 0 285 -92t102 -254q0 -144 -77 -270t-214.5 -203t-303.5 -77zM444 211q117 0 194.5 83.5t79.5 183.5q0 73 -44.5 112t-111.5 39q-117 0 -194.5 -83.5t-79.5 -183.5 q0 -73 44.5 -112t111.5 -39z" glyph-name="Ograve" horiz-adv-x="1006" unicode="Ò"/><glyph d="M516 894l103 175h252l-103 -175h-252zM399 -28q-183 0 -285 92t-102 254q0 144 77 270t214.5 203t303.5 77q183 0 285 -92t102 -254q0 -144 -77 -270t-214.5 -203t-303.5 -77zM444 211q117 0 194.5 83.5t79.5 183.5q0 73 -44.5 112t-111.5 39q-117 0 -194.5 -83.5 t-79.5 -183.5q0 -73 44.5 -112t111.5 -39z" glyph-name="Oacute" horiz-adv-x="1006" unicode="Ó"/><glyph d="M329 894l175 175h352l77 -175h-228l-28 75h-36l-64 -75h-248zM399 -28q-183 0 -285 92t-102 254q0 144 77 270t214.5 203t303.5 77q183 0 285 -92t102 -254q0 -144 -77 -270t-214.5 -203t-303.5 -77zM444 211q117 0 194.5 83.5t79.5 183.5q0 73 -44.5 112t-111.5 39 q-117 0 -194.5 -83.5t-79.5 -183.5q0 -73 44.5 -112t111.5 -39z" glyph-name="Ocircumflex" horiz-adv-x="1006" unicode="Ô"/><glyph d="M758 860q-49 0 -113 29t-93 29q-25 0 -42.5 -11t-19.5 -31h-75q-13 83 32.5 126t112.5 43q48 0 112.5 -29t93.5 -29q25 0 42.5 11t19.5 31h75q13 -84 -32 -126.5t-113 -42.5zM399 -28q-183 0 -285 92t-102 254q0 144 77 270t214.5 203t303.5 77q183 0 285 -92t102 -254 q0 -144 -77 -270t-214.5 -203t-303.5 -77zM444 211q117 0 194.5 83.5t79.5 183.5q0 73 -44.5 112t-111.5 39q-117 0 -194.5 -83.5t-79.5 -183.5q0 -73 44.5 -112t111.5 -39z" glyph-name="Otilde" horiz-adv-x="1006" unicode="Õ"/><glyph d="M493 897q-36 0 -59.5 24t-23.5 58q0 43 35.5 76.5t78.5 33.5q36 0 59.5 -24t23.5 -58q0 -43 -35.5 -76.5t-78.5 -33.5zM803 897q-36 0 -59.5 24t-23.5 58q0 43 35.5 76.5t78.5 33.5q36 0 59.5 -24t23.5 -58q0 -43 -35.5 -76.5t-78.5 -33.5zM399 -28q-183 0 -285 92 t-102 254q0 144 77 270t214.5 203t303.5 77q183 0 285 -92t102 -254q0 -144 -77 -270t-214.5 -203t-303.5 -77zM444 211q117 0 194.5 83.5t79.5 183.5q0 73 -44.5 112t-111.5 39q-117 0 -194.5 -83.5t-79.5 -183.5q0 -73 44.5 -112t111.5 -39z" glyph-name="Odieresis" horiz-adv-x="1006" unicode="Ö"/><glyph d="M709 562l-203 -153l97 -143l-197 -147l-96 142l-199 -151l-109 161l200 151l-104 153l197 147l103 -152l203 153z" glyph-name="multiply" horiz-adv-x="713" unicode="×"/><glyph d="M875 790q119 -91 119 -268q0 -144 -77 -270t-214.5 -203t-303.5 -77q-72 0 -139 16l-30 -39h-167l74 96q-125 93 -125 273q0 144 77 270t214.5 203t303.5 77q81 0 146 -18l33 42h167zM288 362q0 -51 24 -88l272 354q-8 1 -22 1q-117 0 -194.5 -83.5t-79.5 -183.5z M444 211q117 0 194.5 83.5t79.5 183.5q0 47 -20 81l-267 -348h13z" glyph-name="Oslash" horiz-adv-x="1006" unicode="Ø"/><glyph d="M744 890h-252l-103 175h252zM365 -28q-232 0 -320.5 104t-23.5 302l152 462h281l-160 -483q-25 -74 2 -114.5t108 -40.5q83 0 133.5 44t81.5 139l148 455h281l-159 -488q-67 -206 -189.5 -293t-334.5 -87z" glyph-name="Ugrave" horiz-adv-x="947" unicode="Ù"/><glyph d="M489 890l103 175h252l-103 -175h-252zM365 -28q-232 0 -320.5 104t-23.5 302l152 462h281l-160 -483q-25 -74 2 -114.5t108 -40.5q83 0 133.5 44t81.5 139l148 455h281l-159 -488q-67 -206 -189.5 -293t-334.5 -87z" glyph-name="Uacute" horiz-adv-x="947" unicode="Ú"/><glyph d="M302 890l175 175h352l77 -175h-228l-28 75h-36l-64 -75h-248zM365 -28q-232 0 -320.5 104t-23.5 302l152 462h281l-160 -483q-25 -74 2 -114.5t108 -40.5q83 0 133.5 44t81.5 139l148 455h281l-159 -488q-67 -206 -189.5 -293t-334.5 -87z" glyph-name="Ucircumflex" horiz-adv-x="947" unicode="Û"/><glyph d="M466 893q-36 0 -59.5 24t-23.5 58q0 43 35.5 76.5t78.5 33.5q36 0 59.5 -24t23.5 -58q0 -43 -35.5 -76.5t-78.5 -33.5zM776 893q-36 0 -59.5 24t-23.5 58q0 43 35.5 76.5t78.5 33.5q36 0 59.5 -24t23.5 -58q0 -43 -35.5 -76.5t-78.5 -33.5zM365 -28q-232 0 -320.5 104 t-23.5 302l152 462h281l-160 -483q-25 -74 2 -114.5t108 -40.5q83 0 133.5 44t81.5 139l148 455h281l-159 -488q-67 -206 -189.5 -293t-334.5 -87z" glyph-name="Udieresis" horiz-adv-x="947" unicode="Ü"/><glyph d="M842 1065l-103 -175h-252l103 175h252zM1085 840l-527 -582l-83 -258h-277l87 273l-149 567h279l74 -309h22l269 309h305z" glyph-name="Yacute" horiz-adv-x="959" unicode="Ý"/><glyph d="M552 744q192 0 273.5 -89t25.5 -264q-97 -295 -484 -295h-158l-31 -96h-277l270 840h277l-31 -96h135zM586 449q13 36 -6 50.5t-71 14.5h-166l-60 -188h139q54 0 100 32t64 91z" glyph-name="Thorn" horiz-adv-x="878" unicode="Þ"/><glyph d="M-101 0l186 574q28 85 76.5 144t112.5 89t129 42.5t143 12.5q174 0 252.5 -57.5t78.5 -145.5q0 -66 -41 -118.5t-114 -80.5l-6 -20q96 -52 96 -168q0 -92 -60.5 -155t-157 -90t-222.5 -27h-141l67 209h116q64 0 104.5 23.5t40.5 67.5q0 54 -81 54h-132l50 153h90 q52 0 85.5 17.5t33.5 50.5q0 52 -97 52q-129 0 -160 -95l-172 -532h-277z" glyph-name="germandbls" horiz-adv-x="888" unicode="ß"/><glyph d="M781 890h-252l-103 175h252zM593 0l-2 111h-354l-73 -111h-295l571 840h390l38 -840h-275zM372 316h217l-4 264h-40z" glyph-name="agrave" unicode="à"/><glyph d="M881 1065l-103 -175h-252l103 175h252zM440 840h390l38 -840h-275l-2 111h-354l-73 -111h-295zM372 316h217l-4 264h-40z" glyph-name="aacute" unicode="á"/><glyph d="M651 965l-64 -75h-248l175 175h352l77 -175h-228l-28 75h-36zM440 840h390l38 -840h-275l-2 111h-354l-73 -111h-295zM372 316h217l-4 264h-40z" glyph-name="acircumflex" unicode="â"/><glyph d="M913 1025q13 -84 -32 -126.5t-113 -42.5q-49 0 -113 29t-93 29q-25 0 -42.5 -11t-19.5 -31h-75q-13 83 32.5 126t112.5 43q48 0 112.5 -29t93.5 -29q25 0 42.5 11t19.5 31h75zM440 840h390l38 -840h-275l-2 111h-354l-73 -111h-295zM372 316h217l-4 264h-40z" glyph-name="atilde" unicode="ã"/><glyph d="M503 893q-36 0 -59.5 24t-23.5 58q0 43 35.5 76.5t78.5 33.5q36 0 59.5 -24t23.5 -58q0 -43 -35.5 -76.5t-78.5 -33.5zM844 1085q36 0 59.5 -24t23.5 -58q0 -43 -35.5 -76.5t-78.5 -33.5q-36 0 -59.5 24t-23.5 58q0 43 35.5 76.5t78.5 33.5zM440 840h390l38 -840h-275 l-2 111h-354l-73 -111h-295zM372 316h217l-4 264h-40z" glyph-name="adieresis" unicode="ä"/><glyph d="M593 0l-2 111h-354l-73 -111h-295l571 840h137q-57 32 -57 103q0 72 50 119t116 47q53 0 85 -32.5t32 -83.5q0 -50 -26.5 -91.5t-70.5 -61.5h124l38 -840h-275zM669 997q-15 0 -25 -11t-10 -26q0 -8 6 -14.5t17 -6.5q15 0 25 11t10 26q0 8 -6 14.5t-17 6.5zM372 316h217 l-4 264h-40z" glyph-name="aring" unicode="å"/><glyph d="M1466 619h-483l-35 -108h480l-58 -177h-479l-37 -113h482l-72 -221h-758l43 133h-287l-100 -133h-293l664 840h1005zM415 336h199l88 273h-81z" glyph-name="ae" horiz-adv-x="1435" unicode="æ"/><glyph d="M563 629q-118 0 -196 -81.5t-78 -186.5q0 -72 45.5 -111t117.5 -39q145 0 222 129h267q-29 -85 -78.5 -151.5t-104 -106.5t-120 -65.5t-123 -35t-116.5 -9.5h-16l-12 -7q34 -8 55.5 -34.5t21.5 -70.5q0 -60 -42 -97.5t-107 -42.5t-144 16l30 98q38 -13 81.5 -7.5 t43.5 28.5q0 9 -13 15.5t-38.5 8t-63.5 -6.5l17 56l78 54q-133 25 -205 114t-72 226q0 107 45.5 206.5t123.5 174.5t191.5 120t242.5 45q193 0 299 -108.5t68 -263.5h-266q-2 64 -44.5 98.5t-109.5 34.5z" glyph-name="ccedilla" horiz-adv-x="988" unicode="ç"/><glyph d="M684 890h-252l-103 175h252zM859 619h-483l-35 -108h480l-58 -177h-479l-37 -113h482l-72 -221h-758l271 840h761z" glyph-name="egrave" horiz-adv-x="828" unicode="è"/><glyph d="M784 1065l-103 -175h-252l103 175h252zM859 619h-483l-35 -108h480l-58 -177h-479l-37 -113h482l-72 -221h-758l271 840h761z" glyph-name="eacute" horiz-adv-x="828" unicode="é"/><glyph d="M554 965l-64 -75h-248l175 175h352l77 -175h-228l-28 75h-36zM859 619h-483l-35 -108h480l-58 -177h-479l-37 -113h482l-72 -221h-758l271 840h761z" glyph-name="ecircumflex" horiz-adv-x="828" unicode="ê"/><glyph d="M406 893q-36 0 -59.5 24t-23.5 58q0 43 35.5 76.5t78.5 33.5q36 0 59.5 -24t23.5 -58q0 -43 -35.5 -76.5t-78.5 -33.5zM716 893q-36 0 -59.5 24t-23.5 58q0 43 35.5 76.5t78.5 33.5q36 0 59.5 -24t23.5 -58q0 -43 -35.5 -76.5t-78.5 -33.5zM859 619h-483l-35 -108h480 l-58 -177h-479l-37 -113h482l-72 -221h-758l271 840h761z" glyph-name="edieresis" horiz-adv-x="828" unicode="ë"/><glyph d="M440 890h-252l-103 175h252zM-101 0l271 840h277l-271 -840h-277z" glyph-name="igrave" horiz-adv-x="346" unicode="ì"/><glyph d="M185 890l103 175h252l-103 -175h-252zM-101 0l271 840h277l-271 -840h-277z" glyph-name="iacute" horiz-adv-x="346" unicode="í"/><glyph d="M-2 890l175 175h352l77 -175h-228l-28 75h-36l-64 -75h-248zM-101 0l271 840h277l-271 -840h-277z" glyph-name="icircumflex" horiz-adv-x="346" unicode="î"/><glyph d="M162 893q-36 0 -59.5 24t-23.5 58q0 43 35.5 76.5t78.5 33.5q36 0 59.5 -24t23.5 -58q0 -43 -35.5 -76.5t-78.5 -33.5zM472 893q-36 0 -59.5 24t-23.5 58q0 43 35.5 76.5t78.5 33.5q36 0 59.5 -24t23.5 -58q0 -43 -35.5 -76.5t-78.5 -33.5zM-101 0l271 840h277l-271 -840 h-277z" glyph-name="idieresis" horiz-adv-x="346" unicode="ï"/><glyph d="M634 840q195 0 289 -83.5t94 -233.5q0 -162 -79.5 -282t-213.5 -180.5t-303 -60.5h-445l102 317h-101l66 201h100l103 322h388zM470 232q113 0 190 72.5t77 179.5q0 67 -44 95.5t-134 28.5h-110l-29 -90h133l-66 -201h-132l-28 -85h143z" glyph-name="eth" horiz-adv-x="1032" unicode="ð"/><glyph d="M741 856q-49 0 -113 29t-93 29q-57 0 -62 -42h-75q-13 83 32.5 126t112.5 43q48 0 112.5 -29t93.5 -29q57 0 62 42h75q13 -84 -32 -126.5t-113 -42.5zM-101 0l274 840h307l137 -462h29l152 462h270l-273 -840h-300l-146 456h-29l-151 -456h-270z" glyph-name="ntilde" horiz-adv-x="967" unicode="ñ"/><glyph d="M771 894h-252l-103 175h252zM399 -28q-183 0 -285 92t-102 254q0 144 77 270t214.5 203t303.5 77q183 0 285 -92t102 -254q0 -144 -77 -270t-214.5 -203t-303.5 -77zM444 211q117 0 194.5 83.5t79.5 183.5q0 73 -44.5 112t-111.5 39q-117 0 -194.5 -83.5t-79.5 -183.5 q0 -73 44.5 -112t111.5 -39z" glyph-name="ograve" horiz-adv-x="1006" unicode="ò"/><glyph d="M516 894l103 175h252l-103 -175h-252zM399 -28q-183 0 -285 92t-102 254q0 144 77 270t214.5 203t303.5 77q183 0 285 -92t102 -254q0 -144 -77 -270t-214.5 -203t-303.5 -77zM444 211q117 0 194.5 83.5t79.5 183.5q0 73 -44.5 112t-111.5 39q-117 0 -194.5 -83.5 t-79.5 -183.5q0 -73 44.5 -112t111.5 -39z" glyph-name="oacute" horiz-adv-x="1006" unicode="ó"/><glyph d="M329 894l175 175h352l77 -175h-228l-28 75h-36l-64 -75h-248zM399 -28q-183 0 -285 92t-102 254q0 144 77 270t214.5 203t303.5 77q183 0 285 -92t102 -254q0 -144 -77 -270t-214.5 -203t-303.5 -77zM444 211q117 0 194.5 83.5t79.5 183.5q0 73 -44.5 112t-111.5 39 q-117 0 -194.5 -83.5t-79.5 -183.5q0 -73 44.5 -112t111.5 -39z" glyph-name="ocircumflex" horiz-adv-x="1006" unicode="ô"/><glyph d="M758 860q-49 0 -113 29t-93 29q-25 0 -42.5 -11t-19.5 -31h-75q-13 83 32.5 126t112.5 43q48 0 112.5 -29t93.5 -29q25 0 42.5 11t19.5 31h75q13 -84 -32 -126.5t-113 -42.5zM399 -28q-183 0 -285 92t-102 254q0 144 77 270t214.5 203t303.5 77q183 0 285 -92t102 -254 q0 -144 -77 -270t-214.5 -203t-303.5 -77zM444 211q117 0 194.5 83.5t79.5 183.5q0 73 -44.5 112t-111.5 39q-117 0 -194.5 -83.5t-79.5 -183.5q0 -73 44.5 -112t111.5 -39z" glyph-name="otilde" horiz-adv-x="1006" unicode="õ"/><glyph d="M493 897q-36 0 -59.5 24t-23.5 58q0 43 35.5 76.5t78.5 33.5q36 0 59.5 -24t23.5 -58q0 -43 -35.5 -76.5t-78.5 -33.5zM803 897q-36 0 -59.5 24t-23.5 58q0 43 35.5 76.5t78.5 33.5q36 0 59.5 -24t23.5 -58q0 -43 -35.5 -76.5t-78.5 -33.5zM399 -28q-183 0 -285 92 t-102 254q0 144 77 270t214.5 203t303.5 77q183 0 285 -92t102 -254q0 -144 -77 -270t-214.5 -203t-303.5 -77zM444 211q117 0 194.5 83.5t79.5 183.5q0 73 -44.5 112t-111.5 39q-117 0 -194.5 -83.5t-79.5 -183.5q0 -73 44.5 -112t111.5 -39z" glyph-name="odieresis" horiz-adv-x="1006" unicode="ö"/><glyph d="M429 581q-44 0 -72 28t-28 72q0 57 40.5 96t95.5 39q45 0 72.5 -28t27.5 -72q0 -57 -40 -96t-96 -39zM20 325l60 191h628l-60 -191h-628zM250 19q-44 0 -72 28t-28 72q0 57 40.5 96t95.5 39q45 0 72.5 -28t27.5 -72q0 -57 -40 -96t-96 -39z" glyph-name="divide" horiz-adv-x="728" unicode="÷"/><glyph d="M875 790q119 -91 119 -268q0 -144 -77 -270t-214.5 -203t-303.5 -77q-72 0 -139 16l-30 -39h-167l74 96q-125 93 -125 273q0 144 77 270t214.5 203t303.5 77q81 0 146 -18l33 42h167zM288 362q0 -51 24 -88l272 354q-8 1 -22 1q-117 0 -194.5 -83.5t-79.5 -183.5z M444 211q117 0 194.5 83.5t79.5 183.5q0 47 -20 81l-267 -348h13z" glyph-name="oslash" horiz-adv-x="1006" unicode="ø"/><glyph d="M744 890h-252l-103 175h252zM365 -28q-232 0 -320.5 104t-23.5 302l152 462h281l-160 -483q-25 -74 2 -114.5t108 -40.5q83 0 133.5 44t81.5 139l148 455h281l-159 -488q-67 -206 -189.5 -293t-334.5 -87z" glyph-name="ugrave" horiz-adv-x="947" unicode="ù"/><glyph d="M489 890l103 175h252l-103 -175h-252zM365 -28q-232 0 -320.5 104t-23.5 302l152 462h281l-160 -483q-25 -74 2 -114.5t108 -40.5q83 0 133.5 44t81.5 139l148 455h281l-159 -488q-67 -206 -189.5 -293t-334.5 -87z" glyph-name="uacute" horiz-adv-x="947" unicode="ú"/><glyph d="M302 890l175 175h352l77 -175h-228l-28 75h-36l-64 -75h-248zM365 -28q-232 0 -320.5 104t-23.5 302l152 462h281l-160 -483q-25 -74 2 -114.5t108 -40.5q83 0 133.5 44t81.5 139l148 455h281l-159 -488q-67 -206 -189.5 -293t-334.5 -87z" glyph-name="ucircumflex" horiz-adv-x="947" unicode="û"/><glyph d="M466 893q-36 0 -59.5 24t-23.5 58q0 43 35.5 76.5t78.5 33.5q36 0 59.5 -24t23.5 -58q0 -43 -35.5 -76.5t-78.5 -33.5zM776 893q-36 0 -59.5 24t-23.5 58q0 43 35.5 76.5t78.5 33.5q36 0 59.5 -24t23.5 -58q0 -43 -35.5 -76.5t-78.5 -33.5zM365 -28q-232 0 -320.5 104 t-23.5 302l152 462h281l-160 -483q-25 -74 2 -114.5t108 -40.5q83 0 133.5 44t81.5 139l148 455h281l-159 -488q-67 -206 -189.5 -293t-334.5 -87z" glyph-name="udieresis" horiz-adv-x="947" unicode="ü"/><glyph d="M842 1065l-103 -175h-252l103 175h252zM1085 840l-527 -582l-83 -258h-277l87 273l-149 567h279l74 -309h22l269 309h305z" glyph-name="yacute" horiz-adv-x="959" unicode="ý"/><glyph d="M552 744q192 0 273.5 -89t25.5 -264q-97 -295 -484 -295h-158l-31 -96h-277l270 840h277l-31 -96h135zM586 449q13 36 -6 50.5t-71 14.5h-166l-60 -188h139q54 0 100 32t64 91z" glyph-name="thorn" horiz-adv-x="878" unicode="þ"/><glyph d="M464 893q-36 0 -59.5 24t-23.5 58q0 43 35.5 76.5t78.5 33.5q36 0 59.5 -24t23.5 -58q0 -43 -35.5 -76.5t-78.5 -33.5zM774 893q-36 0 -59.5 24t-23.5 58q0 43 35.5 76.5t78.5 33.5q36 0 59.5 -24t23.5 -58q0 -43 -35.5 -76.5t-78.5 -33.5zM1085 840l-527 -582l-83 -258 h-277l87 273l-149 567h279l74 -309h22l269 309h305z" glyph-name="ydieresis" horiz-adv-x="959" unicode="ÿ"/><glyph d="M500 1095h460l-66 -201h-460zM440 840h390l38 -840h-275l-2 111h-354l-73 -111h-295zM372 316h217l-4 264h-40z" glyph-name="Amacron" unicode="Ā"/><glyph d="M500 1095h460l-66 -201h-460zM440 840h390l38 -840h-275l-2 111h-354l-73 -111h-295zM372 316h217l-4 264h-40z" glyph-name="amacron" unicode="ā"/><glyph d="M780 1065h156q-22 -98 -88.5 -136.5t-170.5 -38.5q-114 0 -167 39t-28 136h157q-12 -58 54 -58q31 0 55 14.5t32 43.5zM440 840h390l38 -840h-275l-2 111h-354l-73 -111h-295zM372 316h217l-4 264h-40z" glyph-name="Abreve" unicode="Ă"/><glyph d="M780 1065h156q-22 -98 -88.5 -136.5t-170.5 -38.5q-114 0 -167 39t-28 136h157q-12 -58 54 -58q31 0 55 14.5t32 43.5zM440 840h390l38 -840h-275l-2 111h-354l-73 -111h-295zM372 316h217l-4 264h-40z" glyph-name="abreve" unicode="ă"/><glyph d="M596 0q-43 0 -60.5 -15t-17.5 -35q0 -44 51 -43v-150q-39 0 -76.5 7t-75 23t-60.5 48t-23 76q0 151 258 158l-1 42h-354l-73 -111h-295l571 840h390l38 -840h-272zM372 316h217l-4 264h-40z" glyph-name="Aogonek" unicode="Ą"/><glyph d="M596 0q-43 0 -60.5 -15t-17.5 -35q0 -44 51 -43v-150q-39 0 -76.5 7t-75 23t-60.5 48t-23 76q0 151 258 158l-1 42h-354l-73 -111h-295l571 840h390l38 -840h-272zM372 316h217l-4 264h-40z" glyph-name="aogonek" unicode="ą"/><glyph d="M535 890l103 175h252l-103 -175h-252zM399 -28q-183 0 -284.5 93t-101.5 257q0 107 45.5 206.5t123.5 174.5t191.5 120t242.5 45q193 0 299 -108.5t68 -263.5h-266q-2 64 -44.5 98.5t-109.5 34.5q-118 0 -196 -81.5t-78 -186.5q0 -72 45.5 -111t117.5 -39q145 0 222 129 h267q-29 -85 -78.5 -151.5t-104 -106.5t-120 -65.5t-123 -35t-116.5 -9.5z" glyph-name="Cacute" horiz-adv-x="988" unicode="Ć"/><glyph d="M535 890l103 175h252l-103 -175h-252zM399 -28q-183 0 -284.5 93t-101.5 257q0 107 45.5 206.5t123.5 174.5t191.5 120t242.5 45q193 0 299 -108.5t68 -263.5h-266q-2 64 -44.5 98.5t-109.5 34.5q-118 0 -196 -81.5t-78 -186.5q0 -72 45.5 -111t117.5 -39q145 0 222 129 h267q-29 -85 -78.5 -151.5t-104 -106.5t-120 -65.5t-123 -35t-116.5 -9.5z" glyph-name="cacute" horiz-adv-x="988" unicode="ć"/><glyph d="M688 893q-36 0 -59.5 24t-23.5 58q0 43 35.5 76.5t78.5 33.5q36 0 59.5 -24t23.5 -58q0 -43 -35.5 -76.5t-78.5 -33.5zM399 -28q-183 0 -284.5 93t-101.5 257q0 107 45.5 206.5t123.5 174.5t191.5 120t242.5 45q193 0 299 -108.5t68 -263.5h-266q-2 64 -44.5 98.5 t-109.5 34.5q-118 0 -196 -81.5t-78 -186.5q0 -72 45.5 -111t117.5 -39q145 0 222 129h267q-29 -85 -78.5 -151.5t-104 -106.5t-120 -65.5t-123 -35t-116.5 -9.5z" glyph-name="Cdotaccent" horiz-adv-x="988" unicode="Ċ"/><glyph d="M688 893q-36 0 -59.5 24t-23.5 58q0 43 35.5 76.5t78.5 33.5q36 0 59.5 -24t23.5 -58q0 -43 -35.5 -76.5t-78.5 -33.5zM399 -28q-183 0 -284.5 93t-101.5 257q0 107 45.5 206.5t123.5 174.5t191.5 120t242.5 45q193 0 299 -108.5t68 -263.5h-266q-2 64 -44.5 98.5 t-109.5 34.5q-118 0 -196 -81.5t-78 -186.5q0 -72 45.5 -111t117.5 -39q145 0 222 129h267q-29 -85 -78.5 -151.5t-104 -106.5t-120 -65.5t-123 -35t-116.5 -9.5z" glyph-name="cdotaccent" horiz-adv-x="988" unicode="ċ"/><glyph d="M711 860q151 -26 228 -128t44 -236h-266q-2 64 -44.5 98.5t-109.5 34.5q-118 0 -196 -81.5t-78 -186.5q0 -72 45.5 -111t117.5 -39q145 0 222 129h267q-29 -85 -78.5 -151.5t-104 -106.5t-120 -65.5t-123 -35t-116.5 -9.5q-183 0 -284.5 93t-101.5 257q0 196 139.5 350 t358.5 188h-42l-77 175h228l28 -75h36l64 75h248l-175 -175h-110z" glyph-name="Ccaron" horiz-adv-x="988" unicode="Č"/><glyph d="M711 860q151 -26 228 -128t44 -236h-266q-2 64 -44.5 98.5t-109.5 34.5q-118 0 -196 -81.5t-78 -186.5q0 -72 45.5 -111t117.5 -39q145 0 222 129h267q-29 -85 -78.5 -151.5t-104 -106.5t-120 -65.5t-123 -35t-116.5 -9.5q-183 0 -284.5 93t-101.5 257q0 196 139.5 350 t358.5 188h-42l-77 175h228l28 -75h36l64 75h248l-175 -175h-110z" glyph-name="ccaron" horiz-adv-x="988" unicode="č"/><glyph d="M942 1035l-175 -175h-352l-77 175h228l28 -75h36l64 75h248zM-99 0l270 840h388q195 0 289 -83.5t94 -233.5q0 -162 -79.5 -282t-213.5 -180.5t-303 -60.5h-445zM252 232h143q113 0 190 72.5t77 179.5q0 67 -44 95.5t-134 28.5h-110z" glyph-name="Dcaron" horiz-adv-x="957" unicode="Ď"/><glyph d="M942 1035l-175 -175h-352l-77 175h228l28 -75h36l64 75h248zM-99 0l270 840h388q195 0 289 -83.5t94 -233.5q0 -162 -79.5 -282t-213.5 -180.5t-303 -60.5h-445zM252 232h143q113 0 190 72.5t77 179.5q0 67 -44 95.5t-134 28.5h-110z" glyph-name="dcaron" horiz-adv-x="957" unicode="ď"/><glyph d="M634 840q195 0 289 -83.5t94 -233.5q0 -162 -79.5 -282t-213.5 -180.5t-303 -60.5h-445l102 317h-101l66 201h100l103 322h388zM470 232q113 0 190 72.5t77 179.5q0 67 -44 95.5t-134 28.5h-110l-29 -90h133l-66 -201h-132l-28 -85h143z" glyph-name="Dcroat" horiz-adv-x="1032" unicode="Đ"/><glyph d="M634 840q195 0 289 -83.5t94 -233.5q0 -162 -79.5 -282t-213.5 -180.5t-303 -60.5h-445l102 317h-101l66 201h100l103 322h388zM470 232q113 0 190 72.5t77 179.5q0 67 -44 95.5t-134 28.5h-110l-29 -90h133l-66 -201h-132l-28 -85h143z" glyph-name="dcroat" horiz-adv-x="1032" unicode="đ"/><glyph d="M863 1095l-66 -201h-460l66 201h460zM859 619h-483l-35 -108h480l-58 -177h-479l-37 -113h482l-72 -221h-758l271 840h761z" glyph-name="Emacron" horiz-adv-x="828" unicode="Ē"/><glyph d="M863 1095l-66 -201h-460l66 201h460zM859 619h-483l-35 -108h480l-58 -177h-479l-37 -113h482l-72 -221h-758l271 840h761z" glyph-name="emacron" horiz-adv-x="828" unicode="ē"/><glyph d="M582 893q-36 0 -59.5 24t-23.5 58q0 43 35.5 76.5t78.5 33.5q36 0 59.5 -24t23.5 -58q0 -43 -35.5 -76.5t-78.5 -33.5zM859 619h-483l-35 -108h480l-58 -177h-479l-37 -113h482l-72 -221h-758l271 840h761z" glyph-name="Edotaccent" horiz-adv-x="828" unicode="Ė"/><glyph d="M582 893q-36 0 -59.5 24t-23.5 58q0 43 35.5 76.5t78.5 33.5q36 0 59.5 -24t23.5 -58q0 -43 -35.5 -76.5t-78.5 -33.5zM859 619h-483l-35 -108h480l-58 -177h-479l-37 -113h482l-72 -221h-758l271 840h761z" glyph-name="edotaccent" horiz-adv-x="828" unicode="ė"/><glyph d="M859 619h-483l-35 -108h480l-58 -177h-479l-37 -113h482l-71 -218v-3q-43 0 -60.5 -15t-17.5 -35q0 -44 51 -43v-150q-39 0 -76.5 7t-75 23t-60.5 48t-23 76q0 52 32 89h-529l271 840h761z" glyph-name="Eogonek" horiz-adv-x="828" unicode="Ę"/><glyph d="M859 619h-483l-35 -108h480l-58 -177h-479l-37 -113h482l-71 -218v-3q-43 0 -60.5 -15t-17.5 -35q0 -44 51 -43v-150q-39 0 -76.5 7t-75 23t-60.5 48t-23 76q0 52 32 89h-529l271 840h761z" glyph-name="eogonek" horiz-adv-x="828" unicode="ę"/><glyph d="M715 860h-352l-77 175h228l28 -75h36l64 75h248zM859 619h-483l-35 -108h480l-58 -177h-479l-37 -113h482l-72 -221h-758l271 840h761z" glyph-name="Ecaron" horiz-adv-x="828" unicode="Ě"/><glyph d="M715 860h-352l-77 175h228l28 -75h36l64 75h248zM859 619h-483l-35 -108h480l-58 -177h-479l-37 -113h482l-72 -221h-758l271 840h761z" glyph-name="ecaron" horiz-adv-x="828" unicode="ě"/><glyph d="M633 890q-114 0 -167 39t-28 136h157q-12 -58 54 -58q31 0 55 14.5t32 43.5h156q-22 -98 -88.5 -136.5t-170.5 -38.5zM563 629q-118 0 -196 -81.5t-78 -186.5q0 -72 45.5 -111t117.5 -39q23 0 46 3.5t55.5 14t62 35.5t48.5 61h-202l46 140h474l-150 -465h-142l28 102 q-56 -60 -141 -95t-187 -35q-178 0 -277.5 90t-99.5 254q0 109 45.5 209.5t123.5 176.5t191.5 121t242.5 45q179 0 285 -95t90 -231h-278q-16 40 -56 63.5t-94 23.5z" glyph-name="Gbreve" horiz-adv-x="997" unicode="Ğ"/><glyph d="M633 890q-114 0 -167 39t-28 136h157q-12 -58 54 -58q31 0 55 14.5t32 43.5h156q-22 -98 -88.5 -136.5t-170.5 -38.5zM563 629q-118 0 -196 -81.5t-78 -186.5q0 -72 45.5 -111t117.5 -39q23 0 46 3.5t55.5 14t62 35.5t48.5 61h-202l46 140h474l-150 -465h-142l28 102 q-56 -60 -141 -95t-187 -35q-178 0 -277.5 90t-99.5 254q0 109 45.5 209.5t123.5 176.5t191.5 121t242.5 45q179 0 285 -95t90 -231h-278q-16 40 -56 63.5t-94 23.5z" glyph-name="gbreve" horiz-adv-x="997" unicode="ğ"/><glyph d="M635 893q-36 0 -59.5 24t-23.5 58q0 43 35.5 76.5t78.5 33.5q36 0 59.5 -24t23.5 -58q0 -43 -35.5 -76.5t-78.5 -33.5zM563 629q-118 0 -196 -81.5t-78 -186.5q0 -72 45.5 -111t117.5 -39q23 0 46 3.5t55.5 14t62 35.5t48.5 61h-202l46 140h474l-150 -465h-142l28 102 q-56 -60 -141 -95t-187 -35q-178 0 -277.5 90t-99.5 254q0 109 45.5 209.5t123.5 176.5t191.5 121t242.5 45q179 0 285 -95t90 -231h-278q-16 40 -56 63.5t-94 23.5z" glyph-name="Gdotaccent" horiz-adv-x="997" unicode="Ġ"/><glyph d="M635 893q-36 0 -59.5 24t-23.5 58q0 43 35.5 76.5t78.5 33.5q36 0 59.5 -24t23.5 -58q0 -43 -35.5 -76.5t-78.5 -33.5zM563 629q-118 0 -196 -81.5t-78 -186.5q0 -72 45.5 -111t117.5 -39q23 0 46 3.5t55.5 14t62 35.5t48.5 61h-202l46 140h474l-150 -465h-142l28 102 q-56 -60 -141 -95t-187 -35q-178 0 -277.5 90t-99.5 254q0 109 45.5 209.5t123.5 176.5t191.5 121t242.5 45q179 0 285 -95t90 -231h-278q-16 40 -56 63.5t-94 23.5z" glyph-name="gdotaccent" horiz-adv-x="997" unicode="ġ"/><glyph d="M563 629q-118 0 -196 -81.5t-78 -186.5q0 -72 45.5 -111t117.5 -39q23 0 46 3.5t55.5 14t62 35.5t48.5 61h-202l46 140h474l-150 -465h-142l28 102q-56 -60 -141 -95t-187 -35q-178 0 -277.5 90t-99.5 254q0 109 45.5 209.5t123.5 176.5t191.5 121t242.5 45 q179 0 285 -95t90 -231h-278q-16 40 -56 63.5t-94 23.5zM535 -66l1 1v2zM189 -265l64 199h282q-96 -285 -197 -406h-128q52 118 75 207h-96z" glyph-name="Gcommaaccent" horiz-adv-x="997" unicode="Ģ"/><glyph d="M563 629q-118 0 -196 -81.5t-78 -186.5q0 -72 45.5 -111t117.5 -39q23 0 46 3.5t55.5 14t62 35.5t48.5 61h-202l46 140h474l-150 -465h-142l28 102q-56 -60 -141 -95t-187 -35q-178 0 -277.5 90t-99.5 254q0 109 45.5 209.5t123.5 176.5t191.5 121t242.5 45 q179 0 285 -95t90 -231h-278q-16 40 -56 63.5t-94 23.5zM535 -66l1 1v2zM189 -265l64 199h282q-96 -285 -197 -406h-128q52 118 75 207h-96z" glyph-name="gcommaaccent" horiz-adv-x="997" unicode="ģ"/><glyph d="M770 840h277l-270 -840h-277l95 294h-322l-95 -294h-277l270 840h277l-23 -71h322zM346 524h322l18 55h-322z" glyph-name="Hbar" horiz-adv-x="948" unicode="Ħ"/><glyph d="M770 840h277l-270 -840h-277l95 294h-322l-95 -294h-277l270 840h277l-23 -71h322zM346 524h322l18 55h-322z" glyph-name="hbar" horiz-adv-x="948" unicode="ħ"/><glyph d="M93 894l66 201h460l-66 -201h-460zM-101 0l271 840h277l-271 -840h-277z" glyph-name="Imacron" horiz-adv-x="346" unicode="Ī"/><glyph d="M93 894l66 201h460l-66 -201h-460zM-101 0l271 840h277l-271 -840h-277z" glyph-name="imacron" horiz-adv-x="346" unicode="ī"/><glyph d="M176 0q-43 0 -60.5 -15t-17.5 -35q0 -44 51 -43v-150q-39 0 -76.5 7t-75 23t-60.5 48t-23 76q0 52 32 89h-47l271 840h277z" glyph-name="Iogonek" horiz-adv-x="346" unicode="Į"/><glyph d="M176 0q-43 0 -60.5 -15t-17.5 -35q0 -44 51 -43v-150q-39 0 -76.5 7t-75 23t-60.5 48t-23 76q0 52 32 89h-47l271 840h277z" glyph-name="iogonek" horiz-adv-x="346" unicode="į"/><glyph d="M338 893q-36 0 -59.5 24t-23.5 58q0 43 35.5 76.5t78.5 33.5q36 0 59.5 -24t23.5 -58q0 -43 -35.5 -76.5t-78.5 -33.5zM-101 0l271 840h277l-271 -840h-277z" glyph-name="Idotaccent" horiz-adv-x="346" unicode="İ"/><glyph d="M-101 0l271 840h277l-271 -840h-277z" glyph-name="dotlessi" horiz-adv-x="346" unicode="ı"/><glyph d="M-101 0l271 840h277l-271 -840h-277zM635 -28q-406 0 -291 370h275q-42 -135 71 -135q108 0 152 133l161 500h277l-160 -498q-34 -107 -82 -180t-110.5 -114t-133 -58.5t-159.5 -17.5z" glyph-name="IJ" horiz-adv-x="1179" unicode="Ĳ"/><glyph d="M1060 840l-452 -381l270 -459h-276l-189 321h-23l-149 -117l-66 -204h-276l274 840h276l-95 -291h34l355 291h317zM479 -66l1 1v2zM133 -265l64 199h282q-96 -285 -197 -406h-128q52 118 75 207h-96z" glyph-name="Kcommaaccent" horiz-adv-x="984" unicode="Ķ"/><glyph d="M1060 840l-452 -381l270 -459h-276l-189 321h-23l-149 -117l-66 -204h-276l274 840h276l-95 -291h34l355 291h317zM479 -66l1 1v2zM133 -265l64 199h282q-96 -285 -197 -406h-128q52 118 75 207h-96z" glyph-name="kcommaaccent" horiz-adv-x="984" unicode="ķ"/><glyph d="M190 880l103 175h252l-103 -175h-252zM-101 0l273 840h277l-199 -609h464l-74 -231h-741z" glyph-name="Lacute" horiz-adv-x="810" unicode="Ĺ"/><glyph d="M190 880l103 175h252l-103 -175h-252zM-101 0l273 840h277l-199 -609h464l-74 -231h-741z" glyph-name="lacute" horiz-adv-x="810" unicode="ĺ"/><glyph d="M250 231h464l-74 -231h-741l273 840h277zM392 -66v1q1 1 1 2zM46 -265l64 199h282q-96 -285 -197 -406h-128q52 118 75 207h-96z" glyph-name="Lcommaaccent" horiz-adv-x="810" unicode="Ļ"/><glyph d="M250 231h464l-74 -231h-741l273 840h277zM392 -66v1q1 1 1 2zM46 -265l64 199h282q-96 -285 -197 -406h-128q52 118 75 207h-96z" glyph-name="lcommaaccent" horiz-adv-x="810" unicode="ļ"/><glyph d="M855 843l-1 -3v1q1 1 1 2zM449 840l-199 -609h464l-74 -231h-741l273 840h277zM452 609l74 231h328q-112 -332 -229 -471h-149q59 131 88 240h-112z" glyph-name="Lcaron" horiz-adv-x="810" unicode="Ľ"/><glyph d="M855 843l-1 -3v1q1 1 1 2zM449 840l-199 -609h464l-74 -231h-741l273 840h277zM452 609l74 231h328q-112 -332 -229 -471h-149q59 131 88 240h-112z" glyph-name="lcaron" horiz-adv-x="810" unicode="ľ"/><glyph d="M-101 0l273 840h277l-199 -609h464l-74 -231h-741zM640 392q-52 0 -84 32.5t-32 83.5q0 66 47 111t111 45q52 0 84 -32.5t32 -83.5q0 -66 -47 -111t-111 -45z" glyph-name="Ldot" horiz-adv-x="810" unicode="Ŀ"/><glyph d="M286 231h464l-74 -231h-741l58 179l-42 -24l17 198l100 58l140 429h277l-76 -234l139 80l-17 -198l-198 -114z" glyph-name="Lslash" horiz-adv-x="846" unicode="Ł"/><glyph d="M286 231h464l-74 -231h-741l58 179l-42 -24l17 198l100 58l140 429h277l-76 -234l139 80l-17 -198l-198 -114z" glyph-name="lslash" horiz-adv-x="846" unicode="ł"/><glyph d="M499 890l103 175h252l-103 -175h-252zM-101 0l274 840h307l137 -462h29l152 462h270l-273 -840h-300l-146 456h-29l-151 -456h-270z" glyph-name="Nacute" horiz-adv-x="967" unicode="Ń"/><glyph d="M499 890l103 175h252l-103 -175h-252zM-101 0l274 840h307l137 -462h29l152 462h270l-273 -840h-300l-146 456h-29l-151 -456h-270z" glyph-name="nacute" horiz-adv-x="967" unicode="ń"/><glyph d="M798 840h270l-273 -840h-300l-146 456h-29l-151 -456h-270l274 840h307l137 -462h29zM480 -66v1q1 1 1 2zM134 -265l64 199h282q-96 -285 -197 -406h-128q52 118 75 207h-96z" glyph-name="Ncommaaccent" horiz-adv-x="967" unicode="Ņ"/><glyph d="M798 840h270l-273 -840h-300l-146 456h-29l-151 -456h-270l274 840h307l137 -462h29zM480 -66v1q1 1 1 2zM134 -265l64 199h282q-96 -285 -197 -406h-128q52 118 75 207h-96z" glyph-name="ncommaaccent" horiz-adv-x="967" unicode="ņ"/><glyph d="M960 1035l-175 -175h-352l-77 175h228l28 -75h36l64 75h248zM-101 0l274 840h307l137 -462h29l152 462h270l-273 -840h-300l-146 456h-29l-151 -456h-270z" glyph-name="Ncaron" horiz-adv-x="967" unicode="Ň"/><glyph d="M960 1035l-175 -175h-352l-77 175h228l28 -75h36l64 75h248zM-101 0l274 840h307l137 -462h29l152 462h270l-273 -840h-300l-146 456h-29l-151 -456h-270z" glyph-name="ncaron" horiz-adv-x="967" unicode="ň"/><glyph d="M1068 840l-273 -840l-4 -12q-49 -151 -164.5 -218t-299.5 -67l56 232q39 0 81 14.5t60 50.5h-29l-146 456h-29l-151 -456h-270l274 840h307l137 -462h29l35 105l24 76h1l92 281h270z" glyph-name="Eng" horiz-adv-x="967" unicode="Ŋ"/><glyph d="M1068 840l-273 -840l-4 -12q-49 -151 -164.5 -218t-299.5 -67l56 232q39 0 81 14.5t60 50.5h-29l-146 456h-29l-151 -456h-270l274 840h307l137 -462h29l35 105l24 76h1l92 281h270z" glyph-name="eng" horiz-adv-x="967" unicode="ŋ"/><glyph d="M424 898l66 201h460l-66 -201h-460zM399 -28q-183 0 -285 92t-102 254q0 144 77 270t214.5 203t303.5 77q183 0 285 -92t102 -254q0 -144 -77 -270t-214.5 -203t-303.5 -77zM444 211q117 0 194.5 83.5t79.5 183.5q0 73 -44.5 112t-111.5 39q-117 0 -194.5 -83.5 t-79.5 -183.5q0 -73 44.5 -112t111.5 -39z" glyph-name="Omacron" horiz-adv-x="1006" unicode="Ō"/><glyph d="M424 898l66 201h460l-66 -201h-460zM399 -28q-183 0 -285 92t-102 254q0 144 77 270t214.5 203t303.5 77q183 0 285 -92t102 -254q0 -144 -77 -270t-214.5 -203t-303.5 -77zM444 211q117 0 194.5 83.5t79.5 183.5q0 73 -44.5 112t-111.5 39q-117 0 -194.5 -83.5 t-79.5 -183.5q0 -73 44.5 -112t111.5 -39z" glyph-name="omacron" horiz-adv-x="1006" unicode="ō"/><glyph d="M382 894l103 175h252l-103 -175h-252zM680 894l103 175h252l-103 -175h-252zM399 -28q-183 0 -285 92t-102 254q0 144 77 270t214.5 203t303.5 77q183 0 285 -92t102 -254q0 -144 -77 -270t-214.5 -203t-303.5 -77zM444 211q117 0 194.5 83.5t79.5 183.5q0 73 -44.5 112 t-111.5 39q-117 0 -194.5 -83.5t-79.5 -183.5q0 -73 44.5 -112t111.5 -39z" glyph-name="Ohungarumlaut" horiz-adv-x="1006" unicode="Ő"/><glyph d="M382 894l103 175h252l-103 -175h-252zM680 894l103 175h252l-103 -175h-252zM399 -28q-183 0 -285 92t-102 254q0 144 77 270t214.5 203t303.5 77q183 0 285 -92t102 -254q0 -144 -77 -270t-214.5 -203t-303.5 -77zM444 211q117 0 194.5 83.5t79.5 183.5q0 73 -44.5 112 t-111.5 39q-117 0 -194.5 -83.5t-79.5 -183.5q0 -73 44.5 -112t111.5 -39z" glyph-name="ohungarumlaut" horiz-adv-x="1006" unicode="ő"/><glyph d="M1536 619h-483l-35 -108h480l-58 -177h-479l-37 -113h482l-72 -221h-747q-92 -28 -188 -28q-183 0 -285 92t-102 254q0 144 77 270t214.5 203t303.5 77q137 0 232 -53l8 25h761zM288 362q0 -73 44.5 -112t111.5 -39q117 0 194.5 83.5t79.5 183.5q0 73 -44.5 112 t-111.5 39q-117 0 -194.5 -83.5t-79.5 -183.5z" glyph-name="OE" horiz-adv-x="1505" unicode="Œ"/><glyph d="M1536 619h-483l-35 -108h480l-58 -177h-479l-37 -113h482l-72 -221h-747q-92 -28 -188 -28q-183 0 -285 92t-102 254q0 144 77 270t214.5 203t303.5 77q137 0 232 -53l8 25h761zM288 362q0 -73 44.5 -112t111.5 -39q117 0 194.5 83.5t79.5 183.5q0 73 -44.5 112 t-111.5 39q-117 0 -194.5 -83.5t-79.5 -183.5z" glyph-name="oe" horiz-adv-x="1505" unicode="œ"/><glyph d="M824 1065l-103 -175h-252l103 175h252zM925 595q0 -108 -56.5 -192t-148.5 -133l62 -270h-266l-47 216h-222l-69 -216h-277l270 840h438q316 0 316 -245zM374 610l-61 -191l192 1q51 0 94.5 31t43.5 85q0 41 -23.5 57.5t-73.5 16.5h-172z" glyph-name="Racute" horiz-adv-x="923" unicode="Ŕ"/><glyph d="M824 1065l-103 -175h-252l103 175h252zM925 595q0 -108 -56.5 -192t-148.5 -133l62 -270h-266l-47 216h-222l-69 -216h-277l270 840h438q316 0 316 -245zM374 610l-61 -191l192 1q51 0 94.5 31t43.5 85q0 41 -23.5 57.5t-73.5 16.5h-172z" glyph-name="racute" horiz-adv-x="923" unicode="ŕ"/><glyph d="M925 595q0 -108 -56.5 -192t-148.5 -133l62 -270h-266l-47 216h-222l-69 -216h-277l270 840h438q316 0 316 -245zM374 610l-61 -191l192 1q51 0 94.5 31t43.5 85q0 41 -23.5 57.5t-73.5 16.5h-172zM450 -66v1q1 1 1 2zM104 -265l64 199h282q-96 -285 -197 -406h-128 q52 118 75 207h-96z" glyph-name="Rcommaaccent" horiz-adv-x="923" unicode="Ŗ"/><glyph d="M925 595q0 -108 -56.5 -192t-148.5 -133l62 -270h-266l-47 216h-222l-69 -216h-277l270 840h438q316 0 316 -245zM374 610l-61 -191l192 1q51 0 94.5 31t43.5 85q0 41 -23.5 57.5t-73.5 16.5h-172zM450 -66v1q1 1 1 2zM104 -265l64 199h282q-96 -285 -197 -406h-128 q52 118 75 207h-96z" glyph-name="rcommaaccent" horiz-adv-x="923" unicode="ŗ"/><glyph d="M755 860h-352l-77 175h228l28 -75h36l64 75h248zM609 840q316 0 316 -245q0 -108 -56.5 -192t-148.5 -133l62 -270h-266l-47 216h-222l-69 -216h-277l270 840h438zM374 610l-61 -191l192 1q51 0 94.5 31t43.5 85q0 41 -23.5 57.5t-73.5 16.5h-172z" glyph-name="Rcaron" horiz-adv-x="923" unicode="Ř"/><glyph d="M755 860h-352l-77 175h228l28 -75h36l64 75h248zM609 840q316 0 316 -245q0 -108 -56.5 -192t-148.5 -133l62 -270h-266l-47 216h-222l-69 -216h-277l270 840h438zM374 610l-61 -191l192 1q51 0 94.5 31t43.5 85q0 41 -23.5 57.5t-73.5 16.5h-172z" glyph-name="rcaron" horiz-adv-x="923" unicode="ř"/><glyph d="M465 890l103 175h252l-103 -175h-252zM326 -28q-82 0 -145.5 10t-114 32t-76 57.5t-31.5 87t20 119.5h235q-10 -48 33 -71t118 -23q80 0 132.5 20t52.5 61q0 51 -97 65l-67 11q-29 4 -44 6.5t-51 10.5t-58 17t-52.5 26t-48 37t-30.5 50.5t-13 66.5q0 147 126.5 230 t332.5 83q130 0 219.5 -35.5t121.5 -103t-11 -165.5h-227q7 37 -27.5 64.5t-114.5 27.5q-71 0 -113.5 -22t-42.5 -59q0 -45 80 -59l49 -9q14 -3 49 -9t56 -10t55 -13t56 -18t47.5 -25.5t40.5 -35.5t25 -46t10 -60q0 -87 -39.5 -150t-110 -99t-156 -52.5t-189.5 -16.5z" glyph-name="Sacute" horiz-adv-x="894" unicode="Ś"/><glyph d="M465 890l103 175h252l-103 -175h-252zM326 -28q-82 0 -145.5 10t-114 32t-76 57.5t-31.5 87t20 119.5h235q-10 -48 33 -71t118 -23q80 0 132.5 20t52.5 61q0 51 -97 65l-67 11q-29 4 -44 6.5t-51 10.5t-58 17t-52.5 26t-48 37t-30.5 50.5t-13 66.5q0 147 126.5 230 t332.5 83q130 0 219.5 -35.5t121.5 -103t-11 -165.5h-227q7 37 -27.5 64.5t-114.5 27.5q-71 0 -113.5 -22t-42.5 -59q0 -45 80 -59l49 -9q14 -3 49 -9t56 -10t55 -13t56 -18t47.5 -25.5t40.5 -35.5t25 -46t10 -60q0 -87 -39.5 -150t-110 -99t-156 -52.5t-189.5 -16.5z" glyph-name="sacute" horiz-adv-x="894" unicode="ś"/><glyph d="M878 564h-227q7 37 -27.5 64.5t-114.5 27.5q-71 0 -113.5 -22t-42.5 -59q0 -45 80 -59l49 -9q14 -3 49 -9t56 -10t55 -13t56 -18t47.5 -25.5t40.5 -35.5t25 -46t10 -60q0 -85 -38.5 -148t-107.5 -99t-152.5 -53t-185.5 -18l-12 -7q34 -8 55.5 -34.5t21.5 -70.5 q0 -60 -42 -97.5t-107 -42.5t-144 16l30 98q38 -13 81.5 -7.5t43.5 28.5q0 9 -13 15.5t-38.5 8t-63.5 -6.5l17 56l69 48q-352 29 -256 302h235q-10 -48 33 -71t118 -23q80 0 132.5 20t52.5 61q0 51 -97 65l-67 11q-29 4 -44 6.5t-51 10.5t-58 17t-52.5 26t-48 37t-30.5 50.5 t-13 66.5q0 147 126.5 230t332.5 83q130 0 219.5 -35.5t121.5 -103t-11 -165.5z" glyph-name="Scedilla" horiz-adv-x="894" unicode="Ş"/><glyph d="M878 564h-227q7 37 -27.5 64.5t-114.5 27.5q-71 0 -113.5 -22t-42.5 -59q0 -45 80 -59l49 -9q14 -3 49 -9t56 -10t55 -13t56 -18t47.5 -25.5t40.5 -35.5t25 -46t10 -60q0 -85 -38.5 -148t-107.5 -99t-152.5 -53t-185.5 -18l-12 -7q34 -8 55.5 -34.5t21.5 -70.5 q0 -60 -42 -97.5t-107 -42.5t-144 16l30 98q38 -13 81.5 -7.5t43.5 28.5q0 9 -13 15.5t-38.5 8t-63.5 -6.5l17 56l69 48q-352 29 -256 302h235q-10 -48 33 -71t118 -23q80 0 132.5 20t52.5 61q0 51 -97 65l-67 11q-29 4 -44 6.5t-51 10.5t-58 17t-52.5 26t-48 37t-30.5 50.5 t-13 66.5q0 147 126.5 230t332.5 83q130 0 219.5 -35.5t121.5 -103t-11 -165.5z" glyph-name="scedilla" horiz-adv-x="894" unicode="ş"/><glyph d="M662 860q147 -22 208.5 -99.5t7.5 -196.5h-227q7 37 -27.5 64.5t-114.5 27.5q-71 0 -113.5 -22t-42.5 -59q0 -45 80 -59l49 -9q14 -3 49 -9t56 -10t55 -13t56 -18t47.5 -25.5t40.5 -35.5t25 -46t10 -60q0 -87 -39.5 -150t-110 -99t-156 -52.5t-189.5 -16.5 q-82 0 -145.5 10t-114 32t-76 57.5t-31.5 87t20 119.5h235q-10 -48 33 -71t118 -23q80 0 132.5 20t52.5 61q0 51 -97 65l-67 11q-29 4 -44 6.5t-51 10.5t-58 17t-52.5 26t-48 37t-30.5 50.5t-13 66.5q0 124 91.5 203.5t248.5 101.5h-30l-77 175h228l28 -75h36l64 75h248 l-175 -175h-89z" glyph-name="Scaron" horiz-adv-x="894" unicode="Š"/><glyph d="M662 860q147 -22 208.5 -99.5t7.5 -196.5h-227q7 37 -27.5 64.5t-114.5 27.5q-71 0 -113.5 -22t-42.5 -59q0 -45 80 -59l49 -9q14 -3 49 -9t56 -10t55 -13t56 -18t47.5 -25.5t40.5 -35.5t25 -46t10 -60q0 -87 -39.5 -150t-110 -99t-156 -52.5t-189.5 -16.5 q-82 0 -145.5 10t-114 32t-76 57.5t-31.5 87t20 119.5h235q-10 -48 33 -71t118 -23q80 0 132.5 20t52.5 61q0 51 -97 65l-67 11q-29 4 -44 6.5t-51 10.5t-58 17t-52.5 26t-48 37t-30.5 50.5t-13 66.5q0 124 91.5 203.5t248.5 101.5h-30l-77 175h228l28 -75h36l64 75h248 l-175 -175h-89z" glyph-name="scaron" horiz-adv-x="894" unicode="š"/><glyph d="M1042 840l-75 -231h-296l-199 -609h-69l-59 -35q34 -8 55.5 -34.5t21.5 -70.5q0 -60 -42 -97.5t-107 -42.5t-144 16l30 98q38 -13 81.5 -7.5t43.5 28.5q0 9 -13 15.5t-38.5 8t-63.5 -6.5l17 56l104 72h-94l199 609h-303l74 231h877z" glyph-name="Tcommaaccent" horiz-adv-x="936" unicode="Ţ"/><glyph d="M1042 840l-75 -231h-296l-199 -609h-69l-59 -35q34 -8 55.5 -34.5t21.5 -70.5q0 -60 -42 -97.5t-107 -42.5t-144 16l30 98q38 -13 81.5 -7.5t43.5 28.5q0 9 -13 15.5t-38.5 8t-63.5 -6.5l17 56l104 72h-94l199 609h-303l74 231h877z" glyph-name="tcommaaccent" horiz-adv-x="936" unicode="ţ"/><glyph d="M770 860h-352l-77 175h228l28 -75h36l64 75h248zM1042 840l-75 -231h-296l-199 -609h-277l199 609h-303l74 231h877z" glyph-name="Tcaron" horiz-adv-x="936" unicode="Ť"/><glyph d="M770 860h-352l-77 175h228l28 -75h36l64 75h248zM1042 840l-75 -231h-296l-199 -609h-277l199 609h-303l74 231h877z" glyph-name="tcaron" horiz-adv-x="936" unicode="ť"/><glyph d="M967 609h-296l-37 -112h235l-76 -227h-233l-88 -270h-277l88 270h-226l76 227h224l37 112h-303l74 231h877z" glyph-name="Tbar" horiz-adv-x="936" unicode="Ŧ"/><glyph d="M967 609h-296l-37 -112h235l-76 -227h-233l-88 -270h-277l88 270h-226l76 227h224l37 112h-303l74 231h877z" glyph-name="tbar" horiz-adv-x="936" unicode="ŧ"/><glyph d="M397 894l66 201h460l-66 -201h-460zM365 -28q-232 0 -320.5 104t-23.5 302l152 462h281l-160 -483q-25 -74 2 -114.5t108 -40.5q83 0 133.5 44t81.5 139l148 455h281l-159 -488q-67 -206 -189.5 -293t-334.5 -87z" glyph-name="Umacron" horiz-adv-x="947" unicode="Ū"/><glyph d="M397 894l66 201h460l-66 -201h-460zM365 -28q-232 0 -320.5 104t-23.5 302l152 462h281l-160 -483q-25 -74 2 -114.5t108 -40.5q83 0 133.5 44t81.5 139l148 455h281l-159 -488q-67 -206 -189.5 -293t-334.5 -87z" glyph-name="umacron" horiz-adv-x="947" unicode="ū"/><glyph d="M640 890q-114 0 -167 39t-28 136h157q-12 -58 54 -58q31 0 55 14.5t32 43.5h156q-22 -98 -88.5 -136.5t-170.5 -38.5zM365 -28q-232 0 -320.5 104t-23.5 302l152 462h281l-160 -483q-25 -74 2 -114.5t108 -40.5q83 0 133.5 44t81.5 139l148 455h281l-159 -488 q-67 -206 -189.5 -293t-334.5 -87z" glyph-name="Ubreve" horiz-adv-x="947" unicode="Ŭ"/><glyph d="M640 890q-114 0 -167 39t-28 136h157q-12 -58 54 -58q31 0 55 14.5t32 43.5h156q-22 -98 -88.5 -136.5t-170.5 -38.5zM365 -28q-232 0 -320.5 104t-23.5 302l152 462h281l-160 -483q-25 -74 2 -114.5t108 -40.5q83 0 133.5 44t81.5 139l148 455h281l-159 -488 q-67 -206 -189.5 -293t-334.5 -87z" glyph-name="ubreve" horiz-adv-x="947" unicode="ŭ"/><glyph d="M602 825q-54 0 -86.5 33t-32.5 85q0 72 50 119t116 47q53 0 85 -32.5t32 -83.5q0 -69 -48 -118.5t-116 -49.5zM620 939q15 0 25 11t10 26q0 8 -6 14.5t-17 6.5q-15 0 -25 -11t-10 -26q0 -8 6 -14.5t17 -6.5zM365 -28q-232 0 -320.5 104t-23.5 302l152 462h281l-160 -483 q-25 -74 2 -114.5t108 -40.5q83 0 133.5 44t81.5 139l148 455h281l-159 -488q-67 -206 -189.5 -293t-334.5 -87z" glyph-name="Uring" horiz-adv-x="947" unicode="Ů"/><glyph d="M602 825q-54 0 -86.5 33t-32.5 85q0 72 50 119t116 47q53 0 85 -32.5t32 -83.5q0 -69 -48 -118.5t-116 -49.5zM620 939q15 0 25 11t10 26q0 8 -6 14.5t-17 6.5q-15 0 -25 -11t-10 -26q0 -8 6 -14.5t17 -6.5zM365 -28q-232 0 -320.5 104t-23.5 302l152 462h281l-160 -483 q-25 -74 2 -114.5t108 -40.5q83 0 133.5 44t81.5 139l148 455h281l-159 -488q-67 -206 -189.5 -293t-334.5 -87z" glyph-name="uring" horiz-adv-x="947" unicode="ů"/><glyph d="M355 890l103 175h252l-103 -175h-252zM653 890l103 175h252l-103 -175h-252zM365 -28q-232 0 -320.5 104t-23.5 302l152 462h281l-160 -483q-25 -74 2 -114.5t108 -40.5q83 0 133.5 44t81.5 139l148 455h281l-159 -488q-67 -206 -189.5 -293t-334.5 -87z" glyph-name="Uhungarumlaut" horiz-adv-x="947" unicode="Ű"/><glyph d="M355 890l103 175h252l-103 -175h-252zM653 890l103 175h252l-103 -175h-252zM365 -28q-232 0 -320.5 104t-23.5 302l152 462h281l-160 -483q-25 -74 2 -114.5t108 -40.5q83 0 133.5 44t81.5 139l148 455h281l-159 -488q-67 -206 -189.5 -293t-334.5 -87z" glyph-name="uhungarumlaut" horiz-adv-x="947" unicode="ű"/><glyph d="M767 840h281l-159 -488q-58 -178 -155.5 -265.5t-255.5 -107.5v-1q-97 -8 -97 -38q0 -4 1.5 -8t5.5 -10.5t15.5 -10.5t28.5 -4v-150q-39 0 -76.5 7t-75 22.5t-60.5 47t-23 74.5q0 47 29 76q-154 29 -206 128.5t1 265.5l152 462h281l-160 -483q-25 -74 2 -114.5t108 -40.5 q83 0 133.5 44t81.5 139z" glyph-name="Uogonek" horiz-adv-x="947" unicode="Ų"/><glyph d="M767 840h281l-159 -488q-58 -178 -155.5 -265.5t-255.5 -107.5v-1q-97 -8 -97 -38q0 -4 1.5 -8t5.5 -10.5t15.5 -10.5t28.5 -4v-150q-39 0 -76.5 7t-75 22.5t-60.5 47t-23 74.5q0 47 29 76q-154 29 -206 128.5t1 265.5l152 462h281l-160 -483q-25 -74 2 -114.5t108 -40.5 q83 0 133.5 44t81.5 139z" glyph-name="uogonek" horiz-adv-x="947" unicode="ų"/><glyph d="M467 890l175 175h352l77 -175h-228l-28 75h-36l-64 -75h-248zM42 0l109 840h277l-86 -544h25l293 544h219l-53 -544h25l263 544h287l-434 -840h-373l52 404h-24l-207 -404h-373z" glyph-name="Wcircumflex" horiz-adv-x="1285" unicode="Ŵ"/><glyph d="M467 890l175 175h352l77 -175h-228l-28 75h-36l-64 -75h-248zM42 0l109 840h277l-86 -544h25l293 544h219l-53 -544h25l263 544h287l-434 -840h-373l52 404h-24l-207 -404h-373z" glyph-name="wcircumflex" horiz-adv-x="1285" unicode="ŵ"/><glyph d="M612 965l-64 -75h-248l175 175h352l77 -175h-228l-28 75h-36zM1085 840l-527 -582l-83 -258h-277l87 273l-149 567h279l74 -309h22l269 309h305z" glyph-name="Ycircumflex" horiz-adv-x="959" unicode="Ŷ"/><glyph d="M612 965l-64 -75h-248l175 175h352l77 -175h-228l-28 75h-36zM1085 840l-527 -582l-83 -258h-277l87 273l-149 567h279l74 -309h22l269 309h305z" glyph-name="ycircumflex" horiz-adv-x="959" unicode="ŷ"/><glyph d="M464 893q-36 0 -59.5 24t-23.5 58q0 43 35.5 76.5t78.5 33.5q36 0 59.5 -24t23.5 -58q0 -43 -35.5 -76.5t-78.5 -33.5zM774 893q-36 0 -59.5 24t-23.5 58q0 43 35.5 76.5t78.5 33.5q36 0 59.5 -24t23.5 -58q0 -43 -35.5 -76.5t-78.5 -33.5zM1085 840l-527 -582l-83 -258 h-277l87 273l-149 567h279l74 -309h22l269 309h305z" glyph-name="Ydieresis" horiz-adv-x="959" unicode="Ÿ"/><glyph d="M438 890l103 175h252l-103 -175h-252zM-109 0l73 227l541 362l9 22h-418l76 229h788l-74 -227l-541 -362l-9 -22h418l-76 -229h-787z" glyph-name="Zacute" horiz-adv-x="849" unicode="Ź"/><glyph d="M438 890l103 175h252l-103 -175h-252zM-109 0l73 227l541 362l9 22h-418l76 229h788l-74 -227l-541 -362l-9 -22h418l-76 -229h-787z" glyph-name="zacute" horiz-adv-x="849" unicode="ź"/><glyph d="M591 893q-36 0 -59.5 24t-23.5 58q0 43 35.5 76.5t78.5 33.5q36 0 59.5 -24t23.5 -58q0 -43 -35.5 -76.5t-78.5 -33.5zM-109 0l73 227l541 362l9 22h-418l76 229h788l-74 -227l-541 -362l-9 -22h418l-76 -229h-787z" glyph-name="Zdotaccent" horiz-adv-x="849" unicode="Ż"/><glyph d="M591 893q-36 0 -59.5 24t-23.5 58q0 43 35.5 76.5t78.5 33.5q36 0 59.5 -24t23.5 -58q0 -43 -35.5 -76.5t-78.5 -33.5zM-109 0l73 227l541 362l9 22h-418l76 229h788l-74 -227l-541 -362l-9 -22h418l-76 -229h-787z" glyph-name="zdotaccent" horiz-adv-x="849" unicode="ż"/><glyph d="M899 1035l-175 -175h-352l-77 175h228l28 -75h36l64 75h248zM-109 0l73 227l541 362l9 22h-418l76 229h788l-74 -227l-541 -362l-9 -22h418l-76 -229h-787z" glyph-name="Zcaron" horiz-adv-x="849" unicode="Ž"/><glyph d="M899 1035l-175 -175h-352l-77 175h228l28 -75h36l64 75h248zM-109 0l73 227l541 362l9 22h-418l76 229h788l-74 -227l-541 -362l-9 -22h418l-76 -229h-787z" glyph-name="zcaron" horiz-adv-x="849" unicode="ž"/><glyph d="M702 682q-97 0 -127 -90l-13 -42h219l-69 -211h-218l-31 -97q-43 -130 -143.5 -194t-225.5 -64q-122 0 -173 38l64 200q71 -27 112 -27q97 0 127 90l17 54h-214l69 211h213l27 85q43 130 143.5 194t225.5 64q122 0 173 -38l-64 -200q-71 27 -112 27z" glyph-name="florin" horiz-adv-x="787" unicode="ƒ"/><glyph d="M812 860h-352l-77 175h228l28 -75h36l64 75h248zM440 840h390l38 -840h-275l-2 111h-354l-73 -111h-295zM372 316h217l-4 264h-40z" glyph-name="uni01CD" unicode="Ǎ"/><glyph d="M812 860h-352l-77 175h228l28 -75h36l64 75h248zM440 840h390l38 -840h-275l-2 111h-354l-73 -111h-295zM372 316h217l-4 264h-40z" glyph-name="uni01CE" unicode="ǎ"/><glyph d="M646 1035l-175 -175h-352l-77 175h228l28 -75h36l64 75h248zM-101 0l271 840h277l-271 -840h-277z" glyph-name="uni01CF" horiz-adv-x="346" unicode="Ǐ"/><glyph d="M646 1035l-175 -175h-352l-77 175h228l28 -75h36l64 75h248zM-101 0l271 840h277l-271 -840h-277z" glyph-name="uni01D0" horiz-adv-x="346" unicode="ǐ"/><glyph d="M679 864q150 -17 232.5 -107t82.5 -235q0 -144 -77 -270t-214.5 -203t-303.5 -77q-183 0 -285 92t-102 254q0 204 149 362.5t374 183.5h-85l-77 175h228l28 -75h36l64 75h248l-175 -175h-123zM444 211q117 0 194.5 83.5t79.5 183.5q0 73 -44.5 112t-111.5 39 q-117 0 -194.5 -83.5t-79.5 -183.5q0 -73 44.5 -112t111.5 -39z" glyph-name="uni01D1" horiz-adv-x="1006" unicode="Ǒ"/><glyph d="M679 864q150 -17 232.5 -107t82.5 -235q0 -144 -77 -270t-214.5 -203t-303.5 -77q-183 0 -285 92t-102 254q0 204 149 362.5t374 183.5h-85l-77 175h228l28 -75h36l64 75h248l-175 -175h-123zM444 211q117 0 194.5 83.5t79.5 183.5q0 73 -44.5 112t-111.5 39 q-117 0 -194.5 -83.5t-79.5 -183.5q0 -73 44.5 -112t111.5 -39z" glyph-name="uni01D2" horiz-adv-x="1006" unicode="ǒ"/><glyph d="M950 1035l-175 -175h-352l-77 175h228l28 -75h36l64 75h248zM365 -28q-232 0 -320.5 104t-23.5 302l152 462h281l-160 -483q-25 -74 2 -114.5t108 -40.5q83 0 133.5 44t81.5 139l148 455h281l-159 -488q-67 -206 -189.5 -293t-334.5 -87z" glyph-name="uni01D3" horiz-adv-x="947" unicode="Ǔ"/><glyph d="M950 1035l-175 -175h-352l-77 175h228l28 -75h36l64 75h248zM365 -28q-232 0 -320.5 104t-23.5 302l152 462h281l-160 -483q-25 -74 2 -114.5t108 -40.5q83 0 133.5 44t81.5 139l148 455h281l-159 -488q-67 -206 -189.5 -293t-334.5 -87z" glyph-name="uni01D4" horiz-adv-x="947" unicode="ǔ"/><glyph d="M994 522q0 -205 -150 -363.5t-376 -182.5q-7 -11 -7 -24q0 -44 51 -43v-150q-39 0 -76.5 7t-75 23t-60.5 48t-23 76q0 39 17 68q-136 25 -209 112.5t-73 224.5q0 144 77 270t214.5 203t303.5 77q183 0 285 -92t102 -254zM562 629q-117 0 -194.5 -83.5t-79.5 -183.5 q0 -73 44.5 -112t111.5 -39q117 0 194.5 83.5t79.5 183.5q0 73 -44.5 112t-111.5 39z" glyph-name="uni01EA" horiz-adv-x="1006" unicode="Ǫ"/><glyph d="M878 564h-227q7 37 -27.5 64.5t-114.5 27.5q-71 0 -113.5 -22t-42.5 -59q0 -45 80 -59l49 -9q14 -3 49 -9t56 -10t55 -13t56 -18t47.5 -25.5t40.5 -35.5t25 -46t10 -60q0 -87 -39.5 -150t-110 -99t-156 -52.5t-189.5 -16.5q-82 0 -145.5 10t-114 32t-76 57.5t-31.5 87 t20 119.5h235q-10 -48 33 -71t118 -23q80 0 132.5 20t52.5 61q0 51 -97 65l-67 11q-29 4 -44 6.5t-51 10.5t-58 17t-52.5 26t-48 37t-30.5 50.5t-13 66.5q0 147 126.5 230t332.5 83q130 0 219.5 -35.5t121.5 -103t-11 -165.5zM446 -66v1q1 1 1 2zM100 -265l64 199h282 q-96 -285 -197 -406h-128q52 118 75 207h-96z" glyph-name="Scommaaccent" horiz-adv-x="894" unicode="Ș"/><glyph d="M878 564h-227q7 37 -27.5 64.5t-114.5 27.5q-71 0 -113.5 -22t-42.5 -59q0 -45 80 -59l49 -9q14 -3 49 -9t56 -10t55 -13t56 -18t47.5 -25.5t40.5 -35.5t25 -46t10 -60q0 -87 -39.5 -150t-110 -99t-156 -52.5t-189.5 -16.5q-82 0 -145.5 10t-114 32t-76 57.5t-31.5 87 t20 119.5h235q-10 -48 33 -71t118 -23q80 0 132.5 20t52.5 61q0 51 -97 65l-67 11q-29 4 -44 6.5t-51 10.5t-58 17t-52.5 26t-48 37t-30.5 50.5t-13 66.5q0 147 126.5 230t332.5 83q130 0 219.5 -35.5t121.5 -103t-11 -165.5zM446 -66v1q1 1 1 2zM100 -265l64 199h282 q-96 -285 -197 -406h-128q52 118 75 207h-96z" glyph-name="scommaaccent" horiz-adv-x="894" unicode="ș"/><glyph d="M1042 840l-75 -231h-296l-199 -609h-277l199 609h-303l74 231h877zM465 -66l1 1v2zM119 -265l64 199h282q-96 -285 -197 -406h-128q52 118 75 207h-96z" glyph-name="uni021A" horiz-adv-x="936" unicode="Ț"/><glyph d="M1042 840l-75 -231h-296l-199 -609h-277l199 609h-303l74 231h877zM465 -66l1 1v2zM119 -265l64 199h282q-96 -285 -197 -406h-128q52 118 75 207h-96z" glyph-name="uni021B" horiz-adv-x="936" unicode="ț"/><glyph d="M84 680l175 175h352l77 -175h-228l-28 75h-36l-64 -75h-248z" glyph-name="circumflex" horiz-adv-x="604" unicode="ˆ"/><glyph d="M736 825l-175 -175h-352l-77 175h228l28 -75h36l64 75h248z" glyph-name="caron" horiz-adv-x="604" unicode="ˇ"/><glyph d="M335 680q-114 0 -167 39t-28 136h157q-12 -58 54 -58q31 0 55 14.5t32 43.5h156q-22 -98 -88.5 -136.5t-170.5 -38.5z" glyph-name="breve" horiz-adv-x="454" unicode="˘"/><glyph d="M200 683q-36 0 -59.5 24t-23.5 58q0 43 35.5 76.5t78.5 33.5q36 0 59.5 -24t23.5 -58q0 -43 -35.5 -76.5t-78.5 -33.5z" glyph-name="dotaccent" horiz-adv-x="197" unicode="˙"/><glyph d="M230 615q-54 0 -86.5 33t-32.5 85q0 72 50 119t116 47q53 0 85 -32.5t32 -83.5q0 -69 -48 -118.5t-116 -49.5zM248 729q15 0 25 11t10 26q0 8 -6 14.5t-17 6.5q-15 0 -25 -11t-10 -26q0 -8 6 -14.5t17 -6.5z" glyph-name="ring" horiz-adv-x="284" unicode="˚"/><glyph d="M78 -243q-39 0 -76.5 7t-75 23t-60.5 48t-23 76q0 151 262 158v-69q-43 0 -60.5 -15t-17.5 -35q0 -44 51 -43v-150z" glyph-name="ogonek" horiz-adv-x="293" unicode="˛"/><glyph d="M453 678q-49 0 -113 29t-93 29q-57 0 -62 -42h-75q-13 83 32.5 126t112.5 43q48 0 112.5 -29t93.5 -29q57 0 62 42h75q13 -84 -32 -126.5t-113 -42.5z" glyph-name="tilde" horiz-adv-x="481" unicode="˜"/><glyph d="M84 680l103 175h252l-103 -175h-252zM382 680l103 175h252l-103 -175h-252z" glyph-name="hungarumlaut" horiz-adv-x="597" unicode="˝"/><glyph d="M-166 -63l-1 -3l1 1v2zM-513 -265l64 199h282q-96 -285 -197 -406h-128q52 118 75 207h-96z" glyph-name="uni0326" horiz-adv-x="0" unicode="̦"/><glyph d="M821 840l38 -840h-990l571 840h381zM315 222h269l-6 358h-32z" glyph-name="Delta" horiz-adv-x="985" unicode="Δ"/><glyph d="M-116 0l69 213h125l11 37q-48 58 -48 141q0 133 80.5 244t208.5 172t269 61q172 0 267.5 -76t95.5 -194q0 -95 -53.5 -186t-143.5 -152l-16 -47h118l-69 -213h-410l83 287q85 23 146.5 90.5t61.5 145.5q0 106 -137 106q-95 0 -167 -66t-72 -154q0 -82 74 -122l-83 -287 h-410z" glyph-name="Omega" horiz-adv-x="954" unicode="Ω"/><glyph d="M600 680h277l-220 -680h-272l24 89h-23q-89 -103 -216 -105l-43 -134h-277l269 830h277l-125 -387q-9 -34 -8.5 -54.5t12.5 -31t22 -13.5t21 -3q54 0 99.5 36.5t60.5 75.5z" glyph-name="mu" horiz-adv-x="828" unicode="μ"/><glyph d="M870 484l-75 -230q-2 -6 -2.5 -11t-1 -8t1 -5.5t2 -3.5t4 -1.5t5 -0.5h6.5h6q15 0 29.5 2.5t23 4t12.5 0.5l-44 -201q-45 -38 -157 -38t-161.5 56.5t-9.5 178.5l84 257h-176l-157 -484h-277l157 484h-83l62 196h897l-62 -196h-84z" glyph-name="pi" horiz-adv-x="998" unicode="π"/><glyph d="M909 890h-252l-103 175h252zM42 0l109 840h277l-86 -544h25l293 544h219l-53 -544h25l263 544h287l-434 -840h-373l52 404h-24l-207 -404h-373z" glyph-name="Wgrave" horiz-adv-x="1285" unicode="Ẁ"/><glyph d="M909 890h-252l-103 175h252zM42 0l109 840h277l-86 -544h25l293 544h219l-53 -544h25l263 544h287l-434 -840h-373l52 404h-24l-207 -404h-373z" glyph-name="wgrave" horiz-adv-x="1285" unicode="ẁ"/><glyph d="M654 890l103 175h252l-103 -175h-252zM42 0l109 840h277l-86 -544h25l293 544h219l-53 -544h25l263 544h287l-434 -840h-373l52 404h-24l-207 -404h-373z" glyph-name="Wacute" horiz-adv-x="1285" unicode="Ẃ"/><glyph d="M654 890l103 175h252l-103 -175h-252zM42 0l109 840h277l-86 -544h25l293 544h219l-53 -544h25l263 544h287l-434 -840h-373l52 404h-24l-207 -404h-373z" glyph-name="wacute" horiz-adv-x="1285" unicode="ẃ"/><glyph d="M631 893q-36 0 -59.5 24t-23.5 58q0 43 35.5 76.5t78.5 33.5q36 0 59.5 -24t23.5 -58q0 -43 -35.5 -76.5t-78.5 -33.5zM941 893q-36 0 -59.5 24t-23.5 58q0 43 35.5 76.5t78.5 33.5q36 0 59.5 -24t23.5 -58q0 -43 -35.5 -76.5t-78.5 -33.5zM42 0l109 840h277l-86 -544h25 l293 544h219l-53 -544h25l263 544h287l-434 -840h-373l52 404h-24l-207 -404h-373z" glyph-name="Wdieresis" horiz-adv-x="1285" unicode="Ẅ"/><glyph d="M631 893q-36 0 -59.5 24t-23.5 58q0 43 35.5 76.5t78.5 33.5q36 0 59.5 -24t23.5 -58q0 -43 -35.5 -76.5t-78.5 -33.5zM941 893q-36 0 -59.5 24t-23.5 58q0 43 35.5 76.5t78.5 33.5q36 0 59.5 -24t23.5 -58q0 -43 -35.5 -76.5t-78.5 -33.5zM42 0l109 840h277l-86 -544h25 l293 544h219l-53 -544h25l263 544h287l-434 -840h-373l52 404h-24l-207 -404h-373z" glyph-name="wdieresis" horiz-adv-x="1285" unicode="ẅ"/><glyph d="M744 478q96 6 154.5 -41t58.5 -122q0 -156 -113.5 -246.5t-289.5 -90.5q-177 0 -235 69t-15 184h227q-6 -38 18 -55.5t47 -17.5q42 0 73.5 28.5t31.5 67.5q0 30 -19 46t-49 16q-39 0 -68 -27h-228l285 320h-142q-43 0 -82.5 -30.5t-55.5 -86.5l-160 -492h-281l186 580 q27 82 61 134t83.5 79.5t104.5 37t138 9.5h613z" glyph-name="uni1E9E" horiz-adv-x="1029" unicode="ẞ"/><glyph d="M742 890h-252l-103 175h252zM1085 840l-527 -582l-83 -258h-277l87 273l-149 567h279l74 -309h22l269 309h305z" glyph-name="Ygrave" horiz-adv-x="959" unicode="Ỳ"/><glyph d="M742 890h-252l-103 175h252zM1085 840l-527 -582l-83 -258h-277l87 273l-149 567h279l74 -309h22l269 309h305z" glyph-name="ygrave" horiz-adv-x="959" unicode="ỳ"/><glyph d="M-4 286l75 231h820l-75 -231h-820z" glyph-name="endash" horiz-adv-x="900" unicode="–"/><glyph d="M-4 286l75 231h900l-75 -231h-900z" glyph-name="emdash" horiz-adv-x="980" unicode="—"/><glyph d="M436 602l-74 -231h-328q112 332 229 471h149q-59 -131 -88 -240h112zM33 368l1 3v-1z" glyph-name="quoteleft" horiz-adv-x="428" unicode="‘"/><glyph d="M514 843l-1 -3l1 1v2zM111 609l74 231h328q-112 -332 -229 -471h-149q59 131 88 240h-112z" glyph-name="quoteright" horiz-adv-x="427" unicode="’"/><glyph d="M317 234l-1 -3v1zM-86 0l74 231h328q-112 -332 -229 -471h-149q59 131 88 240h-112z" glyph-name="quotesinglbase" horiz-adv-x="427" unicode="‚"/><glyph d="M376 842q-51 -126 -78 -240h99l-65 -231h-292l-1 -3q98 332 205 474h132zM726 842q-51 -126 -78 -240h99l-65 -231h-292l-1 -3q98 332 205 474h132z" glyph-name="quotedblleft" horiz-adv-x="746" unicode="“"/><glyph d="M141 369q51 126 78 240h-99l65 231h292l1 3q-98 -332 -205 -474h-132zM491 369q51 126 78 240h-99l65 231h292l1 3q-98 -332 -205 -474h-132z" glyph-name="quotedblright" horiz-adv-x="745" unicode="”"/><glyph d="M-68 -277q51 126 78 240h-99l65 231h292l1 3q-98 -332 -205 -474h-132zM282 -277q51 126 78 240h-99l65 231h292l1 3q-98 -332 -205 -474h-132z" glyph-name="quotedblbase" horiz-adv-x="748" unicode="„"/><glyph d="M809 699l-72 -223h-215l-69 -212h-243l69 212h-210l72 223h211l70 213h243l-70 -213h214z" glyph-name="dagger" horiz-adv-x="770" unicode="†"/><glyph d="M737 476h-212l-67 -203h214l-72 -223h-215l-69 -212h-243l69 212h-210l72 223h209l66 203h-210l72 223h211l70 213h243l-70 -213h214z" glyph-name="daggerdbl" horiz-adv-x="770" unicode="‡"/><glyph d="M265 209q-76 0 -121.5 46.5t-45.5 118.5q0 103 80 180t177 77q76 0 121.5 -46.5t45.5 -118.5q0 -103 -79.5 -180t-177.5 -77z" glyph-name="bullet" horiz-adv-x="620" unicode="•"/><glyph d="M56 -16q-52 0 -84 32.5t-32 83.5q0 66 47 111t111 45q52 0 84 -32.5t32 -83.5q0 -66 -47 -111t-111 -45zM415 -16q-52 0 -84 32.5t-32 83.5q0 66 47 111t111 45q52 0 84 -32.5t32 -83.5q0 -66 -47 -111t-111 -45zM774 -16q-52 0 -84 32.5t-32 83.5q0 66 47 111t111 45 q52 0 84 -32.5t32 -83.5q0 -66 -47 -111t-111 -45z" glyph-name="ellipsis" horiz-adv-x="1061" unicode="…"/><glyph d="M238 -29l-101 78l805 825l99 -78zM301 405q-86 0 -136.5 44.5t-50.5 125.5q0 108 83.5 192.5t200.5 84.5q84 0 135.5 -45t51.5 -127q0 -111 -82 -193t-202 -82zM333 564q32 0 56.5 24t24.5 56q0 49 -49 49q-31 0 -55.5 -24.5t-24.5 -55.5q0 -49 48 -49zM782 -12 q-86 0 -136.5 44.5t-50.5 125.5q0 108 83.5 192.5t200.5 84.5q84 0 135.5 -45t51.5 -127q0 -111 -82 -193t-202 -82zM1281 -12q-86 0 -136.5 44.5t-50.5 125.5q0 108 83.5 192.5t200.5 84.5q84 0 135.5 -45t51.5 -127q0 -111 -82 -193t-202 -82zM814 147q32 0 56.5 24 t24.5 56q0 49 -49 49q-32 0 -56 -24t-24 -56q0 -49 48 -49zM1313 147q32 0 56.5 24t24.5 56q0 49 -49 49q-31 0 -55.5 -24t-24.5 -56q0 -49 48 -49z" glyph-name="perthousand" horiz-adv-x="1680" unicode="‰"/><glyph d="M647 720l-291 -299l109 -301h-299l-106 301l293 299h294z" glyph-name="guilsinglleft" horiz-adv-x="621" unicode="‹"/><glyph d="M-26 120l291 299l-109 301h299l106 -301l-293 -299h-294z" glyph-name="guilsinglright" horiz-adv-x="621" unicode="›"/><glyph d="M597 629q-65 0 -119 -29.5t-89 -78.5h173l-30 -91h-187q-6 -26 -7 -38h181l-30 -92h-143q17 -43 55.5 -66t89.5 -23q139 0 212 129h254q-28 -85 -74.5 -151.5t-99 -106.5t-115 -65.5t-117 -35t-110.5 -9.5q-168 0 -264.5 87t-103.5 241h-91l30 92h66q0 6 1 12t2.5 13.5 l2.5 12.5h-59l30 91h57q64 154 207 250.5t329 96.5q183 0 284.5 -108.5t64.5 -263.5h-253q-2 64 -42.5 98.5t-104.5 34.5z" glyph-name="Euro" horiz-adv-x="1004" unicode="€"/><glyph d="M953 419q-78 0 -123.5 43.5t-45.5 118.5q0 108 80 186.5t192 78.5q78 0 123.5 -44.5t45.5 -118.5q0 -107 -80 -185.5t-192 -78.5zM-101 0l272 840h245l-11 -394h24l127 394h250l-272 -840h-245l10 395h-24l-126 -395h-250zM985 566q37 0 62 26.5t25 56.5q0 48 -49 48 q-37 0 -62.5 -26.5t-25.5 -57.5q0 -47 50 -47zM636 80l71 219h376l-71 -219h-376z" glyph-name="afii61352" horiz-adv-x="1172" unicode="№"/><glyph d="M795 840h171l-123 -380h-117l69 215h-11l-102 -215h-118l40 215h-17l-69 -215h-117l88 273h-103l-88 -273h-129l89 273h-127l35 107h527l-41 -256h18z" glyph-name="trademark" horiz-adv-x="860" unicode="™"/><glyph d="M567 862q137 0 210.5 -53t81 -149.5t-37.5 -233.5q-153 -448 -552 -448q-150 0 -225 52.5t-75 150.5q0 104 63.5 183.5t169.5 120.5t237 41q108 0 152 -26q70 156 -94 156q-50 0 -96 -18t-66 -56h-226q46 137 168 208.5t290 71.5zM338 182q74 0 125.5 34t51.5 85 q0 69 -106 69q-74 0 -125.5 -32t-51.5 -82q0 -74 106 -74z" glyph-name="partialdiff" horiz-adv-x="850" unicode="∂"/><glyph d="M854 900l-74 -231h-1l-266 -819h-277l266 819h-109l-266 -819h-277l297 915h1l43 135h663z" glyph-name="product" horiz-adv-x="733" unicode="∏"/><glyph d="M-146 -150l70 231l415 285l-214 303l70 231h648l-74 -231h-350l210 -289l-2 -28l-391 -271h340l-74 -231h-648z" glyph-name="summation" horiz-adv-x="722" unicode="∑"/><glyph d="M12 305l76 231h628l-76 -231h-628z" glyph-name="minus" horiz-adv-x="728" unicode="−"/><glyph d="M104 -150l22 413h-127l74 231h277l-23 -385h19l393 791h226l-543 -1050h-318z" glyph-name="radical" horiz-adv-x="859" unicode="√"/><glyph d="M698 635q133 0 133 -127q0 -115 -84 -209.5t-197 -94.5q-63 0 -97 29t-56 84q-60 -55 -114 -84t-116 -29q-136 0 -136 126q0 116 85.5 210.5t198.5 94.5q62 0 96 -29.5t56 -84.5q61 55 114.5 84.5t116.5 29.5zM210 399q0 -16 9.5 -26t25.5 -10q42 0 115 59 q-22 34 -37.5 45.5t-36.5 11.5q-29 0 -52.5 -26t-23.5 -54zM579 363q29 0 52 26t23 53q0 16 -9 26.5t-25 10.5q-40 0 -114 -57q19 -35 36 -47t37 -12z" glyph-name="infinity" horiz-adv-x="864" unicode="∞"/><glyph d="M41 -150q-122 0 -173 38l64 200q71 -27 112 -27q97 0 127 90l155 484q22 69 61 120t88.5 80.5t104 43.5t115.5 14q122 0 173 -38l-64 -200q-71 27 -112 27q-97 0 -127 -90l-155 -484q-28 -88 -87 -147.5t-130 -85t-152 -25.5z" glyph-name="integral" horiz-adv-x="767" unicode="∫"/><glyph d="M471 431q-53 1 -118.5 37t-103.5 36q-70 0 -96 -60h-94q21 107 99.5 163t170.5 56q52 0 117 -36t103 -37q72 3 98 60h94q-21 -106 -100 -161.5t-170 -57.5zM390 175q-53 1 -118.5 37t-103.5 36q-70 0 -96 -60h-94q21 107 99.5 163t170.5 56q52 0 117 -36t103 -37 q72 3 98 60h94q-21 -106 -100 -161.5t-170 -57.5z" glyph-name="approxequal" horiz-adv-x="719" unicode="≈"/><glyph d="M828 839l-130 -161h64l-76 -231h-173l-43 -53h200l-76 -231h-310l-98 -122h-286l98 122h-32l76 231h142l43 53h-169l76 231h278l130 161h286z" glyph-name="notequal" horiz-adv-x="728" unicode="≠"/><glyph d="M635 294l-557 203l94 294l696 207l-76 -234l-436 -104l-8 -26l363 -104zM-86 0l76 231h628l-76 -231h-628z" glyph-name="lessequal" horiz-adv-x="729" unicode="≤"/><glyph d="M235 992l541 -203l-91 -294l-676 -207l74 234l423 104l8 26l-353 104zM-89 0l76 231h628l-76 -231h-628z" glyph-name="greaterequal" horiz-adv-x="726" unicode="≥"/><glyph d="M116 0q-8 0 -14.5 10.5t-3.5 17.5l-48 392l304 420q2 7 4.5 3.5t7.5 -3.5h280q8 0 14.5 -10.5t3.5 -17.5l48 -392l-304 -420q-2 -3 -3 -3.5t-1 0.5t-2 2t-6 1h-280zM303 194l180 228l-24 224l-180 -228z" glyph-name="lozenge" horiz-adv-x="762" unicode="◊"/><glyph d="M563 629q-118 0 -196 -81.5t-78 -186.5q0 -72 46 -111t118 -39q22 0 45 3.5t57 13.5t64.5 35t49.5 62h-207l46 140h467q-40 -248 -195.5 -370.5t-388.5 -122.5q-177 0 -277.5 93t-100.5 257q0 107 45.5 206.5t123.5 174.5t191.5 120t242.5 45q179 0 284 -95t87 -231h-278 q-14 40 -53 63.5t-93 23.5z" glyph-name="G.aalt" horiz-adv-x="999"/><glyph d="M338 893q-36 0 -59.5 24t-23.5 58q0 43 35.5 76.5t78.5 33.5q36 0 59.5 -24t23.5 -58q0 -43 -35.5 -76.5t-78.5 -33.5zM-101 0l271 840h277l-271 -840h-277z" glyph-name="i.aalt" horiz-adv-x="346"/><glyph d="M563 629q-118 0 -196 -81.5t-78 -186.5q0 -72 46 -111t118 -39q22 0 45 3.5t57 13.5t64.5 35t49.5 62h-207l46 140h467q-40 -248 -195.5 -370.5t-388.5 -122.5q-177 0 -277.5 93t-100.5 257q0 107 45.5 206.5t123.5 174.5t191.5 120t242.5 45q179 0 284 -95t87 -231h-278 q-14 40 -53 63.5t-93 23.5z" glyph-name="g.aalt" horiz-adv-x="999"/></font>
</defs>
</svg>
