<?xml version="1.0" standalone="no"?>
<!DOCTYPE svg PUBLIC "-//W3C//DTD SVG 1.1//EN" "http://www.w3.org/Graphics/SVG/1.1/DTD/svg11.dtd">
<svg xmlns="http://www.w3.org/2000/svg"><metadata>This SVG WebFont was generated by YouWorkForThem.
Â© 2017 Connary Fagen</metadata><defs><font horiz-adv-x="900" id="ywftsvg"><font-face ascent="960" bbox="-436 -422 1613 1078" cap-height="840" descent="-240" font-family="" font-stretch="normal" font-weight="400" panose-1="0 0 5 0 0 0 0 0 0 0" underline-position="0" underline-thickness="0" unicode-range="U+0020-25CA" units-per-em="1200" x-height="840"/><missing-glyph d="M431 900v-1050h-333v1050h333zM350 830h-174v-35h69v-39h-70v-34h175v34h-70v39h70v35zM280 694h-105v-109h175v36h-70v73zM245 659v-38h-35v38h35zM350 557h-175v-35h70v-39h-70v-34h105v73h70v35zM350 494h-35v-70h-140v-35h175v105zM350 366h-105v-59h35v24h35v-49 h-105v84h-35v-119h175v119zM350 184h-175v-119h175v119zM315 149v-49h-105v49h105zM350 41h-175v-35h74l-74 -49v-35h175v35h-107l73 49h34v35z" horiz-adv-x="525"/><glyph d="M431 900v-1050h-333v1050h333zM350 830h-174v-35h69v-39h-70v-34h175v34h-70v39h70v35zM280 694h-105v-109h175v36h-70v73zM245 659v-38h-35v38h35zM350 557h-175v-35h70v-39h-70v-34h105v73h70v35zM350 494h-35v-70h-140v-35h175v105zM350 366h-105v-59h35v24h35v-49 h-105v84h-35v-119h175v119zM350 184h-175v-119h175v119zM315 149v-49h-105v49h105zM350 41h-175v-35h74l-74 -49v-35h175v35h-107l73 49h34v35z" glyph-name=".notdef" horiz-adv-x="525"/><glyph glyph-name="glyph1" horiz-adv-x="0"/><glyph glyph-name="glyph2" horiz-adv-x="400"/><glyph glyph-name="space" horiz-adv-x="253" unicode=" "/><glyph d="M29 291l150 549h207l-231 -549h-126zM24 -16q-40 0 -65.5 25.5t-25.5 65.5q0 50 36 85t86 35q40 0 65 -25.5t25 -65.5q0 -50 -36 -85t-85 -35z" glyph-name="exclam" horiz-adv-x="293" unicode="!"/><glyph d="M87 492l99 348h178l-128 -348h-149zM326 492l99 348h178l-128 -348h-149z" glyph-name="quotedbl" horiz-adv-x="516" unicode="&quot;"/><glyph d="M794 509h-105l-55 -169h105l-49 -152h-105l-61 -188h-172l61 188h-173l-61 -188h-172l61 188h-106l49 152h106l55 169h-106l47 143h105l61 188h172l-61 -188h173l61 188h172l-61 -188h105zM462 340l55 169h-173l-55 -169h173z" glyph-name="numbersign" horiz-adv-x="803" unicode="#"/><glyph d="M749 557h-172q20 90 -79 104l-60 -183q42 -8 70 -14.5t66 -20.5t61 -31.5t39.5 -46.5t16.5 -65q0 -74 -54 -131.5t-142.5 -89t-197.5 -37.5l-20 -62h-79l20 62q-139 6 -202.5 66.5t-28.5 174.5h177q-13 -47 14.5 -72.5t84.5 -30.5l61 189q-49 10 -83.5 21t-72 31 t-57.5 52t-20 74q0 106 107.5 174.5t264.5 75.5l21 65h79l-21 -65q58 -4 102 -19t77 -43.5t39 -72t-11 -105.5zM278 566q0 -48 86 -73l55 169q-59 -6 -100 -32t-41 -64zM498 276q0 27 -24.5 45t-75.5 31l-56 -172q67 6 111.5 31t44.5 65z" glyph-name="dollar" horiz-adv-x="762" unicode="$"/><glyph d="M181 -31l-79 64l816 840l78 -63zM289 433q-78 0 -124 43t-46 117q0 101 80 180t189 79q77 0 123.5 -43.5t46.5 -117.5q0 -105 -78.5 -181.5t-190.5 -76.5zM313 554q46 0 81 34.5t35 78.5q0 30 -16.5 47t-48.5 17q-47 0 -81.5 -34t-34.5 -79q0 -30 16.5 -47t48.5 -17z M711 -12q-79 0 -125 43t-46 117q0 102 80 180.5t189 78.5q78 0 124.5 -43t46.5 -118q0 -105 -78.5 -181.5t-190.5 -76.5zM735 109q46 0 81 34.5t35 78.5q0 65 -66 65q-46 0 -81 -34.5t-35 -78.5q0 -65 66 -65z" glyph-name="percent" horiz-adv-x="1099" unicode="%"/><glyph d="M948 437q-55 -165 -157 -272l75 -74l-123 -118l-84 86q-149 -86 -342 -86q-161 0 -252 60t-91 170q0 103 78 179.5t201 109.5q-32 59 -32 118q0 115 108.5 183.5t271.5 68.5q161 0 238 -78t29 -220h-169q24 75 -10.5 111t-114.5 36q-77 0 -127 -30.5t-50 -81.5 q0 -32 20.5 -59.5t75.5 -81.5l186 -183q70 76 99 162h170zM350 130q105 0 195 45l-214 219q-74 -20 -114.5 -58t-40.5 -91q0 -42 27 -69t64 -36.5t83 -9.5z" glyph-name="ampersand" horiz-adv-x="1005" unicode="&amp;"/><glyph d="M87 492l99 348h178l-128 -348h-149z" glyph-name="quotesingle" horiz-adv-x="278" unicode="'"/><glyph d="M329 -145q-330 0 -330 337q0 116 29.5 230t89 215.5t141.5 179t195 122.5t241 45l-51 -166q-102 0 -191.5 -58.5t-147.5 -148t-91.5 -194t-33.5 -199.5q0 -104 48 -151t153 -47z" glyph-name="parenleft" horiz-adv-x="557" unicode="("/><glyph d="M228 984q330 0 330 -337q0 -116 -29.5 -230t-89 -215.5t-141.5 -179t-195 -122.5t-241 -45l51 166q102 0 191.5 58.5t147.5 148t91.5 194t33.5 199.5q0 104 -48 151t-153 47z" glyph-name="parenright" horiz-adv-x="558" unicode=")"/><glyph d="M653 652l-187 -82l138 -80l-93 -108l-123 103l-49 -184h-124l68 177l-176 -96l-31 108l187 82l-138 80l93 107l123 -103l49 184h124l-68 -177l176 96z" glyph-name="asterisk" horiz-adv-x="632" unicode="*"/><glyph d="M663 501l-52 -162h-207l-67 -206h-175l67 206h-205l52 162h206l67 207h175l-67 -207h206z" glyph-name="plus" horiz-adv-x="687" unicode="+"/><glyph d="M-78 -233q61 128 88 233h-96l54 167h255l-3 -8q-88 -267 -188 -392h-110z" glyph-name="comma" horiz-adv-x="355" unicode=","/><glyph d="M12 335l55 168h580l-55 -168h-580z" glyph-name="hyphen" horiz-adv-x="660" unicode="-"/><glyph d="M24 -16q-40 0 -65.5 25.5t-25.5 65.5q0 50 36 85t86 35q40 0 65 -25.5t25 -65.5q0 -50 -36 -85t-85 -35z" glyph-name="period" horiz-adv-x="288" unicode="."/><glyph d="M-126 0l658 840h233l-658 -840h-233z" glyph-name="slash" horiz-adv-x="639" unicode="/"/><glyph d="M305 -22q-195 0 -266.5 117t0.5 347q68 210 201.5 315t315.5 105q195 0 266 -116.5t0 -347.5q-68 -210 -201 -315t-316 -105zM333 140q103 0 185 74.5t129 225.5q30 93 21.5 150.5t-43.5 83.5t-97 26q-103 0 -184.5 -74t-129.5 -226q-31 -93 -22 -150.5t44 -83.5t97 -26z " glyph-name="zero" horiz-adv-x="856" unicode="0"/><glyph d="M603 840l-223 -685h173l-50 -155h-592l50 155h220l156 479q-86 -54 -223 -48l54 164q109 0 236 90h199z" glyph-name="one" horiz-adv-x="681" unicode="1"/><glyph d="M800 669q0 -58 -27 -109.5t-73 -91t-103 -73.5t-120.5 -64.5t-120.5 -57t-109.5 -57.5t-81.5 -61h475l-50 -155h-694l33 102q24 74 103 138.5t173.5 110.5t186 88.5t153 89.5t61.5 96q0 77 -119 77q-161 0 -205 -121h-185q33 134 142 207.5t273 73.5q142 0 215 -50 t73 -143z" glyph-name="two" horiz-adv-x="769" unicode="2"/><glyph d="M258 -22q-172 0 -249 70t-30 208h173q-15 -64 24 -91t113 -27q98 0 165.5 39t67.5 101q0 93 -177 93h-38l38 122h32q97 0 166 37t69 95q0 40 -36.5 59t-94.5 19q-161 0 -207 -121h-172q35 141 144.5 210.5t266.5 69.5q134 0 209 -49.5t75 -131.5q0 -79 -56 -141.5 t-152 -94.5l-4 -14q54 -17 88.5 -59t34.5 -102q0 -69 -39 -126t-103 -92.5t-143.5 -54.5t-164.5 -19z" glyph-name="three" horiz-adv-x="801" unicode="3"/><glyph d="M825 840l-167 -515h117l-50 -154h-117l-55 -171h-204l57 171h-445l50 154l577 515h237zM458 325l108 321l-361 -321h253z" glyph-name="four" horiz-adv-x="843" unicode="4"/><glyph d="M259 -22q-164 0 -238.5 74.5t-34.5 201.5h173q-9 -62 29 -89.5t104 -27.5q106 0 171.5 55t65.5 130q0 52 -35.5 80t-103.5 28q-118 0 -199 -71h-177l158 481h621l-50 -154h-449l-62 -187q103 57 230 57q113 0 181 -54.5t68 -158.5q0 -159 -125 -262t-327 -103z" glyph-name="five" horiz-adv-x="786" unicode="5"/><glyph d="M820 598h-160q9 57 -25 85.5t-102 28.5q-217 0 -302 -250q98 77 254 77q124 0 193.5 -50t69.5 -154q0 -158 -126.5 -257.5t-312.5 -99.5q-144 0 -220 75t-76 210q0 109 37 214t104.5 192t175 140t237.5 53q146 0 219.5 -73.5t33.5 -190.5zM428 414q-98 0 -164.5 -55.5 t-66.5 -129.5q0 -49 36 -76t100 -27q96 0 163.5 56t67.5 133q0 49 -37 74t-99 25z" glyph-name="six" horiz-adv-x="823" unicode="6"/><glyph d="M170 840h688l-52 -159l-636 -681h-216l642 681h-479z" glyph-name="seven" horiz-adv-x="749" unicode="7"/><glyph d="M293 -22q-161 0 -242 58.5t-81 155.5q0 89 61 159t168 109l5 11q-56 51 -56 129q0 115 104 188.5t268 73.5q137 0 206 -49t69 -132q0 -69 -45 -123t-118 -86l-4 -12q106 -60 106 -179q0 -93 -61 -163t-160 -105t-220 -35zM434 516q76 0 127.5 34.5t51.5 89.5 q0 83 -117 83q-75 0 -125.5 -35.5t-50.5 -89.5q0 -82 114 -82zM312 129q99 0 164.5 46.5t65.5 114.5q0 53 -40.5 77t-105.5 24q-100 0 -165.5 -47t-65.5 -115q0 -52 40.5 -76t106.5 -24z" glyph-name="eight" horiz-adv-x="820" unicode="8"/><glyph d="M514 862q144 0 220 -75t76 -210q0 -109 -37 -214t-104.5 -192t-175 -140t-237.5 -53q-146 0 -219.5 73.5t-33.5 190.5h160q-9 -57 25 -85.5t102 -28.5q217 0 302 250q-98 -77 -254 -77q-124 0 -193.5 50t-69.5 154q0 158 126.5 257.5t312.5 99.5zM395 426 q98 0 164.5 55.5t66.5 129.5q0 49 -36 76t-100 27q-96 0 -163.5 -56t-67.5 -133q0 -49 37 -74t99 -25z" glyph-name="nine" horiz-adv-x="823" unicode="9"/><glyph d="M202 531q-40 0 -65.5 25.5t-25.5 65.5q0 50 36 85t86 35q40 0 65 -25.5t25 -65.5q0 -50 -36 -85t-85 -35zM59 89q-40 0 -65.5 25.5t-25.5 65.5q0 50 36 85t86 35q40 0 65 -25.5t25 -65.5q0 -50 -36 -85t-85 -35z" glyph-name="colon" horiz-adv-x="289" unicode=":"/><glyph d="M202 531q-40 0 -65.5 25.5t-25.5 65.5q0 50 36 85t86 35q40 0 65 -25.5t25 -65.5q0 -50 -36 -85t-85 -35zM-52 -122q61 128 88 233h-96l54 167h255l-3 -8q-88 -267 -188 -392h-110z" glyph-name="semicolon" horiz-adv-x="329" unicode=";"/><glyph d="M501 108l-482 207l65 208l617 209l-54 -173l-423 -129l-7 -22l337 -129z" glyph-name="less" horiz-adv-x="653" unicode="&lt;"/><glyph d="M58 446l55 168h562l-55 -168h-562zM-13 227l55 167h562l-55 -167h-562z" glyph-name="equal" horiz-adv-x="662" unicode="="/><glyph d="M151 732l482 -207l-65 -208l-617 -209l54 173l423 129l7 22l-337 129z" glyph-name="greater" horiz-adv-x="652" unicode=">"/><glyph d="M235 285q9 65 52.5 113.5t97.5 76t107.5 50t89.5 49t36 59.5t-37.5 51.5t-105.5 18.5q-174 0 -225 -142h-180q72 301 438 301q146 0 231.5 -49t85.5 -143q0 -54 -28 -99t-69.5 -73.5t-91.5 -56t-93.5 -48.5t-75.5 -49t-37 -59h-195zM273 -16q-40 0 -65.5 25.5t-25.5 65.5 q0 50 36 85t86 35q40 0 65 -25.5t25 -65.5q0 -50 -36 -85t-85 -35z" glyph-name="question" horiz-adv-x="776" unicode="?"/><glyph d="M857 210q-85 -113 -205 -175.5t-267 -62.5q-170 0 -268.5 90.5t-98.5 246.5q0 107 46 209.5t124.5 179t189 123.5t231.5 47q167 0 268 -88.5t101 -229.5q0 -110 -60 -191t-163 -81q-116 0 -75 109l104 251h-80l-33 -45h-11q-35 59 -125 59q-82 0 -153 -47t-111 -119 t-40 -148q0 -77 41.5 -117.5t115.5 -40.5q116 0 185 80h11q8 -38 41 -59t87 -21q78 0 138 36zM513 555q78 0 80 -84q0 -69 -51 -131.5t-118 -62.5q-38 0 -59 22t-22 64q0 69 52 130.5t118 61.5z" glyph-name="at" horiz-adv-x="982" unicode="@"/><glyph d="M604 0l-7 141h-409l-97 -141h-215l590 840h281l54 -840h-197zM293 292h297l-18 359h-31z" glyph-name="A" horiz-adv-x="935" unicode="A"/><glyph d="M858 671q0 -71 -47 -129t-134 -85l-5 -13q114 -46 114 -164q0 -135 -119 -207.5t-307 -72.5h-454l272 840h417q263 0 263 -169zM483 498q80 0 129.5 31t49.5 82q0 73 -116 73h-218l-60 -186h215zM404 156q83 0 137.5 36t54.5 100q0 80 -122 80h-247l-70 -216h247z" glyph-name="B" horiz-adv-x="868" unicode="B"/><glyph d="M385 -28q-171 0 -269 91t-98 249q0 108 45.5 209.5t123.5 178t190.5 122.5t237.5 46q110 0 193.5 -41t125.5 -116t30 -171h-191q-9 77 -62 116t-134 39q-102 0 -186 -52.5t-129.5 -133.5t-45.5 -170q0 -92 56.5 -143t150.5 -51q172 0 275 152h196q-41 -92 -102 -158.5 t-131.5 -101.5t-137.5 -50t-138 -15z" glyph-name="C" horiz-adv-x="962" unicode="C"/><glyph d="M-92 0l271 840h361q185 0 273.5 -81t88.5 -227q0 -157 -78 -279t-213.5 -187.5t-304.5 -65.5h-398zM162 168h180q154 0 257 97.5t103 238.5q0 86 -52.5 127t-161.5 41h-163z" glyph-name="D" horiz-adv-x="922" unicode="D"/><glyph d="M835 678h-509l-60 -184h502l-45 -138h-502l-63 -194h510l-53 -162h-709l272 840h710z" glyph-name="E" horiz-adv-x="794" unicode="E"/><glyph d="M831 673h-507l-65 -201h477l-52 -159h-477l-102 -313h-199l272 840h707z" glyph-name="F" horiz-adv-x="791" unicode="F"/><glyph d="M577 695q-102 0 -186 -52.5t-129.5 -133.5t-45.5 -170q0 -92 56.5 -143t150.5 -51q52 0 103.5 14t106.5 56.5t84 108.5h-263l39 121h459l-144 -445h-120l32 109q-59 -64 -147 -100.5t-193 -36.5q-168 0 -265 89t-97 247q0 110 45.5 212t124 179t190.5 123t237 46 q159 0 258.5 -83.5t95.5 -215.5h-199q-17 62 -69 94t-124 32z" glyph-name="G" horiz-adv-x="985" unicode="G"/><glyph d="M793 840h199l-270 -840h-199l106 331h-415l-106 -331h-200l271 840h199l-111 -344h415z" glyph-name="H" horiz-adv-x="901" unicode="H"/><glyph d="M-94 0l272 840h200l-272 -840h-200z" glyph-name="I" horiz-adv-x="285" unicode="I"/><glyph d="M257 -28q-169 0 -241 84.5t-17 260.5h198q-29 -96 2.5 -135t96.5 -39q71 0 128 44t88 140l165 513h200l-166 -517q-61 -190 -173.5 -270.5t-280.5 -80.5z" glyph-name="J" horiz-adv-x="784" unicode="J"/><glyph d="M990 840l-463 -379l262 -461h-200l-205 362h-16l-194 -151l-69 -211h-199l274 840h199l-122 -374h24l474 374h235z" glyph-name="K" horiz-adv-x="902" unicode="K"/><glyph d="M-94 0l274 840h199l-219 -673h496l-54 -167h-696z" glyph-name="L" horiz-adv-x="773" unicode="L"/><glyph d="M-92 0l271 840h246l18 -585h18l390 585h269l-270 -840h-192l163 505h-22l-332 -505h-160l-23 505h-21l-163 -505h-192z" glyph-name="M" horiz-adv-x="1029" unicode="M"/><glyph d="M-94 0l274 840h223l211 -570h22l187 570h195l-273 -840h-218l-218 566h-22l-185 -566h-196z" glyph-name="N" horiz-adv-x="924" unicode="N"/><glyph d="M385 -28q-173 0 -270.5 90.5t-97.5 248.5q0 107 45.5 208.5t123 178.5t188 123.5t232.5 46.5q173 0 270.5 -90.5t97.5 -247.5q0 -107 -45.5 -209t-123 -179t-188 -123.5t-232.5 -46.5zM416 145q101 0 185.5 53.5t129.5 134.5t46 167q0 93 -56 144t-146 51 q-101 0 -185.5 -53.5t-129 -134.5t-45.5 -167q0 -93 55.5 -144t145.5 -51z" glyph-name="O" horiz-adv-x="991" unicode="O"/><glyph d="M585 840q291 0 291 -234q0 -176 -124.5 -282t-313.5 -106h-261l-71 -218h-200l274 840h405zM454 384q93 0 157 53t64 135q0 101 -130 101h-219l-95 -290z" glyph-name="P" horiz-adv-x="870" unicode="P"/><glyph d="M974 530q0 -116 -51.5 -223t-142.5 -188l65 -94q-66 -62 -149 -114l-80 107q-111 -46 -231 -46q-173 0 -270.5 90.5t-97.5 248.5q0 107 45.5 208.5t123 178.5t188 123.5t232.5 46.5q173 0 270.5 -90.5t97.5 -247.5zM215 340q0 -93 55.5 -144t145.5 -51q101 0 185.5 53.5 t129.5 134.5t46 167q0 93 -56 144t-146 51q-101 0 -185.5 -53.5t-129 -134.5t-45.5 -167z" glyph-name="Q" horiz-adv-x="996" unicode="Q"/><glyph d="M880 613q0 -111 -64.5 -196t-167.5 -129l71 -288h-192l-60 250h-5h-273l-81 -250h-200l271 840h412q289 0 289 -227zM471 401q84 0 146.5 48.5t62.5 124.5q0 54 -32 76.5t-99 22.5h-224l-88 -273z" glyph-name="R" horiz-adv-x="871" unicode="R"/><glyph d="M305 -28q-94 0 -163.5 16t-116 50.5t-57.5 88.5t12 130h170q-13 -65 36 -96.5t148 -31.5q101 0 169 32t68 95q0 38 -30.5 58.5t-101.5 35.5l-67 15q-31 7 -47 11t-48.5 14t-51.5 19.5t-44.5 26.5t-39.5 36t-24.5 46t-10.5 59q0 136 118 213.5t303 77.5q180 0 269 -76 t38 -206h-165q10 59 -33.5 92.5t-136.5 33.5q-92 0 -148 -33t-56 -88q0 -36 27 -56t86 -34l56 -13q10 -2 46.5 -10.5t52 -12.5t49 -14.5t49.5 -20t40 -25.5t35.5 -34t20.5 -43.5t9 -55.5q0 -78 -37 -137.5t-102.5 -94t-146 -51.5t-175.5 -17z" glyph-name="S" horiz-adv-x="851" unicode="S"/><glyph d="M1000 840l-54 -167h-310l-219 -673h-200l219 673h-316l53 167h827z" glyph-name="T" horiz-adv-x="902" unicode="T"/><glyph d="M330 -28q-207 0 -288 100t-19 287l157 481h202l-163 -497q-33 -97 3 -150.5t136 -53.5q205 0 278 226l155 475h202l-163 -502q-63 -194 -184.5 -280t-315.5 -86z" glyph-name="U" unicode="U"/><glyph d="M203 0l-54 840h195l33 -651h26l447 651h217l-589 -840h-275z" glyph-name="V" horiz-adv-x="944" unicode="V"/><glyph d="M71 0l84 840h198l-69 -627h19l360 627h167l-40 -627h18l335 627h206l-458 -840h-270l39 530h-18l-301 -530h-270z" glyph-name="W" horiz-adv-x="1236" unicode="W"/><glyph d="M-127 0l430 419l7 18l-165 403h204l115 -288h18l278 288h224l-416 -409l-7 -17l170 -414h-212l-113 286h-18l-287 -286h-228z" glyph-name="X" horiz-adv-x="876" unicode="X"/><glyph d="M1025 840l-528 -573l-86 -267h-199l89 279l-157 561h201l100 -372h20l337 372h223z" glyph-name="Y" horiz-adv-x="907" unicode="Y"/><glyph d="M-102 0l52 165l645 492l6 17h-474l55 166h741l-53 -165l-645 -492l-6 -17h479l-55 -166h-745z" glyph-name="Z" horiz-adv-x="820" unicode="Z"/><glyph d="M-138 -135l361 1110h429l-54 -167h-230l-252 -776h230l-54 -167h-430z" glyph-name="bracketleft" horiz-adv-x="515" unicode="["/><glyph d="M524 0l-388 840h225l388 -840h-225z" glyph-name="backslash" horiz-adv-x="885" unicode="\"/><glyph d="M653 975l-361 -1110h-429l54 167h230l252 776h-230l54 167h430z" glyph-name="bracketright" horiz-adv-x="515" unicode="]"/><glyph d="M19 325l367 549h226l30 -549h-164l-5 390h-24l-257 -390h-173z" glyph-name="asciicircum" horiz-adv-x="724" unicode="^"/><glyph d="M-141 -167l55 167h613l-55 -167h-613z" glyph-name="underscore" horiz-adv-x="713" unicode="_"/><glyph d="M425 680h-185l-103 164h184z" glyph-name="grave" horiz-adv-x="341" unicode="`"/><glyph d="M604 0l-7 141h-409l-97 -141h-215l590 840h281l54 -840h-197zM293 292h297l-18 359h-31z" glyph-name="a" horiz-adv-x="935" unicode="a"/><glyph d="M858 671q0 -71 -47 -129t-134 -85l-5 -13q114 -46 114 -164q0 -135 -119 -207.5t-307 -72.5h-454l272 840h417q263 0 263 -169zM483 498q80 0 129.5 31t49.5 82q0 73 -116 73h-218l-60 -186h215zM404 156q83 0 137.5 36t54.5 100q0 80 -122 80h-247l-70 -216h247z" glyph-name="b" horiz-adv-x="868" unicode="b"/><glyph d="M385 -28q-171 0 -269 91t-98 249q0 108 45.5 209.5t123.5 178t190.5 122.5t237.5 46q110 0 193.5 -41t125.5 -116t30 -171h-191q-9 77 -62 116t-134 39q-102 0 -186 -52.5t-129.5 -133.5t-45.5 -170q0 -92 56.5 -143t150.5 -51q172 0 275 152h196q-41 -92 -102 -158.5 t-131.5 -101.5t-137.5 -50t-138 -15z" glyph-name="c" horiz-adv-x="962" unicode="c"/><glyph d="M-92 0l271 840h361q185 0 273.5 -81t88.5 -227q0 -157 -78 -279t-213.5 -187.5t-304.5 -65.5h-398zM162 168h180q154 0 257 97.5t103 238.5q0 86 -52.5 127t-161.5 41h-163z" glyph-name="d" horiz-adv-x="922" unicode="d"/><glyph d="M835 678h-509l-60 -184h502l-45 -138h-502l-63 -194h510l-53 -162h-709l272 840h710z" glyph-name="e" horiz-adv-x="794" unicode="e"/><glyph d="M831 673h-507l-65 -201h477l-52 -159h-477l-102 -313h-199l272 840h707z" glyph-name="f" horiz-adv-x="791" unicode="f"/><glyph d="M577 695q-102 0 -186 -52.5t-129.5 -133.5t-45.5 -170q0 -92 56.5 -143t150.5 -51q52 0 103.5 14t106.5 56.5t84 108.5h-263l39 121h459l-144 -445h-120l32 109q-59 -64 -147 -100.5t-193 -36.5q-168 0 -265 89t-97 247q0 110 45.5 212t124 179t190.5 123t237 46 q159 0 258.5 -83.5t95.5 -215.5h-199q-17 62 -69 94t-124 32z" glyph-name="g" horiz-adv-x="985" unicode="g"/><glyph d="M793 840h199l-270 -840h-199l106 331h-415l-106 -331h-200l271 840h199l-111 -344h415z" glyph-name="h" horiz-adv-x="901" unicode="h"/><glyph d="M-94 0l272 840h200l-272 -840h-200z" glyph-name="i" horiz-adv-x="285" unicode="i"/><glyph d="M257 -28q-169 0 -241 84.5t-17 260.5h198q-29 -96 2.5 -135t96.5 -39q71 0 128 44t88 140l165 513h200l-166 -517q-61 -190 -173.5 -270.5t-280.5 -80.5z" glyph-name="j" horiz-adv-x="784" unicode="j"/><glyph d="M990 840l-463 -379l262 -461h-200l-205 362h-16l-194 -151l-69 -211h-199l274 840h199l-122 -374h24l474 374h235z" glyph-name="k" horiz-adv-x="902" unicode="k"/><glyph d="M-94 0l274 840h199l-219 -673h496l-54 -167h-696z" glyph-name="l" horiz-adv-x="773" unicode="l"/><glyph d="M-92 0l271 840h246l18 -585h18l390 585h269l-270 -840h-192l163 505h-22l-332 -505h-160l-23 505h-21l-163 -505h-192z" glyph-name="m" horiz-adv-x="1029" unicode="m"/><glyph d="M-94 0l274 840h223l211 -570h22l187 570h195l-273 -840h-218l-218 566h-22l-185 -566h-196z" glyph-name="n" horiz-adv-x="924" unicode="n"/><glyph d="M385 -28q-173 0 -270.5 90.5t-97.5 248.5q0 107 45.5 208.5t123 178.5t188 123.5t232.5 46.5q173 0 270.5 -90.5t97.5 -247.5q0 -107 -45.5 -209t-123 -179t-188 -123.5t-232.5 -46.5zM416 145q101 0 185.5 53.5t129.5 134.5t46 167q0 93 -56 144t-146 51 q-101 0 -185.5 -53.5t-129 -134.5t-45.5 -167q0 -93 55.5 -144t145.5 -51z" glyph-name="o" horiz-adv-x="991" unicode="o"/><glyph d="M585 840q291 0 291 -234q0 -176 -124.5 -282t-313.5 -106h-261l-71 -218h-200l274 840h405zM454 384q93 0 157 53t64 135q0 101 -130 101h-219l-95 -290z" glyph-name="p" horiz-adv-x="870" unicode="p"/><glyph d="M974 530q0 -116 -51.5 -223t-142.5 -188l65 -94q-66 -62 -149 -114l-80 107q-111 -46 -231 -46q-173 0 -270.5 90.5t-97.5 248.5q0 107 45.5 208.5t123 178.5t188 123.5t232.5 46.5q173 0 270.5 -90.5t97.5 -247.5zM215 340q0 -93 55.5 -144t145.5 -51q101 0 185.5 53.5 t129.5 134.5t46 167q0 93 -56 144t-146 51q-101 0 -185.5 -53.5t-129 -134.5t-45.5 -167z" glyph-name="q" horiz-adv-x="996" unicode="q"/><glyph d="M880 613q0 -111 -64.5 -196t-167.5 -129l71 -288h-192l-60 250h-5h-273l-81 -250h-200l271 840h412q289 0 289 -227zM471 401q84 0 146.5 48.5t62.5 124.5q0 54 -32 76.5t-99 22.5h-224l-88 -273z" glyph-name="r" horiz-adv-x="871" unicode="r"/><glyph d="M305 -28q-94 0 -163.5 16t-116 50.5t-57.5 88.5t12 130h170q-13 -65 36 -96.5t148 -31.5q101 0 169 32t68 95q0 38 -30.5 58.5t-101.5 35.5l-67 15q-31 7 -47 11t-48.5 14t-51.5 19.5t-44.5 26.5t-39.5 36t-24.5 46t-10.5 59q0 136 118 213.5t303 77.5q180 0 269 -76 t38 -206h-165q10 59 -33.5 92.5t-136.5 33.5q-92 0 -148 -33t-56 -88q0 -36 27 -56t86 -34l56 -13q10 -2 46.5 -10.5t52 -12.5t49 -14.5t49.5 -20t40 -25.5t35.5 -34t20.5 -43.5t9 -55.5q0 -78 -37 -137.5t-102.5 -94t-146 -51.5t-175.5 -17z" glyph-name="s" horiz-adv-x="851" unicode="s"/><glyph d="M1000 840l-54 -167h-310l-219 -673h-200l219 673h-316l53 167h827z" glyph-name="t" horiz-adv-x="902" unicode="t"/><glyph d="M330 -28q-207 0 -288 100t-19 287l157 481h202l-163 -497q-33 -97 3 -150.5t136 -53.5q205 0 278 226l155 475h202l-163 -502q-63 -194 -184.5 -280t-315.5 -86z" glyph-name="u" unicode="u"/><glyph d="M203 0l-54 840h195l33 -651h26l447 651h217l-589 -840h-275z" glyph-name="v" horiz-adv-x="944" unicode="v"/><glyph d="M71 0l84 840h198l-69 -627h19l360 627h167l-40 -627h18l335 627h206l-458 -840h-270l39 530h-18l-301 -530h-270z" glyph-name="w" horiz-adv-x="1236" unicode="w"/><glyph d="M-127 0l430 419l7 18l-165 403h204l115 -288h18l278 288h224l-416 -409l-7 -17l170 -414h-212l-113 286h-18l-287 -286h-228z" glyph-name="x" horiz-adv-x="876" unicode="x"/><glyph d="M1025 840l-528 -573l-86 -267h-199l89 279l-157 561h201l100 -372h20l337 372h223z" glyph-name="y" horiz-adv-x="907" unicode="y"/><glyph d="M-102 0l52 165l645 492l6 17h-474l55 166h741l-53 -165l-645 -492l-6 -17h479l-55 -166h-745z" glyph-name="z" horiz-adv-x="820" unicode="z"/><glyph d="M123 -135q-30 0 -54.5 12.5t-39 43t4.5 81.5l88 264l-75 145l2 21l167 142l96 286q15 48 43.5 75t53.5 33.5t57 6.5h309l-54 -167h-176q-19 0 -39.5 -14.5t-26.5 -33.5l-60 -193l-164 -143l-4 -21l67 -129l-67 -216q-6 -18 -0.5 -22t25.5 -4h193l-54 -167h-292z" glyph-name="braceleft" horiz-adv-x="640" unicode="{"/><glyph d="M-127 -100l339 1040h199l-338 -1040h-200z" glyph-name="bar" horiz-adv-x="285" unicode="|"/><glyph d="M516 975q30 0 54.5 -12.5t39 -43t-4.5 -81.5l-88 -264l75 -145l-2 -21l-167 -142l-96 -286q-15 -48 -43.5 -75t-53.5 -33.5t-57 -6.5h-309l54 167h176q19 0 39.5 14.5t26.5 33.5l60 193l164 143l4 21l-67 129l67 216q6 18 0.5 22t-25.5 4h-193l54 167h292z" glyph-name="braceright" horiz-adv-x="639" unicode="}"/><glyph d="M407 318q-35 0 -64.5 13.5t-47 29t-42.5 28.5t-50 13q-67 0 -93 -59h-84q23 91 89.5 138t146.5 47q34 0 63.5 -13t47.5 -28.5t42.5 -29t49.5 -13.5q66 2 94 59h84q-22 -91 -89.5 -137.5t-146.5 -47.5z" glyph-name="asciitilde" horiz-adv-x="666" unicode="~"/><glyph d="M199 640q40 0 65.5 -25.5t25.5 -65.5q0 -50 -36 -85t-86 -35q-40 0 -65 25.5t-25 65.5q0 50 36 85t85 35zM194 333l-150 -549h-207l231 549h126z" glyph-name="exclamdown" horiz-adv-x="293" unicode="¡"/><glyph d="M706 529q-7 64 -50 100l-351 -445q39 -14 83 -14q157 0 250 138h178q-37 -84 -93 -144.5t-120 -92t-125 -45t-125 -13.5q-90 0 -159 29l-33 -42h-84l58 74q-116 83 -116 248q0 98 41.5 190.5t112.5 161.5t173 111t216 42q79 0 146 -25l30 38h84l-53 -68 q61 -40 90.5 -102.5t19.5 -140.5h-173zM249 218l348 443q-32 9 -69 9q-139 0 -234 -99.5t-95 -224.5q0 -81 50 -128z" glyph-name="cent" horiz-adv-x="880" unicode="¢"/><glyph d="M790 571h-188q22 61 -11 93.5t-107 32.5q-89 0 -144.5 -44t-55.5 -116q0 -23 8.5 -59t10.5 -51h329l-31 -96h-306q-16 -54 -51.5 -98.5t-77.5 -69.5v-8h491l-50 -155h-716l50 155q62 25 114.5 72.5t66.5 103.5h-120l31 96h83q-21 82 -21 124q0 140 119.5 225.5 t303.5 85.5q171 0 248.5 -75t23.5 -216z" glyph-name="sterling" horiz-adv-x="770" unicode="£"/><glyph d="M720 571q0 -66 -29 -122l55 -55l-95 -93l-48 48q-67 -47 -152 -47q-83 0 -151 46l-47 -47l-95 93l53 53q-30 58 -30 124q0 67 32 128l-55 55l95 94l51 -51q67 43 147 43q82 0 148 -44l52 52l95 -94l-57 -57q31 -59 31 -126zM451 425q72 0 110 47.5t38 98.5t-38 99 t-110 48q-73 0 -110.5 -48t-37.5 -99t37.5 -98.5t110.5 -47.5z" glyph-name="currency" horiz-adv-x="804" unicode="¤"/><glyph d="M1025 840l-450 -489h210l-31 -93h-260l-15 -48h260l-31 -94h-259l-38 -116h-199l37 116h-260l32 94h258l15 48h-259l31 93h215l-137 489h201l100 -372h20l337 372h223z" glyph-name="yen" horiz-adv-x="907" unicode="¥"/><glyph d="M59 471l153 469h199l-152 -469h-200zM-127 -100l153 469h200l-153 -469h-200z" glyph-name="brokenbar" horiz-adv-x="285" unicode="¦"/><glyph d="M895 719h-179q21 128 -156 128q-84 0 -137.5 -27t-69.5 -76q-26 -81 93 -104l84 -17q8 -2 39 -8t41.5 -8t38.5 -9t39.5 -11.5t34.5 -13t33 -17t25 -21t21.5 -26.5t12 -32t5.5 -38q0 -88 -49.5 -153.5t-137.5 -105.5q66 -43 66 -124q0 -98 -72.5 -173t-183.5 -111.5 t-239 -36.5q-188 0 -268.5 72t-31.5 217h182q-16 -62 25 -96.5t142 -34.5q96 0 158 29.5t78 80.5q13 43 -14.5 69.5t-98.5 39.5l-95 18q-56 10 -94 21.5t-78 32.5t-60.5 55.5t-20.5 82.5q0 80 55 140t149 95q-81 48 -81 148q0 95 62 164t165.5 103t234.5 34 q76 0 135.5 -15.5t103.5 -49.5t54.5 -88.5t-11.5 -133.5zM616 391q0 73 -118 96l-72 13q-68 11 -134.5 -36t-66.5 -109q0 -68 104 -90l54 -11q86 -17 159.5 26.5t73.5 110.5z" glyph-name="section" horiz-adv-x="852" unicode="§"/><glyph d="M183 690q-30 0 -49.5 20t-19.5 48q0 37 29.5 64t64.5 27q30 0 49.5 -20t19.5 -49q0 -36 -29.5 -63t-64.5 -27zM459 690q-30 0 -49.5 20t-19.5 48q0 37 29.5 64t64.5 27q30 0 49.5 -20t19.5 -49q0 -36 -29.5 -63t-64.5 -27z" glyph-name="dieresis" horiz-adv-x="439" unicode="¨"/><glyph d="M304 319q-97 0 -155.5 57t-58.5 153q0 133 97 233t241 100q97 0 155.5 -57t58.5 -153q0 -133 -97 -233t-241 -100zM322 419q51 0 100.5 24t80.5 82h-76q-34 -45 -91 -45q-34 0 -54 21t-20 57q0 55 42 99.5t97 44.5q26 0 45.5 -12t23.5 -34h75q-1 54 -39 81t-93 27 q-96 0 -160 -67t-64 -152q0 -59 34.5 -92.5t98.5 -33.5z" glyph-name="copyright" horiz-adv-x="621" unicode="©"/><glyph d="M537 840h103l-140 -432h-97l-5 35q-59 -35 -121 -35q-75 0 -120.5 46t-45.5 120q0 112 81 192t191 80q78 0 121 -54zM236 602q0 -35 23 -53.5t56 -18.5q53 0 89.5 38t36.5 85q0 35 -23 53.5t-56 18.5q-53 0 -89.5 -38.5t-36.5 -84.5z" glyph-name="ordfeminine" horiz-adv-x="551" unicode="ª"/><glyph d="M559 705l-285 -286l108 -284h-216l-107 284l284 286h216zM836 705l-285 -286l108 -284h-216l-107 284l284 286h216z" glyph-name="guillemotleft" horiz-adv-x="811" unicode="«"/><glyph d="M482 300l31 95h-471l47 146h644l-77 -241h-174z" glyph-name="logicalnot" horiz-adv-x="745" unicode="¬"/><glyph d="M12 335l55 168h580l-55 -168h-580z" glyph-name="uni00AD" horiz-adv-x="660" unicode="­"/><glyph d="M304 319q-97 0 -155.5 57t-58.5 153q0 133 97 233t241 100q97 0 155.5 -57t58.5 -153q0 -133 -97 -233t-241 -100zM191 432h66l31 97h96l26 -97h70l-33 111q87 39 87 113q0 38 -27 63.5t-84 25.5h-131zM306 585l33 102h75q52 0 52 -43q0 -25 -21.5 -42t-53.5 -17h-85z " glyph-name="registered" horiz-adv-x="621" unicode="®"/><glyph d="M86 684l49 149h400l-49 -149h-400z" glyph-name="macron" horiz-adv-x="401" unicode="¯"/><glyph d="M284 407q-80 0 -126 44.5t-46 119.5q0 110 83.5 192.5t198.5 82.5q80 0 126 -44.5t46 -119.5q0 -110 -83.5 -192.5t-198.5 -82.5zM310 537q49 0 85 38t36 81q0 29 -18 44t-46 15q-49 0 -85 -37.5t-36 -80.5q0 -29 17.5 -44.5t46.5 -15.5z" glyph-name="degree" horiz-adv-x="545" unicode="°"/><glyph d="M503 641h206l-52 -162h-207l-67 -206h-175l67 206h-205l52 162h206l67 207h175zM-62 0l55 167h562l-55 -167h-562z" glyph-name="plusminus" horiz-adv-x="687" unicode="±"/><glyph d="M84 680l104 164h184l-103 -164h-185z" glyph-name="acute" horiz-adv-x="235" unicode="´"/><glyph d="M608 680h199l-220 -680h-194l25 94h-18q-92 -108 -236 -108q-34 0 -61 6l-46 -142h-200l270 830h199l-134 -414q-22 -67 0.5 -98t74.5 -31q72 0 131 45t76 85z" glyph-name="uni00B5" horiz-adv-x="766" unicode="µ"/><glyph d="M463 0l74 230h-189q-289 0 -289 225q0 174 132.5 279.5t337.5 105.5h406l-272 -840h-200zM765 0l272 840h200l-272 -840h-200z" glyph-name="paragraph" horiz-adv-x="1144" unicode="¶"/><glyph d="M172 315q-40 0 -65.5 25.5t-25.5 65.5q0 50 36 85t86 35q40 0 65 -25.5t25 -65.5q0 -50 -36 -85t-85 -35z" glyph-name="periodcentered" horiz-adv-x="374" unicode="·"/><glyph d="M-24 -39q72 -17 72 -96q0 -55 -38 -91t-96.5 -43t-128.5 9l24 81q43 -11 85 1.5t42 38.5q0 18 -27 24.5t-83 -3.5l16 52l94 66h99z" glyph-name="cedilla" horiz-adv-x="235" unicode="¸"/><glyph d="M280 409q-77 0 -124 47t-47 120q0 107 82.5 188.5t194.5 81.5q77 0 124 -46.5t47 -120.5q0 -107 -82.5 -188.5t-194.5 -81.5zM308 530q52 0 88.5 37.5t36.5 84.5q0 34 -21.5 53.5t-53.5 19.5q-52 0 -88.5 -38t-36.5 -85q0 -34 21 -53t54 -19z" glyph-name="ordmasculine" horiz-adv-x="531" unicode="º"/><glyph d="M-25 135l285 286l-108 284h216l107 -284l-284 -286h-216zM252 135l285 286l-108 284h216l107 -284l-284 -286h-216z" glyph-name="guillemotright" horiz-adv-x="811" unicode="»"/><glyph d="M404 640q40 0 65.5 -25.5t25.5 -65.5q0 -50 -36 -85t-86 -35q-40 0 -65 25.5t-25 65.5q0 50 36 85t85 35zM442 339q-9 -65 -52.5 -113.5t-97.5 -76t-107.5 -50t-89.5 -49t-36 -59.5t37.5 -51.5t105.5 -18.5q174 0 225 142h180q-72 -301 -438 -301q-146 0 -231.5 49 t-85.5 143q0 54 28 99t69.5 73.5t91.5 56t93.5 48.5t75.5 49t37 59h195z" glyph-name="questiondown" horiz-adv-x="750" unicode="¿"/><glyph d="M716 890h-185l-103 164h184zM604 0l-7 141h-409l-97 -141h-215l590 840h281l54 -840h-197zM293 292h297l-18 359h-31z" glyph-name="Agrave" horiz-adv-x="935" unicode="À"/><glyph d="M816 1054l-103 -164h-185l104 164h184zM466 840h281l54 -840h-197l-7 141h-409l-97 -141h-215zM293 292h297l-18 359h-31z" glyph-name="Aacute" horiz-adv-x="935" unicode="Á"/><glyph d="M624 971l-84 -81h-188l177 164h261l84 -164h-171l-40 81h-39zM466 840h281l54 -840h-197l-7 141h-409l-97 -141h-215zM293 292h297l-18 359h-31z" glyph-name="Acircumflex" horiz-adv-x="935" unicode="Â"/><glyph d="M862 1012q7 -72 -31.5 -108.5t-98.5 -36.5q-48 0 -106.5 33.5t-86.5 33.5q-53 0 -59 -43h-67q-7 71 32.5 107.5t98.5 36.5q48 0 106.5 -33.5t86.5 -33.5q24 0 40 11.5t19 32.5h66zM466 840h281l54 -840h-197l-7 141h-409l-97 -141h-215zM293 292h297l-18 359h-31z" glyph-name="Atilde" horiz-adv-x="935" unicode="Ã"/><glyph d="M492 900q-30 0 -49.5 20t-19.5 48q0 37 29.5 64t64.5 27q30 0 49.5 -20t19.5 -49q0 -36 -29.5 -63t-64.5 -27zM793 1059q30 0 49.5 -20t19.5 -49q0 -36 -29.5 -63t-64.5 -27q-30 0 -49.5 20t-19.5 48q0 37 29.5 64t64.5 27zM466 840h281l54 -840h-197l-7 141h-409 l-97 -141h-215zM293 292h297l-18 359h-31z" glyph-name="Adieresis" horiz-adv-x="935" unicode="Ä"/><glyph d="M604 0l-7 141h-409l-97 -141h-215l590 840h89q-50 27 -50 90q0 62 45 105t105 43q47 0 75.5 -28t28.5 -73q0 -44 -25 -81.5t-64 -55.5h77l54 -840h-197zM641 987q-18 0 -30.5 -13t-12.5 -30q0 -11 7.5 -18t20.5 -7q18 0 30 13t12 31q0 10 -7.5 17t-19.5 7zM293 292h297 l-18 359h-31z" glyph-name="Aring" horiz-adv-x="935" unicode="Å"/><glyph d="M1402 678h-509l-60 -184h502l-45 -138h-502l-63 -194h510l-53 -162h-709l50 155h-310l-123 -155h-214l684 840h895zM333 305h239l119 368h-65z" glyph-name="AE" horiz-adv-x="1360" unicode="Æ"/><glyph d="M577 695q-102 0 -186 -52.5t-129.5 -133.5t-45.5 -170q0 -92 56.5 -143t150.5 -51q172 0 275 152h196q-41 -92 -102 -158.5t-131.5 -101.5t-137.5 -50t-138 -15h-9l-17 -11q72 -17 72 -96q0 -55 -38 -91t-96.5 -43t-128.5 9l24 81q43 -11 85 1.5t42 38.5q0 18 -27.5 24.5 t-82.5 -3.5l16 52l66 46q-129 24 -201 111t-72 221q0 108 45.5 209.5t123.5 178t190.5 122.5t237.5 46q110 0 193.5 -41t125.5 -116t30 -171h-191q-9 77 -62 116t-134 39z" glyph-name="Ccedilla" horiz-adv-x="962" unicode="Ç"/><glyph d="M634 890h-185l-103 164h184zM835 678h-509l-60 -184h502l-45 -138h-502l-63 -194h510l-53 -162h-709l272 840h710z" glyph-name="Egrave" horiz-adv-x="794" unicode="È"/><glyph d="M734 1054l-103 -164h-185l104 164h184zM835 678h-509l-60 -184h502l-45 -138h-502l-63 -194h510l-53 -162h-709l272 840h710z" glyph-name="Eacute" horiz-adv-x="794" unicode="É"/><glyph d="M542 971l-84 -81h-188l177 164h261l84 -164h-171l-40 81h-39zM835 678h-509l-60 -184h502l-45 -138h-502l-63 -194h510l-53 -162h-709l272 840h710z" glyph-name="Ecircumflex" horiz-adv-x="794" unicode="Ê"/><glyph d="M410 900q-30 0 -49.5 20t-19.5 48q0 37 29.5 64t64.5 27q30 0 49.5 -20t19.5 -49q0 -36 -29.5 -63t-64.5 -27zM686 900q-30 0 -49.5 20t-19.5 48q0 37 29.5 64t64.5 27q30 0 49.5 -20t19.5 -49q0 -36 -29.5 -63t-64.5 -27zM835 678h-509l-60 -184h502l-45 -138h-502 l-63 -194h510l-53 -162h-709l272 840h710z" glyph-name="Edieresis" horiz-adv-x="794" unicode="Ë"/><glyph d="M377 890h-185l-103 164h184zM-94 0l272 840h200l-272 -840h-200z" glyph-name="Igrave" horiz-adv-x="285" unicode="Ì"/><glyph d="M189 890l104 164h184l-103 -164h-185zM-94 0l272 840h200l-272 -840h-200z" glyph-name="Iacute" horiz-adv-x="285" unicode="Í"/><glyph d="M13 890l177 164h261l84 -164h-171l-40 81h-39l-84 -81h-188zM-94 0l272 840h200l-272 -840h-200z" glyph-name="Icircumflex" horiz-adv-x="285" unicode="Î"/><glyph d="M153 900q-30 0 -49.5 20t-19.5 48q0 37 29.5 64t64.5 27q30 0 49.5 -20t19.5 -49q0 -36 -29.5 -63t-64.5 -27zM429 900q-30 0 -49.5 20t-19.5 48q0 37 29.5 64t64.5 27q30 0 49.5 -20t19.5 -49q0 -36 -29.5 -63t-64.5 -27zM-94 0l272 840h200l-272 -840h-200z" glyph-name="Idieresis" horiz-adv-x="285" unicode="Ï"/><glyph d="M603 840q185 0 273.5 -81t88.5 -227q0 -157 -78 -279t-213.5 -187.5t-304.5 -65.5h-398l112 346h-97l49 149h96l111 345h361zM405 168q154 0 257 97.5t103 238.5q0 86 -52.5 127t-161.5 41h-163l-57 -177h139l-49 -149h-138l-58 -178h180z" glyph-name="Eth" horiz-adv-x="985" unicode="Ð"/><glyph d="M714 867q-48 0 -106.5 33.5t-86.5 33.5q-53 0 -59 -43h-67q-7 71 32.5 107.5t98.5 36.5q48 0 106.5 -33.5t86.5 -33.5q24 0 40 11.5t19 32.5h66q7 -72 -31.5 -108.5t-98.5 -36.5zM-94 0l274 840h223l211 -570h22l187 570h195l-273 -840h-218l-218 566h-22l-185 -566h-196 z" glyph-name="Ntilde" horiz-adv-x="924" unicode="Ñ"/><glyph d="M727 894h-185l-103 164h184zM385 -28q-173 0 -270.5 90.5t-97.5 248.5q0 107 45.5 208.5t123 178.5t188 123.5t232.5 46.5q173 0 270.5 -90.5t97.5 -247.5q0 -107 -45.5 -209t-123 -179t-188 -123.5t-232.5 -46.5zM416 145q101 0 185.5 53.5t129.5 134.5t46 167 q0 93 -56 144t-146 51q-101 0 -185.5 -53.5t-129 -134.5t-45.5 -167q0 -93 55.5 -144t145.5 -51z" glyph-name="Ograve" horiz-adv-x="991" unicode="Ò"/><glyph d="M539 894l104 164h184l-103 -164h-185zM385 -28q-173 0 -270.5 90.5t-97.5 248.5q0 107 45.5 208.5t123 178.5t188 123.5t232.5 46.5q173 0 270.5 -90.5t97.5 -247.5q0 -107 -45.5 -209t-123 -179t-188 -123.5t-232.5 -46.5zM416 145q101 0 185.5 53.5t129.5 134.5t46 167 q0 93 -56 144t-146 51q-101 0 -185.5 -53.5t-129 -134.5t-45.5 -167q0 -93 55.5 -144t145.5 -51z" glyph-name="Oacute" horiz-adv-x="991" unicode="Ó"/><glyph d="M363 894l177 164h261l84 -164h-171l-40 81h-39l-84 -81h-188zM385 -28q-173 0 -270.5 90.5t-97.5 248.5q0 107 45.5 208.5t123 178.5t188 123.5t232.5 46.5q173 0 270.5 -90.5t97.5 -247.5q0 -107 -45.5 -209t-123 -179t-188 -123.5t-232.5 -46.5zM416 145 q101 0 185.5 53.5t129.5 134.5t46 167q0 93 -56 144t-146 51q-101 0 -185.5 -53.5t-129 -134.5t-45.5 -167q0 -93 55.5 -144t145.5 -51z" glyph-name="Ocircumflex" horiz-adv-x="991" unicode="Ô"/><glyph d="M743 871q-48 0 -106.5 33.5t-86.5 33.5q-53 0 -59 -43h-67q-7 71 32.5 107.5t98.5 36.5q48 0 106.5 -33.5t86.5 -33.5q24 0 40 11.5t19 32.5h66q7 -72 -31.5 -108.5t-98.5 -36.5zM385 -28q-173 0 -270.5 90.5t-97.5 248.5q0 107 45.5 208.5t123 178.5t188 123.5 t232.5 46.5q173 0 270.5 -90.5t97.5 -247.5q0 -107 -45.5 -209t-123 -179t-188 -123.5t-232.5 -46.5zM416 145q101 0 185.5 53.5t129.5 134.5t46 167q0 93 -56 144t-146 51q-101 0 -185.5 -53.5t-129 -134.5t-45.5 -167q0 -93 55.5 -144t145.5 -51z" glyph-name="Otilde" horiz-adv-x="991" unicode="Õ"/><glyph d="M503 904q-30 0 -49.5 20t-19.5 48q0 37 29.5 64t64.5 27q30 0 49.5 -20t19.5 -49q0 -36 -29.5 -63t-64.5 -27zM779 904q-30 0 -49.5 20t-19.5 48q0 37 29.5 64t64.5 27q30 0 49.5 -20t19.5 -49q0 -36 -29.5 -63t-64.5 -27zM385 -28q-173 0 -270.5 90.5t-97.5 248.5 q0 107 45.5 208.5t123 178.5t188 123.5t232.5 46.5q173 0 270.5 -90.5t97.5 -247.5q0 -107 -45.5 -209t-123 -179t-188 -123.5t-232.5 -46.5zM416 145q101 0 185.5 53.5t129.5 134.5t46 167q0 93 -56 144t-146 51q-101 0 -185.5 -53.5t-129 -134.5t-45.5 -167 q0 -93 55.5 -144t145.5 -51z" glyph-name="Odieresis" horiz-adv-x="991" unicode="Ö"/><glyph d="M618 560l-196 -148l96 -141l-143 -106l-95 140l-195 -148l-81 119l196 148l-100 147l143 106l99 -146l195 148z" glyph-name="multiply" horiz-adv-x="622" unicode="×"/><glyph d="M853 797q121 -90 121 -267q0 -107 -45.5 -209t-123 -179t-188 -123.5t-232.5 -46.5q-82 0 -148 21l-34 -44h-131l70 91q-125 90 -125 271q0 107 45.5 208.5t123 178.5t188 123.5t232.5 46.5q84 0 153 -23l36 47h131zM215 340q0 -86 50 -139l373 487q-33 7 -63 7 q-101 0 -185.5 -53.5t-129 -134.5t-45.5 -167zM416 145q101 0 185.5 53.5t129.5 134.5t46 167q0 84 -48 135l-371 -484q27 -6 58 -6z" glyph-name="Oslash" horiz-adv-x="991" unicode="Ø"/><glyph d="M687 890h-185l-103 164h184zM330 -28q-207 0 -288 100t-19 287l157 481h202l-163 -497q-33 -97 3 -150.5t136 -53.5q205 0 278 226l155 475h202l-163 -502q-63 -194 -184.5 -280t-315.5 -86z" glyph-name="Ugrave" unicode="Ù"/><glyph d="M499 890l104 164h184l-103 -164h-185zM330 -28q-207 0 -288 100t-19 287l157 481h202l-163 -497q-33 -97 3 -150.5t136 -53.5q205 0 278 226l155 475h202l-163 -502q-63 -194 -184.5 -280t-315.5 -86z" glyph-name="Uacute" unicode="Ú"/><glyph d="M323 890l177 164h261l84 -164h-171l-40 81h-39l-84 -81h-188zM330 -28q-207 0 -288 100t-19 287l157 481h202l-163 -497q-33 -97 3 -150.5t136 -53.5q205 0 278 226l155 475h202l-163 -502q-63 -194 -184.5 -280t-315.5 -86z" glyph-name="Ucircumflex" unicode="Û"/><glyph d="M463 900q-30 0 -49.5 20t-19.5 48q0 37 29.5 64t64.5 27q30 0 49.5 -20t19.5 -49q0 -36 -29.5 -63t-64.5 -27zM739 900q-30 0 -49.5 20t-19.5 48q0 37 29.5 64t64.5 27q30 0 49.5 -20t19.5 -49q0 -36 -29.5 -63t-64.5 -27zM330 -28q-207 0 -288 100t-19 287l157 481h202 l-163 -497q-33 -97 3 -150.5t136 -53.5q205 0 278 226l155 475h202l-163 -502q-63 -194 -184.5 -280t-315.5 -86z" glyph-name="Udieresis" unicode="Ü"/><glyph d="M783 1054l-103 -164h-185l104 164h184zM1025 840l-528 -573l-86 -267h-199l89 279l-157 561h201l100 -372h20l337 372h223z" glyph-name="Yacute" horiz-adv-x="907" unicode="Ý"/><glyph d="M530 725q179 0 250.5 -85t21.5 -242q-92 -283 -450 -283h-207l-37 -115h-200l271 840h199l-37 -115h189zM614 442q20 61 -8.5 88.5t-104.5 27.5h-214l-88 -276h193q77 0 137.5 41.5t84.5 118.5z" glyph-name="Thorn" horiz-adv-x="836" unicode="Þ"/><glyph d="M-94 0l193 593q87 269 436 269q159 0 231.5 -53t72.5 -139q0 -71 -45.5 -127t-126.5 -83l-4 -15q108 -44 108 -165q0 -91 -58.5 -155.5t-153 -94.5t-215.5 -30h-165l49 154h149q88 0 149.5 40t61.5 105q0 79 -124 79h-163l39 119h118q78 0 131.5 30.5t53.5 85.5 q0 79 -138 79q-174 0 -217 -130l-182 -562h-200z" glyph-name="germandbls" horiz-adv-x="852" unicode="ß"/><glyph d="M716 890h-185l-103 164h184zM604 0l-7 141h-409l-97 -141h-215l590 840h281l54 -840h-197zM293 292h297l-18 359h-31z" glyph-name="agrave" horiz-adv-x="935" unicode="à"/><glyph d="M816 1054l-103 -164h-185l104 164h184zM466 840h281l54 -840h-197l-7 141h-409l-97 -141h-215zM293 292h297l-18 359h-31z" glyph-name="aacute" horiz-adv-x="935" unicode="á"/><glyph d="M624 971l-84 -81h-188l177 164h261l84 -164h-171l-40 81h-39zM466 840h281l54 -840h-197l-7 141h-409l-97 -141h-215zM293 292h297l-18 359h-31z" glyph-name="acircumflex" horiz-adv-x="935" unicode="â"/><glyph d="M862 1012q7 -72 -31.5 -108.5t-98.5 -36.5q-48 0 -106.5 33.5t-86.5 33.5q-53 0 -59 -43h-67q-7 71 32.5 107.5t98.5 36.5q48 0 106.5 -33.5t86.5 -33.5q24 0 40 11.5t19 32.5h66zM466 840h281l54 -840h-197l-7 141h-409l-97 -141h-215zM293 292h297l-18 359h-31z" glyph-name="atilde" horiz-adv-x="935" unicode="ã"/><glyph d="M492 900q-30 0 -49.5 20t-19.5 48q0 37 29.5 64t64.5 27q30 0 49.5 -20t19.5 -49q0 -36 -29.5 -63t-64.5 -27zM793 1059q30 0 49.5 -20t19.5 -49q0 -36 -29.5 -63t-64.5 -27q-30 0 -49.5 20t-19.5 48q0 37 29.5 64t64.5 27zM466 840h281l54 -840h-197l-7 141h-409 l-97 -141h-215zM293 292h297l-18 359h-31z" glyph-name="adieresis" horiz-adv-x="935" unicode="ä"/><glyph d="M604 0l-7 141h-409l-97 -141h-215l590 840h89q-50 27 -50 90q0 62 45 105t105 43q47 0 75.5 -28t28.5 -73q0 -44 -25 -81.5t-64 -55.5h77l54 -840h-197zM641 987q-18 0 -30.5 -13t-12.5 -30q0 -11 7.5 -18t20.5 -7q18 0 30 13t12 31q0 10 -7.5 17t-19.5 7zM293 292h297 l-18 359h-31z" glyph-name="aring" horiz-adv-x="935" unicode="å"/><glyph d="M1402 678h-509l-60 -184h502l-45 -138h-502l-63 -194h510l-53 -162h-709l50 155h-310l-123 -155h-214l684 840h895zM333 305h239l119 368h-65z" glyph-name="ae" horiz-adv-x="1360" unicode="æ"/><glyph d="M577 695q-102 0 -186 -52.5t-129.5 -133.5t-45.5 -170q0 -92 56.5 -143t150.5 -51q172 0 275 152h196q-41 -92 -102 -158.5t-131.5 -101.5t-137.5 -50t-138 -15h-9l-17 -11q72 -17 72 -96q0 -55 -38 -91t-96.5 -43t-128.5 9l24 81q43 -11 85 1.5t42 38.5q0 18 -27.5 24.5 t-82.5 -3.5l16 52l66 46q-129 24 -201 111t-72 221q0 108 45.5 209.5t123.5 178t190.5 122.5t237.5 46q110 0 193.5 -41t125.5 -116t30 -171h-191q-9 77 -62 116t-134 39z" glyph-name="ccedilla" horiz-adv-x="962" unicode="ç"/><glyph d="M634 890h-185l-103 164h184zM835 678h-509l-60 -184h502l-45 -138h-502l-63 -194h510l-53 -162h-709l272 840h710z" glyph-name="egrave" horiz-adv-x="794" unicode="è"/><glyph d="M734 1054l-103 -164h-185l104 164h184zM835 678h-509l-60 -184h502l-45 -138h-502l-63 -194h510l-53 -162h-709l272 840h710z" glyph-name="eacute" horiz-adv-x="794" unicode="é"/><glyph d="M542 971l-84 -81h-188l177 164h261l84 -164h-171l-40 81h-39zM835 678h-509l-60 -184h502l-45 -138h-502l-63 -194h510l-53 -162h-709l272 840h710z" glyph-name="ecircumflex" horiz-adv-x="794" unicode="ê"/><glyph d="M410 900q-30 0 -49.5 20t-19.5 48q0 37 29.5 64t64.5 27q30 0 49.5 -20t19.5 -49q0 -36 -29.5 -63t-64.5 -27zM686 900q-30 0 -49.5 20t-19.5 48q0 37 29.5 64t64.5 27q30 0 49.5 -20t19.5 -49q0 -36 -29.5 -63t-64.5 -27zM835 678h-509l-60 -184h502l-45 -138h-502 l-63 -194h510l-53 -162h-709l272 840h710z" glyph-name="edieresis" horiz-adv-x="794" unicode="ë"/><glyph d="M377 890h-185l-103 164h184zM-94 0l272 840h200l-272 -840h-200z" glyph-name="igrave" horiz-adv-x="285" unicode="ì"/><glyph d="M189 890l104 164h184l-103 -164h-185zM-94 0l272 840h200l-272 -840h-200z" glyph-name="iacute" horiz-adv-x="285" unicode="í"/><glyph d="M13 890l177 164h261l84 -164h-171l-40 81h-39l-84 -81h-188zM-94 0l272 840h200l-272 -840h-200z" glyph-name="icircumflex" horiz-adv-x="285" unicode="î"/><glyph d="M153 900q-30 0 -49.5 20t-19.5 48q0 37 29.5 64t64.5 27q30 0 49.5 -20t19.5 -49q0 -36 -29.5 -63t-64.5 -27zM429 900q-30 0 -49.5 20t-19.5 48q0 37 29.5 64t64.5 27q30 0 49.5 -20t19.5 -49q0 -36 -29.5 -63t-64.5 -27zM-94 0l272 840h200l-272 -840h-200z" glyph-name="idieresis" horiz-adv-x="285" unicode="ï"/><glyph d="M603 840q185 0 273.5 -81t88.5 -227q0 -157 -78 -279t-213.5 -187.5t-304.5 -65.5h-398l112 346h-97l49 149h96l111 345h361zM405 168q154 0 257 97.5t103 238.5q0 86 -52.5 127t-161.5 41h-163l-57 -177h139l-49 -149h-138l-58 -178h180z" glyph-name="eth" horiz-adv-x="985" unicode="ð"/><glyph d="M714 867q-48 0 -106.5 33.5t-86.5 33.5q-53 0 -59 -43h-67q-7 71 32.5 107.5t98.5 36.5q48 0 106.5 -33.5t86.5 -33.5q24 0 40 11.5t19 32.5h66q7 -72 -31.5 -108.5t-98.5 -36.5zM-94 0l274 840h223l211 -570h22l187 570h195l-273 -840h-218l-218 566h-22l-185 -566h-196 z" glyph-name="ntilde" horiz-adv-x="924" unicode="ñ"/><glyph d="M727 894h-185l-103 164h184zM385 -28q-173 0 -270.5 90.5t-97.5 248.5q0 107 45.5 208.5t123 178.5t188 123.5t232.5 46.5q173 0 270.5 -90.5t97.5 -247.5q0 -107 -45.5 -209t-123 -179t-188 -123.5t-232.5 -46.5zM416 145q101 0 185.5 53.5t129.5 134.5t46 167 q0 93 -56 144t-146 51q-101 0 -185.5 -53.5t-129 -134.5t-45.5 -167q0 -93 55.5 -144t145.5 -51z" glyph-name="ograve" horiz-adv-x="991" unicode="ò"/><glyph d="M539 894l104 164h184l-103 -164h-185zM385 -28q-173 0 -270.5 90.5t-97.5 248.5q0 107 45.5 208.5t123 178.5t188 123.5t232.5 46.5q173 0 270.5 -90.5t97.5 -247.5q0 -107 -45.5 -209t-123 -179t-188 -123.5t-232.5 -46.5zM416 145q101 0 185.5 53.5t129.5 134.5t46 167 q0 93 -56 144t-146 51q-101 0 -185.5 -53.5t-129 -134.5t-45.5 -167q0 -93 55.5 -144t145.5 -51z" glyph-name="oacute" horiz-adv-x="991" unicode="ó"/><glyph d="M363 894l177 164h261l84 -164h-171l-40 81h-39l-84 -81h-188zM385 -28q-173 0 -270.5 90.5t-97.5 248.5q0 107 45.5 208.5t123 178.5t188 123.5t232.5 46.5q173 0 270.5 -90.5t97.5 -247.5q0 -107 -45.5 -209t-123 -179t-188 -123.5t-232.5 -46.5zM416 145 q101 0 185.5 53.5t129.5 134.5t46 167q0 93 -56 144t-146 51q-101 0 -185.5 -53.5t-129 -134.5t-45.5 -167q0 -93 55.5 -144t145.5 -51z" glyph-name="ocircumflex" horiz-adv-x="991" unicode="ô"/><glyph d="M743 871q-48 0 -106.5 33.5t-86.5 33.5q-53 0 -59 -43h-67q-7 71 32.5 107.5t98.5 36.5q48 0 106.5 -33.5t86.5 -33.5q24 0 40 11.5t19 32.5h66q7 -72 -31.5 -108.5t-98.5 -36.5zM385 -28q-173 0 -270.5 90.5t-97.5 248.5q0 107 45.5 208.5t123 178.5t188 123.5 t232.5 46.5q173 0 270.5 -90.5t97.5 -247.5q0 -107 -45.5 -209t-123 -179t-188 -123.5t-232.5 -46.5zM416 145q101 0 185.5 53.5t129.5 134.5t46 167q0 93 -56 144t-146 51q-101 0 -185.5 -53.5t-129 -134.5t-45.5 -167q0 -93 55.5 -144t145.5 -51z" glyph-name="otilde" horiz-adv-x="991" unicode="õ"/><glyph d="M503 904q-30 0 -49.5 20t-19.5 48q0 37 29.5 64t64.5 27q30 0 49.5 -20t19.5 -49q0 -36 -29.5 -63t-64.5 -27zM779 904q-30 0 -49.5 20t-19.5 48q0 37 29.5 64t64.5 27q30 0 49.5 -20t19.5 -49q0 -36 -29.5 -63t-64.5 -27zM385 -28q-173 0 -270.5 90.5t-97.5 248.5 q0 107 45.5 208.5t123 178.5t188 123.5t232.5 46.5q173 0 270.5 -90.5t97.5 -247.5q0 -107 -45.5 -209t-123 -179t-188 -123.5t-232.5 -46.5zM416 145q101 0 185.5 53.5t129.5 134.5t46 167q0 93 -56 144t-146 51q-101 0 -185.5 -53.5t-129 -134.5t-45.5 -167 q0 -93 55.5 -144t145.5 -51z" glyph-name="odieresis" horiz-adv-x="991" unicode="ö"/><glyph d="M392 566q-36 0 -58.5 23t-22.5 58q0 45 32 76.5t77 31.5q36 0 58.5 -23t22.5 -59q0 -45 -32 -76t-77 -31zM28 349l45 142h562l-45 -142h-562zM238 86q-36 0 -58.5 23t-22.5 58q0 45 32 76.5t77 31.5q36 0 58.5 -23t22.5 -59q0 -45 -32 -76t-77 -31z" glyph-name="divide" horiz-adv-x="662" unicode="÷"/><glyph d="M853 797q121 -90 121 -267q0 -107 -45.5 -209t-123 -179t-188 -123.5t-232.5 -46.5q-82 0 -148 21l-34 -44h-131l70 91q-125 90 -125 271q0 107 45.5 208.5t123 178.5t188 123.5t232.5 46.5q84 0 153 -23l36 47h131zM215 340q0 -86 50 -139l373 487q-33 7 -63 7 q-101 0 -185.5 -53.5t-129 -134.5t-45.5 -167zM416 145q101 0 185.5 53.5t129.5 134.5t46 167q0 84 -48 135l-371 -484q27 -6 58 -6z" glyph-name="oslash" horiz-adv-x="991" unicode="ø"/><glyph d="M687 890h-185l-103 164h184zM330 -28q-207 0 -288 100t-19 287l157 481h202l-163 -497q-33 -97 3 -150.5t136 -53.5q205 0 278 226l155 475h202l-163 -502q-63 -194 -184.5 -280t-315.5 -86z" glyph-name="ugrave" unicode="ù"/><glyph d="M499 890l104 164h184l-103 -164h-185zM330 -28q-207 0 -288 100t-19 287l157 481h202l-163 -497q-33 -97 3 -150.5t136 -53.5q205 0 278 226l155 475h202l-163 -502q-63 -194 -184.5 -280t-315.5 -86z" glyph-name="uacute" unicode="ú"/><glyph d="M323 890l177 164h261l84 -164h-171l-40 81h-39l-84 -81h-188zM330 -28q-207 0 -288 100t-19 287l157 481h202l-163 -497q-33 -97 3 -150.5t136 -53.5q205 0 278 226l155 475h202l-163 -502q-63 -194 -184.5 -280t-315.5 -86z" glyph-name="ucircumflex" unicode="û"/><glyph d="M463 900q-30 0 -49.5 20t-19.5 48q0 37 29.5 64t64.5 27q30 0 49.5 -20t19.5 -49q0 -36 -29.5 -63t-64.5 -27zM739 900q-30 0 -49.5 20t-19.5 48q0 37 29.5 64t64.5 27q30 0 49.5 -20t19.5 -49q0 -36 -29.5 -63t-64.5 -27zM330 -28q-207 0 -288 100t-19 287l157 481h202 l-163 -497q-33 -97 3 -150.5t136 -53.5q205 0 278 226l155 475h202l-163 -502q-63 -194 -184.5 -280t-315.5 -86z" glyph-name="udieresis" unicode="ü"/><glyph d="M783 1054l-103 -164h-185l104 164h184zM1025 840l-528 -573l-86 -267h-199l89 279l-157 561h201l100 -372h20l337 372h223z" glyph-name="yacute" horiz-adv-x="907" unicode="ý"/><glyph d="M530 725q179 0 250.5 -85t21.5 -242q-92 -283 -450 -283h-207l-37 -115h-200l271 840h199l-37 -115h189zM614 442q20 61 -8.5 88.5t-104.5 27.5h-214l-88 -276h193q77 0 137.5 41.5t84.5 118.5z" glyph-name="thorn" horiz-adv-x="836" unicode="þ"/><glyph d="M459 900q-30 0 -49.5 20t-19.5 48q0 37 29.5 64t64.5 27q30 0 49.5 -20t19.5 -49q0 -36 -29.5 -63t-64.5 -27zM735 900q-30 0 -49.5 20t-19.5 48q0 37 29.5 64t64.5 27q30 0 49.5 -20t19.5 -49q0 -36 -29.5 -63t-64.5 -27zM1025 840l-528 -573l-86 -267h-199l89 279 l-157 561h201l100 -372h20l337 372h223z" glyph-name="ydieresis" horiz-adv-x="907" unicode="ÿ"/><glyph d="M482 1043h400l-49 -149h-400zM466 840h281l54 -840h-197l-7 141h-409l-97 -141h-215zM293 292h297l-18 359h-31z" glyph-name="Amacron" horiz-adv-x="935" unicode="Ā"/><glyph d="M482 1043h400l-49 -149h-400zM466 840h281l54 -840h-197l-7 141h-409l-97 -141h-215zM293 292h297l-18 359h-31z" glyph-name="amacron" horiz-adv-x="935" unicode="ā"/><glyph d="M761 1054h120q-41 -164 -240 -164q-99 0 -144 39.5t-21 124.5h120q-14 -69 60 -69q38 0 66.5 17.5t38.5 51.5zM466 840h281l54 -840h-197l-7 141h-409l-97 -141h-215zM293 292h297l-18 359h-31z" glyph-name="Abreve" horiz-adv-x="935" unicode="Ă"/><glyph d="M761 1054h120q-41 -164 -240 -164q-99 0 -144 39.5t-21 124.5h120q-14 -69 60 -69q38 0 66.5 17.5t38.5 51.5zM466 840h281l54 -840h-197l-7 141h-409l-97 -141h-215zM293 292h297l-18 359h-31z" glyph-name="abreve" horiz-adv-x="935" unicode="ă"/><glyph d="M607 0q-49 0 -71.5 -20.5t-22.5 -48.5q0 -24 17 -40.5t55 -16.5v-115q-27 0 -53 3.5t-55 14t-51 26t-36 42t-14 60.5q0 46 23 78t61.5 47t71.5 21.5t69 7.5l-4 82h-409l-97 -141h-215l590 840h281l54 -840h-194zM293 292h297l-18 359h-31z" glyph-name="Aogonek" horiz-adv-x="935" unicode="Ą"/><glyph d="M607 0q-49 0 -71.5 -20.5t-22.5 -48.5q0 -24 17 -40.5t55 -16.5v-115q-27 0 -53 3.5t-55 14t-51 26t-36 42t-14 60.5q0 46 23 78t61.5 47t71.5 21.5t69 7.5l-4 82h-409l-97 -141h-215l590 840h281l54 -840h-194zM293 292h297l-18 359h-31z" glyph-name="aogonek" horiz-adv-x="935" unicode="ą"/><glyph d="M558 890l104 164h184l-103 -164h-185zM385 -28q-171 0 -269 91t-98 249q0 108 45.5 209.5t123.5 178t190.5 122.5t237.5 46q110 0 193.5 -41t125.5 -116t30 -171h-191q-9 77 -62 116t-134 39q-102 0 -186 -52.5t-129.5 -133.5t-45.5 -170q0 -92 56.5 -143t150.5 -51 q172 0 275 152h196q-41 -92 -102 -158.5t-131.5 -101.5t-137.5 -50t-138 -15z" glyph-name="Cacute" horiz-adv-x="962" unicode="Ć"/><glyph d="M558 890l104 164h184l-103 -164h-185zM385 -28q-171 0 -269 91t-98 249q0 108 45.5 209.5t123.5 178t190.5 122.5t237.5 46q110 0 193.5 -41t125.5 -116t30 -171h-191q-9 77 -62 116t-134 39q-102 0 -186 -52.5t-129.5 -133.5t-45.5 -170q0 -92 56.5 -143t150.5 -51 q172 0 275 152h196q-41 -92 -102 -158.5t-131.5 -101.5t-137.5 -50t-138 -15z" glyph-name="cacute" horiz-adv-x="962" unicode="ć"/><glyph d="M678 900q-30 0 -49.5 20t-19.5 48q0 37 29.5 64t64.5 27q30 0 49.5 -20t19.5 -49q0 -36 -29.5 -63t-64.5 -27zM385 -28q-171 0 -269 91t-98 249q0 108 45.5 209.5t123.5 178t190.5 122.5t237.5 46q110 0 193.5 -41t125.5 -116t30 -171h-191q-9 77 -62 116t-134 39 q-102 0 -186 -52.5t-129.5 -133.5t-45.5 -170q0 -92 56.5 -143t150.5 -51q172 0 275 152h196q-41 -92 -102 -158.5t-131.5 -101.5t-137.5 -50t-138 -15z" glyph-name="Cdotaccent" horiz-adv-x="962" unicode="Ċ"/><glyph d="M678 900q-30 0 -49.5 20t-19.5 48q0 37 29.5 64t64.5 27q30 0 49.5 -20t19.5 -49q0 -36 -29.5 -63t-64.5 -27zM385 -28q-171 0 -269 91t-98 249q0 108 45.5 209.5t123.5 178t190.5 122.5t237.5 46q110 0 193.5 -41t125.5 -116t30 -171h-191q-9 77 -62 116t-134 39 q-102 0 -186 -52.5t-129.5 -133.5t-45.5 -170q0 -92 56.5 -143t150.5 -51q172 0 275 152h196q-41 -92 -102 -158.5t-131.5 -101.5t-137.5 -50t-138 -15z" glyph-name="cdotaccent" horiz-adv-x="962" unicode="ċ"/><glyph d="M951 1035l-177 -164h-261l-84 164h171l40 -81h39l84 81h188zM385 -28q-171 0 -269 91t-98 249q0 108 45.5 209.5t123.5 178t190.5 122.5t237.5 46q110 0 193.5 -41t125.5 -116t30 -171h-191q-9 77 -62 116t-134 39q-102 0 -186 -52.5t-129.5 -133.5t-45.5 -170 q0 -92 56.5 -143t150.5 -51q172 0 275 152h196q-41 -92 -102 -158.5t-131.5 -101.5t-137.5 -50t-138 -15z" glyph-name="Ccaron" horiz-adv-x="962" unicode="Č"/><glyph d="M951 1035l-177 -164h-261l-84 164h171l40 -81h39l84 81h188zM385 -28q-171 0 -269 91t-98 249q0 108 45.5 209.5t123.5 178t190.5 122.5t237.5 46q110 0 193.5 -41t125.5 -116t30 -171h-191q-9 77 -62 116t-134 39q-102 0 -186 -52.5t-129.5 -133.5t-45.5 -170 q0 -92 56.5 -143t150.5 -51q172 0 275 152h196q-41 -92 -102 -158.5t-131.5 -101.5t-137.5 -50t-138 -15z" glyph-name="ccaron" horiz-adv-x="962" unicode="č"/><glyph d="M880 1035l-177 -164h-261l-84 164h171l40 -81h39l84 81h188zM-92 0l271 840h361q185 0 273.5 -81t88.5 -227q0 -157 -78 -279t-213.5 -187.5t-304.5 -65.5h-398zM162 168h180q154 0 257 97.5t103 238.5q0 86 -52.5 127t-161.5 41h-163z" glyph-name="Dcaron" horiz-adv-x="922" unicode="Ď"/><glyph d="M880 1035l-177 -164h-261l-84 164h171l40 -81h39l84 81h188zM-92 0l271 840h361q185 0 273.5 -81t88.5 -227q0 -157 -78 -279t-213.5 -187.5t-304.5 -65.5h-398zM162 168h180q154 0 257 97.5t103 238.5q0 86 -52.5 127t-161.5 41h-163z" glyph-name="dcaron" horiz-adv-x="922" unicode="ď"/><glyph d="M603 840q185 0 273.5 -81t88.5 -227q0 -157 -78 -279t-213.5 -187.5t-304.5 -65.5h-398l112 346h-97l49 149h96l111 345h361zM405 168q154 0 257 97.5t103 238.5q0 86 -52.5 127t-161.5 41h-163l-57 -177h139l-49 -149h-138l-58 -178h180z" glyph-name="Dcroat" horiz-adv-x="985" unicode="Đ"/><glyph d="M603 840q185 0 273.5 -81t88.5 -227q0 -157 -78 -279t-213.5 -187.5t-304.5 -65.5h-398l112 346h-97l49 149h96l111 345h361zM405 168q154 0 257 97.5t103 238.5q0 86 -52.5 127t-161.5 41h-163l-57 -177h139l-49 -149h-138l-58 -178h180z" glyph-name="dcroat" horiz-adv-x="985" unicode="đ"/><glyph d="M800 1043l-49 -149h-400l49 149h400zM835 678h-509l-60 -184h502l-45 -138h-502l-63 -194h510l-53 -162h-709l272 840h710z" glyph-name="Emacron" horiz-adv-x="794" unicode="Ē"/><glyph d="M800 1043l-49 -149h-400l49 149h400zM835 678h-509l-60 -184h502l-45 -138h-502l-63 -194h510l-53 -162h-709l272 840h710z" glyph-name="emacron" horiz-adv-x="794" unicode="ē"/><glyph d="M566 900q-30 0 -49.5 20t-19.5 48q0 37 29.5 64t64.5 27q30 0 49.5 -20t19.5 -49q0 -36 -29.5 -63t-64.5 -27zM835 678h-509l-60 -184h502l-45 -138h-502l-63 -194h510l-53 -162h-709l272 840h710z" glyph-name="Edotaccent" horiz-adv-x="794" unicode="Ė"/><glyph d="M566 900q-30 0 -49.5 20t-19.5 48q0 37 29.5 64t64.5 27q30 0 49.5 -20t19.5 -49q0 -36 -29.5 -63t-64.5 -27zM835 678h-509l-60 -184h502l-45 -138h-502l-63 -194h510l-53 -162h-709l272 840h710z" glyph-name="edotaccent" horiz-adv-x="794" unicode="ė"/><glyph d="M835 678h-509l-60 -184h502l-45 -138h-502l-63 -194h510l-53 -162q-49 0 -71.5 -20.5t-22.5 -48.5q0 -24 17 -40.5t55 -16.5v-115q-27 0 -53 3.5t-55 14t-51 26t-36 42t-14 60.5q0 58 39 95h-517l272 840h710z" glyph-name="Eogonek" horiz-adv-x="794" unicode="Ę"/><glyph d="M835 678h-509l-60 -184h502l-45 -138h-502l-63 -194h510l-53 -162q-49 0 -71.5 -20.5t-22.5 -48.5q0 -24 17 -40.5t55 -16.5v-115q-27 0 -53 3.5t-55 14t-51 26t-36 42t-14 60.5q0 58 39 95h-517l272 840h710z" glyph-name="eogonek" horiz-adv-x="794" unicode="ę"/><glyph d="M662 871h-261l-84 164h171l40 -81h39l84 81h188zM835 678h-509l-60 -184h502l-45 -138h-502l-63 -194h510l-53 -162h-709l272 840h710z" glyph-name="Ecaron" horiz-adv-x="794" unicode="Ě"/><glyph d="M662 871h-261l-84 164h171l40 -81h39l84 81h188zM835 678h-509l-60 -184h502l-45 -138h-502l-63 -194h510l-53 -162h-709l272 840h710z" glyph-name="ecaron" horiz-adv-x="794" unicode="ě"/><glyph d="M627 890q-99 0 -144 39.5t-21 124.5h120q-14 -69 60 -69q38 0 66.5 17.5t38.5 51.5h120q-41 -164 -240 -164zM577 695q-102 0 -186 -52.5t-129.5 -133.5t-45.5 -170q0 -92 56.5 -143t150.5 -51q52 0 103.5 14t106.5 56.5t84 108.5h-263l39 121h459l-144 -445h-120l32 109 q-59 -64 -147 -100.5t-193 -36.5q-168 0 -265 89t-97 247q0 110 45.5 212t124 179t190.5 123t237 46q159 0 258.5 -83.5t95.5 -215.5h-199q-17 62 -69 94t-124 32z" glyph-name="Gbreve" horiz-adv-x="985" unicode="Ğ"/><glyph d="M627 890q-99 0 -144 39.5t-21 124.5h120q-14 -69 60 -69q38 0 66.5 17.5t38.5 51.5h120q-41 -164 -240 -164zM577 695q-102 0 -186 -52.5t-129.5 -133.5t-45.5 -170q0 -92 56.5 -143t150.5 -51q52 0 103.5 14t106.5 56.5t84 108.5h-263l39 121h459l-144 -445h-120l32 109 q-59 -64 -147 -100.5t-193 -36.5q-168 0 -265 89t-97 247q0 110 45.5 212t124 179t190.5 123t237 46q159 0 258.5 -83.5t95.5 -215.5h-199q-17 62 -69 94t-124 32z" glyph-name="gbreve" horiz-adv-x="985" unicode="ğ"/><glyph d="M634 900q-30 0 -49.5 20t-19.5 48q0 37 29.5 64t64.5 27q30 0 49.5 -20t19.5 -49q0 -36 -29.5 -63t-64.5 -27zM577 695q-102 0 -186 -52.5t-129.5 -133.5t-45.5 -170q0 -92 56.5 -143t150.5 -51q52 0 103.5 14t106.5 56.5t84 108.5h-263l39 121h459l-144 -445h-120 l32 109q-59 -64 -147 -100.5t-193 -36.5q-168 0 -265 89t-97 247q0 110 45.5 212t124 179t190.5 123t237 46q159 0 258.5 -83.5t95.5 -215.5h-199q-17 62 -69 94t-124 32z" glyph-name="Gdotaccent" horiz-adv-x="985" unicode="Ġ"/><glyph d="M634 900q-30 0 -49.5 20t-19.5 48q0 37 29.5 64t64.5 27q30 0 49.5 -20t19.5 -49q0 -36 -29.5 -63t-64.5 -27zM577 695q-102 0 -186 -52.5t-129.5 -133.5t-45.5 -170q0 -92 56.5 -143t150.5 -51q52 0 103.5 14t106.5 56.5t84 108.5h-263l39 121h459l-144 -445h-120 l32 109q-59 -64 -147 -100.5t-193 -36.5q-168 0 -265 89t-97 247q0 110 45.5 212t124 179t190.5 123t237 46q159 0 258.5 -83.5t95.5 -215.5h-199q-17 62 -69 94t-124 32z" glyph-name="gdotaccent" horiz-adv-x="985" unicode="ġ"/><glyph d="M577 695q-102 0 -186 -52.5t-129.5 -133.5t-45.5 -170q0 -92 56.5 -143t150.5 -51q52 0 103.5 14t106.5 56.5t84 108.5h-263l39 121h459l-144 -445h-120l32 109q-59 -64 -147 -100.5t-193 -36.5q-168 0 -265 89t-97 247q0 110 45.5 212t124 179t190.5 123t237 46 q159 0 258.5 -83.5t95.5 -215.5h-199q-17 62 -69 94t-124 32zM227 -213l48 150h229l-3 -8q-78 -237 -168 -351h-99q55 116 79 209h-86z" glyph-name="Gcommaaccent" horiz-adv-x="985" unicode="Ģ"/><glyph d="M577 695q-102 0 -186 -52.5t-129.5 -133.5t-45.5 -170q0 -92 56.5 -143t150.5 -51q52 0 103.5 14t106.5 56.5t84 108.5h-263l39 121h459l-144 -445h-120l32 109q-59 -64 -147 -100.5t-193 -36.5q-168 0 -265 89t-97 247q0 110 45.5 212t124 179t190.5 123t237 46 q159 0 258.5 -83.5t95.5 -215.5h-199q-17 62 -69 94t-124 32zM227 -213l48 150h229l-3 -8q-78 -237 -168 -351h-99q55 116 79 209h-86z" glyph-name="gcommaaccent" horiz-adv-x="985" unicode="ģ"/><glyph d="M793 840h199l-270 -840h-199l106 331h-415l-106 -331h-200l271 840h199l-37 -116h415zM267 496h415l28 86h-415z" glyph-name="Hbar" horiz-adv-x="901" unicode="Ħ"/><glyph d="M793 840h199l-270 -840h-199l106 331h-415l-106 -331h-200l271 840h199l-37 -116h415zM267 496h415l28 86h-415z" glyph-name="hbar" horiz-adv-x="901" unicode="ħ"/><glyph d="M94 894l49 149h400l-49 -149h-400zM-94 0l272 840h200l-272 -840h-200z" glyph-name="Imacron" horiz-adv-x="285" unicode="Ī"/><glyph d="M94 894l49 149h400l-49 -149h-400zM-94 0l272 840h200l-272 -840h-200z" glyph-name="imacron" horiz-adv-x="285" unicode="ī"/><glyph d="M106 0q-49 0 -71.5 -20.5t-22.5 -48.5q0 -24 17 -40.5t55 -16.5v-115q-27 0 -53 3.5t-55 14t-51 26t-36 42t-14 60.5q0 58 39 95h-8l272 840h200z" glyph-name="Iogonek" horiz-adv-x="285" unicode="Į"/><glyph d="M106 0q-49 0 -71.5 -20.5t-22.5 -48.5q0 -24 17 -40.5t55 -16.5v-115q-27 0 -53 3.5t-55 14t-51 26t-36 42t-14 60.5q0 58 39 95h-8l272 840h200z" glyph-name="iogonek" horiz-adv-x="285" unicode="į"/><glyph d="M309 900q-30 0 -49.5 20t-19.5 48q0 37 29.5 64t64.5 27q30 0 49.5 -20t19.5 -49q0 -36 -29.5 -63t-64.5 -27zM-94 0l272 840h200l-272 -840h-200z" glyph-name="Idotaccent" horiz-adv-x="285" unicode="İ"/><glyph d="M-94 0l272 840h200l-272 -840h-200z" glyph-name="dotlessi" horiz-adv-x="285" unicode="ı"/><glyph d="M-94 0l272 840h200l-272 -840h-200zM529 -28q-169 0 -241 84.5t-17 260.5h198q-29 -96 2.5 -135t96.5 -39q71 0 128 44t88 140l165 513h200l-166 -517q-61 -190 -173.5 -270.5t-280.5 -80.5z" glyph-name="IJ" horiz-adv-x="1056" unicode="Ĳ"/><glyph d="M990 840l-463 -379l262 -461h-200l-205 362h-16l-194 -151l-69 -211h-199l274 840h199l-122 -374h24l474 374h235zM144 -213l48 150h229l-3 -8q-78 -237 -168 -351h-99q55 116 79 209h-86z" glyph-name="Kcommaaccent" horiz-adv-x="902" unicode="Ķ"/><glyph d="M990 840l-463 -379l262 -461h-200l-205 362h-16l-194 -151l-69 -211h-199l274 840h199l-122 -374h24l474 374h235zM144 -213l48 150h229l-3 -8q-78 -237 -168 -351h-99q55 116 79 209h-86z" glyph-name="kcommaaccent" horiz-adv-x="902" unicode="ķ"/><glyph d="M195 880l104 164h184l-103 -164h-185zM-94 0l274 840h199l-219 -673h496l-54 -167h-696z" glyph-name="Lacute" horiz-adv-x="773" unicode="Ĺ"/><glyph d="M195 880l104 164h184l-103 -164h-185zM-94 0l274 840h199l-219 -673h496l-54 -167h-696z" glyph-name="lacute" horiz-adv-x="773" unicode="ĺ"/><glyph d="M-94 0l274 840h199l-219 -673h496l-54 -167h-696zM79 -422q55 116 79 209h-86l48 150h229l-3 -8q-78 -237 -168 -351h-99z" glyph-name="Lcommaaccent" horiz-adv-x="773" unicode="Ļ"/><glyph d="M-94 0l274 840h199l-219 -673h496l-54 -167h-696zM79 -422q55 116 79 209h-86l48 150h229l-3 -8q-78 -237 -168 -351h-99z" glyph-name="lcommaaccent" horiz-adv-x="773" unicode="ļ"/><glyph d="M-94 0l274 840h199l-219 -673h496l-54 -167h-696zM436 440q61 128 88 233h-96l54 167h255l-3 -8q-88 -267 -188 -392h-110z" glyph-name="Lcaron" horiz-adv-x="773" unicode="Ľ"/><glyph d="M-94 0l274 840h199l-219 -673h496l-54 -167h-696zM436 440q61 128 88 233h-96l54 167h255l-3 -8q-88 -267 -188 -392h-110z" glyph-name="lcaron" horiz-adv-x="773" unicode="ľ"/><glyph d="M-94 0l274 840h199l-219 -673h496l-54 -167h-696zM581 422q-40 0 -65.5 25.5t-25.5 65.5q0 50 36 85t86 35q40 0 65 -25.5t25 -65.5q0 -50 -36 -85t-85 -35z" glyph-name="Ldot" horiz-adv-x="773" unicode="Ŀ"/><glyph d="M187 167h496l-54 -167h-696l71 218l-45 -28l13 154l92 58l143 438h199l-91 -281l152 96l-13 -154l-199 -125z" glyph-name="Lslash" horiz-adv-x="800" unicode="Ł"/><glyph d="M187 167h496l-54 -167h-696l71 218l-45 -28l13 154l92 58l143 438h199l-91 -281l152 96l-13 -154l-199 -125z" glyph-name="lslash" horiz-adv-x="800" unicode="ł"/><glyph d="M510 890l104 164h184l-103 -164h-185zM-94 0l274 840h223l211 -570h22l187 570h195l-273 -840h-218l-218 566h-22l-185 -566h-196z" glyph-name="Nacute" horiz-adv-x="924" unicode="Ń"/><glyph d="M510 890l104 164h184l-103 -164h-185zM-94 0l274 840h223l211 -570h22l187 570h195l-273 -840h-218l-218 566h-22l-185 -566h-196z" glyph-name="nacute" horiz-adv-x="924" unicode="ń"/><glyph d="M-94 0l274 840h223l211 -570h22l187 570h195l-273 -840h-218l-218 566h-22l-185 -566h-196zM161 -422q55 116 79 209h-86l48 150h229l-3 -8q-78 -237 -168 -351h-99z" glyph-name="Ncommaaccent" horiz-adv-x="924" unicode="Ņ"/><glyph d="M-94 0l274 840h223l211 -570h22l187 570h195l-273 -840h-218l-218 566h-22l-185 -566h-196zM161 -422q55 116 79 209h-86l48 150h229l-3 -8q-78 -237 -168 -351h-99z" glyph-name="ncommaaccent" horiz-adv-x="924" unicode="ņ"/><glyph d="M903 1035l-177 -164h-261l-84 164h171l40 -81h39l84 81h188zM-94 0l274 840h223l211 -570h22l187 570h195l-273 -840h-218l-218 566h-22l-185 -566h-196z" glyph-name="Ncaron" horiz-adv-x="924" unicode="Ň"/><glyph d="M903 1035l-177 -164h-261l-84 164h171l40 -81h39l84 81h188zM-94 0l274 840h223l211 -570h22l187 570h195l-273 -840h-218l-218 566h-22l-185 -566h-196z" glyph-name="ncaron" horiz-adv-x="924" unicode="ň"/><glyph d="M1018 840l-276 -850q-92 -287 -437 -287l38 168q66 0 123.5 32t82.5 97h-22l-218 566h-22l-185 -566h-196l274 840h223l211 -570h22l187 570h195z" glyph-name="Eng" horiz-adv-x="924" unicode="Ŋ"/><glyph d="M1018 840l-276 -850q-92 -287 -437 -287l38 168q66 0 123.5 32t82.5 97h-22l-218 566h-22l-185 -566h-196l274 840h223l211 -570h22l187 570h195z" glyph-name="eng" horiz-adv-x="924" unicode="ŋ"/><glyph d="M444 898l49 149h400l-49 -149h-400zM385 -28q-173 0 -270.5 90.5t-97.5 248.5q0 107 45.5 208.5t123 178.5t188 123.5t232.5 46.5q173 0 270.5 -90.5t97.5 -247.5q0 -107 -45.5 -209t-123 -179t-188 -123.5t-232.5 -46.5zM416 145q101 0 185.5 53.5t129.5 134.5t46 167 q0 93 -56 144t-146 51q-101 0 -185.5 -53.5t-129 -134.5t-45.5 -167q0 -93 55.5 -144t145.5 -51z" glyph-name="Omacron" horiz-adv-x="991" unicode="Ō"/><glyph d="M444 898l49 149h400l-49 -149h-400zM385 -28q-173 0 -270.5 90.5t-97.5 248.5q0 107 45.5 208.5t123 178.5t188 123.5t232.5 46.5q173 0 270.5 -90.5t97.5 -247.5q0 -107 -45.5 -209t-123 -179t-188 -123.5t-232.5 -46.5zM416 145q101 0 185.5 53.5t129.5 134.5t46 167 q0 93 -56 144t-146 51q-101 0 -185.5 -53.5t-129 -134.5t-45.5 -167q0 -93 55.5 -144t145.5 -51z" glyph-name="omacron" horiz-adv-x="991" unicode="ō"/><glyph d="M420 894l104 164h184l-103 -164h-185zM672 894l104 164h184l-103 -164h-185zM385 -28q-173 0 -270.5 90.5t-97.5 248.5q0 107 45.5 208.5t123 178.5t188 123.5t232.5 46.5q173 0 270.5 -90.5t97.5 -247.5q0 -107 -45.5 -209t-123 -179t-188 -123.5t-232.5 -46.5zM416 145 q101 0 185.5 53.5t129.5 134.5t46 167q0 93 -56 144t-146 51q-101 0 -185.5 -53.5t-129 -134.5t-45.5 -167q0 -93 55.5 -144t145.5 -51z" glyph-name="Ohungarumlaut" horiz-adv-x="991" unicode="Ő"/><glyph d="M420 894l104 164h184l-103 -164h-185zM672 894l104 164h184l-103 -164h-185zM385 -28q-173 0 -270.5 90.5t-97.5 248.5q0 107 45.5 208.5t123 178.5t188 123.5t232.5 46.5q173 0 270.5 -90.5t97.5 -247.5q0 -107 -45.5 -209t-123 -179t-188 -123.5t-232.5 -46.5zM416 145 q101 0 185.5 53.5t129.5 134.5t46 167q0 93 -56 144t-146 51q-101 0 -185.5 -53.5t-129 -134.5t-45.5 -167q0 -93 55.5 -144t145.5 -51z" glyph-name="ohungarumlaut" horiz-adv-x="991" unicode="ő"/><glyph d="M1560 678h-509l-60 -184h502l-45 -138h-502l-63 -194h510l-53 -162h-709l9 28q-122 -56 -255 -56q-173 0 -270.5 90.5t-97.5 248.5q0 107 45.5 208.5t123 178.5t188 123.5t232.5 46.5q177 0 275 -95l22 67h710zM215 340q0 -93 55.5 -144t145.5 -51q101 0 185.5 53.5 t129.5 134.5t46 167q0 93 -56 144t-146 51q-101 0 -185.5 -53.5t-129 -134.5t-45.5 -167z" glyph-name="OE" horiz-adv-x="1519" unicode="Œ"/><glyph d="M1560 678h-509l-60 -184h502l-45 -138h-502l-63 -194h510l-53 -162h-709l9 28q-122 -56 -255 -56q-173 0 -270.5 90.5t-97.5 248.5q0 107 45.5 208.5t123 178.5t188 123.5t232.5 46.5q177 0 275 -95l22 67h710zM215 340q0 -93 55.5 -144t145.5 -51q101 0 185.5 53.5 t129.5 134.5t46 167q0 93 -56 144t-146 51q-101 0 -185.5 -53.5t-129 -134.5t-45.5 -167z" glyph-name="oe" horiz-adv-x="1519" unicode="œ"/><glyph d="M764 1054l-103 -164h-185l104 164h184zM880 613q0 -111 -64.5 -196t-167.5 -129l71 -288h-192l-60 250h-5h-273l-81 -250h-200l271 840h412q289 0 289 -227zM471 401q84 0 146.5 48.5t62.5 124.5q0 54 -32 76.5t-99 22.5h-224l-88 -273z" glyph-name="Racute" horiz-adv-x="871" unicode="Ŕ"/><glyph d="M764 1054l-103 -164h-185l104 164h184zM880 613q0 -111 -64.5 -196t-167.5 -129l71 -288h-192l-60 250h-5h-273l-81 -250h-200l271 840h412q289 0 289 -227zM471 401q84 0 146.5 48.5t62.5 124.5q0 54 -32 76.5t-99 22.5h-224l-88 -273z" glyph-name="racute" horiz-adv-x="871" unicode="ŕ"/><glyph d="M880 613q0 -111 -64.5 -196t-167.5 -129l71 -288h-192l-60 250h-5h-273l-81 -250h-200l271 840h412q289 0 289 -227zM471 401q84 0 146.5 48.5t62.5 124.5q0 54 -32 76.5t-99 22.5h-224l-88 -273zM120 -213l48 150h229l-3 -8q-78 -237 -168 -351h-99q55 116 79 209h-86z " glyph-name="Rcommaaccent" horiz-adv-x="871" unicode="Ŗ"/><glyph d="M880 613q0 -111 -64.5 -196t-167.5 -129l71 -288h-192l-60 250h-5h-273l-81 -250h-200l271 840h412q289 0 289 -227zM471 401q84 0 146.5 48.5t62.5 124.5q0 54 -32 76.5t-99 22.5h-224l-88 -273zM120 -213l48 150h229l-3 -8q-78 -237 -168 -351h-99q55 116 79 209h-86z " glyph-name="rcommaaccent" horiz-adv-x="871" unicode="ŗ"/><glyph d="M692 871h-261l-84 164h171l40 -81h39l84 81h188zM880 613q0 -111 -64.5 -196t-167.5 -129l71 -288h-192l-60 250h-5h-273l-81 -250h-200l271 840h412q289 0 289 -227zM471 401q84 0 146.5 48.5t62.5 124.5q0 54 -32 76.5t-99 22.5h-224l-88 -273z" glyph-name="Rcaron" horiz-adv-x="871" unicode="Ř"/><glyph d="M692 871h-261l-84 164h171l40 -81h39l84 81h188zM880 613q0 -111 -64.5 -196t-167.5 -129l71 -288h-192l-60 250h-5h-273l-81 -250h-200l271 840h412q289 0 289 -227zM471 401q84 0 146.5 48.5t62.5 124.5q0 54 -32 76.5t-99 22.5h-224l-88 -273z" glyph-name="rcaron" horiz-adv-x="871" unicode="ř"/><glyph d="M472 890l104 164h184l-103 -164h-185zM305 -28q-94 0 -163.5 16t-116 50.5t-57.5 88.5t12 130h170q-13 -65 36 -96.5t148 -31.5q101 0 169 32t68 95q0 38 -30.5 58.5t-101.5 35.5l-67 15q-31 7 -47 11t-48.5 14t-51.5 19.5t-44.5 26.5t-39.5 36t-24.5 46t-10.5 59 q0 136 118 213.5t303 77.5q180 0 269 -76t38 -206h-165q10 59 -33.5 92.5t-136.5 33.5q-92 0 -148 -33t-56 -88q0 -36 27 -56t86 -34l56 -13q10 -2 46.5 -10.5t52 -12.5t49 -14.5t49.5 -20t40 -25.5t35.5 -34t20.5 -43.5t9 -55.5q0 -78 -37 -137.5t-102.5 -94t-146 -51.5 t-175.5 -17z" glyph-name="Sacute" horiz-adv-x="851" unicode="Ś"/><glyph d="M472 890l104 164h184l-103 -164h-185zM305 -28q-94 0 -163.5 16t-116 50.5t-57.5 88.5t12 130h170q-13 -65 36 -96.5t148 -31.5q101 0 169 32t68 95q0 38 -30.5 58.5t-101.5 35.5l-67 15q-31 7 -47 11t-48.5 14t-51.5 19.5t-44.5 26.5t-39.5 36t-24.5 46t-10.5 59 q0 136 118 213.5t303 77.5q180 0 269 -76t38 -206h-165q10 59 -33.5 92.5t-136.5 33.5q-92 0 -148 -33t-56 -88q0 -36 27 -56t86 -34l56 -13q10 -2 46.5 -10.5t52 -12.5t49 -14.5t49.5 -20t40 -25.5t35.5 -34t20.5 -43.5t9 -55.5q0 -78 -37 -137.5t-102.5 -94t-146 -51.5 t-175.5 -17z" glyph-name="sacute" horiz-adv-x="851" unicode="ś"/><glyph d="M834 586h-165q10 59 -33.5 92.5t-136.5 33.5q-92 0 -148 -33t-56 -88q0 -36 27 -56t86 -34l56 -13q10 -2 46.5 -10.5t52 -12.5t49 -14.5t49.5 -20t40 -25.5t35.5 -34t20.5 -43.5t9 -55.5q0 -103 -65.5 -172.5t-165 -98t-227.5 -29.5l-17 -11q72 -17 72 -96q0 -55 -38 -91 t-96.5 -43t-128.5 9l24 81q43 -11 85 1.5t42 38.5q0 18 -27.5 24.5t-82.5 -3.5l16 52l60 42q-150 15 -214.5 84t-22.5 197h170q-13 -65 36 -96.5t148 -31.5q101 0 169 32t68 95q0 38 -30.5 58.5t-101.5 35.5l-67 15q-31 7 -47 11t-48.5 14t-51.5 19.5t-44.5 26.5t-39.5 36 t-24.5 46t-10.5 59q0 136 118 213.5t303 77.5q180 0 269 -76t38 -206z" glyph-name="Scedilla" horiz-adv-x="851" unicode="Ş"/><glyph d="M834 586h-165q10 59 -33.5 92.5t-136.5 33.5q-92 0 -148 -33t-56 -88q0 -36 27 -56t86 -34l56 -13q10 -2 46.5 -10.5t52 -12.5t49 -14.5t49.5 -20t40 -25.5t35.5 -34t20.5 -43.5t9 -55.5q0 -103 -65.5 -172.5t-165 -98t-227.5 -29.5l-17 -11q72 -17 72 -96q0 -55 -38 -91 t-96.5 -43t-128.5 9l24 81q43 -11 85 1.5t42 38.5q0 18 -27.5 24.5t-82.5 -3.5l16 52l60 42q-150 15 -214.5 84t-22.5 197h170q-13 -65 36 -96.5t148 -31.5q101 0 169 32t68 95q0 38 -30.5 58.5t-101.5 35.5l-67 15q-31 7 -47 11t-48.5 14t-51.5 19.5t-44.5 26.5t-39.5 36 t-24.5 46t-10.5 59q0 136 118 213.5t303 77.5q180 0 269 -76t38 -206z" glyph-name="scedilla" horiz-adv-x="851" unicode="ş"/><glyph d="M865 1035l-177 -164h-261l-84 164h171l40 -81h39l84 81h188zM305 -28q-94 0 -163.5 16t-116 50.5t-57.5 88.5t12 130h170q-13 -65 36 -96.5t148 -31.5q101 0 169 32t68 95q0 38 -30.5 58.5t-101.5 35.5l-67 15q-31 7 -47 11t-48.5 14t-51.5 19.5t-44.5 26.5t-39.5 36 t-24.5 46t-10.5 59q0 136 118 213.5t303 77.5q180 0 269 -76t38 -206h-165q10 59 -33.5 92.5t-136.5 33.5q-92 0 -148 -33t-56 -88q0 -36 27 -56t86 -34l56 -13q10 -2 46.5 -10.5t52 -12.5t49 -14.5t49.5 -20t40 -25.5t35.5 -34t20.5 -43.5t9 -55.5q0 -78 -37 -137.5 t-102.5 -94t-146 -51.5t-175.5 -17z" glyph-name="Scaron" horiz-adv-x="851" unicode="Š"/><glyph d="M865 1035l-177 -164h-261l-84 164h171l40 -81h39l84 81h188zM305 -28q-94 0 -163.5 16t-116 50.5t-57.5 88.5t12 130h170q-13 -65 36 -96.5t148 -31.5q101 0 169 32t68 95q0 38 -30.5 58.5t-101.5 35.5l-67 15q-31 7 -47 11t-48.5 14t-51.5 19.5t-44.5 26.5t-39.5 36 t-24.5 46t-10.5 59q0 136 118 213.5t303 77.5q180 0 269 -76t38 -206h-165q10 59 -33.5 92.5t-136.5 33.5q-92 0 -148 -33t-56 -88q0 -36 27 -56t86 -34l56 -13q10 -2 46.5 -10.5t52 -12.5t49 -14.5t49.5 -20t40 -25.5t35.5 -34t20.5 -43.5t9 -55.5q0 -78 -37 -137.5 t-102.5 -94t-146 -51.5t-175.5 -17z" glyph-name="scaron" horiz-adv-x="851" unicode="š"/><glyph d="M1000 840l-54 -167h-310l-219 -673h-39l-59 -39q72 -17 72 -96q0 -55 -38 -91t-96.5 -43t-128.5 9l24 81q43 -11 85 1.5t42 38.5q0 18 -27.5 24.5t-82.5 -3.5l16 52l94 66h-62l219 673h-316l53 167h827z" glyph-name="Tcommaaccent" horiz-adv-x="902" unicode="Ţ"/><glyph d="M1000 840l-54 -167h-310l-219 -673h-39l-59 -39q72 -17 72 -96q0 -55 -38 -91t-96.5 -43t-128.5 9l24 81q43 -11 85 1.5t42 38.5q0 18 -27.5 24.5t-82.5 -3.5l16 52l94 66h-62l219 673h-316l53 167h827z" glyph-name="tcommaaccent" horiz-adv-x="902" unicode="ţ"/><glyph d="M716 871h-261l-84 164h171l40 -81h39l84 81h188zM1000 840l-54 -167h-310l-219 -673h-200l219 673h-316l53 167h827z" glyph-name="Tcaron" horiz-adv-x="902" unicode="Ť"/><glyph d="M716 871h-261l-84 164h171l40 -81h39l84 81h188zM1000 840l-54 -167h-310l-219 -673h-200l219 673h-316l53 167h827z" glyph-name="tcaron" horiz-adv-x="902" unicode="ť"/><glyph d="M946 673h-310l-58 -177h206l-55 -165h-205l-107 -331h-200l107 331h-201l55 165h200l58 177h-316l53 167h827z" glyph-name="Tbar" horiz-adv-x="902" unicode="Ŧ"/><glyph d="M946 673h-310l-58 -177h206l-55 -165h-205l-107 -331h-200l107 331h-201l55 165h200l58 177h-316l53 167h827z" glyph-name="tbar" horiz-adv-x="902" unicode="ŧ"/><glyph d="M404 894l49 149h400l-49 -149h-400zM330 -28q-207 0 -288 100t-19 287l157 481h202l-163 -497q-33 -97 3 -150.5t136 -53.5q205 0 278 226l155 475h202l-163 -502q-63 -194 -184.5 -280t-315.5 -86z" glyph-name="Umacron" unicode="Ū"/><glyph d="M404 894l49 149h400l-49 -149h-400zM330 -28q-207 0 -288 100t-19 287l157 481h202l-163 -497q-33 -97 3 -150.5t136 -53.5q205 0 278 226l155 475h202l-163 -502q-63 -194 -184.5 -280t-315.5 -86z" glyph-name="umacron" unicode="ū"/><glyph d="M612 890q-99 0 -144 39.5t-21 124.5h120q-14 -69 60 -69q38 0 66.5 17.5t38.5 51.5h120q-41 -164 -240 -164zM330 -28q-207 0 -288 100t-19 287l157 481h202l-163 -497q-33 -97 3 -150.5t136 -53.5q205 0 278 226l155 475h202l-163 -502q-63 -194 -184.5 -280t-315.5 -86 z" glyph-name="Ubreve" unicode="Ŭ"/><glyph d="M612 890q-99 0 -144 39.5t-21 124.5h120q-14 -69 60 -69q38 0 66.5 17.5t38.5 51.5h120q-41 -164 -240 -164zM330 -28q-207 0 -288 100t-19 287l157 481h202l-163 -497q-33 -97 3 -150.5t136 -53.5q205 0 278 226l155 475h202l-163 -502q-63 -194 -184.5 -280t-315.5 -86 z" glyph-name="ubreve" unicode="ŭ"/><glyph d="M581 827q-48 0 -76.5 29t-28.5 74q0 62 45 105t105 43q47 0 75.5 -28t28.5 -73q0 -60 -44 -105t-105 -45zM597 919q18 0 30 13t12 31q0 10 -7.5 17t-19.5 7q-18 0 -30.5 -13t-12.5 -30q0 -11 7.5 -18t20.5 -7zM330 -28q-207 0 -288 100t-19 287l157 481h202l-163 -497 q-33 -97 3 -150.5t136 -53.5q205 0 278 226l155 475h202l-163 -502q-63 -194 -184.5 -280t-315.5 -86z" glyph-name="Uring" unicode="Ů"/><glyph d="M581 827q-48 0 -76.5 29t-28.5 74q0 62 45 105t105 43q47 0 75.5 -28t28.5 -73q0 -60 -44 -105t-105 -45zM597 919q18 0 30 13t12 31q0 10 -7.5 17t-19.5 7q-18 0 -30.5 -13t-12.5 -30q0 -11 7.5 -18t20.5 -7zM330 -28q-207 0 -288 100t-19 287l157 481h202l-163 -497 q-33 -97 3 -150.5t136 -53.5q205 0 278 226l155 475h202l-163 -502q-63 -194 -184.5 -280t-315.5 -86z" glyph-name="uring" unicode="ů"/><glyph d="M380 890l104 164h184l-103 -164h-185zM632 890l104 164h184l-103 -164h-185zM330 -28q-207 0 -288 100t-19 287l157 481h202l-163 -497q-33 -97 3 -150.5t136 -53.5q205 0 278 226l155 475h202l-163 -502q-63 -194 -184.5 -280t-315.5 -86z" glyph-name="Uhungarumlaut" unicode="Ű"/><glyph d="M380 890l104 164h184l-103 -164h-185zM632 890l104 164h184l-103 -164h-185zM330 -28q-207 0 -288 100t-19 287l157 481h202l-163 -497q-33 -97 3 -150.5t136 -53.5q205 0 278 226l155 475h202l-163 -502q-63 -194 -184.5 -280t-315.5 -86z" glyph-name="uhungarumlaut" unicode="ű"/><glyph d="M791 840h202l-163 -502q-54 -164 -149.5 -250.5t-239.5 -107.5v-1q-106 -13 -106 -58q0 -18 17.5 -32.5t54.5 -14.5v-115q-34 0 -68 6.5t-67.5 21t-54 44t-20.5 69.5q0 48 34 79q-152 23 -206.5 120t-1.5 260l157 481h202l-163 -497q-33 -97 3 -150.5t136 -53.5 q205 0 278 226z" glyph-name="Uogonek" unicode="Ų"/><glyph d="M791 840h202l-163 -502q-54 -164 -149.5 -250.5t-239.5 -107.5v-1q-106 -13 -106 -58q0 -18 17.5 -32.5t54.5 -14.5v-115q-34 0 -68 6.5t-67.5 21t-54 44t-20.5 69.5q0 48 34 79q-152 23 -206.5 120t-1.5 260l157 481h202l-163 -497q-33 -97 3 -150.5t136 -53.5 q205 0 278 226z" glyph-name="uogonek" unicode="ų"/><glyph d="M487 890l177 164h261l84 -164h-171l-40 81h-39l-84 -81h-188zM71 0l84 840h198l-69 -627h19l360 627h167l-40 -627h18l335 627h206l-458 -840h-270l39 530h-18l-301 -530h-270z" glyph-name="Wcircumflex" horiz-adv-x="1236" unicode="Ŵ"/><glyph d="M487 890l177 164h261l84 -164h-171l-40 81h-39l-84 -81h-188zM71 0l84 840h198l-69 -627h19l360 627h167l-40 -627h18l335 627h206l-458 -840h-270l39 530h-18l-301 -530h-270z" glyph-name="wcircumflex" horiz-adv-x="1236" unicode="ŵ"/><glyph d="M591 971l-84 -81h-188l177 164h261l84 -164h-171l-40 81h-39zM1025 840l-528 -573l-86 -267h-199l89 279l-157 561h201l100 -372h20l337 372h223z" glyph-name="Ycircumflex" horiz-adv-x="907" unicode="Ŷ"/><glyph d="M591 971l-84 -81h-188l177 164h261l84 -164h-171l-40 81h-39zM1025 840l-528 -573l-86 -267h-199l89 279l-157 561h201l100 -372h20l337 372h223z" glyph-name="ycircumflex" horiz-adv-x="907" unicode="ŷ"/><glyph d="M459 900q-30 0 -49.5 20t-19.5 48q0 37 29.5 64t64.5 27q30 0 49.5 -20t19.5 -49q0 -36 -29.5 -63t-64.5 -27zM735 900q-30 0 -49.5 20t-19.5 48q0 37 29.5 64t64.5 27q30 0 49.5 -20t19.5 -49q0 -36 -29.5 -63t-64.5 -27zM1025 840l-528 -573l-86 -267h-199l89 279 l-157 561h201l100 -372h20l337 372h223z" glyph-name="Ydieresis" horiz-adv-x="907" unicode="Ÿ"/><glyph d="M457 890l104 164h184l-103 -164h-185zM-102 0l52 165l645 492l6 17h-474l55 166h741l-53 -165l-645 -492l-6 -17h479l-55 -166h-745z" glyph-name="Zacute" horiz-adv-x="820" unicode="Ź"/><glyph d="M457 890l104 164h184l-103 -164h-185zM-102 0l52 165l645 492l6 17h-474l55 166h741l-53 -165l-645 -492l-6 -17h479l-55 -166h-745z" glyph-name="zacute" horiz-adv-x="820" unicode="ź"/><glyph d="M577 900q-30 0 -49.5 20t-19.5 48q0 37 29.5 64t64.5 27q30 0 49.5 -20t19.5 -49q0 -36 -29.5 -63t-64.5 -27zM-102 0l52 165l645 492l6 17h-474l55 166h741l-53 -165l-645 -492l-6 -17h479l-55 -166h-745z" glyph-name="Zdotaccent" horiz-adv-x="820" unicode="Ż"/><glyph d="M577 900q-30 0 -49.5 20t-19.5 48q0 37 29.5 64t64.5 27q30 0 49.5 -20t19.5 -49q0 -36 -29.5 -63t-64.5 -27zM-102 0l52 165l645 492l6 17h-474l55 166h741l-53 -165l-645 -492l-6 -17h479l-55 -166h-745z" glyph-name="zdotaccent" horiz-adv-x="820" unicode="ż"/><glyph d="M850 1035l-177 -164h-261l-84 164h171l40 -81h39l84 81h188zM-102 0l52 165l645 492l6 17h-474l55 166h741l-53 -165l-645 -492l-6 -17h479l-55 -166h-745z" glyph-name="Zcaron" horiz-adv-x="820" unicode="Ž"/><glyph d="M850 1035l-177 -164h-261l-84 164h171l40 -81h39l84 81h188zM-102 0l52 165l645 492l6 17h-474l55 166h741l-53 -165l-645 -492l-6 -17h479l-55 -166h-745z" glyph-name="zcaron" horiz-adv-x="820" unicode="ž"/><glyph d="M693 735q-115 0 -154 -121l-22 -68h243l-50 -155h-243l-50 -155q-43 -130 -133.5 -189t-202.5 -59q-107 0 -159 39l48 148q74 -32 117 -32q115 0 154 120l41 128h-239l50 155h239l31 95q43 130 133.5 189t202.5 59q107 0 159 -39l-48 -148q-76 33 -117 33z" glyph-name="florin" horiz-adv-x="768" unicode="ƒ"/><glyph d="M744 871h-261l-84 164h171l40 -81h39l84 81h188zM466 840h281l54 -840h-197l-7 141h-409l-97 -141h-215zM293 292h297l-18 359h-31z" glyph-name="uni01CD" horiz-adv-x="935" unicode="Ǎ"/><glyph d="M744 871h-261l-84 164h171l40 -81h39l84 81h188zM466 840h281l54 -840h-197l-7 141h-409l-97 -141h-215zM293 292h297l-18 359h-31z" glyph-name="uni01CE" horiz-adv-x="935" unicode="ǎ"/><glyph d="M582 1035l-177 -164h-261l-84 164h171l40 -81h39l84 81h188zM-94 0l272 840h200l-272 -840h-200z" glyph-name="uni01CF" horiz-adv-x="285" unicode="Ǐ"/><glyph d="M582 1035l-177 -164h-261l-84 164h171l40 -81h39l84 81h188zM-94 0l272 840h200l-272 -840h-200z" glyph-name="uni01D0" horiz-adv-x="285" unicode="ǐ"/><glyph d="M932 1039l-177 -164h-261l-84 164h171l40 -81h39l84 81h188zM385 -28q-173 0 -270.5 90.5t-97.5 248.5q0 107 45.5 208.5t123 178.5t188 123.5t232.5 46.5q173 0 270.5 -90.5t97.5 -247.5q0 -107 -45.5 -209t-123 -179t-188 -123.5t-232.5 -46.5zM416 145 q101 0 185.5 53.5t129.5 134.5t46 167q0 93 -56 144t-146 51q-101 0 -185.5 -53.5t-129 -134.5t-45.5 -167q0 -93 55.5 -144t145.5 -51z" glyph-name="uni01D1" horiz-adv-x="991" unicode="Ǒ"/><glyph d="M932 1039l-177 -164h-261l-84 164h171l40 -81h39l84 81h188zM385 -28q-173 0 -270.5 90.5t-97.5 248.5q0 107 45.5 208.5t123 178.5t188 123.5t232.5 46.5q173 0 270.5 -90.5t97.5 -247.5q0 -107 -45.5 -209t-123 -179t-188 -123.5t-232.5 -46.5zM416 145 q101 0 185.5 53.5t129.5 134.5t46 167q0 93 -56 144t-146 51q-101 0 -185.5 -53.5t-129 -134.5t-45.5 -167q0 -93 55.5 -144t145.5 -51z" glyph-name="uni01D2" horiz-adv-x="991" unicode="ǒ"/><glyph d="M892 1035l-177 -164h-261l-84 164h171l40 -81h39l84 81h188zM330 -28q-207 0 -288 100t-19 287l157 481h202l-163 -497q-33 -97 3 -150.5t136 -53.5q205 0 278 226l155 475h202l-163 -502q-63 -194 -184.5 -280t-315.5 -86z" glyph-name="uni01D3" unicode="Ǔ"/><glyph d="M892 1035l-177 -164h-261l-84 164h171l40 -81h39l84 81h188zM330 -28q-207 0 -288 100t-19 287l157 481h202l-163 -497q-33 -97 3 -150.5t136 -53.5q205 0 278 226l155 475h202l-163 -502q-63 -194 -184.5 -280t-315.5 -86z" glyph-name="uni01D4" unicode="ǔ"/><glyph d="M974 530q0 -206 -151 -368.5t-374 -186.5q-16 -17 -16 -42q0 -24 17 -40.5t55 -16.5v-115q-27 0 -53 3.5t-55 14t-51 26t-36 42t-14 60.5q0 40 18 69q-141 18 -219 106t-78 229q0 107 45.5 208.5t123 178.5t188 123.5t232.5 46.5q173 0 270.5 -90.5t97.5 -247.5zM215 340 q0 -93 55.5 -144t145.5 -51q101 0 185.5 53.5t129.5 134.5t46 167q0 93 -56 144t-146 51q-101 0 -185.5 -53.5t-129 -134.5t-45.5 -167z" glyph-name="uni01EA" horiz-adv-x="991" unicode="Ǫ"/><glyph d="M305 -28q-94 0 -163.5 16t-116 50.5t-57.5 88.5t12 130h170q-13 -65 36 -96.5t148 -31.5q101 0 169 32t68 95q0 38 -30.5 58.5t-101.5 35.5l-67 15q-31 7 -47 11t-48.5 14t-51.5 19.5t-44.5 26.5t-39.5 36t-24.5 46t-10.5 59q0 136 118 213.5t303 77.5q180 0 269 -76 t38 -206h-165q10 59 -33.5 92.5t-136.5 33.5q-92 0 -148 -33t-56 -88q0 -36 27 -56t86 -34l56 -13q10 -2 46.5 -10.5t52 -12.5t49 -14.5t49.5 -20t40 -25.5t35.5 -34t20.5 -43.5t9 -55.5q0 -78 -37 -137.5t-102.5 -94t-146 -51.5t-175.5 -17zM123 -422q55 116 79 209h-86 l48 150h229l-3 -8q-78 -237 -168 -351h-99z" glyph-name="Scommaaccent" horiz-adv-x="851" unicode="Ș"/><glyph d="M305 -28q-94 0 -163.5 16t-116 50.5t-57.5 88.5t12 130h170q-13 -65 36 -96.5t148 -31.5q101 0 169 32t68 95q0 38 -30.5 58.5t-101.5 35.5l-67 15q-31 7 -47 11t-48.5 14t-51.5 19.5t-44.5 26.5t-39.5 36t-24.5 46t-10.5 59q0 136 118 213.5t303 77.5q180 0 269 -76 t38 -206h-165q10 59 -33.5 92.5t-136.5 33.5q-92 0 -148 -33t-56 -88q0 -36 27 -56t86 -34l56 -13q10 -2 46.5 -10.5t52 -12.5t49 -14.5t49.5 -20t40 -25.5t35.5 -34t20.5 -43.5t9 -55.5q0 -78 -37 -137.5t-102.5 -94t-146 -51.5t-175.5 -17zM123 -422q55 116 79 209h-86 l48 150h229l-3 -8q-78 -237 -168 -351h-99z" glyph-name="scommaaccent" horiz-adv-x="851" unicode="ș"/><glyph d="M1000 840l-54 -167h-310l-219 -673h-200l219 673h-316l53 167h827zM144 -213l48 150h229l-3 -8q-78 -237 -168 -351h-99q55 116 79 209h-86z" glyph-name="uni021A" horiz-adv-x="902" unicode="Ț"/><glyph d="M1000 840l-54 -167h-310l-219 -673h-200l219 673h-316l53 167h827zM144 -213l48 150h229l-3 -8q-78 -237 -168 -351h-99q55 116 79 209h-86z" glyph-name="uni021B" horiz-adv-x="902" unicode="ț"/><glyph d="M84 680l177 164h261l84 -164h-171l-40 81h-39l-84 -81h-188z" glyph-name="circumflex" horiz-adv-x="522" unicode="ˆ"/><glyph d="M654 825l-177 -164h-261l-84 164h171l40 -81h39l84 81h188z" glyph-name="caron" horiz-adv-x="522" unicode="ˇ"/><glyph d="M302 680q-99 0 -144 39.5t-21 124.5h120q-14 -69 60 -69q38 0 66.5 17.5t38.5 51.5h120q-41 -164 -240 -164z" glyph-name="breve" horiz-adv-x="405" unicode="˘"/><glyph d="M183 690q-30 0 -49.5 20t-19.5 48q0 37 29.5 64t64.5 27q30 0 49.5 -20t19.5 -49q0 -36 -29.5 -63t-64.5 -27z" glyph-name="dotaccent" horiz-adv-x="163" unicode="˙"/><glyph d="M210 617q-48 0 -76.5 29t-28.5 74q0 62 45 105t105 43q47 0 75.5 -28t28.5 -73q0 -60 -44 -105t-105 -45zM226 709q18 0 30 13t12 31q0 10 -7.5 17t-19.5 7q-18 0 -30.5 -13t-12.5 -30q0 -11 7.5 -18t20.5 -7z" glyph-name="ring" horiz-adv-x="253" unicode="˚"/><glyph d="M50 -241q-27 0 -53 3.5t-55 14t-51 26t-36 42t-14 60.5q0 47 24.5 79.5t64.5 47t73 20.5t69 7v-59q-49 0 -71.5 -20.5t-22.5 -48.5q0 -24 17 -40.5t55 -16.5v-115z" glyph-name="ogonek" horiz-adv-x="265" unicode="˛"/><glyph d="M425 677q-48 0 -106.5 33.5t-86.5 33.5q-53 0 -59 -43h-67q-7 71 32.5 107.5t98.5 36.5q48 0 106.5 -33.5t86.5 -33.5q24 0 40 11.5t19 32.5h66q7 -72 -31.5 -108.5t-98.5 -36.5z" glyph-name="tilde" horiz-adv-x="441" unicode="˜"/><glyph d="M84 680l104 164h184l-103 -164h-185zM336 680l104 164h184l-103 -164h-185z" glyph-name="hungarumlaut" horiz-adv-x="487" unicode="˝"/><glyph d="M-429 -422q55 116 79 209h-86l48 150h229l-3 -8q-78 -237 -168 -351h-99z" glyph-name="uni0326" horiz-adv-x="0" unicode="̦"/><glyph d="M741 840l54 -840h-918l589 840h275zM205 162h387l-25 489h-26z" glyph-name="Delta" horiz-adv-x="929" unicode="Δ"/><glyph d="M-109 0l51 156h132l14 44q-50 72 -50 165q0 101 48 195t126 161t181.5 107t210.5 40q167 0 259.5 -79.5t92.5 -206.5q0 -108 -58.5 -205.5t-161.5 -174.5l-15 -46h126l-50 -156h-332l68 233q94 43 158.5 127t64.5 174q0 74 -48.5 117.5t-143.5 43.5q-135 0 -237 -98.5 t-102 -224.5q0 -88 67 -139l-68 -233h-333z" glyph-name="Omega" horiz-adv-x="960" unicode="Ω"/><glyph d="M608 680h199l-220 -680h-194l25 94h-18q-92 -108 -236 -108q-34 0 -61 6l-46 -142h-200l270 830h199l-134 -414q-22 -67 0.5 -98t74.5 -31q72 0 131 45t76 85z" glyph-name="mu" horiz-adv-x="766" unicode="μ"/><glyph d="M808 532l-109 -333q-6 -26 -1.5 -32.5t22.5 -6.5q19 0 43.5 5.5t26.5 5.5l-32 -149q-40 -30 -127 -30q-91 0 -129.5 47.5t-6.5 145.5l113 347h-239l-173 -532h-200l173 532h-89l47 148h818l-47 -148h-90z" glyph-name="pi" horiz-adv-x="929" unicode="π"/><glyph d="M851 890h-185l-103 164h184zM71 0l84 840h198l-69 -627h19l360 627h167l-40 -627h18l335 627h206l-458 -840h-270l39 530h-18l-301 -530h-270z" glyph-name="Wgrave" horiz-adv-x="1236" unicode="Ẁ"/><glyph d="M851 890h-185l-103 164h184zM71 0l84 840h198l-69 -627h19l360 627h167l-40 -627h18l335 627h206l-458 -840h-270l39 530h-18l-301 -530h-270z" glyph-name="wgrave" horiz-adv-x="1236" unicode="ẁ"/><glyph d="M663 890l104 164h184l-103 -164h-185zM71 0l84 840h198l-69 -627h19l360 627h167l-40 -627h18l335 627h206l-458 -840h-270l39 530h-18l-301 -530h-270z" glyph-name="Wacute" horiz-adv-x="1236" unicode="Ẃ"/><glyph d="M663 890l104 164h184l-103 -164h-185zM71 0l84 840h198l-69 -627h19l360 627h167l-40 -627h18l335 627h206l-458 -840h-270l39 530h-18l-301 -530h-270z" glyph-name="wacute" horiz-adv-x="1236" unicode="ẃ"/><glyph d="M627 900q-30 0 -49.5 20t-19.5 48q0 37 29.5 64t64.5 27q30 0 49.5 -20t19.5 -49q0 -36 -29.5 -63t-64.5 -27zM903 900q-30 0 -49.5 20t-19.5 48q0 37 29.5 64t64.5 27q30 0 49.5 -20t19.5 -49q0 -36 -29.5 -63t-64.5 -27zM71 0l84 840h198l-69 -627h19l360 627h167 l-40 -627h18l335 627h206l-458 -840h-270l39 530h-18l-301 -530h-270z" glyph-name="Wdieresis" horiz-adv-x="1236" unicode="Ẅ"/><glyph d="M627 900q-30 0 -49.5 20t-19.5 48q0 37 29.5 64t64.5 27q30 0 49.5 -20t19.5 -49q0 -36 -29.5 -63t-64.5 -27zM903 900q-30 0 -49.5 20t-19.5 48q0 37 29.5 64t64.5 27q30 0 49.5 -20t19.5 -49q0 -36 -29.5 -63t-64.5 -27zM71 0l84 840h198l-69 -627h19l360 627h167 l-40 -627h18l335 627h206l-458 -840h-270l39 530h-18l-301 -530h-270z" glyph-name="wdieresis" horiz-adv-x="1236" unicode="ẅ"/><glyph d="M632 476q103 12 165 -37t62 -131q0 -146 -111 -238t-273 -92q-158 0 -214 70t-13 189h166q-12 -55 12 -88.5t75 -33.5q69 0 121 46t52 107q0 43 -27 66t-69 23q-52 0 -92 -30h-172l328 346h-193q-57 0 -101 -36.5t-63 -98.5l-174 -538h-203l191 594q45 138 126.5 192 t226.5 54h540z" glyph-name="uni1E9E" horiz-adv-x="939" unicode="ẞ"/><glyph d="M683 890h-185l-103 164h184zM1025 840l-528 -573l-86 -267h-199l89 279l-157 561h201l100 -372h20l337 372h223z" glyph-name="Ygrave" horiz-adv-x="907" unicode="Ỳ"/><glyph d="M683 890h-185l-103 164h184zM1025 840l-528 -573l-86 -267h-199l89 279l-157 561h201l100 -372h20l337 372h223z" glyph-name="ygrave" horiz-adv-x="907" unicode="ỳ"/><glyph d="M10 327l54 167h820l-54 -167h-820z" glyph-name="endash" unicode="–"/><glyph d="M10 327l54 167h900l-54 -167h-900z" glyph-name="emdash" horiz-adv-x="980" unicode="—"/><glyph d="M358 843q-61 -128 -88 -233h96l-54 -167h-255l3 8q88 267 188 392h110z" glyph-name="quoteleft" horiz-adv-x="355" unicode="‘"/><glyph d="M140 440q61 128 88 233h-96l54 167h255l-3 -8q-88 -267 -188 -392h-110z" glyph-name="quoteright" horiz-adv-x="355" unicode="’"/><glyph d="M-78 -233q61 128 88 233h-96l54 167h255l-3 -8q-88 -267 -188 -392h-110z" glyph-name="quotesinglbase" horiz-adv-x="355" unicode="‚"/><glyph d="M331 842q-55 -131 -79 -233h87l-49 -167h-230l2 8q79 264 170 392h99zM615 842q-55 -131 -79 -233h87l-49 -167h-230l2 8q79 264 170 392h99z" glyph-name="quotedblleft" horiz-adv-x="616" unicode="“"/><glyph d="M146 440q55 131 79 233h-87l49 167h230l-2 -8q-79 -264 -170 -392h-99zM430 440q55 131 79 233h-87l49 167h230l-2 -8q-79 -264 -170 -392h-99z" glyph-name="quotedblright" horiz-adv-x="616" unicode="”"/><glyph d="M-77 -248q55 131 79 233h-87l49 167h230l-2 -8q-79 -264 -170 -392h-99zM207 -248q55 131 79 233h-87l49 167h230l-2 -8q-79 -264 -170 -392h-99z" glyph-name="quotedblbase" horiz-adv-x="618" unicode="„"/><glyph d="M729 701l-52 -162h-207l-67 -206h-175l67 206h-205l52 162h206l67 207h175l-67 -207h206z" glyph-name="dagger" horiz-adv-x="688" unicode="†"/><glyph d="M677 539h-207l-40 -122h1l-67 -207h206l-52 -162h-207l-67 -206h-175l67 206h-205l52 162h206l40 123h-1l67 206h-205l52 162h206l67 207h175l-67 -207h206z" glyph-name="daggerdbl" horiz-adv-x="688" unicode="‡"/><glyph d="M235 247q-62 0 -99.5 38t-37.5 97q0 84 65.5 147.5t146.5 63.5q62 0 99 -38t37 -96q0 -84 -65.5 -148t-145.5 -64z" glyph-name="bullet" horiz-adv-x="544" unicode="•"/><glyph d="M24 -16q-40 0 -65.5 25.5t-25.5 65.5q0 50 36 85t86 35q40 0 65 -25.5t25 -65.5q0 -50 -36 -85t-85 -35zM319 -16q-40 0 -65.5 25.5t-25.5 65.5q0 50 36 85t86 35q40 0 65 -25.5t25 -65.5q0 -50 -36 -85t-85 -35zM613 -16q-40 0 -65.5 25.5t-25.5 65.5q0 50 36 85t86 35 q40 0 65 -25.5t25 -65.5q0 -50 -36 -85t-85 -35z" glyph-name="ellipsis" horiz-adv-x="877" unicode="…"/><glyph d="M181 -31l-79 64l816 840l78 -63zM289 433q-78 0 -124 43t-46 117q0 101 80 180t189 79q77 0 123.5 -43.5t46.5 -117.5q0 -105 -78.5 -181.5t-190.5 -76.5zM313 554q46 0 81 34.5t35 78.5q0 30 -16.5 47t-48.5 17q-47 0 -81.5 -34t-34.5 -79q0 -30 16.5 -47t48.5 -17z M711 -12q-79 0 -125 43t-46 117q0 102 80 180.5t189 78.5q78 0 124.5 -43t46.5 -118q0 -105 -78.5 -181.5t-190.5 -76.5zM1187 -12q-79 0 -125 43t-46 117q0 102 79.5 180.5t189.5 78.5q78 0 124.5 -43t46.5 -118q0 -105 -79 -181.5t-190 -76.5zM735 109q46 0 81 34.5 t35 78.5q0 65 -66 65q-46 0 -81 -34.5t-35 -78.5q0 -65 66 -65zM1210 109q47 0 82 34t35 79q0 65 -66 65q-46 0 -81 -34.5t-35 -78.5q0 -31 16.5 -48t48.5 -17z" glyph-name="perthousand" horiz-adv-x="1575" unicode="‰"/><glyph d="M559 705l-285 -286l108 -284h-216l-107 284l284 286h216z" glyph-name="guilsinglleft" horiz-adv-x="534" unicode="‹"/><glyph d="M-25 135l285 286l-108 284h216l107 -284l-284 -286h-216z" glyph-name="guilsinglright" horiz-adv-x="534" unicode="›"/><glyph d="M612 695q-95 0 -173 -50t-124 -131h200l-26 -79h-207q-7 -20 -10 -47h201l-26 -80h-177q9 -78 61.5 -120.5t133.5 -42.5q163 0 262 152h186q-39 -92 -97 -158.5t-125 -101.5t-131 -50t-131 -15q-162 0 -255 90t-95 246h-87l26 80h66l9 47h-60l27 79h59q63 156 205 255 t324 99q160 0 255 -91.5t77 -236.5h-182q-8 77 -58.5 116t-127.5 39z" glyph-name="Euro" horiz-adv-x="981" unicode="€"/><glyph d="M863 457q-70 0 -111.5 39.5t-41.5 105.5q0 98 74.5 171t176.5 73q70 0 111.5 -40t41.5 -106q0 -97 -74.5 -170t-176.5 -73zM-94 0l273 840h190l-4 -499h18l162 499h182l-272 -840h-190l4 501h-19l-161 -501h-183zM887 571q45 0 77 33.5t32 71.5q0 27 -16.5 41t-42.5 14 q-45 0 -77.5 -33.5t-32.5 -72.5q0 -27 16.5 -40.5t43.5 -13.5zM593 198l51 160h343l-51 -160h-343z" glyph-name="afii61352" horiz-adv-x="1062" unicode="№"/><glyph d="M788 840h144l-120 -371h-98l74 230h-8l-118 -230h-106l32 230h-12l-74 -230h-99l91 281h-112l-91 -281h-105l92 281h-133l29 90h491l-32 -267h14z" glyph-name="trademark" horiz-adv-x="834" unicode="™"/><glyph d="M546 862q131 0 198.5 -55.5t70 -153.5t-41.5 -233q-152 -442 -527 -442q-136 0 -207 52.5t-71 150.5q0 154 133.5 253.5t324.5 99.5q138 0 182 -57q88 232 -114 232q-69 0 -126.5 -27.5t-86.5 -81.5h-167q48 125 163.5 193.5t268.5 68.5zM297 130q95 0 167 54.5t72 128.5 q0 50 -36 75.5t-101 25.5q-97 0 -168 -52t-71 -126q0 -52 36.5 -79t100.5 -27z" glyph-name="partialdiff" horiz-adv-x="804" unicode="∂"/><glyph d="M822 900l-54 -167l-287 -883h-200l287 883h-224l-287 -883h-200l307 943l35 107h623z" glyph-name="product" horiz-adv-x="708" unicode="∏"/><glyph d="M-139 -150l50 167l443 349l-203 367l51 167h623l-54 -167h-410l200 -354l-3 -26l-423 -336h403l-54 -167h-623z" glyph-name="summation" horiz-adv-x="712" unicode="∑"/><glyph d="M23 337l55 167h562l-55 -167h-562z" glyph-name="minus" horiz-adv-x="662" unicode="−"/><glyph d="M123 -150l17 441h-132l54 167h245l-19 -413h14l450 855h169l-563 -1050h-235z" glyph-name="radical" horiz-adv-x="815" unicode="√"/><glyph d="M679 628q123 0 123 -116q0 -113 -79.5 -206.5t-186.5 -93.5q-62 0 -93.5 31.5t-53.5 93.5q-66 -62 -119 -93.5t-114 -31.5q-125 0 -125 116q0 112 80.5 206t187.5 94q62 0 93 -31.5t53 -93.5q67 62 119.5 93.5t114.5 31.5zM214 334q27 0 59.5 20.5t85.5 66.5 q-22 48 -39.5 67.5t-44.5 19.5q-42 0 -74 -41t-32 -84q0 -49 45 -49zM560 334q42 0 73.5 40.5t31.5 83.5q0 50 -45 50q-26 0 -59 -20.5t-86 -66.5q23 -48 40.5 -67.5t44.5 -19.5z" glyph-name="infinity" horiz-adv-x="834" unicode="∞"/><glyph d="M34 -150q-107 0 -159 39l48 148q74 -32 117 -32q115 0 154 121l167 515q42 131 132.5 189.5t203.5 58.5q108 0 158 -39l-47 -148q-76 33 -117 33q-115 0 -154 -121l-167 -516q-41 -129 -132 -188.5t-204 -59.5z" glyph-name="integral" horiz-adv-x="763" unicode="∫"/><glyph d="M444 432q-35 0 -64.5 13.5t-47 29t-42.5 28.5t-50 13q-67 0 -93 -59h-84q23 91 89.5 138t146.5 47q34 0 63.5 -13t47.5 -28.5t42.5 -29t49.5 -13.5q66 2 94 59h84q-22 -91 -89.5 -137.5t-146.5 -47.5zM369 197q-35 0 -64.5 13.5t-47 29t-42.5 28.5t-50 13q-67 0 -93 -59 h-84q23 91 89.5 138t146.5 47q34 0 63.5 -13t47.5 -28.5t42.5 -29t49.5 -13.5q66 2 94 59h84q-22 -91 -89.5 -137.5t-146.5 -47.5z" glyph-name="approxequal" horiz-adv-x="667" unicode="≈"/><glyph d="M733 808l-155 -194h97l-55 -168h-176l-42 -52h202l-55 -167h-280l-138 -172h-202l138 172h-80l55 167h158l42 52h-184l55 168h263l155 194h202z" glyph-name="notequal" horiz-adv-x="662" unicode="≠"/><glyph d="M550 247l-486 207l66 208l621 209l-54 -173l-426 -129l-7 -22l339 -129zM-83 0l55 167h562l-55 -167h-562z" glyph-name="lessequal" horiz-adv-x="665" unicode="≤"/><glyph d="M196 870l482 -207l-65 -208l-617 -209l54 173l423 129l7 22l-337 129zM-85 0l55 167h562l-55 -167h-562z" glyph-name="greaterequal" horiz-adv-x="664" unicode="≥"/><glyph d="M125 0q-7 0 -13 8.5t-4 15.5l-58 396l315 417q3 4 4 4.5t4 -0.5t7 -1h200q7 0 13 -8.5t4 -15.5l58 -396l-314 -417q-3 -4 -4.5 -4.5t-4 0.5t-6.5 1h-201zM260 147l222 275l-36 271l-222 -275z" glyph-name="lozenge" horiz-adv-x="705" unicode="◊"/><glyph d="M577 695q-102 0 -186 -52.5t-129.5 -133.5t-45.5 -170q0 -92 56.5 -143t152.5 -51q51 0 103 14t108 56.5t85 108.5h-267l39 121h455q-44 -235 -194 -354t-373 -119q-168 0 -265.5 91.5t-97.5 248.5q0 108 45.5 209.5t123.5 178t190.5 122.5t237.5 46q159 0 258 -83.5 t93 -215.5h-198q-16 62 -67.5 94t-123.5 32z" glyph-name="G.aalt" horiz-adv-x="984"/><glyph d="M309 900q-30 0 -49.5 20t-19.5 48q0 37 29.5 64t64.5 27q30 0 49.5 -20t19.5 -49q0 -36 -29.5 -63t-64.5 -27zM-94 0l272 840h200l-272 -840h-200z" glyph-name="i.aalt" horiz-adv-x="285"/><glyph d="M577 695q-102 0 -186 -52.5t-129.5 -133.5t-45.5 -170q0 -92 56.5 -143t152.5 -51q51 0 103 14t108 56.5t85 108.5h-267l39 121h455q-44 -235 -194 -354t-373 -119q-168 0 -265.5 91.5t-97.5 248.5q0 108 45.5 209.5t123.5 178t190.5 122.5t237.5 46q159 0 258 -83.5 t93 -215.5h-198q-16 62 -67.5 94t-123.5 32z" glyph-name="g.aalt" horiz-adv-x="984"/></font>
</defs>
</svg>
