<?xml version="1.0" standalone="no"?>
<!DOCTYPE svg PUBLIC "-//W3C//DTD SVG 1.1//EN" "http://www.w3.org/Graphics/SVG/1.1/DTD/svg11.dtd">
<svg xmlns="http://www.w3.org/2000/svg"><metadata>This SVG WebFont was generated by YouWorkForThem.
Â© 2017 Connary Fagen</metadata><defs><font horiz-adv-x="956" id="ywftsvg"><font-face ascent="960" bbox="-229 -420 1509 1078" cap-height="840" descent="-240" font-family="" font-stretch="normal" font-weight="400" panose-1="0 0 5 0 0 0 0 0 0 0" underline-position="0" underline-thickness="0" unicode-range="U+0020-25CA" units-per-em="1200" x-height="840"/><missing-glyph d="M431 900v-1050h-333v1050h333zM350 830h-174v-35h69v-39h-70v-34h175v34h-70v39h70v35zM280 694h-105v-109h175v36h-70v73zM245 659v-38h-35v38h35zM350 557h-175v-35h70v-39h-70v-34h105v73h70v35zM350 494h-35v-70h-140v-35h175v105zM350 366h-105v-59h35v24h35v-49 h-105v84h-35v-119h175v119zM350 184h-175v-119h175v119zM315 149v-49h-105v49h105zM350 41h-175v-35h74l-74 -49v-35h175v35h-107l73 49h34v35z" horiz-adv-x="525"/><glyph d="M431 900v-1050h-333v1050h333zM350 830h-174v-35h69v-39h-70v-34h175v34h-70v39h70v35zM280 694h-105v-109h175v36h-70v73zM245 659v-38h-35v38h35zM350 557h-175v-35h70v-39h-70v-34h105v73h70v35zM350 494h-35v-70h-140v-35h175v105zM350 366h-105v-59h35v24h35v-49 h-105v84h-35v-119h175v119zM350 184h-175v-119h175v119zM315 149v-49h-105v49h105zM350 41h-175v-35h74l-74 -49v-35h175v35h-107l73 49h34v35z" glyph-name=".notdef" horiz-adv-x="525"/><glyph glyph-name="glyph1" horiz-adv-x="0"/><glyph glyph-name="glyph2" horiz-adv-x="400"/><glyph glyph-name="space" horiz-adv-x="253" unicode=" "/><glyph d="M80 291l-38 549h207l-39 -549h-130zM145 -16q-43 0 -74.5 31t-31.5 74t31.5 74.5t74.5 31.5q44 0 75.5 -31t31.5 -75q0 -43 -31.5 -74t-75.5 -31z" glyph-name="exclam" horiz-adv-x="291" unicode="!"/><glyph d="M65 492l-15 348h178l-15 -348h-148zM304 492l-15 348h178l-15 -348h-148z" glyph-name="quotedbl" horiz-adv-x="516" unicode="&quot;"/><glyph d="M770 514h-106v-179h106v-148h-106v-187h-170v187h-180v-187h-170v187h-106v148h106v179h-106v140h106v186h170v-186h180v186h170v-186h106v-140zM494 335v179h-180v-179h180z" glyph-name="numbersign" horiz-adv-x="808" unicode="#"/><glyph d="M725 262q0 -98 -83.5 -155t-229.5 -65v-62h-78v62q-142 6 -225 66.5t-86 174.5h176q7 -91 135 -103v189q-50 10 -83.5 18t-77 25.5t-69.5 38.5t-45 55.5t-19 77.5q0 95 80.5 150.5t213.5 62.5v65h78v-65q81 -5 142 -29t102 -78t42 -133h-172q-10 91 -114 103v-182 q37 -6 60.5 -10t60 -13t60 -19t51 -26.5t43.5 -36.5t27 -48.5t11 -62.5zM221 581q0 -59 113 -88v169q-50 -5 -81.5 -25.5t-31.5 -55.5zM412 180q128 12 128 84q0 33 -31 53t-97 36v-173z" glyph-name="dollar" horiz-adv-x="750" unicode="$"/><glyph d="M314 -31l-92 64l547 840l92 -63zM257 433q-102 0 -157 59t-55 151q0 91 55 150t157 59q103 0 158 -59t55 -150q0 -92 -55 -151t-158 -59zM257 562q39 0 59.5 23t20.5 58t-20.5 57.5t-59.5 22.5t-59 -22t-20 -58q0 -35 20 -58t59 -23zM825 -12q-103 0 -158 59t-55 151 q0 91 55 150t158 59q102 0 157 -59t55 -150q0 -92 -55 -151t-157 -59zM825 117q39 0 59 23t20 58q0 36 -20 58.5t-59 22.5t-59.5 -22.5t-20.5 -58.5q0 -35 20.5 -58t59.5 -23z" glyph-name="percent" horiz-adv-x="1083" unicode="%"/><glyph d="M955 98l-86 -117l-105 80q-125 -89 -323 -89q-183 0 -295.5 73.5t-112.5 198.5q0 78 48 141.5t142 95.5q-74 76 -74 157q0 95 87 159.5t238 64.5q158 0 251 -74.5t92 -223.5h-176q1 78 -44 112.5t-123 34.5q-67 0 -104 -23.5t-37 -66.5q0 -36 29 -66t116 -96l248 -188 q38 72 38 166h177q-3 -159 -76 -271zM460 129q97 0 165 38l-299 228q-94 -38 -94 -122q0 -71 65.5 -107.5t162.5 -36.5z" glyph-name="ampersand" horiz-adv-x="987" unicode="&amp;"/><glyph d="M65 492l-15 348h178l-15 -348h-148z" glyph-name="quotesingle" horiz-adv-x="278" unicode="'"/><glyph d="M488 -145q-87 0 -157.5 20t-118 52t-82.5 79.5t-54 95t-30.5 107.5t-14.5 107.5t-3 103.5t3 103t14.5 107t30.5 107.5t54 95t82.5 79.5t118 52t157.5 20v-165q-68 0 -117.5 -20.5t-79 -54.5t-47.5 -87t-24 -108.5t-6 -128.5q0 -74 6 -129.5t24 -108.5t47.5 -87t79 -54.5 t117.5 -20.5v-165z" glyph-name="parenleft" horiz-adv-x="530" unicode="("/><glyph d="M42 -145v165q68 0 117.5 20.5t79 54.5t47.5 87t24 108.5t6 129.5q0 73 -6 128.5t-24 108.5t-47.5 87t-79 54.5t-117.5 20.5v165q87 0 157.5 -20t118 -52t82.5 -79.5t54 -95t30.5 -107.5t14.5 -107t3 -103t-3 -103.5t-14.5 -107.5t-30.5 -107.5t-54 -95t-82.5 -79.5 t-118 -52t-157.5 -20z" glyph-name="parenright" horiz-adv-x="530" unicode=")"/><glyph d="M578 652l-162 -81l162 -81l-62 -108l-151 100l11 -181h-124l11 181l-151 -100l-62 108l162 81l-162 81l62 107l151 -100l-11 181h124l-11 -181l151 100z" glyph-name="asterisk" horiz-adv-x="628" unicode="*"/><glyph d="M662 500v-160h-222v-222h-168v222h-222v160h222v223h168v-223h222z" glyph-name="plus" horiz-adv-x="712" unicode="+"/><glyph d="M116 -231q18 104 16 231h-94v167h254v-39q0 -125 -15 -219t-36 -140h-125z" glyph-name="comma" horiz-adv-x="329" unicode=","/><glyph d="M40 335v168h580v-168h-580z" glyph-name="hyphen" horiz-adv-x="660" unicode="-"/><glyph d="M145 -16q-43 0 -74.5 31t-31.5 74t31.5 74.5t74.5 31.5q44 0 75.5 -31t31.5 -75q0 -43 -31.5 -74t-75.5 -31z" glyph-name="period" horiz-adv-x="291" unicode="."/><glyph d="M10 0l388 840h225l-388 -840h-225z" glyph-name="slash" horiz-adv-x="633" unicode="/"/><glyph d="M427 -22q-189 0 -294 111.5t-105 330.5t105 330.5t294 111.5t294 -112t105 -330t-105 -330t-294 -112zM427 147q95 0 149 66.5t54 206.5t-54 206.5t-149 66.5q-96 0 -149.5 -66.5t-53.5 -206.5t53.5 -206.5t149.5 -66.5z" glyph-name="zero" horiz-adv-x="854" unicode="0"/><glyph d="M466 155h173v-155h-591v155h218v488q-70 -61 -202 -61v168q107 0 202 90h200v-685z" glyph-name="one" horiz-adv-x="686" unicode="1"/><glyph d="M732 606q0 -62 -24 -108.5t-63.5 -75t-87.5 -50.5t-97.5 -41.5t-92 -41t-73.5 -55.5t-39 -79h471v-155h-693v101q0 76 28 135t72.5 95.5t98.5 65t107.5 49.5t98 41t72.5 47.5t28 62.5q0 46 -34 75t-107 29q-74 0 -118 -29.5t-43 -91.5h-195q0 136 88.5 209t257.5 73 q167 0 256 -67.5t89 -188.5z" glyph-name="two" horiz-adv-x="764" unicode="2"/><glyph d="M385 -22q-179 0 -266.5 69t-85.5 209h180q4 -118 169 -118q83 0 133 29t50 83q0 51 -50 86t-156 35h-32v122h32q102 0 145.5 33.5t43.5 78.5q0 46 -42.5 72t-114.5 26q-77 0 -119 -30.5t-43 -90.5h-179q-1 138 87.5 209t254.5 71q160 0 248.5 -62.5t88.5 -164.5 q0 -129 -135 -186v-13q75 -20 121 -73.5t46 -133.5q0 -116 -102 -183.5t-274 -67.5z" glyph-name="three" horiz-adv-x="794" unicode="3"/><glyph d="M686 325h117v-154h-117v-171h-200v171h-443v154l409 515h234v-515zM230 325h256v325z" glyph-name="four" horiz-adv-x="840" unicode="4"/><glyph d="M382 -22q-170 0 -258 70.5t-86 203.5h179q5 -58 50.5 -86.5t113.5 -28.5q83 0 132 41.5t49 108.5q0 68 -45.5 106.5t-124.5 38.5q-107 0 -162 -68h-182l81 476h549v-154h-401l-30 -188q26 23 77.5 40t122.5 17q131 0 217 -73t86 -204q0 -140 -97 -220t-271 -80z" glyph-name="five" horiz-adv-x="782" unicode="5"/><glyph d="M429 543q148 0 239 -70t91 -204t-95 -212.5t-264 -78.5q-376 0 -376 441q0 121 30 209.5t84 138t120.5 72.5t147.5 23q154 0 244.5 -68t93.5 -194h-163q-12 55 -58 82t-117 27q-198 0 -196 -231q70 65 219 65zM398 130q80 0 130 38.5t50 104.5q0 67 -48.5 104t-131.5 37 q-82 0 -130 -37.5t-48 -103.5t49 -104.5t129 -38.5z" glyph-name="six" horiz-adv-x="783" unicode="6"/><glyph d="M33 840h689v-163l-421 -677h-210l423 677h-481v163z" glyph-name="seven" horiz-adv-x="750" unicode="7"/><glyph d="M409 -22q-192 0 -284 72.5t-92 190.5q0 148 147 220v13q-90 56 -90 166q0 99 81 160.5t238 61.5t238.5 -61.5t81.5 -160.5q0 -109 -91 -166v-13q147 -72 147 -220q0 -118 -92 -190.5t-284 -72.5zM409 515q70 0 106 27t36 76t-36.5 76t-105.5 27t-105.5 -27t-36.5 -76 t36 -76t106 -27zM409 131q87 0 134.5 36t47.5 97q0 60 -47 95t-135 35t-135 -35t-47 -95q0 -61 47.5 -97t134.5 -36z" glyph-name="eight" horiz-adv-x="818" unicode="8"/><glyph d="M383 862q376 0 376 -441q0 -121 -30 -209.5t-84 -138t-120.5 -72.5t-147.5 -23q-154 0 -244.5 68t-93.5 194h163q12 -55 58 -82t117 -27q198 0 196 231q-70 -65 -219 -65q-148 0 -239 70t-91 204t95 212.5t264 78.5zM385 426q82 0 130 37.5t48 103.5t-49 104.5t-129 38.5 t-130 -38.5t-50 -104.5q0 -67 48.5 -104t131.5 -37z" glyph-name="nine" horiz-adv-x="783" unicode="9"/><glyph d="M145 531q-43 0 -74.5 31t-31.5 74q0 44 31.5 75t74.5 31q44 0 75.5 -31t31.5 -75q0 -43 -31.5 -74t-75.5 -31zM145 89q-43 0 -74.5 31t-31.5 74q0 44 31.5 75t74.5 31q44 0 75.5 -31t31.5 -75q0 -43 -31.5 -74t-75.5 -31z" glyph-name="colon" horiz-adv-x="291" unicode=":"/><glyph d="M169 531q-43 0 -74.5 31t-31.5 74q0 44 31.5 75t74.5 31q44 0 75.5 -31t31.5 -75q0 -43 -31.5 -74t-75.5 -31zM117 -120q18 104 16 231h-94v167h254v-39q0 -125 -15 -219t-36 -140h-125z" glyph-name="semicolon" horiz-adv-x="332" unicode=";"/><glyph d="M600 108l-550 200v222l550 202v-173l-391 -129v-22l391 -129v-171z" glyph-name="less" horiz-adv-x="650" unicode="&lt;"/><glyph d="M50 446v168h562v-168h-562zM50 227v167h562v-167h-562z" glyph-name="equal" horiz-adv-x="662" unicode="="/><glyph d="M62 108v171l391 129v22l-391 129v173l550 -202v-222z" glyph-name="greater" horiz-adv-x="662" unicode=">"/><glyph d="M273 286q-7 68 16.5 113t62.5 66.5t78.5 38t68.5 40t29 59.5q0 45 -42 71.5t-112 26.5q-75 0 -122.5 -33.5t-47.5 -107.5h-181q-5 152 87.5 227t263.5 75q163 0 257 -59.5t94 -179.5q0 -63 -27 -104t-65.5 -61.5t-77 -39t-66 -50.5t-27.5 -82h-189zM367 -16 q-43 0 -74.5 31t-31.5 74t31.5 74.5t74.5 31.5q44 0 75.5 -31t31.5 -75q0 -43 -31.5 -74t-75.5 -31z" glyph-name="question" horiz-adv-x="748" unicode="?"/><glyph d="M901 214q-45 -108 -156 -175t-258 -67q-203 0 -331 125.5t-128 322.5t128 322.5t331 125.5q202 0 331 -125t129 -311q0 -74 -41.5 -114t-113.5 -40q-61 0 -89 29.5t-23 79.5l25 251h-80l-18 -45h-13q-51 59 -143 59q-91 0 -153 -63t-62 -172q0 -110 62 -173.5t157 -63.5 q107 0 152 80h12q40 -80 150 -80q80 0 129 37zM461 555q51 0 81.5 -37.5t30.5 -102.5q0 -63 -30.5 -100.5t-81.5 -37.5t-83.5 37.5t-32.5 100.5q0 64 32.5 102t83.5 38z" glyph-name="at" horiz-adv-x="974" unicode="@"/><glyph d="M737 0l-52 141h-414l-52 -141h-206l325 840h280l326 -840h-207zM327 292h302l-132 359h-38z" glyph-name="A" unicode="A"/><glyph d="M694 441q143 -58 143 -204q0 -110 -83.5 -173.5t-261.5 -63.5h-449v840h451q168 0 242 -59t74 -156q0 -119 -116 -171v-13zM479 684h-237v-186h237q140 0 140 92q0 94 -140 94zM489 156q69 0 107.5 30t38.5 81t-38 78t-108 27h-247v-216h247z" glyph-name="B" horiz-adv-x="869" unicode="B"/><glyph d="M488 -28q-204 0 -332 125t-128 323t128 323t332 125q73 0 137.5 -17.5t122.5 -54t98.5 -102.5t55.5 -155h-191q-52 156 -223 156q-113 0 -188 -77.5t-75 -197.5t75 -197.5t188 -77.5q171 0 223 157h191q-12 -72 -41 -129t-68.5 -94.5t-90.5 -61.5t-103.5 -34.5 t-110.5 -10.5z" glyph-name="C" horiz-adv-x="930" unicode="C"/><glyph d="M429 840q119 0 207.5 -31.5t140.5 -89.5t77 -132.5t25 -166.5t-25 -166.5t-77 -132.5t-140.5 -89.5t-207.5 -31.5h-386v840h386zM428 168q122 0 186.5 65t64.5 187t-64.5 187t-186.5 65h-184l-2 -504h186z" glyph-name="D" horiz-adv-x="911" unicode="D"/><glyph d="M43 0v840h707v-163h-508v-184h490v-144h-490v-185h508v-164h-707z" glyph-name="E" horiz-adv-x="793" unicode="E"/><glyph d="M43 0v840h706v-167h-507v-198h479v-151h-479v-324h-199z" glyph-name="F" horiz-adv-x="791" unicode="F"/><glyph d="M916 444v-444h-125l-2 122q-46 -69 -125.5 -109.5t-187.5 -40.5q-192 0 -320 126t-128 322q0 198 128.5 323t335.5 125q96 0 178 -29t146.5 -97.5t86.5 -169.5h-199q-24 58 -79 90.5t-130 32.5q-118 0 -194 -77t-76 -198q0 -120 76 -197.5t190 -77.5q76 0 143 39t87 125 h-244v135h439z" glyph-name="G" horiz-adv-x="963" unicode="G"/><glyph d="M659 840h200v-840h-200v337h-417v-337h-199v840h199v-337h417v337z" glyph-name="H" horiz-adv-x="901" unicode="H"/><glyph d="M43 0v840h199v-840h-199z" glyph-name="I" horiz-adv-x="285" unicode="I"/><glyph d="M380 -28q-351 0 -347 334h198q1 -85 43 -124t110 -39q154 0 154 189v508h200v-499q0 -196 -91.5 -282.5t-266.5 -86.5z" glyph-name="J" horiz-adv-x="781" unicode="J"/><glyph d="M883 0h-208l-275 346h-14l-145 -150v-196h-198v840h198v-403h15l382 403h226l-350 -373z" glyph-name="K" horiz-adv-x="882" unicode="K"/><glyph d="M43 0v840h199v-673h484v-167h-683z" glyph-name="L" horiz-adv-x="761" unicode="L"/><glyph d="M43 0v840h255l208 -589h15l208 589h255v-840h-191v506h-17l-185 -506h-155l-185 506h-17v-506h-191z" glyph-name="M" horiz-adv-x="1027" unicode="M"/><glyph d="M43 0v840h231l390 -565h19v565h195v-840h-227l-395 565h-18v-565h-195z" glyph-name="N" horiz-adv-x="920" unicode="N"/><glyph d="M489 -28q-205 0 -333 125t-128 323t128 323t333 125q206 0 334 -125t128 -323t-128 -323t-334 -125zM489 145q114 0 189 76.5t75 198.5t-75 198.5t-189 76.5q-113 0 -188.5 -76.5t-75.5 -198.5t75.5 -198.5t188.5 -76.5z" glyph-name="O" horiz-adv-x="979" unicode="O"/><glyph d="M43 0v840h439q168 0 257 -79t89 -229t-89 -228.5t-257 -78.5h-240v-225h-199zM242 392h227q75 0 117 35.5t42 104.5t-42 105t-117 36h-227v-281z" glyph-name="P" horiz-adv-x="860" unicode="P"/><glyph d="M951 426q0 -166 -116 -287l112 -114q-47 -63 -112 -114l-124 116q-108 -55 -222 -55q-205 0 -333 125t-128 323t128 323t333 125t333.5 -124t128.5 -318zM225 420q0 -122 75.5 -198.5t188.5 -76.5q114 0 189 76.5t75 198.5t-75 198.5t-189 76.5q-113 0 -188.5 -76.5 t-75.5 -198.5z" glyph-name="Q" horiz-adv-x="979" unicode="Q"/><glyph d="M849 0h-198l-138 250h-271v-250h-199v840h441q169 0 256.5 -77t87.5 -224q0 -85 -38 -149t-105 -100zM242 673v-270h231q76 0 116.5 34.5t40.5 100.5t-40.5 100.5t-116.5 34.5h-231z" glyph-name="R" horiz-adv-x="873" unicode="R"/><glyph d="M413 -28q-194 0 -292.5 71t-97.5 217h180q5 -61 57 -95t153 -35q96 0 148.5 30t52.5 80q0 43 -35 67t-112 37l-104 18q-56 10 -95 19.5t-84.5 29t-73 44.5t-46 66t-18.5 94q0 120 96.5 186.5t272.5 66.5q370 0 373 -285h-179q-22 127 -198 127q-85 0 -129.5 -27.5 t-44.5 -76.5q0 -75 127 -99l91 -16q147 -27 203 -48q145 -56 153 -191q1 -9 1 -18q0 -126 -102 -194t-297 -68z" glyph-name="S" horiz-adv-x="837" unicode="S"/><glyph d="M867 840v-167h-315v-673h-200v673h-314v167h829z" glyph-name="T" horiz-adv-x="904" unicode="T"/><glyph d="M448 -28q-197 0 -301 94.5t-104 283.5v490h201v-485q0 -102 51.5 -158.5t152.5 -56.5t153 56.5t52 158.5v485h200v-490q0 -189 -104 -283.5t-301 -94.5z" glyph-name="U" horiz-adv-x="895" unicode="U"/><glyph d="M338 0l-325 840h206l246 -651h26l246 651h207l-326 -840h-280z" glyph-name="V" unicode="V"/><glyph d="M212 0l-188 840h201l134 -627h18l160 627h167l161 -627h18l133 627h202l-188 -840h-270l-130 530h-19l-130 -530h-269z" glyph-name="W" horiz-adv-x="1241" unicode="W"/><glyph d="M8 0l301 420v11l-294 409h217l193 -275h19l192 275h218l-293 -409v-11l300 -420h-220l-197 286h-19l-197 -286h-220z" glyph-name="X" horiz-adv-x="869" unicode="X"/><glyph d="M901 840l-347 -571v-269h-200v270l-346 570h212l224 -376h21l224 376h212z" glyph-name="Y" horiz-adv-x="909" unicode="Y"/><glyph d="M28 0v162l493 495v16h-480v167h735v-162l-497 -495v-16h491v-167h-742z" glyph-name="Z" horiz-adv-x="804" unicode="Z"/><glyph d="M43 -135v1110h429v-167h-230v-776h230v-167h-429z" glyph-name="bracketleft" horiz-adv-x="515" unicode="["/><glyph d="M623 0h-225l-388 840h225z" glyph-name="backslash" horiz-adv-x="633" unicode="\"/><glyph d="M472 -135h-429v167h230v776h-230v167h429v-1110z" glyph-name="bracketright" horiz-adv-x="515" unicode="]"/><glyph d="M48 324l200 550h222l202 -550h-173l-129 391h-22l-129 -391h-171z" glyph-name="asciicircum" horiz-adv-x="720" unicode="^"/><glyph d="M50 -167v167h613v-167h-613z" glyph-name="underscore" horiz-adv-x="713" unicode="_"/><glyph d="M250 680h-179l-71 164h179z" glyph-name="grave" horiz-adv-x="250" unicode="`"/><glyph d="M737 0l-52 141h-414l-52 -141h-206l325 840h280l326 -840h-207zM327 292h302l-132 359h-38z" glyph-name="a" unicode="a"/><glyph d="M694 441q143 -58 143 -204q0 -110 -83.5 -173.5t-261.5 -63.5h-449v840h451q168 0 242 -59t74 -156q0 -119 -116 -171v-13zM479 684h-237v-186h237q140 0 140 92q0 94 -140 94zM489 156q69 0 107.5 30t38.5 81t-38 78t-108 27h-247v-216h247z" glyph-name="b" horiz-adv-x="869" unicode="b"/><glyph d="M488 -28q-204 0 -332 125t-128 323t128 323t332 125q73 0 137.5 -17.5t122.5 -54t98.5 -102.5t55.5 -155h-191q-52 156 -223 156q-113 0 -188 -77.5t-75 -197.5t75 -197.5t188 -77.5q171 0 223 157h191q-12 -72 -41 -129t-68.5 -94.5t-90.5 -61.5t-103.5 -34.5 t-110.5 -10.5z" glyph-name="c" horiz-adv-x="930" unicode="c"/><glyph d="M429 840q119 0 207.5 -31.5t140.5 -89.5t77 -132.5t25 -166.5t-25 -166.5t-77 -132.5t-140.5 -89.5t-207.5 -31.5h-386v840h386zM428 168q122 0 186.5 65t64.5 187t-64.5 187t-186.5 65h-184l-2 -504h186z" glyph-name="d" horiz-adv-x="911" unicode="d"/><glyph d="M43 0v840h707v-163h-508v-184h490v-144h-490v-185h508v-164h-707z" glyph-name="e" horiz-adv-x="793" unicode="e"/><glyph d="M43 0v840h706v-167h-507v-198h479v-151h-479v-324h-199z" glyph-name="f" horiz-adv-x="791" unicode="f"/><glyph d="M916 444v-444h-125l-2 122q-46 -69 -125.5 -109.5t-187.5 -40.5q-192 0 -320 126t-128 322q0 198 128.5 323t335.5 125q96 0 178 -29t146.5 -97.5t86.5 -169.5h-199q-24 58 -79 90.5t-130 32.5q-118 0 -194 -77t-76 -198q0 -120 76 -197.5t190 -77.5q76 0 143 39t87 125 h-244v135h439z" glyph-name="g" horiz-adv-x="963" unicode="g"/><glyph d="M659 840h200v-840h-200v337h-417v-337h-199v840h199v-337h417v337z" glyph-name="h" horiz-adv-x="901" unicode="h"/><glyph d="M43 0v840h199v-840h-199z" glyph-name="i" horiz-adv-x="285" unicode="i"/><glyph d="M380 -28q-351 0 -347 334h198q1 -85 43 -124t110 -39q154 0 154 189v508h200v-499q0 -196 -91.5 -282.5t-266.5 -86.5z" glyph-name="j" horiz-adv-x="781" unicode="j"/><glyph d="M883 0h-208l-275 346h-14l-145 -150v-196h-198v840h198v-403h15l382 403h226l-350 -373z" glyph-name="k" horiz-adv-x="882" unicode="k"/><glyph d="M43 0v840h199v-673h484v-167h-683z" glyph-name="l" horiz-adv-x="761" unicode="l"/><glyph d="M43 0v840h255l208 -589h15l208 589h255v-840h-191v506h-17l-185 -506h-155l-185 506h-17v-506h-191z" glyph-name="m" horiz-adv-x="1027" unicode="m"/><glyph d="M43 0v840h231l390 -565h19v565h195v-840h-227l-395 565h-18v-565h-195z" glyph-name="n" horiz-adv-x="920" unicode="n"/><glyph d="M489 -28q-205 0 -333 125t-128 323t128 323t333 125q206 0 334 -125t128 -323t-128 -323t-334 -125zM489 145q114 0 189 76.5t75 198.5t-75 198.5t-189 76.5q-113 0 -188.5 -76.5t-75.5 -198.5t75.5 -198.5t188.5 -76.5z" glyph-name="o" horiz-adv-x="979" unicode="o"/><glyph d="M43 0v840h439q168 0 257 -79t89 -229t-89 -228.5t-257 -78.5h-240v-225h-199zM242 392h227q75 0 117 35.5t42 104.5t-42 105t-117 36h-227v-281z" glyph-name="p" horiz-adv-x="860" unicode="p"/><glyph d="M951 426q0 -166 -116 -287l112 -114q-47 -63 -112 -114l-124 116q-108 -55 -222 -55q-205 0 -333 125t-128 323t128 323t333 125t333.5 -124t128.5 -318zM225 420q0 -122 75.5 -198.5t188.5 -76.5q114 0 189 76.5t75 198.5t-75 198.5t-189 76.5q-113 0 -188.5 -76.5 t-75.5 -198.5z" glyph-name="q" horiz-adv-x="979" unicode="q"/><glyph d="M849 0h-198l-138 250h-271v-250h-199v840h441q169 0 256.5 -77t87.5 -224q0 -85 -38 -149t-105 -100zM242 673v-270h231q76 0 116.5 34.5t40.5 100.5t-40.5 100.5t-116.5 34.5h-231z" glyph-name="r" horiz-adv-x="873" unicode="r"/><glyph d="M413 -28q-194 0 -292.5 71t-97.5 217h180q5 -61 57 -95t153 -35q96 0 148.5 30t52.5 80q0 43 -35 67t-112 37l-104 18q-56 10 -95 19.5t-84.5 29t-73 44.5t-46 66t-18.5 94q0 120 96.5 186.5t272.5 66.5q370 0 373 -285h-179q-22 127 -198 127q-85 0 -129.5 -27.5 t-44.5 -76.5q0 -75 127 -99l91 -16q147 -27 203 -48q145 -56 153 -191q1 -9 1 -18q0 -126 -102 -194t-297 -68z" glyph-name="s" horiz-adv-x="837" unicode="s"/><glyph d="M867 840v-167h-315v-673h-200v673h-314v167h829z" glyph-name="t" horiz-adv-x="904" unicode="t"/><glyph d="M448 -28q-197 0 -301 94.5t-104 283.5v490h201v-485q0 -102 51.5 -158.5t152.5 -56.5t153 56.5t52 158.5v485h200v-490q0 -189 -104 -283.5t-301 -94.5z" glyph-name="u" horiz-adv-x="895" unicode="u"/><glyph d="M338 0l-325 840h206l246 -651h26l246 651h207l-326 -840h-280z" glyph-name="v" unicode="v"/><glyph d="M212 0l-188 840h201l134 -627h18l160 627h167l161 -627h18l133 627h202l-188 -840h-270l-130 530h-19l-130 -530h-269z" glyph-name="w" horiz-adv-x="1241" unicode="w"/><glyph d="M8 0l301 420v11l-294 409h217l193 -275h19l192 275h218l-293 -409v-11l300 -420h-220l-197 286h-19l-197 -286h-220z" glyph-name="x" horiz-adv-x="869" unicode="x"/><glyph d="M901 840l-347 -571v-269h-200v270l-346 570h212l224 -376h21l224 376h212z" glyph-name="y" horiz-adv-x="909" unicode="y"/><glyph d="M28 0v162l493 495v16h-480v167h735v-162l-497 -495v-16h491v-167h-742z" glyph-name="z" horiz-adv-x="804" unicode="z"/><glyph d="M293 -135q-50 0 -87.5 28.5t-37.5 97.5v275l-123 144v21l123 143v275q0 69 37.5 97.5t87.5 28.5h301v-167h-184q-42 0 -42 -37v-204l-113 -136v-21l113 -136v-205q0 -37 42 -37h184v-167h-301z" glyph-name="braceleft" horiz-adv-x="639" unicode="{"/><glyph d="M43 -100v1040h199v-1040h-199z" glyph-name="bar" horiz-adv-x="285" unicode="|"/><glyph d="M346 -135h-301v167h184q42 0 42 37v205l113 136v21l-113 136v204q0 37 -42 37h-184v167h301q50 0 87.5 -28.5t37.5 -97.5v-275l123 -143v-21l-123 -144v-275q0 -69 -37.5 -97.5t-87.5 -28.5z" glyph-name="braceright" horiz-adv-x="639" unicode="}"/><glyph d="M441 318q-35 0 -69 13.5t-57 29t-52.5 28.5t-54.5 13q-66 0 -73 -59h-84q-8 91 42.5 138t129.5 47q54 0 125.5 -42t106.5 -42q32 1 51 16.5t23 42.5h84q8 -91 -42.5 -137.5t-129.5 -47.5z" glyph-name="asciitilde" horiz-adv-x="664" unicode="~"/><glyph d="M146 640q44 0 75.5 -31t31.5 -74q0 -44 -31.5 -75t-75.5 -31t-75 31.5t-31 74.5t31.5 74t74.5 31zM81 333h130l39 -549h-207z" glyph-name="exclamdown" horiz-adv-x="460" unicode="¡"/><glyph d="M447 170q156 0 202 143h174q-13 -82 -50 -142t-89.5 -93.5t-111 -49t-125.5 -15.5q-81 0 -156 25l-17 -38h-85l32 69q-91 52 -142 143t-51 208q0 180 116.5 293.5t302.5 113.5q63 0 118 -14l12 27h85l-24 -52q155 -74 185 -260h-174q-23 73 -81 110l-208 -453 q39 -15 87 -15zM208 420q0 -124 85 -195l203 441q-20 4 -49 4q-103 0 -171 -70.5t-68 -179.5z" glyph-name="cent" horiz-adv-x="850" unicode="¢"/><glyph d="M395 697q-74 0 -113.5 -32t-39.5 -86q0 -27 8 -49.5t24.5 -52.5t22.5 -43h305v-96h-285q-2 -116 -86 -176v-7h511v-155h-714v155q51 25 89.5 74t38.5 99v10h-128v96h90q-1 2 -9.5 16t-10.5 18t-9.5 17t-10 19t-8 18.5t-7.5 21.5t-5 21.5t-4 24.5t-1 25q0 112 92 179.5 t254 67.5q169 0 262 -73t82 -209h-191q-4 59 -46.5 88t-110.5 29z" glyph-name="sterling" horiz-adv-x="771" unicode="£"/><glyph d="M667 571q0 -68 -31 -125l52 -52l-95 -93l-47 47q-68 -46 -152 -46t-152 46l-47 -47l-95 93l52 52q-31 57 -31 125q0 69 33 129l-54 54l95 94l51 -51q68 43 148 43t148 -43l51 51l95 -94l-54 -54q33 -60 33 -129zM394 425q50 0 86 26t50.5 57.5t14.5 62.5q0 50 -39.5 98.5 t-111.5 48.5t-111.5 -48.5t-39.5 -98.5t39.5 -98t111.5 -48z" glyph-name="currency" horiz-adv-x="788" unicode="¤"/><glyph d="M901 840l-297 -489h213v-93h-263v-48h263v-94h-263v-116h-200v116h-256v94h256v48h-256v93h207l-297 489h212l224 -376h21l224 376h212z" glyph-name="yen" horiz-adv-x="909" unicode="¥"/><glyph d="M43 471v469h199v-469h-199zM43 -100v469h199v-469h-199z" glyph-name="brokenbar" horiz-adv-x="285" unicode="¦"/><glyph d="M707 180q106 -57 106 -183q0 -127 -101 -194.5t-297 -67.5q-195 0 -294 71t-98 218h182q5 -62 57 -96.5t153 -34.5q96 0 148 29.5t52 80.5q0 84 -148 109l-101 18q-40 7 -67.5 12.5t-63.5 16t-60.5 22t-50.5 30t-41.5 40.5t-25.5 52.5t-10 67.5q0 128 125 186 q-125 62 -125 196q0 119 97 186t272 67q370 0 373 -287h-179q-21 128 -198 128q-84 0 -128.5 -27t-44.5 -76q0 -81 127 -104l89 -17l33 -6q44 -8 67 -12.5t63.5 -15.5t63 -21.5t51 -29.5t43.5 -41.5t26 -54.5t11 -71q0 -127 -106 -191zM239 379q0 -40 32 -71t96 -43l61 -11 q86 -12 136.5 25.5t50.5 91.5q0 89 -148 116l-71 12q-57 8 -107 -26.5t-50 -93.5z" glyph-name="section" horiz-adv-x="839" unicode="§"/><glyph d="M83 690q-34 0 -58.5 23t-24.5 56q0 34 24.5 57t58.5 23t58.5 -23t24.5 -57q0 -33 -24.5 -56t-58.5 -23zM356 690q-34 0 -58.5 23t-24.5 56q0 34 24.5 57t58.5 23t58.5 -23t24.5 -57q0 -33 -24.5 -56t-58.5 -23z" glyph-name="dieresis" horiz-adv-x="439" unicode="¨"/><glyph d="M318 322q-119 0 -194.5 76t-75.5 193q0 118 75.5 194.5t194.5 76.5t195 -76.5t76 -194.5q0 -117 -76 -193t-195 -76zM321 431q52 0 93 26.5t53 80.5l-66 -1q-26 -50 -82 -50q-43 0 -70.5 28t-27.5 76t27.5 76t70.5 28q56 0 82 -49h66q-12 54 -53 80.5t-93 26.5 q-71 0 -117.5 -45.5t-46.5 -116.5q0 -70 46.5 -115t117.5 -45z" glyph-name="copyright" horiz-adv-x="636" unicode="©"/><glyph d="M402 840h100v-432h-100l-19 44q-52 -44 -122 -44q-87 0 -150 64t-63 155t63 155t150 64q71 0 124 -46zM269 531q42 0 69.5 28t27.5 68t-28 68.5t-69 28.5t-69 -28.5t-28 -68.5t28 -68t69 -28z" glyph-name="ordfeminine" horiz-adv-x="550" unicode="ª"/><glyph d="M461 135h-207l-194 285l194 285h207l-194 -285zM746 135h-207l-194 285l194 285h207l-194 -285z" glyph-name="guillemotleft" horiz-adv-x="806" unicode="«"/><glyph d="M483 300v95h-470v146h644v-241h-174z" glyph-name="logicalnot" horiz-adv-x="707" unicode="¬"/><glyph d="M40 335v168h580v-168h-580z" glyph-name="uni00AD" horiz-adv-x="660" unicode="­"/><glyph d="M318 322q-119 0 -194.5 76t-75.5 193q0 118 75.5 194.5t194.5 76.5t195 -76.5t76 -194.5q0 -117 -76 -193t-195 -76zM189 431h66v97h95l56 -97h71l-65 111q57 28 57 94q0 51 -34.5 79.5t-98.5 28.5h-147v-313zM255 584v103h83q61 0 61 -51q0 -52 -61 -52h-83z" glyph-name="registered" horiz-adv-x="636" unicode="®"/><glyph d="M0 684v149h400v-149h-400z" glyph-name="macron" horiz-adv-x="400" unicode="¯"/><glyph d="M266 407q-95 0 -158 62t-63 157q0 96 63 158t158 62t158 -62t63 -158q0 -95 -63 -157t-158 -62zM266 539q41 0 64 25.5t23 61.5t-23 62t-64 26q-42 0 -65 -26t-23 -62t23 -61.5t65 -25.5z" glyph-name="degree" horiz-adv-x="532" unicode="°"/><glyph d="M439 640h222v-160h-222v-222h-168v222h-222v160h222v223h168v-223zM49 0v167h562v-167h-562z" glyph-name="plusminus" horiz-adv-x="661" unicode="±"/><glyph d="M0 680l71 164h179l-71 -164h-179z" glyph-name="acute" horiz-adv-x="250" unicode="´"/><glyph d="M524 680h199v-680h-194l-5 94h-21q-32 -52 -90 -80t-126 -28q-24 0 -45 3v-139h-199v830h199v-404q0 -67 37 -98t94 -31q70 0 110.5 39.5t40.5 74.5v419z" glyph-name="uni00B5" horiz-adv-x="766" unicode="µ"/><glyph d="M592 0v230h-198q-178 0 -272 78t-94 227t94 227t272 78h398v-840h-200zM894 0v840h200v-840h-200z" glyph-name="paragraph" horiz-adv-x="1136" unicode="¶"/><glyph d="M186 315q-43 0 -74.5 31t-31.5 74q0 44 31 75t75 31t75.5 -31t31.5 -75q0 -43 -31.5 -74t-75.5 -31z" glyph-name="periodcentered" horiz-adv-x="373" unicode="·"/><glyph d="M120 -39q45 -3 77.5 -31.5t32.5 -78.5q0 -72 -68 -101.5t-162 -11.5v87q38 -8 63 -5t36.5 10.5t11.5 18.5q0 12 -11.5 21t-36.5 11.5t-63 -8.5v61l77 66h88z" glyph-name="cedilla" horiz-adv-x="230" unicode="¸"/><glyph d="M265 409q-90 0 -153.5 63.5t-63.5 154.5t63.5 155t153.5 64q91 0 154.5 -64t63.5 -155t-63.5 -154.5t-154.5 -63.5zM265 531q41 0 68.5 27.5t27.5 68.5t-27.5 69t-68.5 28t-68.5 -28t-27.5 -69t27.5 -68.5t68.5 -27.5z" glyph-name="ordmasculine" horiz-adv-x="531" unicode="º"/><glyph d="M60 135l194 285l-194 285h207l194 -285l-194 -285h-207zM345 135l194 285l-194 285h207l194 -285l-194 -285h-207z" glyph-name="guillemotright" horiz-adv-x="806" unicode="»"/><glyph d="M416 640q43 0 74.5 -31t31.5 -74t-31 -74.5t-75 -31.5t-75.5 31t-31.5 75q0 43 31.5 74t75.5 31zM510 338q7 -68 -16.5 -113t-62.5 -66.5t-78.5 -38t-68.5 -40t-29 -59.5q0 -45 42 -71.5t112 -26.5q75 0 122.5 33.5t47.5 107.5h181q5 -152 -87.5 -227t-263.5 -75 q-163 0 -257 59.5t-94 179.5q0 63 27 104t65.5 61.5t77 39t66 50.5t27.5 82h189z" glyph-name="questiondown" horiz-adv-x="783" unicode="¿"/><glyph d="M570 890h-179l-71 164h179zM737 0l-52 141h-414l-52 -141h-206l325 840h280l326 -840h-207zM327 292h302l-132 359h-38z" glyph-name="Agrave" unicode="À"/><glyph d="M638 1054l-71 -164h-179l71 164h179zM737 0l-52 141h-414l-52 -141h-206l325 840h280l326 -840h-207zM327 292h302l-132 359h-38z" glyph-name="Aacute" unicode="Á"/><glyph d="M453 955l-60 -65h-174l137 164h245l137 -164h-174l-60 65h-51zM737 0l-52 141h-414l-52 -141h-206l325 840h280l326 -840h-207zM327 292h302l-132 359h-38z" glyph-name="Acircumflex" unicode="Â"/><glyph d="M320 907h-67q-7 73 33.5 110.5t103.5 37.5q44 0 101.5 -33.5t85.5 -33.5q52 0 59 47h66q7 -73 -33 -110.5t-104 -37.5q-43 0 -100 33.5t-86 33.5q-53 0 -59 -47zM737 0l-52 141h-414l-52 -141h-206l325 840h280l326 -840h-207zM327 292h302l-132 359h-38z" glyph-name="Atilde" unicode="Ã"/><glyph d="M341 900q-34 0 -58.5 23t-24.5 56q0 34 24.5 57t58.5 23t58.5 -23t24.5 -57q0 -33 -24.5 -56t-58.5 -23zM614 900q-34 0 -58.5 23t-24.5 56q0 34 24.5 57t58.5 23t58.5 -23t24.5 -57q0 -33 -24.5 -56t-58.5 -23zM737 0l-52 141h-414l-52 -141h-206l325 840h280l326 -840 h-207zM327 292h302l-132 359h-38z" glyph-name="Adieresis" unicode="Ä"/><glyph d="M737 0l-52 141h-414l-52 -141h-206l325 840h83q-32 16 -51 46t-19 66q0 52 36.5 89t90.5 37q53 0 89.5 -37t36.5 -89q0 -36 -18.5 -66t-50.5 -46h83l326 -840h-207zM478 988q-15 0 -25 -10t-10 -25t10 -24.5t25 -9.5q16 0 26.5 9.5t9.5 24.5q-3 35 -36 35zM327 292h302 l-132 359h-38z" glyph-name="Aring" unicode="Å"/><glyph d="M1294 677h-508v-184h490v-144h-490v-185h508v-164h-707v142h-303l-69 -142h-202l406 840h875v-163zM358 292h229v381h-43z" glyph-name="AE" horiz-adv-x="1336" unicode="Æ"/><glyph d="M488 145q171 0 223 157h191q-14 -85 -51 -148.5t-90 -101t-113 -56.5t-129 -23l-14 -12q45 -3 77.5 -31.5t32.5 -78.5q0 -72 -68 -101.5t-162 -11.5v87q38 -8 63 -5t36.5 10.5t11.5 18.5q0 12 -11.5 21t-36.5 11.5t-63 -8.5v61l47 41q-181 17 -292.5 139t-111.5 306 q0 198 128 323t332 125q73 0 137.5 -17.5t122.5 -54t98.5 -102.5t55.5 -155h-191q-52 156 -223 156q-113 0 -188 -77.5t-75 -197.5t75 -197.5t188 -77.5z" glyph-name="Ccedilla" horiz-adv-x="930" unicode="Ç"/><glyph d="M483 890h-179l-71 164h179zM43 0v840h707v-163h-508v-184h490v-144h-490v-185h508v-164h-707z" glyph-name="Egrave" horiz-adv-x="793" unicode="È"/><glyph d="M301 890l71 164h179l-71 -164h-179zM43 0v840h707v-163h-508v-184h490v-144h-490v-185h508v-164h-707z" glyph-name="Eacute" horiz-adv-x="793" unicode="É"/><glyph d="M132 890l137 164h245l137 -164h-174l-60 65h-51l-60 -65h-174zM43 0v840h707v-163h-508v-184h490v-144h-490v-185h508v-164h-707z" glyph-name="Ecircumflex" horiz-adv-x="793" unicode="Ê"/><glyph d="M254 900q-34 0 -58.5 23t-24.5 56q0 34 24.5 57t58.5 23t58.5 -23t24.5 -57q0 -33 -24.5 -56t-58.5 -23zM527 900q-34 0 -58.5 23t-24.5 56q0 34 24.5 57t58.5 23t58.5 -23t24.5 -57q0 -33 -24.5 -56t-58.5 -23zM43 0v840h707v-163h-508v-184h490v-144h-490v-185h508 v-164h-707z" glyph-name="Edieresis" horiz-adv-x="793" unicode="Ë"/><glyph d="M234 890h-179l-71 164h179zM43 0v840h199v-840h-199z" glyph-name="Igrave" horiz-adv-x="285" unicode="Ì"/><glyph d="M52 890l71 164h179l-71 -164h-179zM43 0v840h199v-840h-199z" glyph-name="Iacute" horiz-adv-x="285" unicode="Í"/><glyph d="M-117 890l137 164h245l137 -164h-174l-60 65h-51l-60 -65h-174zM43 0v840h199v-840h-199z" glyph-name="Icircumflex" horiz-adv-x="285" unicode="Î"/><glyph d="M5 900q-34 0 -58.5 23t-24.5 56q0 34 24.5 57t58.5 23t58.5 -23t24.5 -57q0 -33 -24.5 -56t-58.5 -23zM278 900q-34 0 -58.5 23t-24.5 56q0 34 24.5 57t58.5 23t58.5 -23t24.5 -57q0 -33 -24.5 -56t-58.5 -23zM43 0v840h199v-840h-199z" glyph-name="Idieresis" horiz-adv-x="285" unicode="Ï"/><glyph d="M483 840q119 0 207.5 -31.5t140.5 -89.5t77 -132.5t25 -166.5t-25 -166.5t-77 -132.5t-140.5 -89.5t-207.5 -31.5h-386v346h-92v149h92v345h386zM482 168q122 0 186.5 65t64.5 187t-64.5 187t-186.5 65h-184l-1 -177h139v-149h-139l-1 -178h186z" glyph-name="Eth" horiz-adv-x="965" unicode="Ð"/><glyph d="M547 887q-43 0 -100 33.5t-86 33.5q-53 0 -59 -47h-67q-7 73 33.5 110.5t103.5 37.5q44 0 101.5 -33.5t85.5 -33.5q52 0 59 47h66q7 -73 -33 -110.5t-104 -37.5zM43 0v840h231l390 -565h19v565h195v-840h-227l-395 565h-18v-565h-195z" glyph-name="Ntilde" horiz-adv-x="920" unicode="Ñ"/><glyph d="M581 894h-179l-71 164h179zM489 -28q-205 0 -333 125t-128 323t128 323t333 125q206 0 334 -125t128 -323t-128 -323t-334 -125zM489 145q114 0 189 76.5t75 198.5t-75 198.5t-189 76.5q-113 0 -188.5 -76.5t-75.5 -198.5t75.5 -198.5t188.5 -76.5z" glyph-name="Ograve" horiz-adv-x="979" unicode="Ò"/><glyph d="M399 894l71 164h179l-71 -164h-179zM489 -28q-205 0 -333 125t-128 323t128 323t333 125q206 0 334 -125t128 -323t-128 -323t-334 -125zM489 145q114 0 189 76.5t75 198.5t-75 198.5t-189 76.5q-113 0 -188.5 -76.5t-75.5 -198.5t75.5 -198.5t188.5 -76.5z" glyph-name="Oacute" horiz-adv-x="979" unicode="Ó"/><glyph d="M230 894l137 164h245l137 -164h-174l-60 65h-51l-60 -65h-174zM489 -28q-205 0 -333 125t-128 323t128 323t333 125q206 0 334 -125t128 -323t-128 -323t-334 -125zM489 145q114 0 189 76.5t75 198.5t-75 198.5t-189 76.5q-113 0 -188.5 -76.5t-75.5 -198.5t75.5 -198.5 t188.5 -76.5z" glyph-name="Ocircumflex" horiz-adv-x="979" unicode="Ô"/><glyph d="M576 891q-44 0 -101 33.5t-85 33.5q-53 0 -59 -47h-67q-7 73 33.5 110.5t103.5 37.5q44 0 101.5 -33.5t85.5 -33.5q52 0 59 47h66q7 -73 -33 -110.5t-104 -37.5zM489 -28q-205 0 -333 125t-128 323t128 323t333 125q206 0 334 -125t128 -323t-128 -323t-334 -125z M489 145q114 0 189 76.5t75 198.5t-75 198.5t-189 76.5q-113 0 -188.5 -76.5t-75.5 -198.5t75.5 -198.5t188.5 -76.5z" glyph-name="Otilde" horiz-adv-x="979" unicode="Õ"/><glyph d="M352 904q-34 0 -58.5 23t-24.5 56q0 34 24.5 57t58.5 23t58.5 -23t24.5 -57q0 -33 -24.5 -56t-58.5 -23zM625 904q-34 0 -58.5 23t-24.5 56q0 34 24.5 57t58.5 23t58.5 -23t24.5 -57q0 -33 -24.5 -56t-58.5 -23zM489 -28q-205 0 -333 125t-128 323t128 323t333 125 q206 0 334 -125t128 -323t-128 -323t-334 -125zM489 145q114 0 189 76.5t75 198.5t-75 198.5t-189 76.5q-113 0 -188.5 -76.5t-75.5 -198.5t75.5 -198.5t188.5 -76.5z" glyph-name="Odieresis" horiz-adv-x="979" unicode="Ö"/><glyph d="M596 557l-157 -158l157 -157l-114 -113l-157 157l-156 -157l-119 119l157 157l-157 157l113 113l157 -157l157 158z" glyph-name="multiply" horiz-adv-x="646" unicode="×"/><glyph d="M731 810q104 -56 162 -157.5t58 -232.5q0 -198 -128 -323t-334 -125q-71 0 -137 17l-18 -40h-131l39 84q-101 57 -157.5 158t-56.5 229q0 198 128 323t333 125q69 0 131 -15l18 39h131zM225 420q0 -138 95 -217l225 487q-30 5 -56 5q-113 0 -188.5 -76.5t-75.5 -198.5z M489 145q114 0 189 76.5t75 198.5q0 144 -100 221l-226 -489q28 -7 62 -7z" glyph-name="Oslash" horiz-adv-x="979" unicode="Ø"/><glyph d="M540 890h-179l-71 164h179zM448 -28q-197 0 -301 94.5t-104 283.5v490h201v-485q0 -102 51.5 -158.5t152.5 -56.5t153 56.5t52 158.5v485h200v-490q0 -189 -104 -283.5t-301 -94.5z" glyph-name="Ugrave" horiz-adv-x="895" unicode="Ù"/><glyph d="M358 890l71 164h179l-71 -164h-179zM448 -28q-197 0 -301 94.5t-104 283.5v490h201v-485q0 -102 51.5 -158.5t152.5 -56.5t153 56.5t52 158.5v485h200v-490q0 -189 -104 -283.5t-301 -94.5z" glyph-name="Uacute" horiz-adv-x="895" unicode="Ú"/><glyph d="M189 890l137 164h245l137 -164h-174l-60 65h-51l-60 -65h-174zM448 -28q-197 0 -301 94.5t-104 283.5v490h201v-485q0 -102 51.5 -158.5t152.5 -56.5t153 56.5t52 158.5v485h200v-490q0 -189 -104 -283.5t-301 -94.5z" glyph-name="Ucircumflex" horiz-adv-x="895" unicode="Û"/><glyph d="M311 900q-34 0 -58.5 23t-24.5 56q0 34 24.5 57t58.5 23t58.5 -23t24.5 -57q0 -33 -24.5 -56t-58.5 -23zM584 900q-34 0 -58.5 23t-24.5 56q0 34 24.5 57t58.5 23t58.5 -23t24.5 -57q0 -33 -24.5 -56t-58.5 -23zM448 -28q-197 0 -301 94.5t-104 283.5v490h201v-485 q0 -102 51.5 -158.5t152.5 -56.5t153 56.5t52 158.5v485h200v-490q0 -189 -104 -283.5t-301 -94.5z" glyph-name="Udieresis" horiz-adv-x="895" unicode="Ü"/><glyph d="M614 1054l-71 -164h-179l71 164h179zM901 840l-347 -571v-269h-200v270l-346 570h212l224 -376h21l224 376h212z" glyph-name="Yacute" horiz-adv-x="909" unicode="Ý"/><glyph d="M440 725q178 0 272.5 -78t94.5 -227t-94.5 -227t-272.5 -78h-198v-115h-199v840h199v-115h198zM445 282q77 0 119.5 34.5t42.5 103.5t-42.5 103.5t-118.5 34.5h-204v-276h203z" glyph-name="Thorn" horiz-adv-x="839" unicode="Þ"/><glyph d="M43 0v582q0 143 98 211.5t269 68.5q186 0 271 -67.5t85 -167.5q0 -118 -108 -165v-13q164 -50 164 -209q0 -110 -85 -175t-265 -65h-157v154h155q75 0 114.5 30t39.5 84q0 52 -39.5 81.5t-114.5 29.5h-155v116h125q67 0 102.5 24t35.5 67q0 50 -40 78t-118 28 q-84 0 -131 -29.5t-47 -89.5v-573h-199z" glyph-name="germandbls" horiz-adv-x="855" unicode="ß"/><glyph d="M570 890h-179l-71 164h179zM737 0l-52 141h-414l-52 -141h-206l325 840h280l326 -840h-207zM327 292h302l-132 359h-38z" glyph-name="agrave" unicode="à"/><glyph d="M638 1054l-71 -164h-179l71 164h179zM737 0l-52 141h-414l-52 -141h-206l325 840h280l326 -840h-207zM327 292h302l-132 359h-38z" glyph-name="aacute" unicode="á"/><glyph d="M453 955l-60 -65h-174l137 164h245l137 -164h-174l-60 65h-51zM737 0l-52 141h-414l-52 -141h-206l325 840h280l326 -840h-207zM327 292h302l-132 359h-38z" glyph-name="acircumflex" unicode="â"/><glyph d="M320 907h-67q-7 73 33.5 110.5t103.5 37.5q44 0 101.5 -33.5t85.5 -33.5q52 0 59 47h66q7 -73 -33 -110.5t-104 -37.5q-43 0 -100 33.5t-86 33.5q-53 0 -59 -47zM737 0l-52 141h-414l-52 -141h-206l325 840h280l326 -840h-207zM327 292h302l-132 359h-38z" glyph-name="atilde" unicode="ã"/><glyph d="M341 900q-34 0 -58.5 23t-24.5 56q0 34 24.5 57t58.5 23t58.5 -23t24.5 -57q0 -33 -24.5 -56t-58.5 -23zM614 900q-34 0 -58.5 23t-24.5 56q0 34 24.5 57t58.5 23t58.5 -23t24.5 -57q0 -33 -24.5 -56t-58.5 -23zM737 0l-52 141h-414l-52 -141h-206l325 840h280l326 -840 h-207zM327 292h302l-132 359h-38z" glyph-name="adieresis" unicode="ä"/><glyph d="M737 0l-52 141h-414l-52 -141h-206l325 840h83q-32 16 -51 46t-19 66q0 52 36.5 89t90.5 37q53 0 89.5 -37t36.5 -89q0 -36 -18.5 -66t-50.5 -46h83l326 -840h-207zM478 988q-15 0 -25 -10t-10 -25t10 -24.5t25 -9.5q16 0 26.5 9.5t9.5 24.5q-3 35 -36 35zM327 292h302 l-132 359h-38z" glyph-name="aring" unicode="å"/><glyph d="M1294 677h-508v-184h490v-144h-490v-185h508v-164h-707v142h-303l-69 -142h-202l406 840h875v-163zM358 292h229v381h-43z" glyph-name="ae" horiz-adv-x="1336" unicode="æ"/><glyph d="M488 145q171 0 223 157h191q-14 -85 -51 -148.5t-90 -101t-113 -56.5t-129 -23l-14 -12q45 -3 77.5 -31.5t32.5 -78.5q0 -72 -68 -101.5t-162 -11.5v87q38 -8 63 -5t36.5 10.5t11.5 18.5q0 12 -11.5 21t-36.5 11.5t-63 -8.5v61l47 41q-181 17 -292.5 139t-111.5 306 q0 198 128 323t332 125q73 0 137.5 -17.5t122.5 -54t98.5 -102.5t55.5 -155h-191q-52 156 -223 156q-113 0 -188 -77.5t-75 -197.5t75 -197.5t188 -77.5z" glyph-name="ccedilla" horiz-adv-x="930" unicode="ç"/><glyph d="M483 890h-179l-71 164h179zM43 0v840h707v-163h-508v-184h490v-144h-490v-185h508v-164h-707z" glyph-name="egrave" horiz-adv-x="793" unicode="è"/><glyph d="M301 890l71 164h179l-71 -164h-179zM43 0v840h707v-163h-508v-184h490v-144h-490v-185h508v-164h-707z" glyph-name="eacute" horiz-adv-x="793" unicode="é"/><glyph d="M132 890l137 164h245l137 -164h-174l-60 65h-51l-60 -65h-174zM43 0v840h707v-163h-508v-184h490v-144h-490v-185h508v-164h-707z" glyph-name="ecircumflex" horiz-adv-x="793" unicode="ê"/><glyph d="M254 900q-34 0 -58.5 23t-24.5 56q0 34 24.5 57t58.5 23t58.5 -23t24.5 -57q0 -33 -24.5 -56t-58.5 -23zM527 900q-34 0 -58.5 23t-24.5 56q0 34 24.5 57t58.5 23t58.5 -23t24.5 -57q0 -33 -24.5 -56t-58.5 -23zM43 0v840h707v-163h-508v-184h490v-144h-490v-185h508 v-164h-707z" glyph-name="edieresis" horiz-adv-x="793" unicode="ë"/><glyph d="M234 890h-179l-71 164h179zM43 0v840h199v-840h-199z" glyph-name="igrave" horiz-adv-x="285" unicode="ì"/><glyph d="M52 890l71 164h179l-71 -164h-179zM43 0v840h199v-840h-199z" glyph-name="iacute" horiz-adv-x="285" unicode="í"/><glyph d="M-117 890l137 164h245l137 -164h-174l-60 65h-51l-60 -65h-174zM43 0v840h199v-840h-199z" glyph-name="icircumflex" horiz-adv-x="285" unicode="î"/><glyph d="M5 900q-34 0 -58.5 23t-24.5 56q0 34 24.5 57t58.5 23t58.5 -23t24.5 -57q0 -33 -24.5 -56t-58.5 -23zM278 900q-34 0 -58.5 23t-24.5 56q0 34 24.5 57t58.5 23t58.5 -23t24.5 -57q0 -33 -24.5 -56t-58.5 -23zM43 0v840h199v-840h-199z" glyph-name="idieresis" horiz-adv-x="285" unicode="ï"/><glyph d="M483 840q119 0 207.5 -31.5t140.5 -89.5t77 -132.5t25 -166.5t-25 -166.5t-77 -132.5t-140.5 -89.5t-207.5 -31.5h-386v346h-92v149h92v345h386zM482 168q122 0 186.5 65t64.5 187t-64.5 187t-186.5 65h-184l-1 -177h139v-149h-139l-1 -178h186z" glyph-name="eth" horiz-adv-x="965" unicode="ð"/><glyph d="M547 887q-43 0 -100 33.5t-86 33.5q-53 0 -59 -47h-67q-7 73 33.5 110.5t103.5 37.5q44 0 101.5 -33.5t85.5 -33.5q52 0 59 47h66q7 -73 -33 -110.5t-104 -37.5zM43 0v840h231l390 -565h19v565h195v-840h-227l-395 565h-18v-565h-195z" glyph-name="ntilde" horiz-adv-x="920" unicode="ñ"/><glyph d="M581 894h-179l-71 164h179zM489 -28q-205 0 -333 125t-128 323t128 323t333 125q206 0 334 -125t128 -323t-128 -323t-334 -125zM489 145q114 0 189 76.5t75 198.5t-75 198.5t-189 76.5q-113 0 -188.5 -76.5t-75.5 -198.5t75.5 -198.5t188.5 -76.5z" glyph-name="ograve" horiz-adv-x="979" unicode="ò"/><glyph d="M399 894l71 164h179l-71 -164h-179zM489 -28q-205 0 -333 125t-128 323t128 323t333 125q206 0 334 -125t128 -323t-128 -323t-334 -125zM489 145q114 0 189 76.5t75 198.5t-75 198.5t-189 76.5q-113 0 -188.5 -76.5t-75.5 -198.5t75.5 -198.5t188.5 -76.5z" glyph-name="oacute" horiz-adv-x="979" unicode="ó"/><glyph d="M230 894l137 164h245l137 -164h-174l-60 65h-51l-60 -65h-174zM489 -28q-205 0 -333 125t-128 323t128 323t333 125q206 0 334 -125t128 -323t-128 -323t-334 -125zM489 145q114 0 189 76.5t75 198.5t-75 198.5t-189 76.5q-113 0 -188.5 -76.5t-75.5 -198.5t75.5 -198.5 t188.5 -76.5z" glyph-name="ocircumflex" horiz-adv-x="979" unicode="ô"/><glyph d="M576 891q-44 0 -101 33.5t-85 33.5q-53 0 -59 -47h-67q-7 73 33.5 110.5t103.5 37.5q44 0 101.5 -33.5t85.5 -33.5q52 0 59 47h66q7 -73 -33 -110.5t-104 -37.5zM489 -28q-205 0 -333 125t-128 323t128 323t333 125q206 0 334 -125t128 -323t-128 -323t-334 -125z M489 145q114 0 189 76.5t75 198.5t-75 198.5t-189 76.5q-113 0 -188.5 -76.5t-75.5 -198.5t75.5 -198.5t188.5 -76.5z" glyph-name="otilde" horiz-adv-x="979" unicode="õ"/><glyph d="M352 904q-34 0 -58.5 23t-24.5 56q0 34 24.5 57t58.5 23t58.5 -23t24.5 -57q0 -33 -24.5 -56t-58.5 -23zM625 904q-34 0 -58.5 23t-24.5 56q0 34 24.5 57t58.5 23t58.5 -23t24.5 -57q0 -33 -24.5 -56t-58.5 -23zM489 -28q-205 0 -333 125t-128 323t128 323t333 125 q206 0 334 -125t128 -323t-128 -323t-334 -125zM489 145q114 0 189 76.5t75 198.5t-75 198.5t-189 76.5q-113 0 -188.5 -76.5t-75.5 -198.5t75.5 -198.5t188.5 -76.5z" glyph-name="odieresis" horiz-adv-x="979" unicode="ö"/><glyph d="M331 566q-39 0 -67 28t-28 66q0 39 28 67t67 28q40 0 68 -28t28 -67q0 -38 -28 -66t-68 -28zM50 349v142h562v-142h-562zM331 86q-39 0 -67 28t-28 66q0 39 28 67t67 28q40 0 68 -28t28 -67q0 -38 -28 -66t-68 -28z" glyph-name="divide" horiz-adv-x="662" unicode="÷"/><glyph d="M731 810q104 -56 162 -157.5t58 -232.5q0 -198 -128 -323t-334 -125q-71 0 -137 17l-18 -40h-131l39 84q-101 57 -157.5 158t-56.5 229q0 198 128 323t333 125q69 0 131 -15l18 39h131zM225 420q0 -138 95 -217l225 487q-30 5 -56 5q-113 0 -188.5 -76.5t-75.5 -198.5z M489 145q114 0 189 76.5t75 198.5q0 144 -100 221l-226 -489q28 -7 62 -7z" glyph-name="oslash" horiz-adv-x="979" unicode="ø"/><glyph d="M540 890h-179l-71 164h179zM448 -28q-197 0 -301 94.5t-104 283.5v490h201v-485q0 -102 51.5 -158.5t152.5 -56.5t153 56.5t52 158.5v485h200v-490q0 -189 -104 -283.5t-301 -94.5z" glyph-name="ugrave" horiz-adv-x="895" unicode="ù"/><glyph d="M358 890l71 164h179l-71 -164h-179zM448 -28q-197 0 -301 94.5t-104 283.5v490h201v-485q0 -102 51.5 -158.5t152.5 -56.5t153 56.5t52 158.5v485h200v-490q0 -189 -104 -283.5t-301 -94.5z" glyph-name="uacute" horiz-adv-x="895" unicode="ú"/><glyph d="M189 890l137 164h245l137 -164h-174l-60 65h-51l-60 -65h-174zM448 -28q-197 0 -301 94.5t-104 283.5v490h201v-485q0 -102 51.5 -158.5t152.5 -56.5t153 56.5t52 158.5v485h200v-490q0 -189 -104 -283.5t-301 -94.5z" glyph-name="ucircumflex" horiz-adv-x="895" unicode="û"/><glyph d="M311 900q-34 0 -58.5 23t-24.5 56q0 34 24.5 57t58.5 23t58.5 -23t24.5 -57q0 -33 -24.5 -56t-58.5 -23zM584 900q-34 0 -58.5 23t-24.5 56q0 34 24.5 57t58.5 23t58.5 -23t24.5 -57q0 -33 -24.5 -56t-58.5 -23zM448 -28q-197 0 -301 94.5t-104 283.5v490h201v-485 q0 -102 51.5 -158.5t152.5 -56.5t153 56.5t52 158.5v485h200v-490q0 -189 -104 -283.5t-301 -94.5z" glyph-name="udieresis" horiz-adv-x="895" unicode="ü"/><glyph d="M614 1054l-71 -164h-179l71 164h179zM901 840l-347 -571v-269h-200v270l-346 570h212l224 -376h21l224 376h212z" glyph-name="yacute" horiz-adv-x="909" unicode="ý"/><glyph d="M440 725q178 0 272.5 -78t94.5 -227t-94.5 -227t-272.5 -78h-198v-115h-199v840h199v-115h198zM445 282q77 0 119.5 34.5t42.5 103.5t-42.5 103.5t-118.5 34.5h-204v-276h203z" glyph-name="thorn" horiz-adv-x="839" unicode="þ"/><glyph d="M317 900q-34 0 -58.5 23t-24.5 56q0 34 24.5 57t58.5 23t58.5 -23t24.5 -57q0 -33 -24.5 -56t-58.5 -23zM590 900q-34 0 -58.5 23t-24.5 56q0 34 24.5 57t58.5 23t58.5 -23t24.5 -57q0 -33 -24.5 -56t-58.5 -23zM901 840l-347 -571v-269h-200v270l-346 570h212l224 -376 h21l224 376h212z" glyph-name="ydieresis" horiz-adv-x="909" unicode="ÿ"/><glyph d="M678 1043v-149h-400v149h400zM737 0l-52 141h-414l-52 -141h-206l325 840h280l326 -840h-207zM327 292h302l-132 359h-38z" glyph-name="Amacron" unicode="Ā"/><glyph d="M678 1043v-149h-400v149h400zM737 0l-52 141h-414l-52 -141h-206l325 840h280l326 -840h-207zM327 292h302l-132 359h-38z" glyph-name="amacron" unicode="ā"/><glyph d="M478 890q-110 0 -159 39t-48 125h127q1 -34 22 -53t58 -19t57.5 19t21.5 53h127q1 -86 -48 -125t-158 -39zM737 0l-52 141h-414l-52 -141h-206l325 840h280l326 -840h-207zM327 292h302l-132 359h-38z" glyph-name="Abreve" unicode="Ă"/><glyph d="M478 890q-110 0 -159 39t-48 125h127q1 -34 22 -53t58 -19t57.5 19t21.5 53h127q1 -86 -48 -125t-158 -39zM737 0l-52 141h-414l-52 -141h-206l325 840h280l326 -840h-207zM327 292h302l-132 359h-38z" glyph-name="abreve" unicode="ă"/><glyph d="M737 0q-49 0 -71 -20.5t-22 -48.5q0 -24 17 -40.5t55 -16.5v-115q-35 0 -68 6.5t-67 21.5t-54.5 45.5t-20.5 72.5q0 43 20.5 74t55 47t66.5 23t67 9l-30 83h-414l-52 -141h-206l325 840h280l326 -840h-207zM327 292h302l-132 359h-38z" glyph-name="Aogonek" unicode="Ą"/><glyph d="M737 0q-49 0 -71 -20.5t-22 -48.5q0 -24 17 -40.5t55 -16.5v-115q-35 0 -68 6.5t-67 21.5t-54.5 45.5t-20.5 72.5q0 43 20.5 74t55 47t66.5 23t67 9l-30 83h-414l-52 -141h-206l325 840h280l326 -840h-207zM327 292h302l-132 359h-38z" glyph-name="aogonek" unicode="ą"/><glyph d="M399 890l71 164h179l-71 -164h-179zM488 -28q-204 0 -332 125t-128 323t128 323t332 125q73 0 137.5 -17.5t122.5 -54t98.5 -102.5t55.5 -155h-191q-52 156 -223 156q-113 0 -188 -77.5t-75 -197.5t75 -197.5t188 -77.5q171 0 223 157h191q-12 -72 -41 -129t-68.5 -94.5 t-90.5 -61.5t-103.5 -34.5t-110.5 -10.5z" glyph-name="Cacute" horiz-adv-x="930" unicode="Ć"/><glyph d="M399 890l71 164h179l-71 -164h-179zM488 -28q-204 0 -332 125t-128 323t128 323t332 125q73 0 137.5 -17.5t122.5 -54t98.5 -102.5t55.5 -155h-191q-52 156 -223 156q-113 0 -188 -77.5t-75 -197.5t75 -197.5t188 -77.5q171 0 223 157h191q-12 -72 -41 -129t-68.5 -94.5 t-90.5 -61.5t-103.5 -34.5t-110.5 -10.5z" glyph-name="cacute" horiz-adv-x="930" unicode="ć"/><glyph d="M489 900q-34 0 -58.5 23t-24.5 56q0 34 24.5 57t58.5 23t58.5 -23t24.5 -57q0 -33 -24.5 -56t-58.5 -23zM488 -28q-204 0 -332 125t-128 323t128 323t332 125q73 0 137.5 -17.5t122.5 -54t98.5 -102.5t55.5 -155h-191q-52 156 -223 156q-113 0 -188 -77.5t-75 -197.5 t75 -197.5t188 -77.5q171 0 223 157h191q-12 -72 -41 -129t-68.5 -94.5t-90.5 -61.5t-103.5 -34.5t-110.5 -10.5z" glyph-name="Cdotaccent" horiz-adv-x="930" unicode="Ċ"/><glyph d="M489 900q-34 0 -58.5 23t-24.5 56q0 34 24.5 57t58.5 23t58.5 -23t24.5 -57q0 -33 -24.5 -56t-58.5 -23zM488 -28q-204 0 -332 125t-128 323t128 323t332 125q73 0 137.5 -17.5t122.5 -54t98.5 -102.5t55.5 -155h-191q-52 156 -223 156q-113 0 -188 -77.5t-75 -197.5 t75 -197.5t188 -77.5q171 0 223 157h191q-12 -72 -41 -129t-68.5 -94.5t-90.5 -61.5t-103.5 -34.5t-110.5 -10.5z" glyph-name="cdotaccent" horiz-adv-x="930" unicode="ċ"/><glyph d="M230 1035h174l60 -65h51l60 65h174l-137 -164h-245zM488 -28q-204 0 -332 125t-128 323t128 323t332 125q73 0 137.5 -17.5t122.5 -54t98.5 -102.5t55.5 -155h-191q-52 156 -223 156q-113 0 -188 -77.5t-75 -197.5t75 -197.5t188 -77.5q171 0 223 157h191 q-12 -72 -41 -129t-68.5 -94.5t-90.5 -61.5t-103.5 -34.5t-110.5 -10.5z" glyph-name="Ccaron" horiz-adv-x="930" unicode="Č"/><glyph d="M230 1035h174l60 -65h51l60 65h174l-137 -164h-245zM488 -28q-204 0 -332 125t-128 323t128 323t332 125q73 0 137.5 -17.5t122.5 -54t98.5 -102.5t55.5 -155h-191q-52 156 -223 156q-113 0 -188 -77.5t-75 -197.5t75 -197.5t188 -77.5q171 0 223 157h191 q-12 -72 -41 -129t-68.5 -94.5t-90.5 -61.5t-103.5 -34.5t-110.5 -10.5z" glyph-name="ccaron" horiz-adv-x="930" unicode="č"/><glyph d="M561 871h-245l-137 164h174l60 -65h51l60 65h174zM429 840q119 0 207.5 -31.5t140.5 -89.5t77 -132.5t25 -166.5t-25 -166.5t-77 -132.5t-140.5 -89.5t-207.5 -31.5h-386v840h386zM428 168q122 0 186.5 65t64.5 187t-64.5 187t-186.5 65h-184l-2 -504h186z" glyph-name="Dcaron" horiz-adv-x="911" unicode="Ď"/><glyph d="M561 871h-245l-137 164h174l60 -65h51l60 65h174zM429 840q119 0 207.5 -31.5t140.5 -89.5t77 -132.5t25 -166.5t-25 -166.5t-77 -132.5t-140.5 -89.5t-207.5 -31.5h-386v840h386zM428 168q122 0 186.5 65t64.5 187t-64.5 187t-186.5 65h-184l-2 -504h186z" glyph-name="dcaron" horiz-adv-x="911" unicode="ď"/><glyph d="M483 840q119 0 207.5 -31.5t140.5 -89.5t77 -132.5t25 -166.5t-25 -166.5t-77 -132.5t-140.5 -89.5t-207.5 -31.5h-386v346h-92v149h92v345h386zM482 168q122 0 186.5 65t64.5 187t-64.5 187t-186.5 65h-184l-1 -177h139v-149h-139l-1 -178h186z" glyph-name="Dcroat" horiz-adv-x="965" unicode="Đ"/><glyph d="M483 840q119 0 207.5 -31.5t140.5 -89.5t77 -132.5t25 -166.5t-25 -166.5t-77 -132.5t-140.5 -89.5t-207.5 -31.5h-386v346h-92v149h92v345h386zM482 168q122 0 186.5 65t64.5 187t-64.5 187t-186.5 65h-184l-1 -177h139v-149h-139l-1 -178h186z" glyph-name="dcroat" horiz-adv-x="965" unicode="đ"/><glyph d="M191 894v149h400v-149h-400zM43 0v840h707v-163h-508v-184h490v-144h-490v-185h508v-164h-707z" glyph-name="Emacron" horiz-adv-x="793" unicode="Ē"/><glyph d="M191 894v149h400v-149h-400zM43 0v840h707v-163h-508v-184h490v-144h-490v-185h508v-164h-707z" glyph-name="emacron" horiz-adv-x="793" unicode="ē"/><glyph d="M391 900q-34 0 -58.5 23t-24.5 56q0 34 24.5 57t58.5 23t58.5 -23t24.5 -57q0 -33 -24.5 -56t-58.5 -23zM43 0v840h707v-163h-508v-184h490v-144h-490v-185h508v-164h-707z" glyph-name="Edotaccent" horiz-adv-x="793" unicode="Ė"/><glyph d="M391 900q-34 0 -58.5 23t-24.5 56q0 34 24.5 57t58.5 23t58.5 -23t24.5 -57q0 -33 -24.5 -56t-58.5 -23zM43 0v840h707v-163h-508v-184h490v-144h-490v-185h508v-164h-707z" glyph-name="edotaccent" horiz-adv-x="793" unicode="ė"/><glyph d="M750 677h-508v-184h490v-144h-490v-185h508v-164q-49 0 -71 -20.5t-22 -48.5q0 -24 17 -40.5t55 -16.5v-115q-35 0 -68 6.5t-67 21.5t-54.5 45.5t-20.5 72.5q0 59 39 95h-515v840h707v-163z" glyph-name="Eogonek" horiz-adv-x="793" unicode="Ę"/><glyph d="M750 677h-508v-184h490v-144h-490v-185h508v-164q-49 0 -71 -20.5t-22 -48.5q0 -24 17 -40.5t55 -16.5v-115q-35 0 -68 6.5t-67 21.5t-54.5 45.5t-20.5 72.5q0 59 39 95h-515v840h707v-163z" glyph-name="eogonek" horiz-adv-x="793" unicode="ę"/><glyph d="M132 1035h174l60 -65h51l60 65h174l-137 -164h-245zM43 0v840h707v-163h-508v-184h490v-144h-490v-185h508v-164h-707z" glyph-name="Ecaron" horiz-adv-x="793" unicode="Ě"/><glyph d="M132 1035h174l60 -65h51l60 65h174l-137 -164h-245zM43 0v840h707v-163h-508v-184h490v-144h-490v-185h508v-164h-707z" glyph-name="ecaron" horiz-adv-x="793" unicode="ě"/><glyph d="M486 890q-110 0 -159 39t-48 125h127q1 -34 22 -53t58 -19t57.5 19t21.5 53h127q1 -86 -48 -125t-158 -39zM916 444v-444h-125l-2 122q-46 -69 -125.5 -109.5t-187.5 -40.5q-192 0 -320 126t-128 322q0 198 128.5 323t335.5 125q96 0 178 -29t146.5 -97.5t86.5 -169.5 h-199q-24 58 -79 90.5t-130 32.5q-118 0 -194 -77t-76 -198q0 -120 76 -197.5t190 -77.5q76 0 143 39t87 125h-244v135h439z" glyph-name="Gbreve" horiz-adv-x="963" unicode="Ğ"/><glyph d="M486 890q-110 0 -159 39t-48 125h127q1 -34 22 -53t58 -19t57.5 19t21.5 53h127q1 -86 -48 -125t-158 -39zM916 444v-444h-125l-2 122q-46 -69 -125.5 -109.5t-187.5 -40.5q-192 0 -320 126t-128 322q0 198 128.5 323t335.5 125q96 0 178 -29t146.5 -97.5t86.5 -169.5 h-199q-24 58 -79 90.5t-130 32.5q-118 0 -194 -77t-76 -198q0 -120 76 -197.5t190 -77.5q76 0 143 39t87 125h-244v135h439z" glyph-name="gbreve" horiz-adv-x="963" unicode="ğ"/><glyph d="M486 900q-34 0 -58.5 23t-24.5 56q0 34 24.5 57t58.5 23t58.5 -23t24.5 -57q0 -33 -24.5 -56t-58.5 -23zM916 444v-444h-125l-2 122q-46 -69 -125.5 -109.5t-187.5 -40.5q-192 0 -320 126t-128 322q0 198 128.5 323t335.5 125q96 0 178 -29t146.5 -97.5t86.5 -169.5h-199 q-24 58 -79 90.5t-130 32.5q-118 0 -194 -77t-76 -198q0 -120 76 -197.5t190 -77.5q76 0 143 39t87 125h-244v135h439z" glyph-name="Gdotaccent" horiz-adv-x="963" unicode="Ġ"/><glyph d="M486 900q-34 0 -58.5 23t-24.5 56q0 34 24.5 57t58.5 23t58.5 -23t24.5 -57q0 -33 -24.5 -56t-58.5 -23zM916 444v-444h-125l-2 122q-46 -69 -125.5 -109.5t-187.5 -40.5q-192 0 -320 126t-128 322q0 198 128.5 323t335.5 125q96 0 178 -29t146.5 -97.5t86.5 -169.5h-199 q-24 58 -79 90.5t-130 32.5q-118 0 -194 -77t-76 -198q0 -120 76 -197.5t190 -77.5q76 0 143 39t87 125h-244v135h439z" glyph-name="gdotaccent" horiz-adv-x="963" unicode="ġ"/><glyph d="M916 444v-444h-125l-2 122q-46 -69 -125.5 -109.5t-187.5 -40.5q-192 0 -320 126t-128 322q0 198 128.5 323t335.5 125q96 0 178 -29t146.5 -97.5t86.5 -169.5h-199q-24 58 -79 90.5t-130 32.5q-118 0 -194 -77t-76 -198q0 -120 76 -197.5t190 -77.5q76 0 143 39t87 125 h-244v135h439zM374 -213v150h228v-35q0 -217 -46 -322h-112q16 91 14 207h-84z" glyph-name="Gcommaaccent" horiz-adv-x="963" unicode="Ģ"/><glyph d="M916 444v-444h-125l-2 122q-46 -69 -125.5 -109.5t-187.5 -40.5q-192 0 -320 126t-128 322q0 198 128.5 323t335.5 125q96 0 178 -29t146.5 -97.5t86.5 -169.5h-199q-24 58 -79 90.5t-130 32.5q-118 0 -194 -77t-76 -198q0 -120 76 -197.5t190 -77.5q76 0 143 39t87 125 h-244v135h439zM374 -213v150h228v-35q0 -217 -46 -322h-112q16 91 14 207h-84z" glyph-name="gcommaaccent" horiz-adv-x="963" unicode="ģ"/><glyph d="M659 840h200v-840h-200v337h-417v-337h-199v840h199v-116h417v116zM242 503h417v79h-417v-79z" glyph-name="Hbar" horiz-adv-x="901" unicode="Ħ"/><glyph d="M659 840h200v-840h-200v337h-417v-337h-199v840h199v-116h417v116zM242 503h417v79h-417v-79z" glyph-name="hbar" horiz-adv-x="901" unicode="ħ"/><glyph d="M-58 894v149h400v-149h-400zM43 0v840h199v-840h-199z" glyph-name="Imacron" horiz-adv-x="285" unicode="Ī"/><glyph d="M-58 894v149h400v-149h-400zM43 0v840h199v-840h-199z" glyph-name="imacron" horiz-adv-x="285" unicode="ī"/><glyph d="M43 840h199v-840q-49 0 -71 -20.5t-22 -48.5q0 -24 17 -40.5t55 -16.5v-115q-35 0 -68 6.5t-67 21.5t-54.5 45.5t-20.5 72.5q0 59 39 95h-7v840z" glyph-name="Iogonek" horiz-adv-x="285" unicode="Į"/><glyph d="M43 840h199v-840q-49 0 -71 -20.5t-22 -48.5q0 -24 17 -40.5t55 -16.5v-115q-35 0 -68 6.5t-67 21.5t-54.5 45.5t-20.5 72.5q0 59 39 95h-7v840z" glyph-name="iogonek" horiz-adv-x="285" unicode="į"/><glyph d="M142 900q-34 0 -58.5 23t-24.5 56q0 34 24.5 57t58.5 23t58.5 -23t24.5 -57q0 -33 -24.5 -56t-58.5 -23zM43 0v840h199v-840h-199z" glyph-name="Idotaccent" horiz-adv-x="285" unicode="İ"/><glyph d="M43 0v840h199v-840h-199z" glyph-name="dotlessi" horiz-adv-x="285" unicode="ı"/><glyph d="M43 0v840h199v-840h-199zM652 -28q-351 0 -347 334h198q1 -85 43 -124t110 -39q154 0 154 189v508h200v-499q0 -196 -91.5 -282.5t-266.5 -86.5z" glyph-name="IJ" horiz-adv-x="1053" unicode="Ĳ"/><glyph d="M514 467l369 -467h-208l-275 346h-14l-145 -150v-196h-198v840h198v-403h15l382 403h226zM338 -213v150h228v-35q0 -217 -46 -322h-112q16 91 14 207h-84z" glyph-name="Kcommaaccent" horiz-adv-x="882" unicode="Ķ"/><glyph d="M514 467l369 -467h-208l-275 346h-14l-145 -150v-196h-198v840h198v-403h15l382 403h226zM338 -213v150h228v-35q0 -217 -46 -322h-112q16 91 14 207h-84z" glyph-name="kcommaaccent" horiz-adv-x="882" unicode="ķ"/><glyph d="M43 880l71 164h179l-71 -164h-179zM43 0v840h199v-673h484v-167h-683z" glyph-name="Lacute" horiz-adv-x="761" unicode="Ĺ"/><glyph d="M43 880l71 164h179l-71 -164h-179zM43 0v840h199v-673h484v-167h-683z" glyph-name="lacute" horiz-adv-x="761" unicode="ĺ"/><glyph d="M43 0v840h199v-673h484v-167h-683zM339 -420q16 91 14 207h-84v150h228v-35q0 -217 -46 -322h-112z" glyph-name="Lcommaaccent" horiz-adv-x="761" unicode="Ļ"/><glyph d="M43 0v840h199v-673h484v-167h-683zM339 -420q16 91 14 207h-84v150h228v-35q0 -217 -46 -322h-112z" glyph-name="lcommaaccent" horiz-adv-x="761" unicode="ļ"/><glyph d="M43 0v840h199v-673h484v-167h-683zM418 442q18 104 16 231h-94v167h254v-39q0 -125 -15 -219t-36 -140h-125z" glyph-name="Lcaron" horiz-adv-x="761" unicode="Ľ"/><glyph d="M43 0v840h199v-673h484v-167h-683zM418 442q18 104 16 231h-94v167h254v-39q0 -125 -15 -219t-36 -140h-125z" glyph-name="lcaron" horiz-adv-x="761" unicode="ľ"/><glyph d="M43 0v840h199v-673h484v-167h-683zM489 422q-43 0 -74.5 31t-31.5 74t31.5 74.5t74.5 31.5q44 0 75.5 -31t31.5 -75q0 -43 -31.5 -74t-75.5 -31z" glyph-name="Ldot" horiz-adv-x="761" unicode="Ŀ"/><glyph d="M269 167h484v-167h-683v246l-70 -56v154l70 56v440h199v-282l153 122v-154l-153 -122v-237z" glyph-name="Lslash" horiz-adv-x="788" unicode="Ł"/><glyph d="M269 167h484v-167h-683v246l-70 -56v154l70 56v440h199v-282l153 122v-154l-153 -122v-237z" glyph-name="lslash" horiz-adv-x="788" unicode="ł"/><glyph d="M370 890l71 164h179l-71 -164h-179zM43 0v840h231l390 -565h19v565h195v-840h-227l-395 565h-18v-565h-195z" glyph-name="Nacute" horiz-adv-x="920" unicode="Ń"/><glyph d="M370 890l71 164h179l-71 -164h-179zM43 0v840h231l390 -565h19v565h195v-840h-227l-395 565h-18v-565h-195z" glyph-name="nacute" horiz-adv-x="920" unicode="ń"/><glyph d="M43 0v840h231l390 -565h19v565h195v-840h-227l-395 565h-18v-565h-195zM418 -420q16 91 14 207h-84v150h228v-35q0 -217 -46 -322h-112z" glyph-name="Ncommaaccent" horiz-adv-x="920" unicode="Ņ"/><glyph d="M43 0v840h231l390 -565h19v565h195v-840h-227l-395 565h-18v-565h-195zM418 -420q16 91 14 207h-84v150h228v-35q0 -217 -46 -322h-112z" glyph-name="ncommaaccent" horiz-adv-x="920" unicode="ņ"/><glyph d="M201 1035h174l60 -65h51l60 65h174l-137 -164h-245zM43 0v840h231l390 -565h19v565h195v-840h-227l-395 565h-18v-565h-195z" glyph-name="Ncaron" horiz-adv-x="920" unicode="Ň"/><glyph d="M201 1035h174l60 -65h51l60 65h174l-137 -164h-245zM43 0v840h231l390 -565h19v565h195v-840h-227l-395 565h-18v-565h-195z" glyph-name="ncaron" horiz-adv-x="920" unicode="ň"/><glyph d="M683 840h195v-840q0 -151 -92 -224t-260 -73l2 168q155 0 155 128v1h-32l-395 565h-18v-565h-195v840h231l390 -565h19v565z" glyph-name="Eng" horiz-adv-x="920" unicode="Ŋ"/><glyph d="M683 840h195v-840q0 -151 -92 -224t-260 -73l2 168q155 0 155 128v1h-32l-395 565h-18v-565h-195v840h231l390 -565h19v565z" glyph-name="eng" horiz-adv-x="920" unicode="ŋ"/><glyph d="M289 898v149h400v-149h-400zM489 -28q-205 0 -333 125t-128 323t128 323t333 125q206 0 334 -125t128 -323t-128 -323t-334 -125zM489 145q114 0 189 76.5t75 198.5t-75 198.5t-189 76.5q-113 0 -188.5 -76.5t-75.5 -198.5t75.5 -198.5t188.5 -76.5z" glyph-name="Omacron" horiz-adv-x="979" unicode="Ō"/><glyph d="M289 898v149h400v-149h-400zM489 -28q-205 0 -333 125t-128 323t128 323t333 125q206 0 334 -125t128 -323t-128 -323t-334 -125zM489 145q114 0 189 76.5t75 198.5t-75 198.5t-189 76.5q-113 0 -188.5 -76.5t-75.5 -198.5t75.5 -198.5t188.5 -76.5z" glyph-name="omacron" horiz-adv-x="979" unicode="ō"/><glyph d="M251 900l71 164h179l-71 -164h-179zM495 900l71 164h179l-71 -164h-179zM489 -28q-205 0 -333 125t-128 323t128 323t333 125q206 0 334 -125t128 -323t-128 -323t-334 -125zM489 145q114 0 189 76.5t75 198.5t-75 198.5t-189 76.5q-113 0 -188.5 -76.5t-75.5 -198.5 t75.5 -198.5t188.5 -76.5z" glyph-name="Ohungarumlaut" horiz-adv-x="979" unicode="Ő"/><glyph d="M251 900l71 164h179l-71 -164h-179zM495 900l71 164h179l-71 -164h-179zM489 -28q-205 0 -333 125t-128 323t128 323t333 125q206 0 334 -125t128 -323t-128 -323t-334 -125zM489 145q114 0 189 76.5t75 198.5t-75 198.5t-189 76.5q-113 0 -188.5 -76.5t-75.5 -198.5 t75.5 -198.5t188.5 -76.5z" glyph-name="ohungarumlaut" horiz-adv-x="979" unicode="ő"/><glyph d="M1461 677h-508v-184h490v-144h-490v-185h508v-164h-707v43q-113 -71 -265 -71q-205 0 -333 125t-128 323t128 323t333 125q152 0 265 -71v43h707v-163zM489 145q114 0 189 76.5t75 198.5t-75 198.5t-189 76.5q-113 0 -188.5 -76.5t-75.5 -198.5t75.5 -198.5t188.5 -76.5z " glyph-name="OE" horiz-adv-x="1503" unicode="Œ"/><glyph d="M1461 677h-508v-184h490v-144h-490v-185h508v-164h-707v43q-113 -71 -265 -71q-205 0 -333 125t-128 323t128 323t333 125q152 0 265 -71v43h707v-163zM489 145q114 0 189 76.5t75 198.5t-75 198.5t-189 76.5q-113 0 -188.5 -76.5t-75.5 -198.5t75.5 -198.5t188.5 -76.5z " glyph-name="oe" horiz-adv-x="1503" unicode="œ"/><glyph d="M588 1054l-71 -164h-179l71 164h179zM849 0h-198l-138 250h-271v-250h-199v840h441q169 0 256.5 -77t87.5 -224q0 -85 -38 -149t-105 -100zM242 673v-270h231q76 0 116.5 34.5t40.5 100.5t-40.5 100.5t-116.5 34.5h-231z" glyph-name="Racute" horiz-adv-x="873" unicode="Ŕ"/><glyph d="M588 1054l-71 -164h-179l71 164h179zM849 0h-198l-138 250h-271v-250h-199v840h441q169 0 256.5 -77t87.5 -224q0 -85 -38 -149t-105 -100zM242 673v-270h231q76 0 116.5 34.5t40.5 100.5t-40.5 100.5t-116.5 34.5h-231z" glyph-name="racute" horiz-adv-x="873" unicode="ŕ"/><glyph d="M685 290l164 -290h-198l-138 250h-271v-250h-199v840h441q169 0 256.5 -77t87.5 -224q0 -85 -38 -149t-105 -100zM242 673v-270h231q76 0 116.5 34.5t40.5 100.5t-40.5 100.5t-116.5 34.5h-231zM316 -213v150h228v-35q0 -217 -46 -322h-112q16 91 14 207h-84z" glyph-name="Rcommaaccent" horiz-adv-x="873" unicode="Ŗ"/><glyph d="M685 290l164 -290h-198l-138 250h-271v-250h-199v840h441q169 0 256.5 -77t87.5 -224q0 -85 -38 -149t-105 -100zM242 673v-270h231q76 0 116.5 34.5t40.5 100.5t-40.5 100.5t-116.5 34.5h-231zM316 -213v150h228v-35q0 -217 -46 -322h-112q16 91 14 207h-84z" glyph-name="rcommaaccent" horiz-adv-x="873" unicode="ŗ"/><glyph d="M551 871h-245l-137 164h174l60 -65h51l60 65h174zM849 0h-198l-138 250h-271v-250h-199v840h441q169 0 256.5 -77t87.5 -224q0 -85 -38 -149t-105 -100zM242 673v-270h231q76 0 116.5 34.5t40.5 100.5t-40.5 100.5t-116.5 34.5h-231z" glyph-name="Rcaron" horiz-adv-x="873" unicode="Ř"/><glyph d="M551 871h-245l-137 164h174l60 -65h51l60 65h174zM849 0h-198l-138 250h-271v-250h-199v840h441q169 0 256.5 -77t87.5 -224q0 -85 -38 -149t-105 -100zM242 673v-270h231q76 0 116.5 34.5t40.5 100.5t-40.5 100.5t-116.5 34.5h-231z" glyph-name="rcaron" horiz-adv-x="873" unicode="ř"/><glyph d="M327 890l71 164h179l-71 -164h-179zM413 -28q-194 0 -292.5 71t-97.5 217h180q5 -61 57 -95t153 -35q96 0 148.5 30t52.5 80q0 43 -35 67t-112 37l-104 18q-56 10 -95 19.5t-84.5 29t-73 44.5t-46 66t-18.5 94q0 120 96.5 186.5t272.5 66.5q370 0 373 -285h-179 q-22 127 -198 127q-85 0 -129.5 -27.5t-44.5 -76.5q0 -75 127 -99l91 -16q147 -27 203 -48q145 -56 153 -191q1 -9 1 -18q0 -126 -102 -194t-297 -68z" glyph-name="Sacute" horiz-adv-x="837" unicode="Ś"/><glyph d="M327 890l71 164h179l-71 -164h-179zM413 -28q-194 0 -292.5 71t-97.5 217h180q5 -61 57 -95t153 -35q96 0 148.5 30t52.5 80q0 43 -35 67t-112 37l-104 18q-56 10 -95 19.5t-84.5 29t-73 44.5t-46 66t-18.5 94q0 120 96.5 186.5t272.5 66.5q370 0 373 -285h-179 q-22 127 -198 127q-85 0 -129.5 -27.5t-44.5 -76.5q0 -75 127 -99l91 -16q147 -27 203 -48q145 -56 153 -191q1 -9 1 -18q0 -126 -102 -194t-297 -68z" glyph-name="sacute" horiz-adv-x="837" unicode="ś"/><glyph d="M812 234q0 -121 -93 -188.5t-272 -72.5l-14 -12q45 -3 77.5 -31.5t32.5 -78.5q0 -72 -68 -101.5t-162 -11.5v87q38 -8 63 -5t36.5 10.5t11.5 18.5q0 12 -11.5 21t-36.5 11.5t-63 -8.5v61l46 39q-168 10 -252.5 80.5t-83.5 206.5h180q5 -61 57 -95t153 -35q96 0 148.5 30 t52.5 80q0 43 -35 67t-112 37l-104 18q-56 10 -95 19.5t-84.5 29t-73 44.5t-46 66t-18.5 94q0 120 96.5 186.5t272.5 66.5q370 0 373 -285h-179q-22 127 -198 127q-85 0 -129.5 -27.5t-44.5 -76.5q0 -75 127 -99l91 -16q147 -27 203 -48q145 -56 153 -191q1 -9 1 -18z" glyph-name="Scedilla" horiz-adv-x="837" unicode="Ş"/><glyph d="M812 234q0 -121 -93 -188.5t-272 -72.5l-14 -12q45 -3 77.5 -31.5t32.5 -78.5q0 -72 -68 -101.5t-162 -11.5v87q38 -8 63 -5t36.5 10.5t11.5 18.5q0 12 -11.5 21t-36.5 11.5t-63 -8.5v61l46 39q-168 10 -252.5 80.5t-83.5 206.5h180q5 -61 57 -95t153 -35q96 0 148.5 30 t52.5 80q0 43 -35 67t-112 37l-104 18q-56 10 -95 19.5t-84.5 29t-73 44.5t-46 66t-18.5 94q0 120 96.5 186.5t272.5 66.5q370 0 373 -285h-179q-22 127 -198 127q-85 0 -129.5 -27.5t-44.5 -76.5q0 -75 127 -99l91 -16q147 -27 203 -48q145 -56 153 -191q1 -9 1 -18z" glyph-name="scedilla" horiz-adv-x="837" unicode="ş"/><glyph d="M158 1035h174l60 -65h51l60 65h174l-137 -164h-245zM413 -28q-194 0 -292.5 71t-97.5 217h180q5 -61 57 -95t153 -35q96 0 148.5 30t52.5 80q0 43 -35 67t-112 37l-104 18q-56 10 -95 19.5t-84.5 29t-73 44.5t-46 66t-18.5 94q0 120 96.5 186.5t272.5 66.5 q370 0 373 -285h-179q-22 127 -198 127q-85 0 -129.5 -27.5t-44.5 -76.5q0 -75 127 -99l91 -16q147 -27 203 -48q145 -56 153 -191q1 -9 1 -18q0 -126 -102 -194t-297 -68z" glyph-name="Scaron" horiz-adv-x="837" unicode="Š"/><glyph d="M158 1035h174l60 -65h51l60 65h174l-137 -164h-245zM413 -28q-194 0 -292.5 71t-97.5 217h180q5 -61 57 -95t153 -35q96 0 148.5 30t52.5 80q0 43 -35 67t-112 37l-104 18q-56 10 -95 19.5t-84.5 29t-73 44.5t-46 66t-18.5 94q0 120 96.5 186.5t272.5 66.5 q370 0 373 -285h-179q-22 127 -198 127q-85 0 -129.5 -27.5t-44.5 -76.5q0 -75 127 -99l91 -16q147 -27 203 -48q145 -56 153 -191q1 -9 1 -18q0 -126 -102 -194t-297 -68z" glyph-name="scaron" horiz-adv-x="837" unicode="š"/><glyph d="M552 0h-39l-45 -39q45 -3 77.5 -31.5t32.5 -78.5q0 -72 -68 -101.5t-162 -11.5v87q38 -8 63 -5t36.5 10.5t11.5 18.5q0 12 -11.5 21t-36.5 11.5t-63 -8.5v61l77 66h-73v673h-314v167h829v-167h-315v-673z" glyph-name="Tcommaaccent" horiz-adv-x="904" unicode="Ţ"/><glyph d="M552 0h-39l-45 -39q45 -3 77.5 -31.5t32.5 -78.5q0 -72 -68 -101.5t-162 -11.5v87q38 -8 63 -5t36.5 10.5t11.5 18.5q0 12 -11.5 21t-36.5 11.5t-63 -8.5v61l77 66h-73v673h-314v167h829v-167h-315v-673z" glyph-name="tcommaaccent" horiz-adv-x="904" unicode="ţ"/><glyph d="M575 871h-245l-137 164h174l60 -65h51l60 65h174zM867 840v-167h-315v-673h-200v673h-314v167h829z" glyph-name="Tcaron" horiz-adv-x="904" unicode="Ť"/><glyph d="M575 871h-245l-137 164h174l60 -65h51l60 65h174zM867 840v-167h-315v-673h-200v673h-314v167h829z" glyph-name="tcaron" horiz-adv-x="904" unicode="ť"/><glyph d="M867 673h-315v-190h212v-149h-212v-334h-200v334h-209v149h209v190h-314v167h829v-167z" glyph-name="Tbar" horiz-adv-x="904" unicode="Ŧ"/><glyph d="M867 673h-315v-190h212v-149h-212v-334h-200v334h-209v149h209v190h-314v167h829v-167z" glyph-name="tbar" horiz-adv-x="904" unicode="ŧ"/><glyph d="M248 894v149h400v-149h-400zM448 -28q-197 0 -301 94.5t-104 283.5v490h201v-485q0 -102 51.5 -158.5t152.5 -56.5t153 56.5t52 158.5v485h200v-490q0 -189 -104 -283.5t-301 -94.5z" glyph-name="Umacron" horiz-adv-x="895" unicode="Ū"/><glyph d="M248 894v149h400v-149h-400zM448 -28q-197 0 -301 94.5t-104 283.5v490h201v-485q0 -102 51.5 -158.5t152.5 -56.5t153 56.5t52 158.5v485h200v-490q0 -189 -104 -283.5t-301 -94.5z" glyph-name="umacron" horiz-adv-x="895" unicode="ū"/><glyph d="M448 890q-110 0 -159 39t-48 125h127q1 -34 22 -53t58 -19t57.5 19t21.5 53h127q1 -86 -48 -125t-158 -39zM448 -28q-197 0 -301 94.5t-104 283.5v490h201v-485q0 -102 51.5 -158.5t152.5 -56.5t153 56.5t52 158.5v485h200v-490q0 -189 -104 -283.5t-301 -94.5z" glyph-name="Ubreve" horiz-adv-x="895" unicode="Ŭ"/><glyph d="M448 890q-110 0 -159 39t-48 125h127q1 -34 22 -53t58 -19t57.5 19t21.5 53h127q1 -86 -48 -125t-158 -39zM448 -28q-197 0 -301 94.5t-104 283.5v490h201v-485q0 -102 51.5 -158.5t152.5 -56.5t153 56.5t52 158.5v485h200v-490q0 -189 -104 -283.5t-301 -94.5z" glyph-name="ubreve" horiz-adv-x="895" unicode="ŭ"/><glyph d="M448 827q-54 0 -90.5 36.5t-36.5 88.5t36.5 89t90.5 37q53 0 89.5 -37t36.5 -89t-36.5 -88.5t-89.5 -36.5zM448 919q16 0 26.5 9.5t9.5 24.5q-3 35 -36 35q-15 0 -25 -10t-10 -25t10 -24.5t25 -9.5zM448 -28q-197 0 -301 94.5t-104 283.5v490h201v-485 q0 -102 51.5 -158.5t152.5 -56.5t153 56.5t52 158.5v485h200v-490q0 -189 -104 -283.5t-301 -94.5z" glyph-name="Uring" horiz-adv-x="895" unicode="Ů"/><glyph d="M448 827q-54 0 -90.5 36.5t-36.5 88.5t36.5 89t90.5 37q53 0 89.5 -37t36.5 -89t-36.5 -88.5t-89.5 -36.5zM448 919q16 0 26.5 9.5t9.5 24.5q-3 35 -36 35q-15 0 -25 -10t-10 -25t10 -24.5t25 -9.5zM448 -28q-197 0 -301 94.5t-104 283.5v490h201v-485 q0 -102 51.5 -158.5t152.5 -56.5t153 56.5t52 158.5v485h200v-490q0 -189 -104 -283.5t-301 -94.5z" glyph-name="uring" horiz-adv-x="895" unicode="ů"/><glyph d="M210 896l71 164h179l-71 -164h-179zM454 896l71 164h179l-71 -164h-179zM448 -28q-197 0 -301 94.5t-104 283.5v490h201v-485q0 -102 51.5 -158.5t152.5 -56.5t153 56.5t52 158.5v485h200v-490q0 -189 -104 -283.5t-301 -94.5z" glyph-name="Uhungarumlaut" horiz-adv-x="895" unicode="Ű"/><glyph d="M210 896l71 164h179l-71 -164h-179zM454 896l71 164h179l-71 -164h-179zM448 -28q-197 0 -301 94.5t-104 283.5v490h201v-485q0 -102 51.5 -158.5t152.5 -56.5t153 56.5t52 158.5v485h200v-490q0 -189 -104 -283.5t-301 -94.5z" glyph-name="uhungarumlaut" horiz-adv-x="895" unicode="ű"/><glyph d="M653 840h200v-490q0 -323 -301 -370v-1q-106 -13 -106 -58q0 -18 17.5 -32.5t54.5 -14.5v-115q-34 0 -68 6.5t-67.5 21t-54 44t-20.5 69.5q0 50 35 80q-300 47 -300 370v490h201v-485q0 -102 51.5 -158.5t152.5 -56.5t153 56.5t52 158.5v485z" glyph-name="Uogonek" horiz-adv-x="895" unicode="Ų"/><glyph d="M653 840h200v-490q0 -323 -301 -370v-1q-106 -13 -106 -58q0 -18 17.5 -32.5t54.5 -14.5v-115q-34 0 -68 6.5t-67.5 21t-54 44t-20.5 69.5q0 50 35 80q-300 47 -300 370v490h201v-485q0 -102 51.5 -158.5t152.5 -56.5t153 56.5t52 158.5v485z" glyph-name="uogonek" horiz-adv-x="895" unicode="ų"/><glyph d="M362 890l137 164h245l137 -164h-174l-60 65h-51l-60 -65h-174zM212 0l-188 840h201l134 -627h18l160 627h167l161 -627h18l133 627h202l-188 -840h-270l-130 530h-19l-130 -530h-269z" glyph-name="Wcircumflex" horiz-adv-x="1241" unicode="Ŵ"/><glyph d="M362 890l137 164h245l137 -164h-174l-60 65h-51l-60 -65h-174zM212 0l-188 840h201l134 -627h18l160 627h167l161 -627h18l133 627h202l-188 -840h-270l-130 530h-19l-130 -530h-269z" glyph-name="wcircumflex" horiz-adv-x="1241" unicode="ŵ"/><glyph d="M429 955l-60 -65h-174l137 164h245l137 -164h-174l-60 65h-51zM901 840l-347 -571v-269h-200v270l-346 570h212l224 -376h21l224 376h212z" glyph-name="Ycircumflex" horiz-adv-x="909" unicode="Ŷ"/><glyph d="M429 955l-60 -65h-174l137 164h245l137 -164h-174l-60 65h-51zM901 840l-347 -571v-269h-200v270l-346 570h212l224 -376h21l224 376h212z" glyph-name="ycircumflex" horiz-adv-x="909" unicode="ŷ"/><glyph d="M317 900q-34 0 -58.5 23t-24.5 56q0 34 24.5 57t58.5 23t58.5 -23t24.5 -57q0 -33 -24.5 -56t-58.5 -23zM590 900q-34 0 -58.5 23t-24.5 56q0 34 24.5 57t58.5 23t58.5 -23t24.5 -57q0 -33 -24.5 -56t-58.5 -23zM901 840l-347 -571v-269h-200v270l-346 570h212l224 -376 h21l224 376h212z" glyph-name="Ydieresis" horiz-adv-x="909" unicode="Ÿ"/><glyph d="M311 890l71 164h179l-71 -164h-179zM28 0v162l493 495v16h-480v167h735v-162l-497 -495v-16h491v-167h-742z" glyph-name="Zacute" horiz-adv-x="804" unicode="Ź"/><glyph d="M311 890l71 164h179l-71 -164h-179zM28 0v162l493 495v16h-480v167h735v-162l-497 -495v-16h491v-167h-742z" glyph-name="zacute" horiz-adv-x="804" unicode="ź"/><glyph d="M401 900q-34 0 -58.5 23t-24.5 56q0 34 24.5 57t58.5 23t58.5 -23t24.5 -57q0 -33 -24.5 -56t-58.5 -23zM28 0v162l493 495v16h-480v167h735v-162l-497 -495v-16h491v-167h-742z" glyph-name="Zdotaccent" horiz-adv-x="804" unicode="Ż"/><glyph d="M401 900q-34 0 -58.5 23t-24.5 56q0 34 24.5 57t58.5 23t58.5 -23t24.5 -57q0 -33 -24.5 -56t-58.5 -23zM28 0v162l493 495v16h-480v167h735v-162l-497 -495v-16h491v-167h-742z" glyph-name="zdotaccent" horiz-adv-x="804" unicode="ż"/><glyph d="M142 1035h174l60 -65h51l60 65h174l-137 -164h-245zM28 0v162l493 495v16h-480v167h735v-162l-497 -495v-16h491v-167h-742z" glyph-name="Zcaron" horiz-adv-x="804" unicode="Ž"/><glyph d="M142 1035h174l60 -65h51l60 65h174l-137 -164h-245zM28 0v162l493 495v16h-480v167h735v-162l-497 -495v-16h491v-167h-742z" glyph-name="zcaron" horiz-adv-x="804" unicode="ž"/><glyph d="M588 731q-51 0 -82.5 -27.5t-31.5 -89.5v-63h242v-155h-242v-160q0 -67 -20.5 -116.5t-57 -77.5t-80.5 -41t-97 -13q-106 0 -171 39v148q69 -29 127 -29q51 0 82.5 27.5t31.5 89.5v133h-241v155h241v90q0 67 20.5 116.5t57 77.5t80.5 41t97 13q107 0 172 -39v-148 q-65 29 -128 29z" glyph-name="florin" horiz-adv-x="763" unicode="ƒ"/><glyph d="M601 871h-245l-137 164h174l60 -65h51l60 65h174zM737 0l-52 141h-414l-52 -141h-206l325 840h280l326 -840h-207zM327 292h302l-132 359h-38z" glyph-name="uni01CD" unicode="Ǎ"/><glyph d="M601 871h-245l-137 164h174l60 -65h51l60 65h174zM737 0l-52 141h-414l-52 -141h-206l325 840h280l326 -840h-207zM327 292h302l-132 359h-38z" glyph-name="uni01CE" unicode="ǎ"/><glyph d="M-117 1035h174l60 -65h51l60 65h174l-137 -164h-245zM43 0v840h199v-840h-199z" glyph-name="uni01CF" horiz-adv-x="285" unicode="Ǐ"/><glyph d="M-117 1035h174l60 -65h51l60 65h174l-137 -164h-245zM43 0v840h199v-840h-199z" glyph-name="uni01D0" horiz-adv-x="285" unicode="ǐ"/><glyph d="M230 1039h174l60 -65h51l60 65h174l-137 -164h-245zM489 -28q-205 0 -333 125t-128 323t128 323t333 125q206 0 334 -125t128 -323t-128 -323t-334 -125zM489 145q114 0 189 76.5t75 198.5t-75 198.5t-189 76.5q-113 0 -188.5 -76.5t-75.5 -198.5t75.5 -198.5 t188.5 -76.5z" glyph-name="uni01D1" horiz-adv-x="979" unicode="Ǒ"/><glyph d="M230 1039h174l60 -65h51l60 65h174l-137 -164h-245zM489 -28q-205 0 -333 125t-128 323t128 323t333 125q206 0 334 -125t128 -323t-128 -323t-334 -125zM489 145q114 0 189 76.5t75 198.5t-75 198.5t-189 76.5q-113 0 -188.5 -76.5t-75.5 -198.5t75.5 -198.5 t188.5 -76.5z" glyph-name="uni01D2" horiz-adv-x="979" unicode="ǒ"/><glyph d="M189 1035h174l60 -65h51l60 65h174l-137 -164h-245zM448 -28q-197 0 -301 94.5t-104 283.5v490h201v-485q0 -102 51.5 -158.5t152.5 -56.5t153 56.5t52 158.5v485h200v-490q0 -189 -104 -283.5t-301 -94.5z" glyph-name="uni01D3" horiz-adv-x="895" unicode="Ǔ"/><glyph d="M189 1035h174l60 -65h51l60 65h174l-137 -164h-245zM448 -28q-197 0 -301 94.5t-104 283.5v490h201v-485q0 -102 51.5 -158.5t152.5 -56.5t153 56.5t52 158.5v485h200v-490q0 -189 -104 -283.5t-301 -94.5z" glyph-name="uni01D4" horiz-adv-x="895" unicode="ǔ"/><glyph d="M575 -22q-19 -18 -19 -45q0 -24 17 -40.5t55 -16.5v-115q-35 0 -68 6.5t-67 21.5t-54.5 45.5t-20.5 72.5q0 39 17 67q-183 17 -295 139.5t-112 306.5q0 198 128 323t333 125q206 0 334 -125t128 -323q0 -176 -102.5 -296t-273.5 -146zM225 420q0 -122 75.5 -198.5 t188.5 -76.5q114 0 189 76.5t75 198.5t-75 198.5t-189 76.5q-113 0 -188.5 -76.5t-75.5 -198.5z" glyph-name="uni01EA" horiz-adv-x="979" unicode="Ǫ"/><glyph d="M413 -28q-194 0 -292.5 71t-97.5 217h180q5 -61 57 -95t153 -35q96 0 148.5 30t52.5 80q0 43 -35 67t-112 37l-104 18q-56 10 -95 19.5t-84.5 29t-73 44.5t-46 66t-18.5 94q0 120 96.5 186.5t272.5 66.5q370 0 373 -285h-179q-22 127 -198 127q-85 0 -129.5 -27.5 t-44.5 -76.5q0 -75 127 -99l91 -16q147 -27 203 -48q145 -56 153 -191q1 -9 1 -18q0 -126 -102 -194t-297 -68zM375 -420q16 91 14 207h-84v150h228v-35q0 -217 -46 -322h-112z" glyph-name="Scommaaccent" horiz-adv-x="837" unicode="Ș"/><glyph d="M413 -28q-194 0 -292.5 71t-97.5 217h180q5 -61 57 -95t153 -35q96 0 148.5 30t52.5 80q0 43 -35 67t-112 37l-104 18q-56 10 -95 19.5t-84.5 29t-73 44.5t-46 66t-18.5 94q0 120 96.5 186.5t272.5 66.5q370 0 373 -285h-179q-22 127 -198 127q-85 0 -129.5 -27.5 t-44.5 -76.5q0 -75 127 -99l91 -16q147 -27 203 -48q145 -56 153 -191q1 -9 1 -18q0 -126 -102 -194t-297 -68zM375 -420q16 91 14 207h-84v150h228v-35q0 -217 -46 -322h-112z" glyph-name="scommaaccent" horiz-adv-x="837" unicode="ș"/><glyph d="M38 840h829v-167h-315v-673h-200v673h-314v167zM340 -213v150h228v-35q0 -217 -46 -322h-112q16 91 14 207h-84z" glyph-name="uni021A" horiz-adv-x="904" unicode="Ț"/><glyph d="M38 840h829v-167h-315v-673h-200v673h-314v167zM340 -213v150h228v-35q0 -217 -46 -322h-112q16 91 14 207h-84z" glyph-name="uni021B" horiz-adv-x="904" unicode="ț"/><glyph d="M0 680l137 164h245l137 -164h-174l-60 65h-51l-60 -65h-174z" glyph-name="circumflex" horiz-adv-x="519" unicode="ˆ"/><glyph d="M0 825h174l60 -65h51l60 65h174l-137 -164h-245z" glyph-name="caron" horiz-adv-x="519" unicode="ˇ"/><glyph d="M207 680q-110 0 -159 39t-48 125h127q1 -34 22 -53t58 -19t57.5 19t21.5 53h127q1 -86 -48 -125t-158 -39z" glyph-name="breve" horiz-adv-x="413" unicode="˘"/><glyph d="M83 690q-34 0 -58.5 23t-24.5 56q0 34 24.5 57t58.5 23t58.5 -23t24.5 -57q0 -33 -24.5 -56t-58.5 -23z" glyph-name="dotaccent" horiz-adv-x="166" unicode="˙"/><glyph d="M127 617q-53 0 -90 36.5t-37 88.5t36.5 89t90.5 37q53 0 89.5 -37t36.5 -89t-36.5 -88.5t-89.5 -36.5zM127 709q16 0 26.5 9.5t9.5 24.5q-3 35 -36 35q-15 0 -25 -10t-10 -25t10 -24.5t25 -9.5z" glyph-name="ring" horiz-adv-x="253" unicode="˚"/><glyph d="M210 -241q-35 0 -68 6.5t-67 21.5t-54.5 45.5t-20.5 72.5q0 38 17 67t42 45t58.5 26t60.5 13t53 3v-59q-49 0 -71 -20.5t-22 -48.5q0 -24 17 -40.5t55 -16.5v-115z" glyph-name="ogonek" horiz-adv-x="231" unicode="˛"/><glyph d="M313 677q-43 0 -100 33.5t-86 33.5q-53 0 -59 -47h-67q-7 73 33.5 110.5t103.5 37.5q44 0 101.5 -33.5t85.5 -33.5q52 0 59 47h66q7 -73 -33 -110.5t-104 -37.5z" glyph-name="tilde" horiz-adv-x="452" unicode="˜"/><glyph d="M0 680l71 164h179l-71 -164h-179zM244 680l71 164h179l-71 -164h-179z" glyph-name="hungarumlaut" horiz-adv-x="475" unicode="˝"/><glyph d="M-159 -420q16 91 14 207h-84v150h228v-35q0 -217 -46 -322h-112z" glyph-name="uni0326" horiz-adv-x="0" unicode="̦"/><glyph d="M618 840l326 -840h-931l325 840h280zM280 162h396l-185 489h-26z" glyph-name="Delta" unicode="Δ"/><glyph d="M28 0v156h124v37q-116 118 -116 281q0 168 123 281t321 113q199 0 322 -113t123 -281q0 -162 -117 -281v-37h125v-156h-332v240q126 74 126 211q0 101 -68.5 172.5t-178.5 71.5q-109 0 -177.5 -71.5t-68.5 -172.5q0 -138 126 -211v-240h-332z" glyph-name="Omega" horiz-adv-x="960" unicode="Ω"/><glyph d="M524 680h199v-680h-194l-5 94h-21q-32 -52 -90 -80t-126 -28q-24 0 -45 3v-139h-199v830h199v-404q0 -67 37 -98t94 -31q70 0 110.5 39.5t40.5 74.5v419z" glyph-name="mu" horiz-adv-x="766" unicode="μ"/><glyph d="M823 160q13 0 32.5 4.5t24.5 4.5v-139q-37 -38 -128 -38q-181 0 -181 182v358h-239v-532h-199v532h-90v148h818v-148h-90v-322q0 -50 52 -50z" glyph-name="pi" horiz-adv-x="923" unicode="π"/><glyph d="M713 890h-179l-71 164h179zM212 0l-188 840h201l134 -627h18l160 627h167l161 -627h18l133 627h202l-188 -840h-270l-130 530h-19l-130 -530h-269z" glyph-name="Wgrave" horiz-adv-x="1241" unicode="Ẁ"/><glyph d="M713 890h-179l-71 164h179zM212 0l-188 840h201l134 -627h18l160 627h167l161 -627h18l133 627h202l-188 -840h-270l-130 530h-19l-130 -530h-269z" glyph-name="wgrave" horiz-adv-x="1241" unicode="ẁ"/><glyph d="M531 890l71 164h179l-71 -164h-179zM212 0l-188 840h201l134 -627h18l160 627h167l161 -627h18l133 627h202l-188 -840h-270l-130 530h-19l-130 -530h-269z" glyph-name="Wacute" horiz-adv-x="1241" unicode="Ẃ"/><glyph d="M531 890l71 164h179l-71 -164h-179zM212 0l-188 840h201l134 -627h18l160 627h167l161 -627h18l133 627h202l-188 -840h-270l-130 530h-19l-130 -530h-269z" glyph-name="wacute" horiz-adv-x="1241" unicode="ẃ"/><glyph d="M484 900q-34 0 -58.5 23t-24.5 56q0 34 24.5 57t58.5 23t58.5 -23t24.5 -57q0 -33 -24.5 -56t-58.5 -23zM757 900q-34 0 -58.5 23t-24.5 56q0 34 24.5 57t58.5 23t58.5 -23t24.5 -57q0 -33 -24.5 -56t-58.5 -23zM212 0l-188 840h201l134 -627h18l160 627h167l161 -627h18 l133 627h202l-188 -840h-270l-130 530h-19l-130 -530h-269z" glyph-name="Wdieresis" horiz-adv-x="1241" unicode="Ẅ"/><glyph d="M484 900q-34 0 -58.5 23t-24.5 56q0 34 24.5 57t58.5 23t58.5 -23t24.5 -57q0 -33 -24.5 -56t-58.5 -23zM757 900q-34 0 -58.5 23t-24.5 56q0 34 24.5 57t58.5 23t58.5 -23t24.5 -57q0 -33 -24.5 -56t-58.5 -23zM212 0l-188 840h201l134 -627h18l160 627h167l161 -627h18 l133 627h202l-188 -840h-270l-130 530h-19l-130 -530h-269z" glyph-name="wdieresis" horiz-adv-x="1241" unicode="ẅ"/><glyph d="M621 494q125 10 201 -69t76 -189q0 -119 -80.5 -188.5t-219.5 -69.5q-296 0 -296 258h167q3 -52 37.5 -86t89.5 -34q61 0 95 33.5t34 86.5q0 56 -38.5 91t-90.5 35q-49 0 -83 -29h-168l216 340h-202q-114 0 -114 -124v-549h-202v583q0 139 69 198t213 59h528z" glyph-name="uni1E9E" horiz-adv-x="925" unicode="ẞ"/><glyph d="M546 890h-179l-71 164h179zM901 840l-347 -571v-269h-200v270l-346 570h212l224 -376h21l224 376h212z" glyph-name="Ygrave" horiz-adv-x="909" unicode="Ỳ"/><glyph d="M546 890h-179l-71 164h179zM901 840l-347 -571v-269h-200v270l-346 570h212l224 -376h21l224 376h212z" glyph-name="ygrave" horiz-adv-x="909" unicode="ỳ"/><glyph d="M40 327v167h820v-167h-820z" glyph-name="endash" horiz-adv-x="900" unicode="–"/><glyph d="M40 327v167h900v-167h-900z" glyph-name="emdash" horiz-adv-x="980" unicode="—"/><glyph d="M213 841q-18 -104 -16 -231h94v-167h-254v39q0 125 15 219t36 140h125z" glyph-name="quoteleft" horiz-adv-x="329" unicode="‘"/><glyph d="M116 442q18 104 16 231h-94v167h254v-39q0 -125 -15 -219t-36 -140h-125z" glyph-name="quoteright" horiz-adv-x="329" unicode="’"/><glyph d="M116 -231q18 104 16 231h-94v167h254v-39q0 -125 -15 -219t-36 -140h-125z" glyph-name="quotesinglbase" horiz-adv-x="329" unicode="‚"/><glyph d="M196 840q-16 -101 -14 -231h85v-167h-230v39q0 246 47 359h112zM472 840q-16 -101 -14 -231h85v-167h-230v39q0 246 47 359h112z" glyph-name="quotedblleft" horiz-adv-x="581" unicode="“"/><glyph d="M109 442q16 101 14 231h-85v167h230v-39q0 -246 -47 -359h-112zM385 442q16 101 14 231h-85v167h230v-39q0 -246 -47 -359h-112z" glyph-name="quotedblright" horiz-adv-x="581" unicode="”"/><glyph d="M109 -246q16 101 14 231h-85v167h230v-39q0 -246 -47 -359h-112zM385 -246q16 101 14 231h-85v167h230v-39q0 -246 -47 -359h-112z" glyph-name="quotedblbase" horiz-adv-x="581" unicode="„"/><glyph d="M662 700v-160h-222v-222h-168v222h-222v160h222v223h168v-223h222z" glyph-name="dagger" horiz-adv-x="712" unicode="†"/><glyph d="M440 209h222v-160h-222v-222h-168v222h-222v160h222v331h-222v160h222v223h168v-223h222v-160h-222v-331z" glyph-name="daggerdbl" horiz-adv-x="712" unicode="‡"/><glyph d="M273 247q-71 0 -122 51t-51 122t51 122t122 51q70 0 120.5 -51t50.5 -122t-50.5 -122t-120.5 -51z" glyph-name="bullet" horiz-adv-x="544" unicode="•"/><glyph d="M145 -16q-43 0 -74.5 31t-31.5 74t31.5 74.5t74.5 31.5q44 0 75.5 -31t31.5 -75q0 -43 -31.5 -74t-75.5 -31zM440 -16q-43 0 -74.5 31t-31.5 74t31 74.5t75 31.5t75.5 -31t31.5 -75q0 -43 -31.5 -74t-75.5 -31zM734 -16q-43 0 -74.5 31t-31.5 74t31 74.5t75 31.5 t75.5 -31t31.5 -75q0 -43 -31.5 -74t-75.5 -31z" glyph-name="ellipsis" horiz-adv-x="880" unicode="…"/><glyph d="M314 -31l-92 64l547 840l92 -63zM257 433q-102 0 -157 59t-55 151q0 91 55 150t157 59q103 0 158 -59t55 -150q0 -92 -55 -151t-158 -59zM257 562q39 0 59.5 23t20.5 58t-20.5 57.5t-59.5 22.5t-59 -22t-20 -58q0 -35 20 -58t59 -23zM825 -12q-103 0 -158 59t-55 151 q0 91 55 150t158 59q102 0 157 -59t55 -150q0 -92 -55 -151t-157 -59zM1297 -12q-103 0 -157.5 59t-54.5 151q0 91 54.5 150t157.5 59t157.5 -59t54.5 -150q0 -92 -54.5 -151t-157.5 -59zM825 117q39 0 59 23t20 58q0 36 -20 58.5t-59 22.5t-59.5 -22.5t-20.5 -58.5 q0 -35 20.5 -58t59.5 -23zM1297 117q39 0 59.5 23t20.5 58q0 36 -20.5 58.5t-59.5 22.5t-59 -22.5t-20 -58.5q0 -35 20 -58t59 -23z" glyph-name="perthousand" horiz-adv-x="1555" unicode="‰"/><glyph d="M461 135h-207l-194 285l194 285h207l-194 -285z" glyph-name="guilsinglleft" horiz-adv-x="521" unicode="‹"/><glyph d="M60 135l194 285l-194 285h207l194 -285l-194 -285h-207z" glyph-name="guilsinglright" horiz-adv-x="521" unicode="›"/><glyph d="M527 145q163 0 212 157h182q-14 -90 -52.5 -156t-93.5 -102.5t-116.5 -54t-131.5 -17.5q-165 0 -280 92.5t-147 246.5h-72v79h62q-1 10 -1 30v16h-61v78h69q28 161 144.5 257.5t285.5 96.5q69 0 130.5 -17.5t117 -54t94 -102.5t52.5 -155h-182q-25 79 -80 117.5 t-132 38.5q-84 0 -148 -49t-90 -132h194v-78h-207v-16q0 -20 1 -30h206v-79h-188q27 -76 89.5 -121t142.5 -45z" glyph-name="Euro" horiz-adv-x="949" unicode="€"/><glyph d="M850 432q-89 0 -148.5 60t-59.5 147t59.5 147t148.5 60t148.5 -60t59.5 -147t-59.5 -147t-148.5 -60zM43 0v840h172l181 -481h18v481h177v-840h-172l-181 481h-18v-481h-177zM850 563q32 0 53.5 22t21.5 54t-21.5 54.5t-53.5 22.5q-33 0 -54.5 -22t-21.5 -55 q0 -32 21.5 -54t54.5 -22zM661 197v159h378v-159h-378z" glyph-name="afii61352" horiz-adv-x="1085" unicode="№"/><glyph d="M653 840h143v-371h-98v230h-10l-43 -230h-106l-43 230h-10v-230h-99v281h-112v-281h-105v281h-132v90h492l55 -267h14z" glyph-name="trademark" horiz-adv-x="834" unicode="™"/><glyph d="M377 862q81 0 147.5 -23t120.5 -72.5t84 -138t30 -209.5q0 -441 -376 -441q-169 0 -264 78.5t-95 212.5t91 204t239 70q149 0 219 -65q2 231 -196 231q-71 0 -117 -27t-58 -82h-163q3 126 93.5 194t244.5 68zM385 130q80 0 129 38.5t49 104.5t-48 103.5t-130 37.5 q-83 0 -131.5 -37t-48.5 -104q0 -66 50 -104.5t130 -38.5z" glyph-name="partialdiff" horiz-adv-x="783" unicode="∂"/><glyph d="M43 900h623v-1050h-200v883h-224v-883h-199v1050z" glyph-name="product" horiz-adv-x="708" unicode="∏"/><glyph d="M43 -150v167l325 349l-325 367v167h623v-167h-406l315 -354v-26l-315 -336h406v-167h-623z" glyph-name="summation" horiz-adv-x="708" unicode="∑"/><glyph d="M50 337v167h562v-167h-562z" glyph-name="minus" horiz-adv-x="662" unicode="−"/><glyph d="M305 -150l-125 441h-130v167h247l117 -413h11l174 855h164l-220 -1050h-238z" glyph-name="radical" horiz-adv-x="813" unicode="√"/><glyph d="M608 628q87 0 131.5 -57t44.5 -150q0 -95 -44.5 -152t-131.5 -57q-62 0 -104.5 31.5t-86.5 94.5q-44 -63 -85.5 -94.5t-103.5 -31.5q-89 0 -133.5 57t-44.5 152q0 93 45 150t133 57q62 0 103 -32t86 -95q44 63 86.5 95t104.5 32zM247 334q27 0 51 19.5t63 67.5 q-40 48 -63.5 67.5t-50.5 19.5q-38 0 -55 -25t-17 -62q0 -87 72 -87zM587 334q72 0 72 87q0 37 -17 62t-55 25q-27 0 -50.5 -19.5t-62.5 -67.5q38 -48 62 -67.5t51 -19.5z" glyph-name="infinity" horiz-adv-x="834" unicode="∞"/><glyph d="M232 -150q-107 0 -172 39v148q66 -28 128 -28q114 0 114 117v515q0 67 20.5 116.5t57 77.5t80.5 41t97 13q106 0 171 -39v-148q-65 29 -127 29q-51 0 -82.5 -27.5t-31.5 -89.5v-516q0 -67 -20.5 -116.5t-57 -77.5t-80.5 -41t-97 -13z" glyph-name="integral" horiz-adv-x="788" unicode="∫"/><glyph d="M441 432q-35 0 -69 13.5t-57 29t-52.5 28.5t-54.5 13q-66 0 -73 -59h-84q-8 91 42.5 138t129.5 47q54 0 125.5 -42t106.5 -42q32 1 51 16.5t23 42.5h84q8 -91 -42.5 -137.5t-129.5 -47.5zM441 197q-35 0 -69 13.5t-57 29t-52.5 28.5t-54.5 13q-66 0 -73 -59h-84 q-8 91 42.5 138t129.5 47q54 0 125.5 -42t106.5 -42q32 1 51 16.5t23 42.5h84q8 -91 -42.5 -137.5t-129.5 -47.5z" glyph-name="approxequal" horiz-adv-x="664" unicode="≈"/><glyph d="M612 446h-173l-23 -52h196v-167h-272l-77 -172h-202l77 172h-88v167h164l23 52h-187v168h263l87 194h202l-87 -194h97v-168z" glyph-name="notequal" horiz-adv-x="662" unicode="≠"/><glyph d="M603 247l-554 200v222l554 202v-173l-393 -129v-22l393 -129v-171zM50 0v167h562v-167h-562z" glyph-name="lessequal" horiz-adv-x="662" unicode="≤"/><glyph d="M69 247v171l393 129v22l-393 129v173l554 -202v-222zM622 0h-562v167h562v-167z" glyph-name="greaterequal" horiz-adv-x="672" unicode="≥"/><glyph d="M260 0q-14 0 -20 13l-186 395q-6 12 0 24l186 395q6 13 20 13h200q16 0 20 -13l186 -395q6 -12 0 -24l-186 -395q-4 -13 -20 -13h-200zM360 147l128 273l-128 273l-128 -273z" glyph-name="lozenge" horiz-adv-x="720" unicode="◊"/><glyph d="M931 444q13 -219 -108 -345.5t-332 -126.5q-207 0 -335 125t-128 323t129 323t334 125q157 0 273.5 -73.5t148.5 -222.5h-199q-25 57 -81.5 90t-138.5 33q-116 0 -192.5 -77t-76.5 -198t74 -198t192 -77q52 0 97.5 14t86 52.5t55.5 97.5h-253v135h454z" glyph-name="G.aalt" horiz-adv-x="964"/><glyph d="M142 900q-34 0 -58.5 23t-24.5 56q0 34 24.5 57t58.5 23t58.5 -23t24.5 -57q0 -33 -24.5 -56t-58.5 -23zM43 0v840h199v-840h-199z" glyph-name="i.aalt" horiz-adv-x="285"/><glyph d="M931 444q13 -219 -108 -345.5t-332 -126.5q-207 0 -335 125t-128 323t129 323t334 125q157 0 273.5 -73.5t148.5 -222.5h-199q-25 57 -81.5 90t-138.5 33q-116 0 -192.5 -77t-76.5 -198t74 -198t192 -77q52 0 97.5 14t86 52.5t55.5 97.5h-253v135h454z" glyph-name="g.aalt" horiz-adv-x="964"/></font>
</defs>
</svg>
