<svg width="12" height="12" viewBox="0 0 12 12" fill="none" xmlns="http://www.w3.org/2000/svg">
<path fill-rule="evenodd" clip-rule="evenodd" d="M6.53172 2.02829C6.79209 1.76791 7.21424 1.76791 7.47461 2.02829L10.9749 5.52861C11.1 5.65364 11.1702 5.82323 11.1702 6.00005C11.1702 6.17688 11.1 6.34647 10.9749 6.4715L7.47461 9.97182C7.21424 10.2322 6.79209 10.2322 6.53172 9.97182C6.27134 9.71145 6.27134 9.2893 6.53172 9.02893L8.89386 6.66678L1.50266 6.66678C1.13444 6.66678 0.835937 6.36828 0.835937 6.00005C0.835938 5.63183 1.13444 5.33333 1.50266 5.33333L8.89386 5.33333L6.53172 2.97118C6.27134 2.71081 6.27134 2.28866 6.53172 2.02829Z" fill="#E5E1E1"/>
</svg>
