<svg width="324" height="100" viewBox="0 0 324 100" fill="none" xmlns="http://www.w3.org/2000/svg">
<path d="M67.85 61.3202C67.85 74.4902 57.34 85.1302 44.04 85.1302C30.87 85.1302 20.36 74.7502 20.36 61.3202C20.36 55.0002 22.75 49.4102 26.55 45.2202L10.45 61.3202L2 52.8702L20.16 34.9102C22.62 32.4502 23.89 29.2602 23.89 25.7302V3.18018H35.8V25.7302C35.8 32.6502 33.34 38.5002 28.55 43.2902L28.02 43.8202C32.21 39.9602 37.93 37.6302 44.05 37.6302C57.54 37.6402 67.85 48.3502 67.85 61.3202ZM57.08 61.3202C57.08 54.2702 51.23 48.5502 44.04 48.5502C36.79 48.5502 31.14 54.5402 31.14 61.3202C31.14 68.3002 36.86 74.2202 44.04 74.2202C51.49 74.2202 57.08 68.1702 57.08 61.3202Z" fill="#E5E1E1"/>
<path d="M106.961 38.1704C111.961 38.1704 115.831 39.2104 118.591 41.3004C121.351 43.3904 122.731 46.3004 122.731 50.0304C122.731 52.7704 122.001 55.0204 120.551 56.7704C119.091 58.5304 117.001 59.7104 114.261 60.3204C121.081 61.4904 124.491 65.0804 124.491 71.0704C124.491 75.0204 123.021 78.1304 120.091 80.3904C117.161 82.6504 112.981 83.7804 107.551 83.7804H90.2109V38.1704H106.961ZM97.7009 57.5304H107.151C109.711 57.5304 111.701 56.9404 113.111 55.7704C114.521 54.6004 115.231 52.9904 115.231 50.9504C115.231 48.9104 114.521 47.3104 113.111 46.1604C111.701 45.0104 109.711 44.4304 107.151 44.4304H97.7009V57.5304ZM97.7009 77.4704H107.601C110.551 77.4704 112.821 76.8704 114.411 75.6804C116.001 74.4904 116.791 72.8204 116.791 70.6904C116.791 68.4704 115.991 66.7604 114.381 65.5404C112.771 64.3304 110.511 63.7204 107.601 63.7204H97.7009V77.4704Z" fill="#E5E1E1"/>
<path d="M127.97 58.1505C129.34 55.5705 131.25 53.5705 133.7 52.1605C136.15 50.7505 138.97 50.0405 142.14 50.0405C145.35 50.0405 148.19 50.6905 150.64 52.0005C153.09 53.3005 155.03 55.1505 156.44 57.5405C157.85 59.9305 158.58 62.7305 158.62 65.9505C158.62 66.8205 158.55 67.7105 158.42 68.6205H133.27V69.0005C133.44 71.9105 134.36 74.2105 136.01 75.9105C137.66 77.6005 139.85 78.4505 142.59 78.4505C144.76 78.4505 146.59 77.9405 148.06 76.9205C149.54 75.9005 150.51 74.4605 150.99 72.5905H158.03C157.42 75.9805 155.78 78.7605 153.11 80.9305C150.44 83.1005 147.1 84.1905 143.11 84.1905C139.63 84.1905 136.6 83.4805 134.02 82.0705C131.43 80.6605 129.44 78.6705 128.03 76.1105C126.62 73.5505 125.91 70.5705 125.91 67.1805C125.92 63.7405 126.61 60.7305 127.97 58.1505ZM151.47 63.4605C151.17 61.0305 150.2 59.1305 148.57 57.7605C146.94 56.3905 144.89 55.7105 142.41 55.7105C140.11 55.7105 138.12 56.4205 136.45 57.8305C134.78 59.2405 133.81 61.1205 133.55 63.4705H151.47V63.4605Z" fill="#E5E1E1"/>
<path d="M192.72 77.6603V83.7903H189.01C186.84 83.7903 185.27 83.3303 184.32 82.4203C183.36 81.5103 182.89 80.1803 182.89 78.4503C180.37 82.2703 176.7 84.1803 171.88 84.1803C168.14 84.1803 165.15 83.3103 162.89 81.5703C160.63 79.8303 159.5 77.4403 159.5 74.4003C159.5 70.9703 160.72 68.3303 163.15 66.4803C165.58 64.6303 169.12 63.7103 173.77 63.7103H182.18V61.7003C182.18 59.8303 181.53 58.3703 180.23 57.3003C178.93 56.2403 177.12 55.7003 174.82 55.7003C172.78 55.7003 171.09 56.1503 169.77 57.0403C168.44 57.9303 167.65 59.1203 167.39 60.5903H160.48C160.83 57.2503 162.3 54.6503 164.91 52.8003C167.52 50.9503 170.93 50.0303 175.14 50.0303C179.61 50.0303 183.07 51.0703 185.5 53.1603C187.93 55.2503 189.15 58.2403 189.15 62.1503V75.3103C189.15 76.8703 189.89 77.6603 191.37 77.6603H192.72ZM182.17 68.9303H173.44C171.27 68.9303 169.6 69.3503 168.42 70.2003C167.25 71.0503 166.66 72.3003 166.66 73.9503C166.66 75.3803 167.21 76.5403 168.32 77.4003C169.43 78.2703 170.94 78.7003 172.85 78.7003C175.76 78.7003 178.03 77.9203 179.66 76.3503C181.29 74.7903 182.13 72.7003 182.17 70.0903V68.9303Z" fill="#E5E1E1"/>
<path d="M195.491 56.6203H189.691V50.4304H195.491V41.1104H202.591V50.4304H210.611V56.6203H202.591V74.0203C202.591 75.3203 202.851 76.2504 203.371 76.7904C203.891 77.3304 204.781 77.6003 206.041 77.6003H211.381V83.7904H204.601C201.431 83.7904 199.121 83.0504 197.661 81.5704C196.201 80.0904 195.481 77.8104 195.481 74.7304V56.6203H195.491Z" fill="#E5E1E1"/>
<path d="M239.25 52.0906C241.64 53.4606 243.51 55.4406 244.85 58.0206C246.2 60.6006 246.87 63.6406 246.87 67.1106C246.87 70.5006 246.2 73.4906 244.85 76.0706C243.5 78.6606 241.63 80.6506 239.25 82.0706C236.86 83.4806 234.15 84.1906 231.11 84.1906C228.63 84.1906 226.48 83.7306 224.66 82.8206C222.84 81.9106 221.38 80.6706 220.29 79.1106V96.8306H213.25V50.4306H219.38L220.23 55.3806C222.92 51.8206 226.55 50.0406 231.11 50.0406C234.14 50.0306 236.86 50.7206 239.25 52.0906ZM237 75.1206C238.8 73.0306 239.7 70.3606 239.7 67.1106C239.7 63.8106 238.8 61.1406 237 59.0906C235.2 57.0506 232.84 56.0306 229.93 56.0306C227.02 56.0306 224.67 57.0406 222.89 59.0606C221.11 61.0806 220.22 63.7206 220.22 66.9806C220.22 70.3306 221.11 73.0406 222.89 75.1206C224.67 77.2106 227.02 78.2506 229.93 78.2506C232.84 78.2506 235.2 77.2106 237 75.1206Z" fill="#E5E1E1"/>
<path d="M257.14 82.0605C254.55 80.6505 252.56 78.6505 251.14 76.0705C249.73 73.4905 249.02 70.5005 249.02 67.1105C249.02 63.7705 249.73 60.8005 251.14 58.2205C252.55 55.6305 254.55 53.6305 257.14 52.1905C259.72 50.7605 262.69 50.0405 266.03 50.0405C269.37 50.0405 272.34 50.7605 274.92 52.1905C277.5 53.6205 279.5 55.6305 280.91 58.2205C282.32 60.8105 283.03 63.7705 283.03 67.1105C283.03 70.5005 282.32 73.4905 280.91 76.0705C279.5 78.6605 277.5 80.6505 274.92 82.0605C272.33 83.4705 269.37 84.1805 266.03 84.1805C262.68 84.1805 259.72 83.4705 257.14 82.0605ZM273.17 75.0905C274.97 73.0305 275.87 70.3705 275.87 67.1105C275.87 63.8505 274.97 61.1905 273.17 59.1305C271.37 57.0705 268.99 56.0305 266.03 56.0305C263.08 56.0305 260.71 57.0605 258.93 59.1305C257.15 61.1905 256.26 63.8505 256.26 67.1105C256.26 70.3705 257.15 73.0305 258.93 75.0905C260.71 77.1505 263.08 78.1905 266.03 78.1905C268.98 78.1805 271.36 77.1505 273.17 75.0905Z" fill="#E5E1E1"/>
<path d="M303.891 50.4204V57.0004H300.761C297.851 57.0004 295.741 57.9404 294.441 59.8304C293.141 61.7204 292.481 64.1204 292.481 67.0304V83.7804H285.441V50.4204H291.701L292.481 55.4404C293.441 53.8804 294.671 52.6504 296.191 51.7604C297.711 50.8704 299.751 50.4204 302.321 50.4204H303.891V50.4204Z" fill="#E5E1E1"/>
<path d="M306.17 41.1104H313.21V50.4304H321.29V56.6203H313.21V74.0203C313.21 75.3203 313.47 76.2504 313.99 76.7904C314.51 77.3304 315.4 77.6104 316.66 77.6104H322V83.8004H315.22C312.05 83.8004 309.75 83.0603 308.31 81.5903C306.88 80.1103 306.16 77.8304 306.16 74.7504V41.1104H306.17Z" fill="#E5E1E1"/>
</svg>
