<svg width="381" height="86" viewBox="0 0 381 86" fill="none" xmlns="http://www.w3.org/2000/svg">
<g clip-path="url(#clip0_447_83)">
<path d="M119 13.28C118.302 10.7006 116.937 8.35024 115.043 6.46507C113.149 4.57989 110.793 3.22622 108.21 2.54C98.73 0 60.74 0 60.74 0C60.74 0 22.74 0 13.28 2.54C10.7057 3.23203 8.3584 4.58849 6.47344 6.47344C4.58849 8.3584 3.23203 10.7057 2.54 13.28C0 22.75 0 42.52 0 42.52C0 42.52 0 62.29 2.54 71.76C3.23203 74.3343 4.58849 76.6816 6.47344 78.5666C8.3584 80.4515 10.7057 81.808 13.28 82.5C22.75 85 60.74 85 60.74 85C60.74 85 98.74 85 108.21 82.46C110.788 81.7773 113.141 80.4296 115.035 78.5518C116.928 76.6741 118.296 74.3321 119 71.76C121.53 62.29 121.53 42.52 121.53 42.52C121.53 42.52 121.48 22.75 119 13.28Z" fill="#E5E1E1"/>
<path d="M48.5898 60.7398L80.1598 42.5198L48.5898 24.2998V60.7398Z" fill="#E5E1E1"/>
<path d="M176.339 77.3604C173.786 75.5338 171.967 72.857 171.209 69.8104C170.074 65.3559 169.562 60.7654 169.689 56.1704V48.4304C169.546 43.7645 170.133 39.1049 171.429 34.6204C172.299 31.5321 174.219 28.8443 176.859 27.0204C179.788 25.3067 183.149 24.4767 186.539 24.6304C190.479 24.6304 193.636 25.4404 196.009 27.0604C198.557 28.9316 200.397 31.6103 201.229 34.6604C202.462 39.1425 203.018 43.7838 202.879 48.4304V56.1704C203.01 60.7844 202.468 65.3929 201.269 69.8504C200.473 72.9034 198.629 75.5795 196.059 77.4104C193.646 79.0037 190.386 79.8004 186.279 79.8004C182.052 79.8004 178.739 78.987 176.339 77.3604ZM189.799 69.0004C190.466 67.2737 190.799 64.437 190.799 60.4904V43.9204C190.799 40.0904 190.469 37.3004 189.799 35.5304C189.59 34.7603 189.131 34.0817 188.493 33.6018C187.856 33.122 187.077 32.8681 186.279 32.8804C185.494 32.8795 184.732 33.1394 184.111 33.619C183.49 34.0987 183.046 34.771 182.849 35.5304C182.179 37.3004 181.849 40.0904 181.849 43.9204V60.5104C181.849 64.4504 182.182 67.287 182.849 69.0204C183.046 69.7843 183.497 70.4587 184.127 70.9329C184.758 71.4071 185.53 71.6531 186.319 71.6304C187.108 71.6383 187.878 71.3845 188.507 70.9087C189.137 70.4328 189.591 69.7617 189.799 69.0004Z" fill="#E5E1E1"/>
<path d="M360.862 56.2896V58.9996C360.825 61.5631 360.925 64.1268 361.162 66.6796C361.229 68.0186 361.665 69.313 362.422 70.4196C362.791 70.8277 363.249 71.1454 363.761 71.3483C364.272 71.5512 364.823 71.6337 365.372 71.5896C366.127 71.6616 366.886 71.5009 367.548 71.1291C368.209 70.7573 368.741 70.1922 369.072 69.5096C369.739 68.1163 370.099 65.7829 370.152 62.5096L380.492 63.1196C380.561 63.7538 380.591 64.3917 380.582 65.0296C380.582 69.9496 379.249 73.6163 376.582 76.0296C373.882 78.4596 370.082 79.6796 365.152 79.6796C359.252 79.6796 355.102 77.8296 352.732 74.1196C350.362 70.4096 349.172 64.6796 349.172 56.9196V47.6196C349.172 39.6196 350.402 33.7863 352.862 30.1196C355.322 26.4529 359.535 24.6129 365.502 24.5996C369.615 24.5996 372.772 25.3529 374.972 26.8596C377.308 28.5631 378.957 31.046 379.622 33.8596C380.644 38.1855 381.094 42.6266 380.962 47.0696V56.1896L360.862 56.2896ZM362.382 33.8796C361.647 34.9759 361.226 36.2516 361.162 37.5696C360.924 40.1558 360.824 42.7528 360.862 45.3496V49.1696H369.632V45.3496C369.671 42.7516 369.554 40.1536 369.282 37.5696C369.2 36.2303 368.758 34.938 368.002 33.8296C367.643 33.4493 367.203 33.1548 366.715 32.9678C366.227 32.7808 365.703 32.7062 365.182 32.7496C364.66 32.7103 364.136 32.7918 363.65 32.9878C363.164 33.1838 362.73 33.4889 362.382 33.8796Z" fill="#E5E1E1"/>
<path d="M147.14 55.3002L133.5 6.00023H145.4L150.18 28.3202C151.4 33.8336 152.3 38.5269 152.88 42.4002H153.22C153.627 39.6202 154.527 34.9536 155.92 28.4002L160.92 5.99023H172.82L159 55.3002V78.9302H147.14V55.3002Z" fill="#E5E1E1"/>
<path d="M241.589 25.6699V78.9299H232.199L231.199 72.4099H230.939C228.386 77.3299 224.562 79.7933 219.469 79.7999C215.936 79.7999 213.329 78.6399 211.649 76.3199C209.969 74.0099 209.129 70.3799 209.129 65.4599V25.6699H221.129V64.7699C221.019 66.4997 221.285 68.2328 221.909 69.8499C222.145 70.3328 222.519 70.735 222.984 71.0055C223.448 71.276 223.982 71.4028 224.519 71.3699C225.597 71.3477 226.643 70.9991 227.519 70.3699C228.413 69.7821 229.132 68.9632 229.599 67.9999V25.6699H241.589Z" fill="#E5E1E1"/>
<path d="M303.079 25.6699V78.9299H293.699L292.699 72.4099H292.439C289.892 77.3299 286.069 79.7933 280.969 79.7999C277.429 79.7999 274.829 78.6399 273.149 76.3199C271.469 73.9999 270.629 70.3799 270.629 65.4599V25.6699H282.629V64.7699C282.519 66.4997 282.785 68.2328 283.409 69.8499C283.643 70.3304 284.013 70.731 284.474 71.0015C284.935 71.2719 285.465 71.4001 285.999 71.3699C287.078 71.3509 288.125 71.0019 288.999 70.3699C289.902 69.789 290.625 68.9684 291.089 67.9999V25.6699H303.079Z" fill="#E5E1E1"/>
<path d="M274.159 15.68H262.259V78.93H250.529V15.68H238.629V6H274.159V15.68Z" fill="#E5E1E1"/>
<path d="M342.759 34.1798C342.039 30.8298 340.859 28.3898 339.239 26.8898C337.385 25.2985 334.987 24.4883 332.549 24.6298C330.352 24.6278 328.204 25.2787 326.379 26.4998C324.513 27.7233 323.002 29.4168 321.999 31.4098H321.919V3.33984H310.309V78.9298H320.219L321.429 73.9298H321.689C322.626 75.729 324.078 77.2085 325.859 78.1798C327.737 79.2161 329.854 79.7436 331.999 79.7098C333.887 79.7832 335.753 79.2888 337.358 78.2906C338.962 77.2923 340.23 75.8361 340.999 74.1098C342.905 70.3698 343.862 64.5332 343.869 56.5998V48.1698C343.966 43.4812 343.594 38.7945 342.759 34.1798ZM331.759 55.9098C331.806 58.9572 331.646 62.0043 331.279 65.0298C331.152 66.7037 330.602 68.3178 329.679 69.7198C329.32 70.1671 328.862 70.5253 328.342 70.7665C327.821 71.0076 327.252 71.1251 326.679 71.1098C325.721 71.1178 324.778 70.8803 323.939 70.4198C323.09 69.9234 322.397 69.1994 321.939 68.3298V38.0998C322.281 36.7446 322.994 35.5117 323.999 34.5398C324.848 33.6713 326.004 33.1719 327.219 33.1498C327.765 33.1334 328.307 33.256 328.793 33.5061C329.279 33.7562 329.694 34.1257 329.999 34.5798C330.83 36.0567 331.306 37.707 331.389 39.3998C331.691 42.6039 331.821 45.8219 331.779 49.0398L331.759 55.9098Z" fill="#E5E1E1"/>
</g>
<defs>
<clipPath id="clip0_447_83">
<rect width="380.92" height="85.04" fill="white"/>
</clipPath>
</defs>
</svg>
