<svg width="300" height="73" viewBox="0 0 300 73" fill="none" xmlns="http://www.w3.org/2000/svg">
<g clip-path="url(#clip0_447_69)">
<path d="M47.2798 38.3401C47.1864 32.4601 49.6898 27.8801 54.7898 24.6001C51.9231 20.3601 47.6831 17.9734 42.0698 17.4401C39.4446 17.3481 36.8318 17.8399 34.4198 18.8801C32.5965 19.6565 30.7138 20.2852 28.7898 20.7601C27.0212 20.5103 25.3052 19.9732 23.7098 19.1701C21.7007 18.2274 19.5264 17.6873 17.3098 17.5801C14.3592 17.6118 11.478 18.4786 8.99977 20.0801C6.42503 21.7201 4.31707 23.9969 2.87977 26.6901C0.860889 30.5218 -0.131318 34.811 -0.000225205 39.1401C0.0178275 43.5604 0.743686 47.9493 2.14977 52.1401C3.35857 56.008 5.09133 59.6923 7.29978 63.0901C8.68494 65.3366 10.3149 67.4227 12.1598 69.3101C14.1598 71.3101 16.1598 72.3101 18.2898 72.2001C20.1273 72.0175 21.9164 71.5024 23.5698 70.6801C25.4862 69.7952 27.569 69.3282 29.6798 69.3101C31.7278 69.3432 33.7454 69.8101 35.5998 70.6801C37.3424 71.5172 39.2303 72.0095 41.1598 72.1301C43.442 71.9732 45.5826 70.9671 47.1598 69.3101C47.9376 68.5824 48.6442 67.7821 49.2698 66.9201C50.0398 65.9201 50.8798 64.7001 51.8098 63.3101C52.4598 62.3101 53.0998 61.2101 53.7298 60.0501C54.3698 58.8552 54.9375 57.623 55.4298 56.3601C55.6598 55.8301 55.8698 55.2901 56.0498 54.7401C56.2298 54.1901 56.4298 53.6201 56.6098 53.0401C54.8691 52.2493 53.2893 51.1441 51.9498 49.7801C50.4478 48.281 49.2608 46.4966 48.4588 44.532C47.6568 42.5673 47.2559 40.462 47.2798 38.3401V38.3401Z" fill="#E5E1E1"/>
<path d="M97.6984 51.2402H97.3584L83.2384 18.4902H72.1484V71.3302H81.8084V37.1102H82.2584L94.0584 64.2802H100.838L112.608 37.1102H113.048V71.3302H122.828V18.4902H111.818L97.6984 51.2402Z" fill="#E5E1E1"/>
<path d="M38.5202 11.57C40.8749 8.72068 42.1747 5.14631 42.2002 1.45V0.72C42.2017 0.47823 42.1782 0.236949 42.1302 0C40.2127 0.158242 38.3512 0.7242 36.6702 1.66C34.8409 2.60181 33.2216 3.90473 31.9102 5.49C29.5386 8.1974 28.2091 11.6611 28.1602 15.26V16C28.1597 16.2318 28.1832 16.463 28.2302 16.69C32.0702 17 35.5102 15.34 38.5202 11.57Z" fill="#E5E1E1"/>
<path d="M246.63 18.4902H235.77V71.3302H246.63V18.4902Z" fill="#E5E1E1"/>
<path d="M279.441 26.8902C285.881 26.8902 289.291 31.8902 289.291 37.3402H299.701V36.2202C299.701 26.0002 292.021 17.4902 279.361 17.4902C265.801 17.4902 257.711 26.5502 257.711 41.9902V47.9902C257.711 63.4402 265.711 72.3802 279.331 72.3802C292.331 72.3802 299.701 63.7502 299.701 54.1402V52.9402H289.291C289.291 58.4002 285.951 62.9402 279.511 62.9402C273.071 62.9402 268.731 58.1802 268.731 47.9402V42.0002C268.731 31.8802 273.001 26.8902 279.441 26.8902Z" fill="#E5E1E1"/>
<path d="M164.371 51.8602C164.371 58.9502 160.291 62.8602 154.291 62.8602C148.291 62.8602 144.181 58.9902 144.181 51.8602V18.4902H133.391V53.4102C133.391 64.6802 141.261 72.3402 154.291 72.3402C167.321 72.3402 175.191 64.6802 175.191 53.4102V18.4902H164.371V51.8602Z" fill="#E5E1E1"/>
<path d="M211.131 40.5599L203.381 38.7799C198.811 37.7799 196.381 35.7799 196.381 32.6899C196.381 28.6299 199.641 26.0699 204.891 26.0699C210.801 26.0699 213.761 29.5199 214.031 33.2399H224.141C224.061 23.8999 216.381 17.3999 205.001 17.3999C194.181 17.3999 185.641 23.1699 185.641 33.5499C185.641 42.5499 191.641 46.7099 198.821 48.2999L206.501 50.1099C211.671 51.3099 214.291 53.0499 214.291 56.6499C214.291 60.7599 211.071 63.5499 205.041 63.5499C198.561 63.5499 195.151 60.0599 194.851 56.1499H184.391C184.541 63.6299 189.391 72.3299 204.471 72.3299C217.131 72.3299 225.001 65.9999 225.001 55.5699C225.001 45.9999 218.621 42.2199 211.131 40.5599Z" fill="#E5E1E1"/>
</g>
<defs>
<clipPath id="clip0_447_69">
<rect width="299.7" height="72.34" fill="white"/>
</clipPath>
</defs>
</svg>
