<svg width="478" height="75" viewBox="0 0 478 75" fill="none" xmlns="http://www.w3.org/2000/svg">
<g clip-path="url(#clip0_447_35)">
<path d="M100.34 0H109.46V21.86H109.62C110.972 19.8095 112.81 18.1243 114.969 16.9538C117.129 15.7833 119.544 15.1637 122 15.15C135 15.15 141.37 25.42 141.37 37.92C141.37 49.43 135.76 60.28 123.52 60.28C117.91 60.28 111.91 58.87 109.19 53.28H109V59.16H100.35V0H100.34ZM120.74 22.6C113.06 22.6 109.14 28.6 109.14 37.76C109.14 46.37 113.38 52.83 120.74 52.83C129.07 52.83 132.19 45.21 132.19 37.76C132.19 29.97 128.26 22.6 120.74 22.6" fill="#E5E1E1"/>
<path d="M212 15.1499C209.367 15.1518 206.782 15.8596 204.515 17.1998C202.248 18.54 200.381 20.4635 199.11 22.7699L199 22.5999V16.3099H190.3V52.7699L184.22 52.8299C182.54 52.8299 182.06 51.9199 182.06 49.5999V27.5999C182.06 18.5999 173.57 15.1799 165.49 15.1799C156.36 15.1799 147.32 18.4099 146.68 29.4199H155.8C156.21 24.7899 159.8 22.6299 164.93 22.6299C168.61 22.6299 173.49 23.5499 173.49 28.4299C173.49 33.9799 167.65 33.2299 161.09 34.4799C153.4 35.3799 145.16 37.1299 145.16 47.7999C145.16 56.1699 151.88 60.3099 159.32 60.3099C164.21 60.3099 170.05 58.7299 173.65 55.0999C174.37 58.9899 177.02 60.3099 180.65 60.3099C182.17 60.3099 185.05 59.7299 199.32 59.2299V59.1499H199.38V33.8699C199.38 27.5699 203.3 22.5999 209.38 22.5999C214.75 22.5999 217.31 25.4999 217.47 32.2099V59.1199H226.6V29.7299C226.6 20.1199 220.93 15.1499 211.96 15.1499M173 44.7099C173 50.7099 166.76 52.8299 162.75 52.8299C159.55 52.8299 154.35 51.5799 154.35 47.3599C154.35 42.3599 157.87 40.8999 161.79 40.2399C165.71 39.5799 170.2 39.5799 173 37.6699V44.7099Z" fill="#E5E1E1"/>
<path d="M273.63 59.12H265V53.32H264.84C262.44 58.21 257.23 60.32 252.03 60.32C239.03 60.32 232.66 50.32 232.66 37.47C232.66 21.98 241.55 15.19 250.59 15.19C255.79 15.19 261.59 17.19 264.36 21.9H264.52V0H273.64V59.12H273.63ZM253.22 52.83C261.39 52.83 264.83 45.13 264.83 37.67C264.83 28.24 260.43 22.6 253.38 22.6C244.82 22.6 241.78 30.47 241.78 38.17C241.78 45.54 245.3 52.83 253.22 52.83Z" fill="#E5E1E1"/>
<path d="M309.89 30.64C309.17 25.42 305.49 22.64 300.45 22.64C295.72 22.64 289.08 25.21 289.08 38.21C289.08 45.33 292.08 52.87 300.08 52.87C305.36 52.87 309.08 49.22 309.92 43.09H319C317.32 54.19 310.67 60.32 300 60.32C287 60.32 279.91 50.8 279.91 38.21C279.91 25.3 286.71 15.21 300.32 15.21C309.92 15.21 318.09 20.21 318.97 30.7H309.84L309.89 30.64Z" fill="#E5E1E1"/>
<path d="M413.999 15.1499C407.999 15.1499 404.069 17.8799 400.999 22.2699C399.159 17.3899 394.439 15.1499 389.389 15.1499C382.829 15.1499 379.389 18.0499 376.669 22.2699H376.429V16.2699H367.779V52.7699L361.689 52.8299C360.009 52.8299 359.529 51.9199 359.529 49.5999V27.5999C359.529 18.5999 351.049 15.1799 342.959 15.1799C333.839 15.1799 324.789 18.4099 324.149 29.4199H333.279C333.679 24.7899 337.279 22.6299 342.399 22.6299C346.079 22.6299 350.969 23.5499 350.969 28.4299C350.969 33.9799 345.119 33.2299 338.559 34.4799C330.869 35.3799 322.629 37.1299 322.629 47.7999C322.629 56.1699 329.349 60.3099 336.799 60.3099C341.679 60.3099 347.519 58.7299 351.129 55.0999C351.849 58.9899 354.489 60.3099 358.129 60.3099C359.649 60.3099 362.529 59.7299 376.669 59.2299V59.1499H376.859V33.6999C376.859 26.5799 381.189 22.5999 385.909 22.5999C391.429 22.5999 393.189 25.7499 393.189 31.5999V59.1199H402.319V33.9999C402.319 26.7999 404.959 22.5699 411.119 22.5699C418.239 22.5699 418.639 27.2899 418.639 34.0899V59.0899H427.769V29.5599C427.769 19.1299 422.649 15.1499 413.929 15.1499M350.399 44.7099C350.399 50.7099 344.159 52.8299 340.159 52.8299C336.959 52.8299 331.749 51.5799 331.749 47.3599C331.749 42.3599 335.279 40.8999 339.199 40.2399C343.119 39.5799 347.599 39.5799 350.399 37.6699V44.7099Z" fill="#E5E1E1"/>
<path d="M436.051 16.3099H444.701V22.1099H444.851C447.421 17.2199 452.381 15.1099 457.661 15.1099C470.661 15.1099 477.031 25.3799 477.031 37.8799C477.031 49.3899 471.431 60.2399 459.181 60.2399C453.901 60.2399 448.181 58.2399 445.341 53.5299H445.171V74.9299H436.051V16.3199V16.3099ZM456.461 22.5999C448.781 22.5999 444.851 28.5999 444.851 37.7599C444.851 46.3699 449.091 52.8299 456.461 52.8299C464.781 52.8299 467.911 45.2099 467.911 37.7599C467.911 29.9699 463.981 22.5999 456.461 22.5999Z" fill="#E5E1E1"/>
<path d="M68.44 58.99H0L31.96 0H100.39L68.44 58.99Z" fill="#E5E1E1"/>
</g>
<defs>
<clipPath id="clip0_447_35">
<rect width="477.03" height="74.93" fill="white"/>
</clipPath>
</defs>
</svg>
