<svg width="312" height="177" viewBox="0 0 312 177" fill="none" xmlns="http://www.w3.org/2000/svg">
<g clip-path="url(#clip0_447_79)">
<path d="M3.53338 80.6499C2.88187 80.6499 2.36516 81.1467 2.28528 81.8647L0 99.1125L2.28154 116.062C2.36516 116.777 2.88187 117.275 3.52964 117.275C4.15993 117.275 4.67415 116.778 4.77775 116.069L7.48863 99.1125L4.77775 81.8622C4.68039 81.1505 4.16118 80.6499 3.52964 80.6499H3.53338ZM16.3639 71.226C16.2566 70.4808 15.7236 69.974 15.0659 69.974C14.4081 69.974 13.854 70.5019 13.7666 71.226C13.7666 71.2322 10.7 99.1125 10.7 99.1125L13.7666 126.38C13.854 127.112 14.4019 127.64 15.0659 127.64C15.7299 127.64 16.2541 127.126 16.3614 126.388L19.8449 99.1125L16.3639 71.226V71.226ZM64.6955 45.5045C63.4374 45.5045 62.3965 46.5293 62.3366 47.831L59.8941 99.1299L62.3366 132.285C62.4002 133.581 63.4374 134.603 64.6955 134.603C65.9536 134.603 66.9833 133.578 67.0569 132.279V132.289L69.819 99.125L67.0569 47.826C66.9833 46.5293 65.9461 45.5045 64.6955 45.5045ZM39.681 63.3349C38.715 63.3349 37.9262 64.1038 37.8488 65.1285L35.0967 99.12L37.8488 132.007C37.9224 133.026 38.7137 133.795 39.681 133.795C40.6483 133.795 41.4283 133.026 41.5095 132.007L44.636 99.12L41.5095 65.1211C41.4258 64.1038 40.637 63.3349 39.681 63.3349ZM90.1132 134.606C91.6733 134.606 92.9414 133.352 93.005 131.749L95.4014 99.151L93.0113 30.8477C92.9476 29.2454 91.6783 27.9908 90.1194 27.9908C88.5605 27.9908 87.2737 29.2466 87.2226 30.8477L85.1008 99.1448L87.2226 131.756C87.2359 132.513 87.5456 133.234 88.0856 133.766C88.6255 134.298 89.3531 134.6 90.1132 134.606ZM142.159 134.758C144.306 134.758 146.078 132.998 146.118 130.835L147.789 99.1722L146.118 20.2861C146.081 18.1248 144.306 16.3623 142.158 16.3623C140.01 16.3623 138.233 18.1223 138.199 20.2898L136.701 99.1461C136.701 99.1958 138.199 130.855 138.199 130.855C138.217 131.891 138.642 132.879 139.382 133.608C140.121 134.337 141.118 134.75 142.159 134.758ZM115.939 134.634C117.811 134.634 119.315 133.144 119.365 131.238V131.261L121.398 99.1573L119.361 30.3608C119.31 28.4566 117.804 26.9686 115.935 26.9686C115.03 26.9695 114.161 27.3266 113.519 27.9619C112.876 28.5973 112.512 29.4595 112.505 30.3608L110.697 99.1622L112.509 131.259C112.519 132.158 112.885 133.016 113.527 133.648C114.169 134.28 115.035 134.635 115.938 134.636L115.939 134.634ZM52.1408 134.334C53.2516 134.334 54.1503 133.448 54.2339 132.283L57.1807 99.1187L54.2339 67.5693C54.154 66.4042 53.2554 65.5248 52.1408 65.5248C51.0263 65.5248 50.1139 66.4104 50.044 67.5829L47.448 99.12L50.049 132.284C50.1164 133.449 51.0113 134.335 52.1396 134.335L52.1408 134.334ZM27.3248 132.516C28.136 132.516 28.7938 131.879 28.8874 130.997L32.2011 99.12L28.8899 66.0303C28.7925 65.1459 28.1348 64.5075 27.3223 64.5075C26.5097 64.5075 25.8433 65.1484 25.7596 66.0303L22.8466 99.12L25.7596 130.997C25.8395 131.882 26.4973 132.523 27.3235 132.523L27.3248 132.516ZM128.999 29.2143C128.022 29.215 127.084 29.6005 126.391 30.2868C125.698 30.9731 125.306 31.9044 125.301 32.8773L123.65 99.1659L125.3 131.062C125.31 132.031 125.704 132.957 126.397 133.638C127.089 134.319 128.024 134.7 128.998 134.699C131.024 134.699 132.642 133.095 132.689 131.038V131.066L134.546 99.1697L132.694 32.8711C132.646 30.8216 131.029 29.2156 129.003 29.2156L128.999 29.2143ZM77.36 134.669C78.7617 134.669 79.9199 133.53 79.9873 132.078L82.5621 99.1448L79.986 36.1068C79.9149 34.651 78.7604 33.5157 77.3588 33.5157C75.9572 33.5157 74.7877 34.6547 74.7278 36.1068L72.4462 99.1448L74.7315 132.094C74.7492 132.779 75.0329 133.43 75.5228 133.91C76.0128 134.391 76.6709 134.664 77.3588 134.672L77.36 134.669ZM106.135 131.564V131.548L108.348 99.156L106.134 28.551C106.08 26.7972 104.691 25.4222 102.976 25.4222C101.261 25.4222 99.8621 26.7947 99.8159 28.551L97.8514 99.1523L99.8209 131.56C99.8349 132.386 100.173 133.173 100.764 133.753C101.354 134.334 102.149 134.661 102.979 134.665C104.697 134.665 106.079 133.299 106.136 131.548V131.56L106.135 131.564ZM273.631 58.4584C268.534 58.4541 263.487 59.4621 258.787 61.4233C255.729 27.0009 226.726 0 191.347 0C182.953 0.0143523 174.632 1.56155 166.799 4.56474C163.904 5.68263 163.131 6.82909 163.105 9.05619V130.271C163.124 131.396 163.556 132.476 164.319 133.308C165.082 134.139 166.124 134.665 167.249 134.786C167.346 134.796 272.939 134.849 273.625 134.849C294.817 134.849 312 117.748 312 96.6544C312 75.561 294.82 58.4572 273.627 58.4572L273.631 58.4584ZM155.264 8.94937C152.96 8.94937 151.067 10.8324 151.033 13.1464L149.297 99.1821L151.032 130.407C151.051 131.513 151.505 132.567 152.294 133.344C153.084 134.122 154.148 134.561 155.259 134.568C157.558 134.568 159.45 132.688 159.484 130.374V130.411L161.366 99.1821L159.484 13.1402C159.45 10.8324 157.558 8.94937 155.259 8.94937H155.264ZM30.9904 159.129C26.4511 158.067 25.2229 157.499 25.2229 155.709C25.2229 154.447 26.2464 153.142 29.313 153.142C31.934 153.142 33.9797 154.2 35.8194 156.073L39.9493 152.086C37.2484 149.277 33.9772 147.608 29.5214 147.608C23.8713 147.608 19.287 150.784 19.287 155.956C19.287 161.573 22.9714 163.242 28.2459 164.461C33.6439 165.679 34.6274 166.498 34.6274 168.331C34.6274 170.489 33.0273 171.427 29.635 171.427C26.8892 171.427 24.3168 170.491 22.3111 168.165L18.1799 171.832C20.3541 175.013 24.5315 177 29.3117 177C37.1311 177 40.5659 173.337 40.5659 167.924C40.5659 161.733 35.5335 160.187 30.9904 159.129V159.129ZM57.3429 147.608C49.5323 147.608 44.9118 153.632 44.9118 162.305C44.9118 170.977 49.5298 176.996 57.3429 176.996C65.1561 176.996 69.7815 170.976 69.7815 162.305C69.7815 153.633 65.1511 147.608 57.3429 147.608ZM57.3429 171.343C52.7249 171.343 50.7966 167.394 50.7966 162.307C50.7966 157.221 52.7224 153.268 57.3429 153.268C61.9634 153.268 63.8892 157.218 63.8892 162.307C63.8892 167.396 61.9697 171.343 57.3429 171.343V171.343ZM92.8977 164.057C92.8977 168.615 90.6424 171.427 87.0054 171.427C83.3684 171.427 81.1568 168.535 81.1568 163.974V148.059H75.4255V164.057C75.4255 172.358 80.0934 177 87.0054 177C94.2856 177 98.624 172.235 98.624 163.978V148.059H92.8977V164.057ZM123.33 160.107C123.33 161.696 123.41 165.276 123.41 166.335C123.042 165.6 122.102 164.178 121.413 163.116L111.264 148.049H105.784V176.553H111.432V164.008C111.432 162.419 111.351 158.839 111.351 157.78C111.717 158.511 112.663 159.937 113.348 160.999L123.863 176.55H128.98V148.049H123.33V160.107ZM145.297 148.059H136.338V176.563H144.884C152.248 176.563 159.534 172.325 159.534 162.311C159.535 151.878 153.478 148.059 145.298 148.059H145.297ZM144.884 171.025H142.066V153.599H145.092C151.148 153.599 153.645 156.487 153.645 162.311C153.642 167.517 150.896 171.019 144.885 171.019L144.884 171.025ZM177.247 153.271C179.823 153.271 181.461 154.414 182.489 156.366L187.807 153.925C186.005 150.221 182.73 147.614 177.332 147.614C169.852 147.614 164.611 153.638 164.611 162.311C164.611 171.306 169.641 177.002 177.126 177.002C182.324 177.002 185.76 174.603 187.722 170.572L182.897 167.715C181.385 170.243 179.868 171.342 177.291 171.342C172.996 171.342 170.5 167.431 170.5 162.306C170.5 157.016 172.96 153.266 177.252 153.266L177.247 153.271ZM198.489 148.054H192.761V176.558H209.975V170.934H198.492V148.059L198.489 148.054ZM225.063 147.609C217.246 147.609 212.626 153.633 212.626 162.306C212.626 170.978 217.244 176.997 225.063 176.997C232.883 176.997 237.498 170.977 237.498 162.306C237.498 153.635 232.88 147.609 225.063 147.609V147.609ZM225.063 171.345C220.437 171.345 218.517 167.395 218.517 162.308C218.517 157.222 220.437 153.27 225.063 153.27C229.69 153.27 231.603 157.219 231.603 162.308C231.603 167.397 229.682 171.343 225.064 171.343L225.063 171.345ZM260.611 164.058C260.611 168.616 258.364 171.428 254.726 171.428C251.087 171.428 248.873 168.536 248.873 163.975V148.059H243.146V164.057C243.146 172.358 247.81 177 254.726 177C262.007 177 266.342 172.235 266.342 163.978V148.059H260.611V164.057V164.058ZM282.452 148.054H273.497V176.558H282.043C289.407 176.558 296.69 172.32 296.69 162.306C296.69 151.88 290.636 148.054 282.452 148.054V148.054ZM282.043 171.02H279.221V153.594H282.251C288.301 153.594 290.797 156.482 290.797 162.306C290.808 167.517 288.063 171.019 282.049 171.019L282.043 171.02Z" fill="#E5E1E1"/>
</g>
<defs>
<clipPath id="clip0_447_79">
<rect width="312" height="177" fill="white"/>
</clipPath>
</defs>
</svg>
