<svg width="100" height="100" viewBox="0 0 100 100" fill="none" xmlns="http://www.w3.org/2000/svg">
<g clip-path="url(#clip0_552_82)">
<path d="M60.4167 25C52.5065 25 45.8333 28.776 41.6667 35.026V70.8333H85.4167C93.3268 70.8333 100 64.1602 100 56.25C100 48.3398 93.3268 41.6667 85.4167 41.6667C84.5866 41.6667 83.3822 41.6341 82.5521 42.0573C80.0456 32.0638 70.8333 25 60.4167 25ZM33.3333 33.3333V70.8333H37.5V33.724C36.2467 33.3008 34.5866 33.3333 33.3333 33.3333ZM29.1667 33.724C27.5065 34.1471 26.2533 34.9935 25 35.4167V70.8333H29.1667V33.724ZM20.8333 39.1927C18.75 41.276 17.4805 43.7012 17.0573 46.6146H16.6667V70.8333H20.8333V39.1927ZM12.5 45.8333C10.8398 45.8333 9.58659 46.1914 8.33333 46.6146V70.0521C9.58659 70.4753 10.8398 70.8333 12.5 70.8333V45.8333ZM4.16667 49.2187C1.66016 51.3021 0 54.5898 0 58.3333C0 62.0768 1.66016 65.3646 4.16667 67.4479V49.2187Z" fill="#E5E1E1"/>
</g>
<defs>
<clipPath id="clip0_552_82">
<rect width="100" height="100" fill="white"/>
</clipPath>
</defs>
</svg>
