<svg width="212" height="24" viewBox="0 0 212 24" fill="none" xmlns="http://www.w3.org/2000/svg">
<path d="M0.340426 14.4681L0 17.5319L0.340426 20.5957C0.340426 20.766 0.510638 20.766 0.510638 20.766C0.680851 20.766 0.680851 20.5957 0.680851 20.5957L1.19149 17.5319L0.680851 14.4681C0.680851 14.2979 0.510638 14.2979 0.510638 14.2979C0.510638 14.2979 0.340426 14.2979 0.340426 14.4681ZM2.38298 12.5957L1.87234 17.5319L2.38298 22.4681C2.38298 22.6383 2.55319 22.6383 2.55319 22.6383C2.7234 22.6383 2.7234 22.4681 2.7234 22.4681L3.40426 17.5319L2.7234 12.5957C2.7234 12.4255 2.55319 12.4255 2.55319 12.4255L2.38298 12.5957ZM8.85106 11.9149L8.51064 17.5319L8.85106 23.4894C8.85106 23.6596 9.02128 23.8298 9.19149 23.8298C9.3617 23.8298 9.53191 23.6596 9.53191 23.4894L10.2128 17.5319L9.70213 11.9149C9.70213 11.7447 9.53191 11.5745 9.3617 11.5745C9.02128 11.5745 8.85106 11.7447 8.85106 11.9149ZM4.59574 11.5745L4.08511 17.5319L4.59574 23.1489C4.59574 23.3191 4.76596 23.4894 4.93617 23.4894C4.93617 23.4894 5.10638 23.3191 5.10638 23.1489L5.61702 17.5319L5.10638 11.5745C5.10638 11.4043 4.93617 11.234 4.76596 11.234C4.76596 11.4043 4.59574 11.4043 4.59574 11.5745ZM6.6383 11.4043L6.12766 17.5319L6.6383 23.3191C6.6383 23.4894 6.80851 23.6596 6.97872 23.6596C7.14894 23.6596 7.31915 23.4894 7.31915 23.3191L7.82979 17.5319L7.31915 11.4043C7.31915 11.234 7.14894 11.0638 6.97872 11.0638C6.80851 11.0638 6.80851 11.234 6.6383 11.4043ZM11.0638 8.34043L10.5532 17.5319L11.0638 23.4894C11.0638 23.6596 11.234 23.8298 11.4043 23.8298C11.7447 23.8298 11.9149 23.6596 11.9149 23.4894L12.4255 17.5319L11.9149 8.34043C11.9149 8.17021 11.7447 8 11.5745 8C11.234 8 11.0638 8.17021 11.0638 8.34043ZM13.2766 6.29787L12.9362 17.5319L13.2766 23.4894C13.2766 23.8298 13.4468 24 13.7872 24C13.9574 24 14.2979 23.8298 14.2979 23.4894L14.8085 17.5319L14.2979 6.29787C14.2979 5.95745 14.1277 5.78723 13.7872 5.78723C13.4468 5.78723 13.2766 5.95745 13.2766 6.29787ZM118.298 5.61702V12.0851V15.4894C118.128 15.1489 117.617 14.2979 117.277 13.7872L111.83 5.61702H108.936V21.1064H112V14.2979V10.8936C112.17 11.234 112.681 12.0851 113.021 12.5957L118.638 21.1064H121.362V5.61702H118.298ZM128.511 8.68085H130.213C133.447 8.68085 134.808 10.2128 134.808 13.4468C134.808 16.3404 133.277 18.2128 130.043 18.2128H128.511V8.68085ZM125.447 21.1064H130.043C133.957 21.1064 138.043 18.8936 138.043 13.4468C138.043 7.82979 134.809 5.78723 130.383 5.78723H125.447V5.61702V21.1064ZM155.915 5.61702V21.1064H165.277V18.0426H159.149V5.61702H155.915ZM202.553 8.68085H204.255C207.489 8.68085 208.851 10.2128 208.851 13.4468C208.851 16.3404 207.319 18.2128 204.085 18.2128H202.553V8.68085ZM199.489 21.1064H204.085C207.489 21.1064 211.064 19.4043 211.915 15.3191V11.4043C211.234 7.31915 208.34 5.78723 204.426 5.78723H199.489V5.61702C199.489 5.61702 199.489 21.1064 199.489 21.1064ZM62.1277 10.0426C62.1277 13.1064 64.1702 13.9574 66.8936 14.6383C69.7872 15.3191 70.2979 15.6596 70.2979 16.6809C70.2979 17.8723 69.4468 18.383 67.5745 18.383C66.0426 18.383 64.6809 17.8723 63.6596 16.6809L61.4468 18.7234C62.6383 20.4255 64.8511 21.617 67.4042 21.617C71.6596 21.617 73.5319 19.5745 73.5319 16.6809C73.5319 13.2766 70.8085 12.4255 68.4255 11.9149C66.0426 11.4043 65.3617 11.0638 65.3617 10.0426C65.3617 9.3617 65.8723 8.68085 67.5745 8.68085C68.9362 8.68085 70.1277 9.19149 71.1489 10.2128L73.3617 8C71.8298 6.46808 70.1277 5.61702 67.7447 5.61702C67.5745 5.61702 67.4043 5.61702 67.234 5.61702C64.3404 5.61702 62.1277 7.31915 62.1277 10.0426ZM79.1489 13.4468C79.1489 10.7234 80.1702 8.51064 82.7234 8.51064C85.2766 8.51064 86.2979 10.7234 86.2979 13.4468C86.2979 16.1702 85.2766 18.383 82.7234 18.383C80.1702 18.383 79.1489 16.1702 79.1489 13.4468ZM75.9149 13.4468C75.9149 18.2128 78.4681 21.4468 82.5532 21.4468C86.8085 21.4468 89.3617 18.2128 89.3617 13.4468C89.3617 8.68085 86.8085 5.44681 82.5532 5.44681C78.4681 5.44681 75.9149 8.68085 75.9149 13.4468ZM101.957 5.44681V14.2979C101.957 16.8511 100.766 18.383 98.7234 18.383C96.6808 18.383 95.4894 16.8511 95.4894 14.2979V5.61702H92.4255V14.2979C92.4255 18.7234 94.9787 21.2766 98.7234 21.2766C102.638 21.2766 105.021 18.7234 105.021 14.1277V5.44681H101.957ZM140.596 13.4468C140.596 18.383 143.319 21.4468 147.404 21.4468C150.298 21.4468 152 20.0851 153.191 17.8723L150.638 16.3404C149.787 17.7021 148.936 18.383 147.574 18.383C145.191 18.383 143.83 16.3404 143.83 13.4468C143.83 10.5532 145.191 8.51064 147.404 8.51064C148.766 8.51064 149.617 9.19149 150.298 10.2128L153.191 8.85106C152.17 6.80851 150.468 5.44681 147.574 5.44681C143.489 5.44681 140.596 8.68085 140.596 13.4468ZM169.872 13.4468C169.872 10.7234 170.894 8.51064 173.447 8.51064C176 8.51064 177.021 10.7234 177.021 13.4468C177.021 16.1702 176 18.383 173.447 18.383C170.894 18.383 169.872 16.1702 169.872 13.4468ZM166.638 13.4468C166.638 18.2128 169.191 21.4468 173.277 21.4468C177.532 21.4468 179.915 18.2128 179.915 13.4468C179.915 8.68085 177.362 5.44681 173.277 5.44681C169.191 5.44681 166.638 8.68085 166.638 13.4468ZM192.511 5.44681V14.2979C192.511 16.8511 191.319 18.383 189.277 18.383C187.234 18.383 186.043 16.8511 186.043 14.2979V5.61702H182.979V14.2979C182.979 18.7234 185.532 21.2766 189.277 21.2766C193.191 21.2766 195.574 18.7234 195.574 14.1277V5.44681H192.511ZM22.2979 5.78723L21.9574 17.5319L22.2979 23.1489C22.2979 23.4894 22.6383 23.8298 22.9787 23.8298C23.3191 23.8298 23.6596 23.4894 23.6596 23.1489L24 17.5319L23.6596 5.61702C23.6596 5.2766 23.3191 4.93617 22.9787 4.93617C22.4681 5.10638 22.2979 5.2766 22.2979 5.78723ZM15.4894 5.2766L15.1489 17.5319L15.4894 23.3191C15.4894 23.6596 15.6596 23.8298 16 23.8298C16.3404 23.8298 16.5106 23.6596 16.5106 23.3191L16.8511 17.5319L16.5106 5.2766C16.5106 4.93617 16.3404 4.76596 16 4.76596C15.6596 4.76596 15.4894 5.10638 15.4894 5.2766ZM19.9149 5.2766L19.5745 17.5319L19.9149 23.3191C19.9149 23.6596 20.2553 24 20.5957 24C20.9362 24 21.2766 23.6596 21.2766 23.3191L21.617 17.5319L21.2766 5.2766C21.2766 4.93617 20.9362 4.59574 20.5957 4.59574C20.2553 4.59574 19.9149 4.93617 19.9149 5.2766ZM17.7021 4.93617L17.3617 17.5319L17.7021 23.3191C17.7021 23.6596 17.8723 23.8298 18.2128 23.8298C18.5532 23.8298 18.7234 23.6596 18.7234 23.3191L19.0638 17.5319L18.7234 4.93617C18.7234 4.59574 18.383 4.42553 18.2128 4.42553C18.0426 4.42553 17.7021 4.59574 17.7021 4.93617ZM24.5106 3.40426L24.1702 17.5319L24.5106 23.1489C24.5106 23.4894 24.8511 23.8298 25.1915 23.8298C25.5319 23.8298 25.8723 23.4894 25.8723 23.1489L26.2128 17.5319L25.8723 3.40426C25.8723 3.06383 25.5319 2.7234 25.1915 2.7234C24.8511 2.7234 24.5106 3.06383 24.5106 3.40426ZM26.8936 2.21277L26.5532 17.5319L26.8936 23.1489C26.8936 23.4894 27.234 23.8298 27.5745 23.8298C27.9149 23.8298 28.2553 23.4894 28.2553 23.1489L28.5957 17.5319L28.2553 2.21277C28.2553 1.87234 27.9149 1.53191 27.5745 1.53191H27.4043C27.0638 1.53191 26.8936 1.87234 26.8936 2.21277ZM29.617 0.680851C29.1064 0.851064 28.9362 1.02128 28.9362 1.53191V23.1489C28.9362 23.4894 29.2766 23.8298 29.617 24H48.5106C52.2553 24 55.3191 20.9362 55.3191 17.1915C55.3191 13.4468 52.2553 10.383 48.5106 10.383C47.6596 10.383 46.6383 10.5532 45.9574 10.8936C45.4468 4.76596 40.3404 0 34.0426 0C33.7021 0 33.5319 0 33.1915 0C32 0 30.8085 0.340426 29.617 0.680851Z" fill="#E5E1E1"/>
</svg>
