<svg width="24" height="24" viewBox="0 0 24 24" fill="none" xmlns="http://www.w3.org/2000/svg">
<g clip-path="url(#clip0_757_732)">
<path d="M14.5 6C12.6016 6 11 6.90625 10 8.40625V17H20.5C22.3984 17 24 15.3984 24 13.5C24 11.6016 22.3984 10 20.5 10C20.3008 10 20.0117 9.99219 19.8125 10.0938C19.2109 7.69531 17 6 14.5 6ZM8 8V17H9V8.09375C8.69922 7.99219 8.30078 8 8 8ZM7 8.09375C6.60156 8.19531 6.30078 8.39844 6 8.5V17H7V8.09375ZM5 9.40625C4.5 9.90625 4.19531 10.4883 4.09375 11.1875H4V17H5V9.40625ZM3 11C2.60156 11 2.30078 11.0859 2 11.1875V16.8125C2.30078 16.9141 2.60156 17 3 17V11ZM1 11.8125C0.398438 12.3125 0 13.1016 0 14C0 14.8984 0.398438 15.6875 1 16.1875V11.8125Z" fill="#E5E1E1"/>
</g>
<defs>
<clipPath id="clip0_757_732">
<rect width="24" height="24" fill="white"/>
</clipPath>
</defs>
</svg>
