<svg width="453" height="136" viewBox="0 0 453 136" fill="none" xmlns="http://www.w3.org/2000/svg">
<g clip-path="url(#clip0_447_57)">
<path d="M67.9183 7.36501e-07C54.4846 -0.00197714 41.352 3.97978 30.1813 11.4417C19.0106 18.9037 10.3035 29.5106 5.16128 41.9212C0.0190473 54.3318 -1.32742 67.9886 1.29216 81.1644C3.91174 94.3403 10.3797 106.443 19.8781 115.943C29.3765 125.443 41.4786 131.913 54.6541 134.534C67.8296 137.156 81.4865 135.811 93.8979 130.671C106.309 125.53 116.917 116.825 124.381 105.655C131.845 94.4858 135.828 81.3537 135.828 67.92C135.828 49.9082 128.674 32.634 115.939 19.8968C103.203 7.15966 85.9301 0.00265265 67.9183 7.36501e-07V7.36501e-07ZM99.0583 98C98.7692 98.4752 98.3891 98.8886 97.94 99.2168C97.4908 99.5449 96.9814 99.7812 96.4408 99.9121C95.9002 100.043 95.339 100.066 94.7895 99.98C94.24 99.8938 93.7129 99.7001 93.2383 99.41C77.2983 89.66 57.2383 87.41 33.5783 92.86C32.4843 93.1093 31.336 92.9138 30.3862 92.3165C29.4363 91.7192 28.7626 90.769 28.5133 89.675C28.264 88.581 28.4595 87.4327 29.0568 86.4829C29.6541 85.533 30.6043 84.8593 31.6983 84.61C57.5683 78.69 79.7583 81.24 97.6983 92.18C98.6497 92.7721 99.3272 93.7175 99.5822 94.8087C99.8371 95.8999 99.6487 97.0476 99.0583 98V98ZM107.368 79.51C107.005 80.1025 106.528 80.6176 105.965 81.0258C105.403 81.434 104.765 81.7272 104.089 81.8888C103.413 82.0504 102.712 82.0772 102.025 81.9676C101.339 81.858 100.68 81.6141 100.088 81.25C81.8383 70 53.9983 66.74 32.4083 73.3C31.079 73.6564 29.6632 73.4817 28.4604 72.8129C27.2576 72.1441 26.3621 71.0337 25.9633 69.7166C25.5646 68.3994 25.6937 66.9787 26.3236 65.7551C26.9535 64.5315 28.0346 63.6008 29.3383 63.16C53.9983 55.68 84.6683 59.3 105.628 72.16C106.226 72.5226 106.746 73.0003 107.157 73.5653C107.569 74.1303 107.864 74.7714 108.026 75.4514C108.188 76.1314 108.213 76.8368 108.1 77.5266C107.987 78.2165 107.738 78.877 107.368 79.47V79.51ZM108.088 60.25C86.1983 47.25 50.0883 46.05 29.1883 52.4C28.3872 52.6423 27.5463 52.7244 26.7135 52.6417C25.8807 52.559 25.0723 52.3131 24.3346 51.918C22.8446 51.12 21.7326 49.7628 21.2433 48.145C21.001 47.3439 20.9189 46.503 21.0016 45.6702C21.0843 44.8374 21.3302 44.029 21.7253 43.2913C22.5233 41.8013 23.8805 40.6893 25.4983 40.2C49.4983 32.92 89.3683 34.32 114.578 49.28C115.329 49.6894 115.989 50.2458 116.519 50.9159C117.049 51.5861 117.439 52.3562 117.665 53.1804C117.891 54.0046 117.949 54.866 117.835 55.7129C117.721 56.5599 117.437 57.3752 117.001 58.1101C116.564 58.8449 115.984 59.4843 115.295 59.99C114.606 60.4957 113.822 60.8574 112.991 61.0534C112.159 61.2494 111.296 61.2757 110.454 61.1308C109.611 60.9859 108.807 60.6727 108.088 60.21V60.25Z" fill="#E5E1E1"/>
<path d="M184.778 62.6998C173.048 59.8998 170.998 57.9398 170.998 53.8198C170.998 49.9198 174.668 47.2998 180.128 47.2998C185.418 47.2998 190.658 49.2998 196.128 53.3898C196.295 53.5115 196.503 53.5618 196.708 53.5298C196.808 53.5145 196.903 53.4791 196.989 53.4258C197.075 53.3726 197.15 53.3025 197.208 53.2198L202.938 45.1498C203.036 44.9924 203.074 44.8054 203.047 44.6222C203.019 44.4389 202.927 44.2715 202.788 44.1498C196.44 38.9672 188.461 36.2035 180.268 36.3498C167.608 36.3498 158.768 43.9498 158.768 54.8198C158.768 66.4798 166.388 70.5998 179.578 73.8198C190.798 76.4098 192.688 78.5698 192.688 82.4398C192.688 86.7298 188.858 89.4398 182.688 89.4398C175.848 89.4398 170.258 87.1298 164.018 81.7198C163.856 81.5927 163.653 81.5288 163.448 81.5398C163.347 81.5481 163.25 81.5763 163.161 81.6226C163.071 81.669 162.992 81.7326 162.928 81.8098L156.508 89.4498C156.378 89.6022 156.313 89.7992 156.326 89.9989C156.339 90.1987 156.429 90.3855 156.578 90.5198C163.656 96.9324 172.876 100.467 182.428 100.43C196.078 100.43 204.888 92.9798 204.888 81.4298C204.888 71.5698 199.068 66.1698 184.778 62.6998Z" fill="#E5E1E1"/>
<path d="M235.759 51.1298C232.917 51.0951 230.105 51.7189 227.544 52.9524C224.984 54.186 222.743 55.9957 220.999 58.2398V52.8598C220.999 52.6573 220.919 52.4629 220.777 52.3188C220.635 52.1747 220.441 52.0924 220.239 52.0898H209.739C209.535 52.0898 209.339 52.1709 209.194 52.3153C209.05 52.4597 208.969 52.6556 208.969 52.8598V112.56C208.969 112.764 209.05 112.96 209.194 113.104C209.339 113.249 209.535 113.33 209.739 113.33H220.239C220.441 113.327 220.635 113.245 220.777 113.101C220.919 112.957 220.999 112.762 220.999 112.56V93.7098C222.81 95.8514 225.075 97.563 227.629 98.7201C230.184 99.8773 232.965 100.451 235.769 100.4C246.769 100.4 257.879 91.9398 257.879 75.7698C257.879 59.5998 246.749 51.1298 235.759 51.1298ZM245.659 75.7698C245.659 83.9998 240.589 89.7698 233.329 89.7698C226.069 89.7698 220.729 83.7698 220.729 75.7698C220.729 67.7698 226.149 61.7698 233.329 61.7698C240.509 61.7698 245.659 67.6698 245.659 75.7698V75.7698Z" fill="#E5E1E1"/>
<path d="M286.388 51.1299C272.228 51.1299 261.148 62.0299 261.148 75.9399C261.148 89.8499 272.148 100.49 286.208 100.49C300.408 100.49 311.528 89.6299 311.528 75.7699C311.528 61.9099 300.488 51.1299 286.388 51.1299ZM286.388 89.8299C278.858 89.8299 273.178 83.8299 273.178 75.7699C273.178 67.7099 278.658 61.8699 286.178 61.8699C293.698 61.8699 299.468 67.9199 299.468 75.9399C299.468 83.9599 293.998 89.8299 286.388 89.8299V89.8299Z" fill="#E5E1E1"/>
<path d="M341.747 52.0898H330.197V40.2798C330.197 40.0755 330.116 39.8797 329.971 39.7353C329.827 39.5909 329.631 39.5098 329.427 39.5098H318.927C318.723 39.5124 318.529 39.5943 318.385 39.7382C318.241 39.882 318.159 40.0764 318.157 40.2798V52.0898H313.157C312.952 52.0898 312.757 52.1709 312.612 52.3153C312.468 52.4597 312.387 52.6556 312.387 52.8598V61.8598C312.387 62.064 312.468 62.2598 312.612 62.4042C312.757 62.5486 312.952 62.6298 313.157 62.6298H318.157V85.9998C318.157 95.4298 322.857 100.22 332.157 100.22C335.596 100.304 338.995 99.4614 341.997 97.7798C342.116 97.7134 342.215 97.6161 342.284 97.4982C342.352 97.3803 342.388 97.2462 342.387 97.1098V88.5198C342.385 88.3889 342.351 88.2606 342.286 88.1468C342.221 88.0331 342.129 87.9377 342.017 87.8698C341.904 87.8058 341.776 87.7721 341.647 87.7721C341.517 87.7721 341.39 87.8058 341.277 87.8698C339.371 88.8594 337.254 89.3707 335.107 89.3598C331.737 89.3598 330.237 87.8298 330.237 84.3598V62.6598H341.787C341.991 62.6598 342.187 62.5786 342.331 62.4342C342.476 62.2898 342.557 62.094 342.557 61.8898V52.8898C342.561 52.7827 342.543 52.6759 342.504 52.5762C342.464 52.4765 342.405 52.3862 342.328 52.3109C342.252 52.2356 342.161 52.177 342.061 52.1389C341.961 52.1009 341.854 52.0841 341.747 52.0898V52.0898Z" fill="#E5E1E1"/>
<path d="M381.998 52.1401V50.6901C381.998 46.4201 383.638 44.5201 387.308 44.5201C389.326 44.5419 391.326 44.9106 393.218 45.6101C393.333 45.6461 393.455 45.6546 393.574 45.635C393.693 45.6154 393.805 45.5682 393.902 45.4972C394 45.4262 394.079 45.3334 394.134 45.2262C394.189 45.1191 394.218 45.0005 394.218 44.8801V36.0001C394.221 35.8348 394.17 35.6732 394.072 35.5396C393.975 35.4061 393.837 35.3079 393.678 35.2601C390.866 34.3994 387.939 33.9745 384.998 34.0001C375.308 34.0001 370.178 39.4601 370.178 49.7901V52.0101H365.178C365.076 52.0088 364.975 52.0277 364.881 52.0658C364.786 52.1039 364.7 52.1604 364.628 52.2321C364.555 52.3037 364.497 52.389 364.458 52.4831C364.419 52.5772 364.398 52.6782 364.398 52.7801V61.8501C364.401 62.0552 364.484 62.2511 364.63 62.3952C364.776 62.5393 364.973 62.6201 365.178 62.6201H370.178V98.6201C370.177 98.7208 370.196 98.8207 370.233 98.914C370.271 99.0074 370.327 99.0924 370.397 99.164C370.468 99.2356 370.552 99.2925 370.645 99.3313C370.738 99.3701 370.838 99.3901 370.938 99.3901H381.438C381.54 99.3915 381.641 99.3725 381.735 99.3342C381.829 99.296 381.914 99.2394 381.986 99.1676C382.058 99.0958 382.114 99.0104 382.153 98.9164C382.191 98.8223 382.21 98.7216 382.208 98.6201V62.6201H391.998L406.998 98.6201C405.288 102.41 403.608 103.16 401.328 103.16C399.291 103.11 397.3 102.546 395.538 101.52C395.347 101.42 395.125 101.399 394.918 101.46C394.818 101.494 394.726 101.549 394.648 101.622C394.571 101.694 394.509 101.782 394.468 101.88L390.908 109.68C390.826 109.858 390.814 110.06 390.876 110.245C390.937 110.431 391.067 110.587 391.238 110.68C394.658 112.615 398.53 113.605 402.458 113.55C410.208 113.55 414.458 109.94 418.268 100.22L436.498 53.1901C436.536 53.0768 436.547 52.9561 436.529 52.838C436.511 52.7198 436.466 52.6075 436.397 52.5101C436.328 52.4126 436.237 52.3329 436.131 52.2773C436.025 52.2217 435.908 52.1919 435.788 52.1901H424.848C424.689 52.1903 424.534 52.2407 424.405 52.334C424.275 52.4273 424.179 52.5589 424.128 52.7101L412.928 84.7101L400.658 52.7101C400.604 52.5661 400.506 52.4421 400.38 52.3546C400.253 52.2671 400.103 52.2202 399.948 52.2201L381.998 52.1401Z" fill="#E5E1E1"/>
<path d="M358.668 52.0898H348.168C347.743 52.0898 347.398 52.4346 347.398 52.8598V98.6698C347.398 99.0951 347.743 99.4398 348.168 99.4398H358.668C359.094 99.4398 359.438 99.0951 359.438 98.6698V52.8598C359.438 52.4346 359.094 52.0898 358.668 52.0898Z" fill="#E5E1E1"/>
<path d="M353.478 31.2402C351.987 31.2383 350.53 31.6785 349.29 32.5051C348.05 33.3318 347.084 34.5077 346.513 35.884C345.941 37.2603 345.791 38.7752 346.082 40.2368C346.372 41.6984 347.089 43.0411 348.143 44.0948C349.197 45.1484 350.539 45.8658 352.001 46.156C353.463 46.4463 354.977 46.2963 356.354 45.7251C357.73 45.154 358.906 44.1873 359.733 42.9474C360.559 41.7076 360.999 40.2504 360.998 38.7602C360.995 36.7666 360.202 34.8554 358.792 33.4457C357.382 32.036 355.471 31.2429 353.478 31.2402V31.2402Z" fill="#E5E1E1"/>
<path d="M445.456 66.82C444.485 66.824 443.522 66.6355 442.624 66.2656C441.725 65.8956 440.909 65.3514 440.222 64.6644C439.535 63.9774 438.991 63.1611 438.621 62.2627C438.251 61.3643 438.062 60.4016 438.066 59.43C438.066 58.4543 438.259 57.4881 438.632 56.5867C439.005 55.6852 439.553 54.8661 440.243 54.1762C440.933 53.4863 441.752 52.939 442.653 52.5656C443.555 52.1922 444.521 52 445.496 52C446.47 52 447.433 52.1917 448.332 52.5641C449.231 52.9364 450.048 53.4823 450.736 54.1703C451.424 54.8584 451.97 55.6753 452.342 56.5743C452.715 57.4733 452.906 58.4369 452.906 59.41C452.906 60.3831 452.715 61.3467 452.342 62.2457C451.97 63.1447 451.424 63.9616 450.736 64.6497C450.048 65.3377 449.231 65.8836 448.332 66.256C447.433 66.6283 446.47 66.82 445.496 66.82H445.456ZM445.456 52.74C444.134 52.7281 442.838 53.1097 441.733 53.8362C440.627 54.5627 439.763 55.6014 439.25 56.8203C438.736 58.0391 438.597 59.3831 438.849 60.6815C439.101 61.9798 439.734 63.1739 440.666 64.1119C441.598 65.0499 442.788 65.6896 444.085 65.9496C445.382 66.2096 446.727 66.0782 447.949 65.5721C449.171 65.066 450.215 64.208 450.948 63.1073C451.681 62.0065 452.07 60.7126 452.066 59.39C452.072 58.522 451.906 57.6614 451.579 56.8574C451.251 56.0534 450.769 55.3218 450.159 54.7043C449.549 54.0868 448.823 53.5955 448.023 53.2584C447.223 52.9214 446.365 52.7452 445.496 52.74H445.456ZM447.096 60.15L449.186 63.08H447.426L445.546 60.39H443.996V63.08H442.516V55.32H445.996C447.796 55.32 448.996 56.24 448.996 57.79C449.017 58.3401 448.841 58.8795 448.5 59.3118C448.159 59.7441 447.676 60.0412 447.136 60.15H447.096ZM445.846 56.65H443.996V59.1H445.916C446.916 59.1 447.456 58.63 447.456 57.88C447.456 57.13 446.846 56.65 445.886 56.65H445.846Z" fill="#E5E1E1"/>
</g>
<defs>
<clipPath id="clip0_447_57">
<rect width="452.89" height="135.83" fill="white"/>
</clipPath>
</defs>
</svg>
