<svg width="96" height="96" viewBox="0 0 96 96" fill="none" xmlns="http://www.w3.org/2000/svg">
<path d="M88 15.9961C84.88 17.8481 78.62 20.3721 74.94 21.1001C74.832 21.1281 74.744 21.1641 74.64 21.1921C71.388 17.9841 66.932 15.9961 62 15.9961C52.06 15.9961 44 24.0561 44 33.9961C44 34.5201 43.956 35.4841 44 35.9961C30.588 35.9961 20.38 28.9721 13.06 19.9961C12.264 21.9961 11.916 25.1561 11.916 28.1241C11.916 33.7281 16.296 39.2321 23.116 42.6441C21.86 42.9681 20.476 43.2001 19.036 43.2001C16.712 43.2001 14.252 42.5881 12 40.7321C12 40.8001 12 40.8641 12 40.9361C12 48.7681 20.312 54.1001 27.704 55.5841C26.204 56.4681 23.18 56.5561 21.704 56.5561C20.664 56.5561 16.984 56.0801 16 55.8961C18.056 62.3161 25.472 65.9241 32.54 66.0521C27.012 70.3881 23.176 71.9961 11.856 71.9961H8C15.152 76.5801 24.26 80.0001 33.388 80.0001C63.108 80.0001 80 57.3481 80 35.9961C80 35.6521 79.992 34.9321 79.98 34.2081C79.98 34.1361 80 34.0681 80 33.9961C80 33.8881 79.968 33.7841 79.968 33.6761C79.956 33.1321 79.944 32.6241 79.932 32.3601C83.092 30.0801 85.832 27.2361 88 23.9961C85.1 25.2841 81.988 26.1481 78.72 26.5401C82.056 24.5401 86.796 19.7721 88 15.9961Z" fill="#E5E1E1"/>
</svg>
