<svg width="568" height="106" viewBox="0 0 568 106" fill="none" xmlns="http://www.w3.org/2000/svg">
<g clip-path="url(#clip0_816_707)">
<path d="M411.08 44.0101C408.91 55.0101 407.26 68.5101 406.39 74.0701H405.78C405.09 68.3401 403.44 54.9601 401.18 44.0701L395.62 17.0701H378.68V89.9601H389.19V29.8901L390.19 35.5001L400.88 89.9701H411.39L421.9 35.5001L423.03 29.8501V89.9701H433.57V17.0801H416.47L411.08 44.0101Z" fill="#E5E1E1"/>
<path d="M461.99 79.02C461.529 79.9999 460.808 80.8343 459.905 81.4321C459.002 82.0299 457.952 82.3682 456.87 82.41C454.43 82.41 453.48 80.5 453.48 75.81V36.71H441.48V76.5C441.48 86.32 444.69 90.84 451.82 90.84C456.68 90.84 460.59 88.67 463.29 83.45H463.57L464.57 89.97H473.95V36.71H461.95L461.99 79.02Z" fill="#E5E1E1"/>
<path d="M497.18 57.74C493.27 54.87 490.84 52.96 490.84 48.74C490.84 45.74 492.23 44.13 495.53 44.13C498.83 44.13 500.05 46.48 500.13 54.47L510.21 54.04C510.99 41.09 506.73 35.71 495.7 35.71C485.45 35.71 480.41 40.31 480.41 49.78C480.41 58.38 484.58 62.29 491.36 67.42C497.18 71.94 500.57 74.42 500.57 78.1C500.614 78.7355 500.52 79.3731 500.295 79.9688C500.069 80.5645 499.717 81.1043 499.263 81.551C498.808 81.9976 498.263 82.3406 497.663 82.5562C497.064 82.7718 496.425 82.8549 495.79 82.8C492.23 82.8 490.14 79.41 490.66 73.5L480.5 73.67C478.93 84.67 483.37 91.13 495.18 91.13C505.52 91.13 510.9 86.36 510.9 76.8C510.9 68.21 506.57 64.69 497.18 57.74Z" fill="#E5E1E1"/>
<path d="M528.97 36.72H517.5V89.97H528.97V36.72Z" fill="#E5E1E1"/>
<path d="M523.33 15.6899C518.9 15.6899 516.81 17.3399 516.81 23.0699C516.81 28.9799 518.9 30.4599 523.33 30.4599C527.76 30.4599 529.84 28.9799 529.84 23.0699C529.84 17.5999 527.85 15.6899 523.33 15.6899Z" fill="#E5E1E1"/>
<path d="M567.57 70.7699L557.04 70.2099C557.04 79.5899 555.99 82.6299 552.43 82.6299C548.87 82.6299 548.26 79.2399 548.26 68.2099V57.9099C548.26 47.2299 548.96 43.8399 552.52 43.8399C555.82 43.8399 556.69 47.0499 556.69 56.9599L567.11 56.2599C567.81 48.0099 566.77 42.3599 563.55 39.1499C561.21 36.7999 557.65 35.6699 552.69 35.6699C541.05 35.6699 536.27 41.9299 536.27 59.4799V66.9499C536.27 85.0199 540.36 90.8399 552.27 90.8399C557.27 90.8399 560.78 89.8399 563.13 87.5399C566.51 84.4099 567.81 79.0199 567.57 70.7699Z" fill="#E5E1E1"/>
<path d="M158.27 88.41C155.72 86.5774 153.905 83.8977 153.15 80.85C152.009 76.3965 151.497 71.8053 151.63 67.21V59.47C151.63 53.7366 152.207 49.1333 153.36 45.66C154.235 42.5739 156.154 39.8875 158.79 38.06C161.263 36.46 164.493 35.6633 168.48 35.67C172.467 35.6766 175.623 36.4866 177.95 38.1C180.502 39.9673 182.343 42.6475 183.17 45.7C184.403 50.1821 184.959 54.8234 184.82 59.47V67.21C184.953 71.824 184.41 76.4327 183.21 80.89C182.416 83.9441 180.571 86.6209 178 88.45C175.587 90.0366 172.327 90.8333 168.22 90.84C163.987 90.84 160.67 90.03 158.27 88.41ZM171.74 80.07C172.407 78.33 172.74 75.49 172.74 71.55V54.96C172.74 51.13 172.41 48.34 171.74 46.57C171.533 45.799 171.074 45.1195 170.436 44.6393C169.798 44.1592 169.018 43.906 168.22 43.92C167.435 43.9157 166.67 44.1742 166.049 44.6544C165.427 45.1346 164.984 45.8089 164.79 46.57C164.12 48.34 163.79 51.13 163.79 54.96V71.55C163.79 75.49 164.123 78.33 164.79 80.07C164.99 80.8312 165.442 81.5022 166.072 81.9742C166.702 82.4462 167.473 82.6914 168.26 82.67C169.045 82.678 169.811 82.4279 170.439 81.9581C171.068 81.4883 171.525 80.8249 171.74 80.07V80.07Z" fill="#E5E1E1"/>
<path d="M342.82 67.3301V70.0301C342.78 72.5972 342.884 75.1645 343.13 77.7201C343.197 79.0561 343.633 80.3473 344.39 81.4501C344.756 81.8624 345.214 82.1837 345.726 82.3886C346.238 82.5934 346.79 82.6761 347.34 82.6301C348.095 82.7005 348.853 82.538 349.513 82.1643C350.173 81.7906 350.702 81.2238 351.03 80.5401C351.697 79.1468 352.06 76.8134 352.12 73.5401L362.46 74.1501C362.529 74.7844 362.559 75.4222 362.55 76.0601C362.55 80.9801 361.217 84.6468 358.55 87.0601C355.883 89.4735 352.073 90.6868 347.12 90.7001C341.213 90.7001 337.073 88.8468 334.7 85.1401C332.327 81.4334 331.137 75.7001 331.13 67.9401V58.6401C331.13 50.6401 332.363 44.8034 334.83 41.1301C337.297 37.4568 341.51 35.6201 347.47 35.6201C351.583 35.6201 354.74 36.3701 356.94 37.8701C359.272 39.5773 360.92 42.0587 361.59 44.8701C362.614 49.2394 363.055 53.7251 362.9 58.2101V67.3301H342.82ZM344.34 44.9201C343.614 46.0196 343.196 47.294 343.13 48.6101C342.883 51.1957 342.779 53.793 342.82 56.3901V60.2101H351.57V56.3901C351.609 53.7921 351.492 51.1941 351.22 48.6101C351.144 47.2728 350.709 45.9806 349.96 44.8701C349.601 44.4904 349.161 44.1963 348.673 44.0093C348.185 43.8224 347.661 43.7475 347.14 43.7901C346.618 43.7501 346.093 43.8312 345.608 44.0272C345.122 44.2233 344.688 44.5288 344.34 44.9201V44.9201Z" fill="#E5E1E1"/>
<path d="M129.07 66.3401L115.43 17.0701H127.34L132.12 39.4001C133.327 44.9001 134.223 49.5934 134.81 53.4801H135.16C135.56 50.7001 136.457 46.0334 137.85 39.4801L142.8 17.0601H154.71L140.89 66.3301V89.9601H129.07V66.3401Z" fill="#E5E1E1"/>
<path d="M223.57 36.71V89.97H214.19L213.19 83.46H212.93C210.383 88.38 206.56 90.84 201.46 90.84C197.92 90.84 195.32 89.68 193.64 87.37C191.96 85.06 191.12 81.43 191.12 76.5V36.71H203.12V75.81C203.01 77.5398 203.276 79.2728 203.9 80.89C204.134 81.3746 204.508 81.7782 204.973 82.0491C205.438 82.3199 205.973 82.4456 206.51 82.41C207.583 82.4018 208.628 82.0708 209.51 81.46C210.435 80.8625 211.173 80.017 211.64 79.02V36.71H223.57Z" fill="#E5E1E1"/>
<path d="M285.04 36.71V89.97H275.66L274.66 83.46H274.4C271.853 88.38 268.03 90.84 262.93 90.84C259.397 90.84 256.79 89.6833 255.11 87.37C253.43 85.0566 252.583 81.4333 252.57 76.5V36.71H264.57V75.81C264.455 77.5408 264.725 79.2756 265.36 80.89C265.592 81.3738 265.964 81.7771 266.427 82.0479C266.891 82.3188 267.424 82.4449 267.96 82.41C269.032 82.4 270.077 82.0691 270.96 81.46C271.88 80.8573 272.617 80.0132 273.09 79.02V36.71H285.04Z" fill="#E5E1E1"/>
<path d="M256.12 26.7201H244.21V89.9701H232.48V26.7201H220.57V17.0701H256.11L256.12 26.7201Z" fill="#E5E1E1"/>
<path d="M324.73 45.2099C323.997 41.8766 322.823 39.4432 321.21 37.9099C319.363 36.3443 316.988 35.5431 314.57 35.6699C312.375 35.6667 310.228 36.3139 308.4 37.5299C306.515 38.7463 304.987 40.4405 303.97 42.4399H303.88V14.3799H292.27V89.9699H302.18L303.39 84.9699H303.65C304.585 86.7767 306.041 88.2609 307.83 89.2299C309.712 90.2774 311.836 90.8152 313.99 90.7899C315.87 90.8558 317.727 90.3577 319.322 89.3598C320.917 88.3618 322.177 86.9096 322.94 85.1899C324.86 81.4499 325.817 75.6132 325.81 67.6799V59.2099C325.918 54.5189 325.556 49.8289 324.73 45.2099V45.2099ZM313.73 66.9399C313.775 69.9869 313.618 73.0336 313.26 76.0599C313.131 77.7348 312.577 79.349 311.65 80.7499C311.291 81.1972 310.833 81.5554 310.313 81.7965C309.793 82.0376 309.223 82.1551 308.65 82.1399C307.693 82.1479 306.749 81.9103 305.91 81.4499C305.059 80.9564 304.366 80.2317 303.91 79.3599V49.1399C304.26 47.7806 304.98 46.545 305.99 45.5699C306.826 44.7348 307.949 44.2486 309.13 44.2099C309.684 44.1876 310.235 44.3084 310.729 44.5606C311.222 44.8128 311.643 45.188 311.95 45.6499C312.781 47.1268 313.257 48.7771 313.34 50.4699C313.642 53.674 313.772 56.8919 313.73 60.1099V66.9399Z" fill="#E5E1E1"/>
<path d="M52.79 9.47408e-07C42.3483 -0.00197684 32.1405 3.09267 23.4577 8.89255C14.7749 14.6924 8.0071 22.937 4.01031 32.5835C0.0135243 42.23 -1.03274 52.8452 1.00386 63.0864C3.04045 73.3276 8.06842 82.7348 15.4518 90.1182C22.8353 97.5016 32.2424 102.53 42.4836 104.566C52.7248 106.603 63.34 105.556 72.9865 101.56C82.633 97.5629 90.8776 90.7951 96.6775 82.1123C102.477 73.4295 105.572 63.2217 105.57 52.78C105.567 38.7827 100.006 25.3594 90.1082 15.4618C80.2106 5.56424 66.7873 0.0026522 52.79 9.47408e-07V9.47408e-07ZM52.79 84.84C46.4491 84.84 40.2507 82.9597 34.9784 79.4369C29.7062 75.9141 25.597 70.907 23.1704 65.0488C20.7439 59.1906 20.109 52.7444 21.346 46.5254C22.5831 40.3064 25.6365 34.5938 30.1202 30.1102C34.6038 25.6265 40.3164 22.5731 46.5354 21.336C52.7544 20.099 59.2006 20.7339 65.0588 23.1604C70.917 25.587 75.9241 29.6962 79.4469 34.9684C82.9697 40.2407 84.85 46.4391 84.85 52.78C84.8473 61.282 81.4688 69.4351 75.4569 75.4469C69.4451 81.4588 61.292 84.8374 52.79 84.84Z" fill="#E5E1E1"/>
<path d="M52.79 24.98C47.2917 24.98 41.9168 26.6104 37.3451 29.6651C32.7735 32.7198 29.2103 37.0616 27.1062 42.1414C25.002 47.2212 24.4515 52.8108 25.5242 58.2035C26.5968 63.5962 29.2445 68.5497 33.1324 72.4376C37.0203 76.3255 41.9738 78.9731 47.3665 80.0458C52.7592 81.1185 58.3488 80.5679 63.4286 78.4638C68.5084 76.3597 72.8502 72.7965 75.9049 68.2248C78.9596 63.6532 80.59 58.2783 80.59 52.78C80.5821 45.4094 77.6506 38.343 72.4388 33.1312C67.227 27.9194 60.1606 24.9879 52.79 24.98V24.98ZM42.57 68.38V37.21L69.57 52.8L42.57 68.38Z" fill="#E5E1E1"/>
</g>
<defs>
<clipPath id="clip0_816_707">
<rect width="567.58" height="105.57" fill="white"/>
</clipPath>
</defs>
</svg>
