<?xml version="1.0" standalone="no"?>
<!DOCTYPE svg PUBLIC "-//W3C//DTD SVG 1.1//EN" "http://www.w3.org/Graphics/SVG/1.1/DTD/svg11.dtd">
<svg xmlns="http://www.w3.org/2000/svg"><metadata>This SVG WebFont was generated by YouWorkForThem.
Â© 2017 Connary Fagen</metadata><defs><font horiz-adv-x="1011" id="ywftsvg"><font-face ascent="960" bbox="-540 -490 1607 1119" cap-height="840" descent="-240" font-family="" font-stretch="normal" font-weight="800" panose-1="0 0 9 0 0 0 0 0 0 0" underline-position="0" underline-thickness="0" unicode-range="U+0020-25CA" units-per-em="1200" x-height="840"/><missing-glyph d="M431 900v-1050h-333v1050h333zM350 830h-174v-35h69v-39h-70v-34h175v34h-70v39h70v35zM280 694h-105v-109h175v36h-70v73zM245 659v-38h-35v38h35zM350 557h-175v-35h70v-39h-70v-34h105v73h70v35zM350 494h-35v-70h-140v-35h175v105zM350 366h-105v-59h35v24h35v-49 h-105v84h-35v-119h175v119zM350 184h-175v-119h175v119zM315 149v-49h-105v49h105zM350 41h-175v-35h74l-74 -49v-35h175v35h-107l73 49h34v35z" horiz-adv-x="525"/><glyph d="M431 900v-1050h-333v1050h333zM350 830h-174v-35h69v-39h-70v-34h175v34h-70v39h70v35zM280 694h-105v-109h175v36h-70v73zM245 659v-38h-35v38h35zM350 557h-175v-35h70v-39h-70v-34h105v73h70v35zM350 494h-35v-70h-140v-35h175v105zM350 366h-105v-59h35v24h35v-49 h-105v84h-35v-119h175v119zM350 184h-175v-119h175v119zM315 149v-49h-105v49h105zM350 41h-175v-35h74l-74 -49v-35h175v35h-107l73 49h34v35z" glyph-name=".notdef" horiz-adv-x="525"/><glyph glyph-name="glyph1" horiz-adv-x="0"/><glyph glyph-name="glyph2" horiz-adv-x="400"/><glyph glyph-name="space" horiz-adv-x="263" unicode=" "/><glyph d="M48 327l115 513h313l-241 -513h-187zM67 -16q-55 0 -90 35t-35 90q0 71 51 119.5t120 48.5q55 0 89.5 -35t34.5 -90q0 -71 -50.5 -119.5t-119.5 -48.5z" glyph-name="exclam" horiz-adv-x="367" unicode="!"/><glyph d="M82 458l104 382h261l-145 -382h-220zM383 458l104 382h261l-145 -382h-220z" glyph-name="quotedbl" horiz-adv-x="661" unicode="&quot;"/><glyph d="M841 468h-105l-26 -80h104l-72 -225h-105l-53 -163h-253l53 163h-81l-53 -163h-254l53 163h-105l72 225h106l26 80h-105l68 209h105l53 163h253l-53 -163h81l53 163h253l-53 -163h105zM457 388l26 80h-81l-26 -80h81z" glyph-name="numbersign" horiz-adv-x="853" unicode="#"/><glyph d="M794 528h-260q19 58 -30 69l-32 -97q36 -4 60 -7.5t61 -12t62 -21.5t49.5 -31.5t37 -46.5t12.5 -64q0 -117 -123 -191.5t-307 -83.5l-20 -60h-89l19 60q-333 15 -249 267h267q-22 -56 48 -65l30 93q-35 6 -55.5 10t-57 13.5t-59.5 22.5t-47 32t-36 47t-12 63 q0 112 121 188.5t296 83.5l21 66h89l-22 -67q314 -19 226 -268zM347 550q0 -22 41 -35l27 84q-29 -5 -48.5 -18t-19.5 -31zM462 284q0 20 -49 35l-24 -75q73 7 73 40z" glyph-name="dollar" horiz-adv-x="810" unicode="$"/><glyph d="M257 -29l-108 84l801 819l106 -83zM305 396q-88 0 -140 45t-52 128q0 110 85 196.5t204 86.5q85 0 138.5 -45.5t53.5 -129.5q0 -114 -83.5 -197.5t-205.5 -83.5zM340 568q27 0 48 20.5t21 48.5q0 43 -43 43q-27 0 -47.5 -20.5t-20.5 -48.5q0 -43 42 -43zM806 -12 q-88 0 -140.5 45t-52.5 128q0 110 85 196.5t204 86.5q86 0 139.5 -45.5t53.5 -129.5q0 -114 -83.5 -197.5t-205.5 -83.5zM841 160q27 0 48 20.5t21 48.5q0 44 -44 44q-26 0 -47 -21t-21 -48q0 -44 43 -44z" glyph-name="percent" horiz-adv-x="1208" unicode="%"/><glyph d="M1023 449q-48 -147 -136 -250l69 -61l-181 -175l-88 82q-147 -72 -342 -72q-184 0 -281 62t-97 178q0 100 73.5 175t192.5 114q-24 53 -24 107q0 116 117.5 184.5t302.5 68.5q85 0 152 -20t111.5 -61t55.5 -103t-16 -145h-253q19 56 -10.5 81.5t-86.5 25.5q-46 0 -77 -15 t-31 -38q0 -16 14.5 -31.5t58.5 -54.5q13 -11 21 -18l143 -127q44 50 58 93h254zM402 206q49 0 97 14l-157 145q-65 -30 -65 -82q0 -77 125 -77z" glyph-name="ampersand" horiz-adv-x="1070" unicode="&amp;"/><glyph d="M82 458l104 382h261l-145 -382h-220z" glyph-name="quotesingle" horiz-adv-x="361" unicode="'"/><glyph d="M382 -145q-200 0 -291.5 99.5t-91.5 275.5q0 118 29.5 228t91 205.5t148.5 166.5t210.5 112t268.5 41l-74 -248q-77 0 -143.5 -29.5t-112.5 -77.5t-79.5 -109.5t-49 -125t-15.5 -123.5q0 -93 42.5 -130t143.5 -37z" glyph-name="parenleft" horiz-adv-x="601" unicode="("/><glyph d="M219 983q200 0 291.5 -99.5t91.5 -275.5q0 -118 -29.5 -228t-91 -205.5t-148.5 -166.5t-210.5 -112t-268.5 -41l74 248q77 0 143.5 29.5t112.5 77.5t79.5 109.5t49 125t15.5 123.5q0 93 -42.5 130t-143.5 37z" glyph-name="parenright" horiz-adv-x="603" unicode=")"/><glyph d="M684 626l-157 -66l120 -64l-129 -150l-103 92l-38 -157h-172l59 147l-142 -82l-43 150l157 66l-120 64l129 149l103 -92l38 157h172l-60 -147l143 82z" glyph-name="asterisk" horiz-adv-x="674" unicode="*"/><glyph d="M784 542l-78 -243h-217l-70 -214h-266l70 214h-212l78 243h213l71 216h266l-71 -216h216z" glyph-name="plus" horiz-adv-x="795" unicode="+"/><glyph d="M349 259l-2 -7q0 3 2 7zM-86 0l81 252h352q-118 -351 -242 -495h-162q58 129 89 243h-118z" glyph-name="comma" horiz-adv-x="451" unicode=","/><glyph d="M-4 288l84 253h580l-84 -253h-580z" glyph-name="hyphen" horiz-adv-x="660" unicode="-"/><glyph d="M67 -16q-55 0 -90 35t-35 90q0 71 51 119.5t120 48.5q55 0 89.5 -35t34.5 -90q0 -71 -50.5 -119.5t-119.5 -48.5z" glyph-name="period" horiz-adv-x="362" unicode="."/><glyph d="M-126 0l658 840h357l-658 -840h-357z" glyph-name="slash" horiz-adv-x="763" unicode="/"/><glyph d="M338 -22q-219 0 -300 125t-7 348q65 201 203.5 306t340.5 105q219 0 299.5 -124t7.5 -349q-64 -201 -203 -306t-341 -105zM388 221q80 0 137.5 59.5t88.5 166.5q25 80 2.5 126t-91.5 46q-81 0 -137.5 -59t-88.5 -167q-25 -80 -2.5 -126t91.5 -46z" glyph-name="zero" horiz-adv-x="908" unicode="0"/><glyph d="M712 840l-199 -611h179l-74 -229h-717l74 229h235l102 313q-84 -47 -233 -38l81 246q122 0 250 90h302z" glyph-name="one" horiz-adv-x="786" unicode="1"/><glyph d="M870 651q0 -61 -28.5 -113.5t-72 -88t-105.5 -69.5t-116.5 -55.5t-119 -48.5t-100.5 -47h419l-74 -229h-787l43 134q21 65 78.5 120.5t128 91t148.5 69t142 57t105.5 51.5t41.5 56q0 21 -19.5 33.5t-56.5 12.5q-112 0 -140 -78h-281q31 148 153 231.5t308 83.5 q161 0 247 -53.5t86 -157.5z" glyph-name="two" horiz-adv-x="836" unicode="2"/><glyph d="M302 -22q-97 0 -167.5 17.5t-116.5 55t-55 96.5t17 143h260q-2 -19 3.5 -33t16 -21.5t27.5 -12t33 -6t37 -1.5q71 0 112 17.5t41 50.5q0 10 -2.5 17t-12.5 17.5t-36 16t-66 5.5h-55l52 168h52q151 0 151 66q0 51 -99 51q-66 0 -101.5 -18.5t-52.5 -58.5h-257 q35 166 157.5 240t302.5 74q157 0 245 -52.5t88 -142.5q0 -76 -49.5 -135.5t-141.5 -90.5l-5 -17q48 -18 80 -60t32 -99q0 -74 -42 -131t-112.5 -90t-155.5 -49.5t-180 -16.5z" glyph-name="three" horiz-adv-x="877" unicode="3"/><glyph d="M922 840l-156 -479h131l-73 -228h-131l-43 -133h-311l46 133h-448l75 228l550 479h360zM296 361h168l71 206z" glyph-name="four" horiz-adv-x="944" unicode="4"/><glyph d="M284 -22q-188 0 -271 82t-33 227h260q-1 -41 26.5 -57.5t73.5 -16.5q79 0 120 30.5t41 71.5q0 70 -101 70q-96 0 -147 -51h-256l168 506h695l-74 -227h-439l-31 -85q1 0 38.5 11t74 16.5t85.5 5.5q117 0 189 -55.5t72 -159.5q0 -165 -133 -266.5t-358 -101.5z" glyph-name="five" horiz-adv-x="839" unicode="5"/><glyph d="M876 573h-238q7 33 -20.5 51.5t-71.5 18.5q-34 0 -61 -5.5t-57 -20.5t-53.5 -46t-38.5 -77q75 36 197 36q280 0 280 -205q0 -109 -62 -189t-165.5 -119t-235.5 -39q-87 0 -152 24t-103 66.5t-56.5 96t-18.5 118.5q0 113 36.5 215.5t106.5 184.5t183 130.5t254 48.5 q165 0 246.5 -82.5t29.5 -206.5zM535 297q0 28 -26 43.5t-68 15.5q-67 0 -104.5 -31t-37.5 -74q0 -26 22.5 -42t70.5 -16q63 0 103 30t40 74z" glyph-name="six" horiz-adv-x="892" unicode="6"/><glyph d="M161 840h744l-79 -236l-586 -604h-325l597 604h-430z" glyph-name="seven" horiz-adv-x="784" unicode="7"/><glyph d="M327 -22q-188 0 -275.5 63t-87.5 163q0 85 56.5 151.5t162.5 103.5l6 13q-50 45 -50 123q0 118 107.5 192.5t289.5 74.5q155 0 232 -52t77 -140q0 -127 -146 -195l-5 -14q44 -30 71.5 -78.5t27.5 -107.5q0 -96 -63.5 -164.5t-167.5 -100.5t-235 -32zM467 537 q45 0 74.5 18t29.5 50q0 56 -73 56q-45 0 -73.5 -20t-28.5 -50q0 -54 71 -54zM357 200q69 0 107.5 26t38.5 65q0 37 -30 53t-70 16q-70 0 -107.5 -26.5t-37.5 -67.5q0 -66 99 -66z" glyph-name="eight" horiz-adv-x="871" unicode="8"/><glyph d="M542 862q87 0 152 -24t103 -66.5t56.5 -96t18.5 -118.5q0 -113 -36.5 -215.5t-106.5 -184.5t-183 -130.5t-254 -48.5q-165 0 -246.5 82.5t-29.5 206.5h238q-7 -33 20.5 -51.5t71.5 -18.5q34 0 61 5.5t57 20.5t53.5 46t38.5 77q-75 -36 -197 -36q-280 0 -280 205 q0 109 62 189t165.5 119t235.5 39zM357 543q0 -28 26 -43.5t68 -15.5q67 0 104.5 31t37.5 74q0 26 -22.5 42t-70.5 16q-63 0 -103 -30t-40 -74z" glyph-name="nine" horiz-adv-x="892" unicode="9"/><glyph d="M228 479q-55 0 -90 35t-35 90q0 71 51 119.5t120 48.5q55 0 89.5 -35t34.5 -90q0 -71 -50.5 -119.5t-119.5 -48.5zM92 59q-55 0 -90 35t-35 90q0 71 51 119.5t120 48.5q55 0 89.5 -35t34.5 -90q0 -71 -50.5 -119.5t-119.5 -48.5z" glyph-name="colon" horiz-adv-x="363" unicode=":"/><glyph d="M228 479q-55 0 -90 35t-35 90q0 71 51 119.5t120 48.5q55 0 89.5 -35t34.5 -90q0 -71 -50.5 -119.5t-119.5 -48.5zM360 335q0 3 2 7zM-73 83l81 252h352q-118 -351 -242 -495h-162q58 129 89 243h-118z" glyph-name="semicolon" horiz-adv-x="417" unicode=";"/><glyph d="M563 55l-561 202l100 322l695 206l-81 -254l-422 -95l-9 -28l358 -95z" glyph-name="less" horiz-adv-x="732" unicode="&lt;"/><glyph d="M58 447l83 253h650l-83 -253h-650zM-41 142l83 252h650l-83 -252h-650z" glyph-name="equal" horiz-adv-x="750" unicode="="/><glyph d="M168 785l561 -202l-100 -322l-695 -206l81 254l422 95l9 28l-358 95z" glyph-name="greater" horiz-adv-x="731" unicode=">"/><glyph d="M249 316q11 54 41.5 94t67 59.5t77.5 35t74 24t54.5 22t21.5 32.5q0 18 -27.5 30t-71.5 12q-121 0 -164 -99h-272q17 91 61.5 157t111 104.5t145 56.5t173.5 18q162 0 263 -56.5t101 -163.5q0 -55 -24.5 -99.5t-61.5 -70.5t-81.5 -49t-83.5 -37t-68.5 -32.5t-35.5 -37.5 h-301zM330 -16q-55 0 -90 35t-35 90q0 71 51 119.5t120 48.5q55 0 89.5 -35t34.5 -90q0 -71 -50.5 -119.5t-119.5 -48.5z" glyph-name="question" horiz-adv-x="856" unicode="?"/><glyph d="M857 195q-79 -105 -199.5 -164t-269.5 -59q-177 0 -278.5 90.5t-101.5 246.5q0 108 46.5 209.5t125.5 179t192.5 124t239.5 46.5q174 0 278 -88.5t104 -231.5q0 -106 -57.5 -182.5t-166.5 -76.5q-58 0 -76 23t1 85l100 246h-87l-33 -43h-12q-39 57 -127 57 q-126 0 -216.5 -100t-90.5 -219q0 -79 43 -121t117 -42q57 0 107 21.5t81 57.5h12q10 -36 46 -57.5t94 -21.5q70 0 118 28zM513 546q73 0 75 -79q0 -64 -48 -122.5t-111 -58.5q-72 0 -74 80q0 65 48 122.5t110 57.5z" glyph-name="at" horiz-adv-x="988" unicode="@"/><glyph d="M890 0h-301v101h-335l-65 -101h-323l565 840h427zM398 324h191v232h-42z" glyph-name="A" horiz-adv-x="1014" unicode="A"/><glyph d="M934 662q0 -66 -41 -122.5t-124 -84.5l-8 -17q23 -14 36 -24t30.5 -30t26 -48t8.5 -65q0 -73 -33.5 -126t-94.5 -84.5t-139.5 -46t-176.5 -14.5h-522l271 840h499q268 0 268 -178zM550 504q40 0 63 19t23 43q0 42 -57 42h-182l-34 -104h187zM485 232q39 0 64 18t25 48 q0 6 -1.5 12t-6.5 14.5t-18.5 14t-32.5 5.5h-204l-37 -112h211z" glyph-name="B" horiz-adv-x="938" unicode="B"/><glyph d="M404 -28q-187 0 -290 93.5t-103 260.5q0 106 45.5 204.5t124 173.5t192.5 119.5t243 44.5q133 0 229.5 -52.5t135 -141.5t9.5 -193h-291q0 60 -38.5 93t-102.5 33q-107 0 -175.5 -72.5t-68.5 -166.5q0 -65 42 -100t106 -35q136 0 204 121h291q-28 -89 -77.5 -158 t-106 -110t-124 -67.5t-126.5 -36.5t-119 -10z" glyph-name="C" horiz-adv-x="997" unicode="C"/><glyph d="M-102 0l271 840h397q199 0 294 -84t95 -236q0 -163 -79.5 -282.5t-213 -178.5t-302.5 -59h-462zM282 253h131q99 0 167.5 64.5t68.5 160.5q0 61 -41 85t-125 24h-92z" glyph-name="D" horiz-adv-x="969" unicode="D"/><glyph d="M867 599h-475l-26 -82h473l-62 -190h-473l-27 -86h473l-79 -241h-775l271 840h779z" glyph-name="E" horiz-adv-x="840" unicode="E"/><glyph d="M857 588h-469l-30 -91h446l-77 -239h-446l-84 -258h-301l271 840h772z" glyph-name="F" horiz-adv-x="835" unicode="F"/><glyph d="M558 607q-107 0 -175.5 -72.5t-68.5 -166.5q0 -65 42 -100t106 -35q131 0 184 92h-181l48 147h479l-152 -472h-149l26 98q-56 -58 -140 -92t-184 -34q-181 0 -281.5 90.5t-100.5 256.5q0 109 45.5 209t124 175t192.5 120t243 45q186 0 294 -99t89 -236h-305 q-16 33 -51.5 53.5t-84.5 20.5z" glyph-name="G" horiz-adv-x="1001" unicode="G"/><glyph d="M763 840h302l-270 -840h-302l91 282h-292l-91 -282h-303l271 840h302l-98 -306h292z" glyph-name="H" horiz-adv-x="964" unicode="H"/><glyph d="M-104 0l271 840h303l-271 -840h-303z" glyph-name="I" horiz-adv-x="367" unicode="I"/><glyph d="M303 -28q-420 0 -303 379h301q-8 -25 -9.5 -45.5t1 -33t10 -21.5t14 -13t18 -6.5t16 -2.5h12.5q92 0 131 116l159 495h303l-158 -492q-35 -109 -84 -184t-113 -116.5t-135 -58.5t-163 -17z" glyph-name="J" horiz-adv-x="852" unicode="J"/><glyph d="M1083 840l-447 -382l272 -458h-301l-183 307h-27l-133 -105l-66 -202h-302l275 840h302l-86 -263h37l315 263h344z" glyph-name="K" unicode="K"/><glyph d="M-104 0l274 840h302l-192 -588h454l-81 -252h-757z" glyph-name="L" horiz-adv-x="823" unicode="L"/><glyph d="M-102 0l271 840h365l-31 -435h26l250 434h397l-269 -839h-290l106 326h-28l-177 -326h-220l22 326h-27l-106 -326h-289z" glyph-name="M" horiz-adv-x="1076" unicode="M"/><glyph d="M-104 0l275 840h335l112 -426h31l141 426h295l-273 -840h-327l-123 419h-31l-139 -419h-296z" glyph-name="N" horiz-adv-x="981" unicode="N"/><glyph d="M404 -28q-187 0 -290.5 92.5t-103.5 256.5q0 108 45.5 208t124 174.5t190.5 119.5t237 45q187 0 290.5 -92.5t103.5 -255.5q0 -108 -45.5 -208t-124 -175t-190.5 -120t-237 -45zM453 233q106 0 175 74.5t71 163.5q0 66 -40.5 101t-100.5 35q-106 0 -174.5 -74.5 t-70.5 -163.5q0 -66 40.5 -101t99.5 -35z" glyph-name="O" unicode="O"/><glyph d="M603 840q163 0 246 -62t83 -198q0 -133 -61 -229.5t-162 -144t-229 -47.5h-229l-52 -159h-303l275 840h432zM489 408q58 0 95 30.5t37 84.5q0 66 -84 66h-144l-60 -182z" glyph-name="P" horiz-adv-x="929" unicode="P"/><glyph d="M1001 520q0 -106 -43.5 -204t-121.5 -174l67 -97q-97 -90 -223 -171l-95 123q-89 -25 -181 -25q-187 0 -290.5 92.5t-103.5 256.5q0 108 45.5 208t124 174.5t190.5 119.5t237 45q187 0 290.5 -92.5t103.5 -255.5zM313 369q0 -66 40.5 -101t99.5 -35q106 0 175 74.5 t71 163.5q0 66 -40.5 101t-100.5 35q-106 0 -174.5 -74.5t-70.5 -163.5z" glyph-name="Q" horiz-adv-x="1020" unicode="Q"/><glyph d="M940 589q0 -107 -54 -190.5t-142 -133.5l59 -265h-290l-43 205h-203l-66 -205h-303l271 840h446q164 0 244.5 -62t80.5 -189zM391 589l-53 -164l179 2q39 0 76.5 25t37.5 71q0 36 -20.5 51t-65.5 15h-154z" glyph-name="R" horiz-adv-x="940" unicode="R"/><glyph d="M333 -28q-69 0 -126 7t-104.5 21.5t-79.5 39.5t-50 59t-16.5 81t22.5 105h256q-8 -42 32.5 -62t108.5 -20q72 0 119.5 15.5t47.5 49.5q0 8 -2 14.5t-9.5 15.5t-26 15.5t-47.5 9.5l-67 10q-27 3 -43.5 5t-52 9.5t-60 16.5t-55.5 26t-50 37.5t-32.5 52t-13.5 68.5 q0 151 129 235.5t342 84.5q135 0 226.5 -36t124.5 -105.5t-13 -169.5h-248q6 29 -25.5 55t-106.5 26q-64 0 -102.5 -19t-38.5 -49q0 -39 69 -49l47 -7q15 -3 57.5 -9.5t67 -11.5t64.5 -15.5t64.5 -25t49.5 -35.5t37 -52t12 -69q0 -72 -27 -128t-73.5 -92.5t-112 -60 t-138 -33.5t-156.5 -10z" glyph-name="S" horiz-adv-x="909" unicode="S"/><glyph d="M1056 840l-82 -252h-291l-192 -588h-303l192 588h-298l80 252h894z" glyph-name="T" horiz-adv-x="948" unicode="T"/><glyph d="M377 -28q-240 0 -331.5 105t-24.5 307l150 456h307l-159 -478q-23 -65 1.5 -102t98.5 -37q76 0 120.5 40t73.5 129l146 448h307l-157 -483q-69 -210 -191.5 -297.5t-340.5 -87.5z" glyph-name="U" horiz-adv-x="963" unicode="U"/><glyph d="M171 0l-32 840h297l1 -556h34l351 556h330l-564 -840h-417z" glyph-name="V" horiz-adv-x="1019" unicode="V"/><glyph d="M32 0l118 840h303l-92 -516h28l270 516h237l-58 -516h27l240 516h314l-426 -840h-408l56 362h-25l-176 -362h-408z" glyph-name="W" horiz-adv-x="1301" unicode="W"/><glyph d="M-134 0l413 416l11 27l-150 397h303l79 -231h28l198 231h333l-398 -404l-11 -26l155 -410h-317l-72 220h-28l-205 -220h-339z" glyph-name="X" horiz-adv-x="967" unicode="X"/><glyph d="M1105 840l-527 -586l-82 -254h-302l86 272l-146 568h305l65 -288h22l247 288h332z" glyph-name="Y" horiz-adv-x="977" unicode="Y"/><glyph d="M-111 0l79 248l507 318l10 24h-399l83 250h803l-80 -248l-507 -318l-10 -24h398l-83 -250h-801z" glyph-name="Z" horiz-adv-x="859" unicode="Z"/><glyph d="M-148 -135l361 1110h507l-82 -252h-205l-196 -606h205l-82 -252h-508z" glyph-name="bracketleft" horiz-adv-x="573" unicode="["/><glyph d="M524 0l-388 840h347l388 -840h-347z" glyph-name="backslash" horiz-adv-x="1007" unicode="\"/><glyph d="M721 975l-361 -1110h-507l82 252h205l196 606h-205l82 252h508z" glyph-name="bracketright" horiz-adv-x="573" unicode="]"/><glyph d="M-8 247l374 627h344v-627h-242l33 405h-32l-229 -405h-248z" glyph-name="asciicircum" horiz-adv-x="818" unicode="^"/><glyph d="M-169 -252l83 252h623l-83 -252h-623z" glyph-name="underscore" horiz-adv-x="723" unicode="_"/><glyph d="M518 680h-275l-102 179h274z" glyph-name="grave" horiz-adv-x="434" unicode="`"/><glyph d="M890 0h-301v101h-335l-65 -101h-323l565 840h427zM398 324h191v232h-42z" glyph-name="a" horiz-adv-x="1014" unicode="a"/><glyph d="M934 662q0 -66 -41 -122.5t-124 -84.5l-8 -17q23 -14 36 -24t30.5 -30t26 -48t8.5 -65q0 -73 -33.5 -126t-94.5 -84.5t-139.5 -46t-176.5 -14.5h-522l271 840h499q268 0 268 -178zM550 504q40 0 63 19t23 43q0 42 -57 42h-182l-34 -104h187zM485 232q39 0 64 18t25 48 q0 6 -1.5 12t-6.5 14.5t-18.5 14t-32.5 5.5h-204l-37 -112h211z" glyph-name="b" horiz-adv-x="938" unicode="b"/><glyph d="M404 -28q-187 0 -290 93.5t-103 260.5q0 106 45.5 204.5t124 173.5t192.5 119.5t243 44.5q133 0 229.5 -52.5t135 -141.5t9.5 -193h-291q0 60 -38.5 93t-102.5 33q-107 0 -175.5 -72.5t-68.5 -166.5q0 -65 42 -100t106 -35q136 0 204 121h291q-28 -89 -77.5 -158 t-106 -110t-124 -67.5t-126.5 -36.5t-119 -10z" glyph-name="c" horiz-adv-x="997" unicode="c"/><glyph d="M-102 0l271 840h397q199 0 294 -84t95 -236q0 -163 -79.5 -282.5t-213 -178.5t-302.5 -59h-462zM282 253h131q99 0 167.5 64.5t68.5 160.5q0 61 -41 85t-125 24h-92z" glyph-name="d" horiz-adv-x="969" unicode="d"/><glyph d="M867 599h-475l-26 -82h473l-62 -190h-473l-27 -86h473l-79 -241h-775l271 840h779z" glyph-name="e" horiz-adv-x="840" unicode="e"/><glyph d="M857 588h-469l-30 -91h446l-77 -239h-446l-84 -258h-301l271 840h772z" glyph-name="f" horiz-adv-x="835" unicode="f"/><glyph d="M558 607q-107 0 -175.5 -72.5t-68.5 -166.5q0 -65 42 -100t106 -35q131 0 184 92h-181l48 147h479l-152 -472h-149l26 98q-56 -58 -140 -92t-184 -34q-181 0 -281.5 90.5t-100.5 256.5q0 109 45.5 209t124 175t192.5 120t243 45q186 0 294 -99t89 -236h-305 q-16 33 -51.5 53.5t-84.5 20.5z" glyph-name="g" horiz-adv-x="1001" unicode="g"/><glyph d="M763 840h302l-270 -840h-302l91 282h-292l-91 -282h-303l271 840h302l-98 -306h292z" glyph-name="h" horiz-adv-x="964" unicode="h"/><glyph d="M-104 0l271 840h303l-271 -840h-303z" glyph-name="i" horiz-adv-x="367" unicode="i"/><glyph d="M303 -28q-420 0 -303 379h301q-8 -25 -9.5 -45.5t1 -33t10 -21.5t14 -13t18 -6.5t16 -2.5h12.5q92 0 131 116l159 495h303l-158 -492q-35 -109 -84 -184t-113 -116.5t-135 -58.5t-163 -17z" glyph-name="j" horiz-adv-x="852" unicode="j"/><glyph d="M1083 840l-447 -382l272 -458h-301l-183 307h-27l-133 -105l-66 -202h-302l275 840h302l-86 -263h37l315 263h344z" glyph-name="k" unicode="k"/><glyph d="M-104 0l274 840h302l-192 -588h454l-81 -252h-757z" glyph-name="l" horiz-adv-x="823" unicode="l"/><glyph d="M-102 0l271 840h365l-31 -435h26l250 434h397l-269 -839h-290l106 326h-28l-177 -326h-220l22 326h-27l-106 -326h-289z" glyph-name="m" horiz-adv-x="1076" unicode="m"/><glyph d="M-104 0l275 840h335l112 -426h31l141 426h295l-273 -840h-327l-123 419h-31l-139 -419h-296z" glyph-name="n" horiz-adv-x="981" unicode="n"/><glyph d="M404 -28q-187 0 -290.5 92.5t-103.5 256.5q0 108 45.5 208t124 174.5t190.5 119.5t237 45q187 0 290.5 -92.5t103.5 -255.5q0 -108 -45.5 -208t-124 -175t-190.5 -120t-237 -45zM453 233q106 0 175 74.5t71 163.5q0 66 -40.5 101t-100.5 35q-106 0 -174.5 -74.5 t-70.5 -163.5q0 -66 40.5 -101t99.5 -35z" glyph-name="o" unicode="o"/><glyph d="M603 840q163 0 246 -62t83 -198q0 -133 -61 -229.5t-162 -144t-229 -47.5h-229l-52 -159h-303l275 840h432zM489 408q58 0 95 30.5t37 84.5q0 66 -84 66h-144l-60 -182z" glyph-name="p" horiz-adv-x="929" unicode="p"/><glyph d="M1001 520q0 -106 -43.5 -204t-121.5 -174l67 -97q-97 -90 -223 -171l-95 123q-89 -25 -181 -25q-187 0 -290.5 92.5t-103.5 256.5q0 108 45.5 208t124 174.5t190.5 119.5t237 45q187 0 290.5 -92.5t103.5 -255.5zM313 369q0 -66 40.5 -101t99.5 -35q106 0 175 74.5 t71 163.5q0 66 -40.5 101t-100.5 35q-106 0 -174.5 -74.5t-70.5 -163.5z" glyph-name="q" horiz-adv-x="1020" unicode="q"/><glyph d="M940 589q0 -107 -54 -190.5t-142 -133.5l59 -265h-290l-43 205h-203l-66 -205h-303l271 840h446q164 0 244.5 -62t80.5 -189zM391 589l-53 -164l179 2q39 0 76.5 25t37.5 71q0 36 -20.5 51t-65.5 15h-154z" glyph-name="r" horiz-adv-x="940" unicode="r"/><glyph d="M333 -28q-69 0 -126 7t-104.5 21.5t-79.5 39.5t-50 59t-16.5 81t22.5 105h256q-8 -42 32.5 -62t108.5 -20q72 0 119.5 15.5t47.5 49.5q0 8 -2 14.5t-9.5 15.5t-26 15.5t-47.5 9.5l-67 10q-27 3 -43.5 5t-52 9.5t-60 16.5t-55.5 26t-50 37.5t-32.5 52t-13.5 68.5 q0 151 129 235.5t342 84.5q135 0 226.5 -36t124.5 -105.5t-13 -169.5h-248q6 29 -25.5 55t-106.5 26q-64 0 -102.5 -19t-38.5 -49q0 -39 69 -49l47 -7q15 -3 57.5 -9.5t67 -11.5t64.5 -15.5t64.5 -25t49.5 -35.5t37 -52t12 -69q0 -72 -27 -128t-73.5 -92.5t-112 -60 t-138 -33.5t-156.5 -10z" glyph-name="s" horiz-adv-x="909" unicode="s"/><glyph d="M1056 840l-82 -252h-291l-192 -588h-303l192 588h-298l80 252h894z" glyph-name="t" horiz-adv-x="948" unicode="t"/><glyph d="M377 -28q-240 0 -331.5 105t-24.5 307l150 456h307l-159 -478q-23 -65 1.5 -102t98.5 -37q76 0 120.5 40t73.5 129l146 448h307l-157 -483q-69 -210 -191.5 -297.5t-340.5 -87.5z" glyph-name="u" horiz-adv-x="963" unicode="u"/><glyph d="M171 0l-32 840h297l1 -556h34l351 556h330l-564 -840h-417z" glyph-name="v" horiz-adv-x="1019" unicode="v"/><glyph d="M32 0l118 840h303l-92 -516h28l270 516h237l-58 -516h27l240 516h314l-426 -840h-408l56 362h-25l-176 -362h-408z" glyph-name="w" horiz-adv-x="1301" unicode="w"/><glyph d="M-134 0l413 416l11 27l-150 397h303l79 -231h28l198 231h333l-398 -404l-11 -26l155 -410h-317l-72 220h-28l-205 -220h-339z" glyph-name="x" horiz-adv-x="967" unicode="x"/><glyph d="M1105 840l-527 -586l-82 -254h-302l86 272l-146 568h305l65 -288h22l247 288h332z" glyph-name="y" horiz-adv-x="977" unicode="y"/><glyph d="M-111 0l79 248l507 318l10 24h-399l83 250h803l-80 -248l-507 -318l-10 -24h398l-83 -250h-801z" glyph-name="z" horiz-adv-x="859" unicode="z"/><glyph d="M155 -135q-20 0 -38.5 4t-39.5 14.5t-31.5 29.5t-14 49t12.5 73l78 232l-74 143l2 25l164 138l89 262q11 34 25.5 59.5t32.5 40.5t32 23.5t36.5 12t32 4t30.5 0.5h374l-82 -252h-162q-19 0 -41 -15t-28 -33l-29 -102l-167 -148l-5 -25l65 -132l-39 -133q-2 -8 -3 -11.5 t1.5 -5.5t4.5 -2t9.5 0.5t12.5 0.5h185l-82 -252h-351z" glyph-name="braceleft" horiz-adv-x="731" unicode="{"/><glyph d="M-137 -100l339 1040h302l-338 -1040h-303z" glyph-name="bar" horiz-adv-x="368" unicode="|"/><glyph d="M575 975q20 0 38.5 -4t39.5 -14.5t31.5 -29.5t14 -49t-12.5 -73l-78 -232l74 -143l-2 -25l-164 -138l-89 -262q-11 -34 -25.5 -59.5t-32.5 -40.5t-32 -23.5t-36.5 -12t-32 -4t-30.5 -0.5h-374l82 252h162q19 0 41 15t28 33l29 102l167 148l5 25l-65 132l39 133 q2 8 3 11.5t-1.5 5.5t-4.5 2t-9.5 -0.5t-12.5 -0.5h-185l82 252h351z" glyph-name="braceright" horiz-adv-x="730" unicode="}"/><glyph d="M440 306q-52 1 -120 35t-107 34q-73 0 -97 -60h-98q14 76 60.5 130t103.5 77t118 23q51 0 119 -34t106 -35q73 3 99 60h98q-20 -111 -103.5 -169.5t-178.5 -60.5z" glyph-name="asciitilde" horiz-adv-x="735" unicode="~"/><glyph d="M230 640q55 0 90 -35t35 -90q0 -71 -51 -119.5t-120 -48.5q-55 0 -89.5 35t-34.5 90q0 71 50.5 119.5t119.5 48.5zM249 297l-115 -513h-313l241 513h187z" glyph-name="exclamdown" horiz-adv-x="367" unicode="¡"/><glyph d="M638 475q0 47 -28 78l-233 -297q21 -6 46 -6q123 0 185 110h265q-26 -81 -71 -143.5t-96 -100t-112.5 -61.5t-115 -33t-108.5 -9q-92 0 -164 26l-31 -39h-92l57 72q-127 83 -127 262q0 129 69.5 241.5t197 182t283.5 69.5q81 0 153 -24l29 37h92l-54 -68 q81 -48 113.5 -127t6.5 -170h-265zM288 373q0 -49 27 -79l230 293q-16 3 -35 3q-97 0 -159.5 -66t-62.5 -151z" glyph-name="cent" horiz-adv-x="911" unicode="¢"/><glyph d="M829 517h-283q21 53 -3 75.5t-67 22.5q-58 0 -88.5 -26.5t-30.5 -68.5q0 -18 8 -45.5t10 -37.5h297l-40 -122h-278q-25 -44 -83 -78v-8h470l-74 -229h-786l74 229q101 25 142 86h-108l40 122h66q-21 69 -21 121q0 91 61 161t162 106.5t224 36.5t207.5 -38t117 -115 t-16.5 -192z" glyph-name="sterling" horiz-adv-x="818" unicode="£"/><glyph d="M728 571q0 -43 -12 -81l57 -59l-133 -131l-41 41q-64 -39 -140 -39q-74 0 -139 38l-40 -40l-133 131l55 55q-14 40 -14 85q0 47 16 93l-57 58l133 132l48 -47q60 33 131 33q72 0 132 -34l49 48l133 -132l-60 -62q15 -42 15 -89zM459 477q28 0 48.5 9.5t29.5 20.5t14 28.5 t5 22.5v13v13t-5 22.5t-14 29t-29.5 21.5t-48.5 10q-29 0 -49.5 -10t-29.5 -21t-14 -29t-5 -23v-13q0 -83 78 -93q9 -1 20 -1z" glyph-name="currency" horiz-adv-x="819" unicode="¤"/><glyph d="M1105 840l-433 -481h205l-39 -114h-263l-12 -37h265l-39 -116h-263l-30 -92h-302l29 92h-264l39 116h262l12 37h-264l39 114h211l-124 481h305l65 -288h22l247 288h332z" glyph-name="yen" horiz-adv-x="977" unicode="¥"/><glyph d="M43 452l159 488h302l-158 -488h-303zM-137 -100l159 488h303l-159 -488h-303z" glyph-name="brokenbar" horiz-adv-x="368" unicode="¦"/><glyph d="M950 671h-270q7 40 -22.5 60.5t-101.5 20.5q-115 0 -133 -53q-14 -41 48 -52l80 -15q22 -4 62 -10t67 -11t63 -13t59.5 -20.5t45.5 -29.5t33 -43.5t11 -59.5q0 -162 -139 -246q32 -38 32 -98q0 -109 -78.5 -188.5t-199.5 -117t-264 -36.5q-218 1 -306 77t-26 241h274 q-13 -40 17 -61t113 -22q68 -1 109 15t48 40q3 6 2 14t-5 15.5t-20 14.5t-42 11l-99 17q-130 21 -180 42q-116 49 -116 165q0 135 165 203q-54 47 -54 137q0 106 67.5 179.5t180.5 107t264 33.5q54 0 100.5 -6t91 -19.5t76 -38t51 -58.5t19 -84t-22.5 -111zM583 375 q0 52 -67 62l-99 16h-2q-42 2 -73.5 -21t-31.5 -59q0 -47 61 -59l73 -14h2q58 -8 97.5 13t39.5 62z" glyph-name="section" horiz-adv-x="915" unicode="§"/><glyph d="M206 681q-38 0 -63 25.5t-25 60.5q0 46 38 81.5t83 35.5q38 0 63 -25.5t25 -61.5q0 -46 -38 -81t-83 -35zM528 681q-38 0 -63 25.5t-25 60.5q0 46 38 81.5t83 35.5q38 0 63 -25.5t25 -61.5q0 -46 -38 -81t-83 -35z" glyph-name="dieresis" horiz-adv-x="530" unicode="¨"/><glyph d="M295 319q-97 0 -155.5 57t-58.5 154q0 134 96.5 233t241.5 99q97 0 155.5 -57t58.5 -154q0 -135 -96.5 -233.5t-241.5 -98.5zM314 418q54 0 107.5 26t82.5 88h-94q-30 -39 -76 -39q-33 0 -49.5 19.5t-16.5 52.5q0 48 35.5 86.5t83.5 38.5q23 0 40.5 -11t19.5 -31h95 q-1 59 -41.5 89t-99.5 30q-97 0 -160 -67.5t-63 -151.5q0 -61 35.5 -95.5t100.5 -34.5z" glyph-name="copyright" horiz-adv-x="603" unicode="©"/><glyph d="M509 840h138l-140 -433h-129l-10 26q-50 -26 -99 -26q-75 0 -121 47.5t-46 123.5q0 112 77.5 190t182.5 78q71 0 113 -47zM278 621q0 -44 46 -44q27 0 42.5 16.5t15.5 39.5q0 25 -14 35t-31 10q-25 0 -42 -18t-17 -39z" glyph-name="ordfeminine" horiz-adv-x="548" unicode="ª"/><glyph d="M676 725l-293 -303l110 -307h-327l-106 307l296 303h320zM1071 725l-293 -303l110 -307h-327l-106 307l296 303h320z" glyph-name="guillemotleft" horiz-adv-x="1045" unicode="«"/><glyph d="M446 266l35 107h-446l65 202h694l-99 -309h-249z" glyph-name="logicalnot" horiz-adv-x="795" unicode="¬"/><glyph d="M-4 288l84 253h580l-84 -253h-580z" glyph-name="uni00AD" horiz-adv-x="660" unicode="­"/><glyph d="M295 319q-97 0 -155.5 57t-58.5 154q0 134 96.5 233t241.5 99q97 0 155.5 -57t58.5 -154q0 -135 -96.5 -233.5t-241.5 -98.5zM181 433h83l30 96h68l26 -96h86l-33 111q83 40 83 114q0 39 -28.5 64t-91.5 25h-122zM316 597l25 78h59q20 0 29.5 -10t9.5 -24 q0 -19 -16 -31.5t-38 -12.5h-69z" glyph-name="registered" horiz-adv-x="603" unicode="®"/><glyph d="M86 684l72 219h480l-72 -219h-480z" glyph-name="macron" horiz-adv-x="482" unicode="¯"/><glyph d="M293 385q-85 0 -134 48t-49 128q0 118 84 201.5t206 83.5q85 0 134 -48t49 -129q0 -117 -84.5 -200.5t-205.5 -83.5zM333 570q25 0 41 18t16 38q0 34 -32 34q-25 0 -41 -18t-16 -38q0 -34 32 -34z" glyph-name="degree" horiz-adv-x="568" unicode="°"/><glyph d="M642 766h216l-78 -243h-217l-70 -214h-266l70 214h-212l78 243h213l71 216h266zM-43 0l83 252h650l-83 -252h-650z" glyph-name="plusminus" horiz-adv-x="794" unicode="±"/><glyph d="M84 680l103 179h274l-102 -179h-275z" glyph-name="acute" horiz-adv-x="320" unicode="´"/><glyph d="M598 680h302l-220 -680h-297l23 88h-24q-80 -93 -189 -104l-43 -134h-303l270 830h302l-123 -378h1q-10 -26 -8 -43.5t6 -27.5t14 -15t15.5 -6t10.5 -1q47 0 86.5 31.5t56.5 69.5z" glyph-name="uni00B5" horiz-adv-x="849" unicode="µ"/><glyph d="M428 0l58 180h-118q-325 0 -325 246q0 195 143 304.5t374 109.5h443l-272 -840h-303zM858 0l272 840h303l-272 -840h-303z" glyph-name="paragraph" horiz-adv-x="1330" unicode="¶"/><glyph d="M206 274q-55 0 -90 35t-35 90q0 71 51 119.5t120 48.5q55 0 89.5 -35t34.5 -90q0 -71 -50.5 -119.5t-119.5 -48.5z" glyph-name="periodcentered" horiz-adv-x="457" unicode="·"/><glyph d="M8 -33q34 -9 55.5 -36.5t21.5 -72.5q0 -94 -92 -128.5t-211 4.5l32 104q38 -14 81 -10.5t43 25.5q0 9 -13 15t-38.5 7t-64.5 -7l17 58l108 74h119z" glyph-name="cedilla" horiz-adv-x="275" unicode="¸"/><glyph d="M276 409q-78 0 -126.5 49t-48.5 125q0 106 79 184.5t189 78.5q78 0 126 -48.5t48 -125.5q0 -107 -79 -185t-188 -78zM315 577q26 0 41.5 17.5t15.5 40.5q0 21 -13 32t-30 11q-25 0 -41 -18.5t-16 -41.5q0 -41 43 -41z" glyph-name="ordmasculine" horiz-adv-x="509" unicode="º"/><glyph d="M-26 115l293 303l-110 307h327l106 -307l-296 -303h-320zM369 115l293 303l-110 307h327l106 -307l-296 -303h-320z" glyph-name="guillemotright" horiz-adv-x="1045" unicode="»"/><glyph d="M428 640q55 0 90 -35t35 -90q0 -71 -51 -119.5t-120 -48.5q-55 0 -89.5 35t-34.5 90q0 71 50.5 119.5t119.5 48.5zM509 308q-11 -54 -41.5 -94t-67 -59.5t-77.5 -35t-74 -24t-54.5 -22t-21.5 -32.5q0 -18 27.5 -30t71.5 -12q121 0 164 99h272q-17 -91 -61.5 -157 t-111 -104.5t-145 -56.5t-173.5 -18q-162 0 -263 56.5t-101 163.5q0 55 24.5 99.5t61.5 70.5t81.5 49t83.5 37t68.5 32.5t35.5 37.5h301z" glyph-name="questiondown" horiz-adv-x="841" unicode="¿"/><glyph d="M803 890h-275l-102 179h274zM890 0h-301v101h-335l-65 -101h-323l565 840h427zM398 324h191v232h-42z" glyph-name="Agrave" horiz-adv-x="1014" unicode="À"/><glyph d="M903 1069l-102 -179h-275l103 179h274zM431 840h427l32 -840h-301v101h-335l-65 -101h-323zM398 324h191v232h-42z" glyph-name="Aacute" horiz-adv-x="1014" unicode="Á"/><glyph d="M661 963l-58 -73h-268l175 179h382l74 -179h-246l-24 73h-35zM431 840h427l32 -840h-301v101h-335l-65 -101h-323zM398 324h191v232h-42z" glyph-name="Acircumflex" horiz-adv-x="1014" unicode="Â"/><glyph d="M930 1030q15 -88 -32 -133t-117 -45q-49 0 -115 27.5t-96 27.5q-26 0 -43.5 -10.5t-19.5 -30.5h-78q-15 87 33 132t117 45q49 0 115 -27.5t96 -27.5q25 0 43 10.5t20 31.5h77zM431 840h427l32 -840h-301v101h-335l-65 -101h-323zM398 324h191v232h-42z" glyph-name="Atilde" horiz-adv-x="1014" unicode="Ã"/><glyph d="M508 891q-38 0 -63 25.5t-25 60.5q0 46 38 81.5t83 35.5q38 0 63 -25.5t25 -61.5q0 -46 -38 -81t-83 -35zM863 1094q38 0 63 -25.5t25 -61.5q0 -46 -38 -81t-83 -35q-38 0 -63 25.5t-25 60.5q0 46 38 81.5t83 35.5zM431 840h427l32 -840h-301v101h-335l-65 -101h-323z M398 324h191v232h-42z" glyph-name="Adieresis" horiz-adv-x="1014" unicode="Ä"/><glyph d="M890 0h-301v101h-335l-65 -101h-323l565 840h155q-60 32 -60 108q0 75 51.5 123t119.5 48q55 0 88.5 -33t33.5 -87q0 -52 -27.5 -95.5t-72.5 -63.5h139zM680 1000q-14 0 -23.5 -10t-9.5 -24q0 -8 6 -14t16 -6q15 0 23.5 10t8.5 25q0 7 -5.5 13t-15.5 6zM398 324h191v232 h-42z" glyph-name="Aring" horiz-adv-x="1014" unicode="Å"/><glyph d="M1488 599h-475l-26 -82h473l-62 -190h-473l-27 -86h473l-79 -241h-775l41 126h-279l-93 -126h-320l658 840h1043zM442 347h187l78 241h-87z" glyph-name="AE" horiz-adv-x="1460" unicode="Æ"/><glyph d="M558 607q-107 0 -175.5 -72.5t-68.5 -166.5q0 -65 42 -100t106 -35q136 0 204 121h291q-28 -89 -77.5 -158t-106 -110t-124 -67.5t-126.5 -36.5t-119 -10h-18l-10 -5q34 -9 55.5 -36.5t21.5 -72.5q0 -94 -92 -128.5t-211 4.5l32 104q38 -14 81 -10.5t43 25.5q0 9 -13 15 t-38.5 7t-64.5 -7l17 58l82 57q-134 26 -206 115t-72 228q0 106 45.5 204.5t124 173.5t192.5 119.5t243 44.5q133 0 229.5 -52.5t135 -141.5t9.5 -193h-291q0 60 -38.5 93t-102.5 33z" glyph-name="Ccedilla" horiz-adv-x="997" unicode="Ç"/><glyph d="M701 890h-275l-102 179h274zM867 599h-475l-26 -82h473l-62 -190h-473l-27 -86h473l-79 -241h-775l271 840h779z" glyph-name="Egrave" horiz-adv-x="840" unicode="È"/><glyph d="M801 1069l-102 -179h-275l103 179h274zM867 599h-475l-26 -82h473l-62 -190h-473l-27 -86h473l-79 -241h-775l271 840h779z" glyph-name="Eacute" horiz-adv-x="840" unicode="É"/><glyph d="M559 963l-58 -73h-268l175 179h382l74 -179h-246l-24 73h-35zM867 599h-475l-26 -82h473l-62 -190h-473l-27 -86h473l-79 -241h-775l271 840h779z" glyph-name="Ecircumflex" horiz-adv-x="840" unicode="Ê"/><glyph d="M406 891q-38 0 -63 25.5t-25 60.5q0 46 38 81.5t83 35.5q38 0 63 -25.5t25 -61.5q0 -46 -38 -81t-83 -35zM728 891q-38 0 -63 25.5t-25 60.5q0 46 38 81.5t83 35.5q38 0 63 -25.5t25 -61.5q0 -46 -38 -81t-83 -35zM867 599h-475l-26 -82h473l-62 -190h-473l-27 -86h473 l-79 -241h-775l271 840h779z" glyph-name="Edieresis" horiz-adv-x="840" unicode="Ë"/><glyph d="M461 890h-275l-102 179h274zM-104 0l271 840h303l-271 -840h-303z" glyph-name="Igrave" horiz-adv-x="367" unicode="Ì"/><glyph d="M184 890l103 179h274l-102 -179h-275zM-104 0l271 840h303l-271 -840h-303z" glyph-name="Iacute" horiz-adv-x="367" unicode="Í"/><glyph d="M-7 890l175 179h382l74 -179h-246l-24 73h-35l-58 -73h-268zM-104 0l271 840h303l-271 -840h-303z" glyph-name="Icircumflex" horiz-adv-x="367" unicode="Î"/><glyph d="M166 891q-38 0 -63 25.5t-25 60.5q0 46 38 81.5t83 35.5q38 0 63 -25.5t25 -61.5q0 -46 -38 -81t-83 -35zM488 891q-38 0 -63 25.5t-25 60.5q0 46 38 81.5t83 35.5q38 0 63 -25.5t25 -61.5q0 -46 -38 -81t-83 -35zM-104 0l271 840h303l-271 -840h-303z" glyph-name="Idieresis" horiz-adv-x="367" unicode="Ï"/><glyph d="M645 840q199 0 294 -84t95 -236q0 -163 -79.5 -282.5t-213 -178.5t-302.5 -59h-462l99 307h-102l72 219h101l101 314h397zM492 253q99 0 167.5 64.5t68.5 160.5q0 61 -41 85t-125 24h-92l-20 -61h131l-72 -219h-130l-18 -54h131z" glyph-name="Eth" horiz-adv-x="1048" unicode="Ð"/><glyph d="M750 852q-49 0 -115 27.5t-96 27.5q-26 0 -43.5 -10.5t-19.5 -30.5h-78q-15 87 33 132t117 45q49 0 115 -27.5t96 -27.5q25 0 43 10.5t20 31.5h77q15 -88 -32 -133t-117 -45zM-104 0l275 840h335l112 -426h31l141 426h295l-273 -840h-327l-123 419h-31l-139 -419h-296z " glyph-name="Ntilde" horiz-adv-x="981" unicode="Ñ"/><glyph d="M786 894h-275l-102 179h274zM404 -28q-187 0 -290.5 92.5t-103.5 256.5q0 108 45.5 208t124 174.5t190.5 119.5t237 45q187 0 290.5 -92.5t103.5 -255.5q0 -108 -45.5 -208t-124 -175t-190.5 -120t-237 -45zM453 233q106 0 175 74.5t71 163.5q0 66 -40.5 101t-100.5 35 q-106 0 -174.5 -74.5t-70.5 -163.5q0 -66 40.5 -101t99.5 -35z" glyph-name="Ograve" unicode="Ò"/><glyph d="M509 894l103 179h274l-102 -179h-275zM404 -28q-187 0 -290.5 92.5t-103.5 256.5q0 108 45.5 208t124 174.5t190.5 119.5t237 45q187 0 290.5 -92.5t103.5 -255.5q0 -108 -45.5 -208t-124 -175t-190.5 -120t-237 -45zM453 233q106 0 175 74.5t71 163.5q0 66 -40.5 101 t-100.5 35q-106 0 -174.5 -74.5t-70.5 -163.5q0 -66 40.5 -101t99.5 -35z" glyph-name="Oacute" unicode="Ó"/><glyph d="M318 894l175 179h382l74 -179h-246l-24 73h-35l-58 -73h-268zM404 -28q-187 0 -290.5 92.5t-103.5 256.5q0 108 45.5 208t124 174.5t190.5 119.5t237 45q187 0 290.5 -92.5t103.5 -255.5q0 -108 -45.5 -208t-124 -175t-190.5 -120t-237 -45zM453 233q106 0 175 74.5 t71 163.5q0 66 -40.5 101t-100.5 35q-106 0 -174.5 -74.5t-70.5 -163.5q0 -66 40.5 -101t99.5 -35z" glyph-name="Ocircumflex" unicode="Ô"/><glyph d="M764 856q-49 0 -115 27.5t-96 27.5q-26 0 -43.5 -10.5t-19.5 -30.5h-78q-15 87 33 132t117 45q49 0 115 -27.5t96 -27.5q25 0 43 10.5t20 31.5h77q15 -88 -32 -133t-117 -45zM404 -28q-187 0 -290.5 92.5t-103.5 256.5q0 108 45.5 208t124 174.5t190.5 119.5t237 45 q187 0 290.5 -92.5t103.5 -255.5q0 -108 -45.5 -208t-124 -175t-190.5 -120t-237 -45zM453 233q106 0 175 74.5t71 163.5q0 66 -40.5 101t-100.5 35q-106 0 -174.5 -74.5t-70.5 -163.5q0 -66 40.5 -101t99.5 -35z" glyph-name="Otilde" unicode="Õ"/><glyph d="M491 895q-38 0 -63 25.5t-25 60.5q0 46 38 81.5t83 35.5q38 0 63 -25.5t25 -61.5q0 -46 -38 -81t-83 -35zM813 895q-38 0 -63 25.5t-25 60.5q0 46 38 81.5t83 35.5q38 0 63 -25.5t25 -61.5q0 -46 -38 -81t-83 -35zM404 -28q-187 0 -290.5 92.5t-103.5 256.5 q0 108 45.5 208t124 174.5t190.5 119.5t237 45q187 0 290.5 -92.5t103.5 -255.5q0 -108 -45.5 -208t-124 -175t-190.5 -120t-237 -45zM453 233q106 0 175 74.5t71 163.5q0 66 -40.5 101t-100.5 35q-106 0 -174.5 -74.5t-70.5 -163.5q0 -66 40.5 -101t99.5 -35z" glyph-name="Odieresis" unicode="Ö"/><glyph d="M740 563l-205 -155l97 -144l-215 -160l-96 142l-201 -152l-118 175l201 152l-106 156l215 160l105 -155l206 156z" glyph-name="multiply" horiz-adv-x="743" unicode="×"/><glyph d="M882 788q119 -92 119 -268q0 -108 -45.5 -208t-124 -175t-190.5 -120t-237 -45q-74 0 -136 15l-29 -38h-179l75 98q-125 93 -125 274q0 108 45.5 208t124 174.5t190.5 119.5t237 45q78 0 144 -17l32 41h179zM313 369q0 -39 16 -69l235 307h-6q-106 0 -174.5 -74.5 t-70.5 -163.5zM457 233q70 1 126.5 38t85 90.5t30.5 109.5q0 35 -12 62z" glyph-name="Oslash" unicode="Ø"/><glyph d="M763 890h-275l-102 179h274zM377 -28q-240 0 -331.5 105t-24.5 307l150 456h307l-159 -478q-23 -65 1.5 -102t98.5 -37q76 0 120.5 40t73.5 129l146 448h307l-157 -483q-69 -210 -191.5 -297.5t-340.5 -87.5z" glyph-name="Ugrave" horiz-adv-x="963" unicode="Ù"/><glyph d="M486 890l103 179h274l-102 -179h-275zM377 -28q-240 0 -331.5 105t-24.5 307l150 456h307l-159 -478q-23 -65 1.5 -102t98.5 -37q76 0 120.5 40t73.5 129l146 448h307l-157 -483q-69 -210 -191.5 -297.5t-340.5 -87.5z" glyph-name="Uacute" horiz-adv-x="963" unicode="Ú"/><glyph d="M295 890l175 179h382l74 -179h-246l-24 73h-35l-58 -73h-268zM377 -28q-240 0 -331.5 105t-24.5 307l150 456h307l-159 -478q-23 -65 1.5 -102t98.5 -37q76 0 120.5 40t73.5 129l146 448h307l-157 -483q-69 -210 -191.5 -297.5t-340.5 -87.5z" glyph-name="Ucircumflex" horiz-adv-x="963" unicode="Û"/><glyph d="M468 891q-38 0 -63 25.5t-25 60.5q0 46 38 81.5t83 35.5q38 0 63 -25.5t25 -61.5q0 -46 -38 -81t-83 -35zM790 891q-38 0 -63 25.5t-25 60.5q0 46 38 81.5t83 35.5q38 0 63 -25.5t25 -61.5q0 -46 -38 -81t-83 -35zM377 -28q-240 0 -331.5 105t-24.5 307l150 456h307 l-159 -478q-23 -65 1.5 -102t98.5 -37q76 0 120.5 40t73.5 129l146 448h307l-157 -483q-69 -210 -191.5 -297.5t-340.5 -87.5z" glyph-name="Udieresis" horiz-adv-x="963" unicode="Ü"/><glyph d="M862 1069l-102 -179h-275l103 179h274zM1105 840l-527 -586l-82 -254h-302l86 272l-146 568h305l65 -288h22l247 288h332z" glyph-name="Yacute" horiz-adv-x="977" unicode="Ý"/><glyph d="M559 750q197 0 281 -90.5t27 -270.5q-52 -157 -175.5 -228t-319.5 -71h-142l-29 -90h-303l271 840h302l-29 -90h117zM577 451q11 28 -5 38t-60 10h-151l-50 -158h121q46 0 87.5 29t57.5 81z" glyph-name="Thorn" horiz-adv-x="892" unicode="Þ"/><glyph d="M-104 0l185 568q23 72 62.5 126t83.5 85.5t101 50.5t109 25.5t113 6.5q179 0 259.5 -58.5t80.5 -147.5q0 -65 -39.5 -116.5t-110.5 -79.5l-6 -21q41 -26 66.5 -64.5t25.5 -105.5q0 -70 -34.5 -122.5t-96 -84t-140.5 -47t-174 -15.5h-132l73 228h105q56 0 89.5 18t33.5 54 q0 46 -67 46h-122l54 165h81q42 0 69 13t27 38q0 44 -83 44q-113 0 -141 -84l-169 -522h-303z" glyph-name="germandbls" horiz-adv-x="900" unicode="ß"/><glyph d="M803 890h-275l-102 179h274zM890 0h-301v101h-335l-65 -101h-323l565 840h427zM398 324h191v232h-42z" glyph-name="agrave" horiz-adv-x="1014" unicode="à"/><glyph d="M903 1069l-102 -179h-275l103 179h274zM431 840h427l32 -840h-301v101h-335l-65 -101h-323zM398 324h191v232h-42z" glyph-name="aacute" horiz-adv-x="1014" unicode="á"/><glyph d="M661 963l-58 -73h-268l175 179h382l74 -179h-246l-24 73h-35zM431 840h427l32 -840h-301v101h-335l-65 -101h-323zM398 324h191v232h-42z" glyph-name="acircumflex" horiz-adv-x="1014" unicode="â"/><glyph d="M930 1030q15 -88 -32 -133t-117 -45q-49 0 -115 27.5t-96 27.5q-26 0 -43.5 -10.5t-19.5 -30.5h-78q-15 87 33 132t117 45q49 0 115 -27.5t96 -27.5q25 0 43 10.5t20 31.5h77zM431 840h427l32 -840h-301v101h-335l-65 -101h-323zM398 324h191v232h-42z" glyph-name="atilde" horiz-adv-x="1014" unicode="ã"/><glyph d="M508 891q-38 0 -63 25.5t-25 60.5q0 46 38 81.5t83 35.5q38 0 63 -25.5t25 -61.5q0 -46 -38 -81t-83 -35zM863 1094q38 0 63 -25.5t25 -61.5q0 -46 -38 -81t-83 -35q-38 0 -63 25.5t-25 60.5q0 46 38 81.5t83 35.5zM431 840h427l32 -840h-301v101h-335l-65 -101h-323z M398 324h191v232h-42z" glyph-name="adieresis" horiz-adv-x="1014" unicode="ä"/><glyph d="M890 0h-301v101h-335l-65 -101h-323l565 840h155q-60 32 -60 108q0 75 51.5 123t119.5 48q55 0 88.5 -33t33.5 -87q0 -52 -27.5 -95.5t-72.5 -63.5h139zM680 1000q-14 0 -23.5 -10t-9.5 -24q0 -8 6 -14t16 -6q15 0 23.5 10t8.5 25q0 7 -5.5 13t-15.5 6zM398 324h191v232 h-42z" glyph-name="aring" horiz-adv-x="1014" unicode="å"/><glyph d="M1488 599h-475l-26 -82h473l-62 -190h-473l-27 -86h473l-79 -241h-775l41 126h-279l-93 -126h-320l658 840h1043zM442 347h187l78 241h-87z" glyph-name="ae" horiz-adv-x="1460" unicode="æ"/><glyph d="M558 607q-107 0 -175.5 -72.5t-68.5 -166.5q0 -65 42 -100t106 -35q136 0 204 121h291q-28 -89 -77.5 -158t-106 -110t-124 -67.5t-126.5 -36.5t-119 -10h-18l-10 -5q34 -9 55.5 -36.5t21.5 -72.5q0 -94 -92 -128.5t-211 4.5l32 104q38 -14 81 -10.5t43 25.5q0 9 -13 15 t-38.5 7t-64.5 -7l17 58l82 57q-134 26 -206 115t-72 228q0 106 45.5 204.5t124 173.5t192.5 119.5t243 44.5q133 0 229.5 -52.5t135 -141.5t9.5 -193h-291q0 60 -38.5 93t-102.5 33z" glyph-name="ccedilla" horiz-adv-x="997" unicode="ç"/><glyph d="M701 890h-275l-102 179h274zM867 599h-475l-26 -82h473l-62 -190h-473l-27 -86h473l-79 -241h-775l271 840h779z" glyph-name="egrave" horiz-adv-x="840" unicode="è"/><glyph d="M801 1069l-102 -179h-275l103 179h274zM867 599h-475l-26 -82h473l-62 -190h-473l-27 -86h473l-79 -241h-775l271 840h779z" glyph-name="eacute" horiz-adv-x="840" unicode="é"/><glyph d="M559 963l-58 -73h-268l175 179h382l74 -179h-246l-24 73h-35zM867 599h-475l-26 -82h473l-62 -190h-473l-27 -86h473l-79 -241h-775l271 840h779z" glyph-name="ecircumflex" horiz-adv-x="840" unicode="ê"/><glyph d="M406 891q-38 0 -63 25.5t-25 60.5q0 46 38 81.5t83 35.5q38 0 63 -25.5t25 -61.5q0 -46 -38 -81t-83 -35zM728 891q-38 0 -63 25.5t-25 60.5q0 46 38 81.5t83 35.5q38 0 63 -25.5t25 -61.5q0 -46 -38 -81t-83 -35zM867 599h-475l-26 -82h473l-62 -190h-473l-27 -86h473 l-79 -241h-775l271 840h779z" glyph-name="edieresis" horiz-adv-x="840" unicode="ë"/><glyph d="M461 890h-275l-102 179h274zM-104 0l271 840h303l-271 -840h-303z" glyph-name="igrave" horiz-adv-x="367" unicode="ì"/><glyph d="M184 890l103 179h274l-102 -179h-275zM-104 0l271 840h303l-271 -840h-303z" glyph-name="iacute" horiz-adv-x="367" unicode="í"/><glyph d="M-7 890l175 179h382l74 -179h-246l-24 73h-35l-58 -73h-268zM-104 0l271 840h303l-271 -840h-303z" glyph-name="icircumflex" horiz-adv-x="367" unicode="î"/><glyph d="M166 891q-38 0 -63 25.5t-25 60.5q0 46 38 81.5t83 35.5q38 0 63 -25.5t25 -61.5q0 -46 -38 -81t-83 -35zM488 891q-38 0 -63 25.5t-25 60.5q0 46 38 81.5t83 35.5q38 0 63 -25.5t25 -61.5q0 -46 -38 -81t-83 -35zM-104 0l271 840h303l-271 -840h-303z" glyph-name="idieresis" horiz-adv-x="367" unicode="ï"/><glyph d="M645 840q199 0 294 -84t95 -236q0 -163 -79.5 -282.5t-213 -178.5t-302.5 -59h-462l99 307h-102l72 219h101l101 314h397zM492 253q99 0 167.5 64.5t68.5 160.5q0 61 -41 85t-125 24h-92l-20 -61h131l-72 -219h-130l-18 -54h131z" glyph-name="eth" horiz-adv-x="1048" unicode="ð"/><glyph d="M750 852q-49 0 -115 27.5t-96 27.5q-26 0 -43.5 -10.5t-19.5 -30.5h-78q-15 87 33 132t117 45q49 0 115 -27.5t96 -27.5q25 0 43 10.5t20 31.5h77q15 -88 -32 -133t-117 -45zM-104 0l275 840h335l112 -426h31l141 426h295l-273 -840h-327l-123 419h-31l-139 -419h-296z " glyph-name="ntilde" horiz-adv-x="981" unicode="ñ"/><glyph d="M786 894h-275l-102 179h274zM404 -28q-187 0 -290.5 92.5t-103.5 256.5q0 108 45.5 208t124 174.5t190.5 119.5t237 45q187 0 290.5 -92.5t103.5 -255.5q0 -108 -45.5 -208t-124 -175t-190.5 -120t-237 -45zM453 233q106 0 175 74.5t71 163.5q0 66 -40.5 101t-100.5 35 q-106 0 -174.5 -74.5t-70.5 -163.5q0 -66 40.5 -101t99.5 -35z" glyph-name="ograve" unicode="ò"/><glyph d="M509 894l103 179h274l-102 -179h-275zM404 -28q-187 0 -290.5 92.5t-103.5 256.5q0 108 45.5 208t124 174.5t190.5 119.5t237 45q187 0 290.5 -92.5t103.5 -255.5q0 -108 -45.5 -208t-124 -175t-190.5 -120t-237 -45zM453 233q106 0 175 74.5t71 163.5q0 66 -40.5 101 t-100.5 35q-106 0 -174.5 -74.5t-70.5 -163.5q0 -66 40.5 -101t99.5 -35z" glyph-name="oacute" unicode="ó"/><glyph d="M318 894l175 179h382l74 -179h-246l-24 73h-35l-58 -73h-268zM404 -28q-187 0 -290.5 92.5t-103.5 256.5q0 108 45.5 208t124 174.5t190.5 119.5t237 45q187 0 290.5 -92.5t103.5 -255.5q0 -108 -45.5 -208t-124 -175t-190.5 -120t-237 -45zM453 233q106 0 175 74.5 t71 163.5q0 66 -40.5 101t-100.5 35q-106 0 -174.5 -74.5t-70.5 -163.5q0 -66 40.5 -101t99.5 -35z" glyph-name="ocircumflex" unicode="ô"/><glyph d="M764 856q-49 0 -115 27.5t-96 27.5q-26 0 -43.5 -10.5t-19.5 -30.5h-78q-15 87 33 132t117 45q49 0 115 -27.5t96 -27.5q25 0 43 10.5t20 31.5h77q15 -88 -32 -133t-117 -45zM404 -28q-187 0 -290.5 92.5t-103.5 256.5q0 108 45.5 208t124 174.5t190.5 119.5t237 45 q187 0 290.5 -92.5t103.5 -255.5q0 -108 -45.5 -208t-124 -175t-190.5 -120t-237 -45zM453 233q106 0 175 74.5t71 163.5q0 66 -40.5 101t-100.5 35q-106 0 -174.5 -74.5t-70.5 -163.5q0 -66 40.5 -101t99.5 -35z" glyph-name="otilde" unicode="õ"/><glyph d="M491 895q-38 0 -63 25.5t-25 60.5q0 46 38 81.5t83 35.5q38 0 63 -25.5t25 -61.5q0 -46 -38 -81t-83 -35zM813 895q-38 0 -63 25.5t-25 60.5q0 46 38 81.5t83 35.5q38 0 63 -25.5t25 -61.5q0 -46 -38 -81t-83 -35zM404 -28q-187 0 -290.5 92.5t-103.5 256.5 q0 108 45.5 208t124 174.5t190.5 119.5t237 45q187 0 290.5 -92.5t103.5 -255.5q0 -108 -45.5 -208t-124 -175t-190.5 -120t-237 -45zM453 233q106 0 175 74.5t71 163.5q0 66 -40.5 101t-100.5 35q-106 0 -174.5 -74.5t-70.5 -163.5q0 -66 40.5 -101t99.5 -35z" glyph-name="odieresis" unicode="ö"/><glyph d="M442 586q-47 0 -76.5 30t-29.5 77q0 60 43 101.5t102 41.5q47 0 76.5 -30t29.5 -77q0 -60 -43.5 -101.5t-101.5 -41.5zM18 317l65 207h650l-65 -207h-650zM254 -3q-47 0 -76.5 30t-29.5 77q0 60 43 101.5t102 41.5q47 0 76.5 -30t29.5 -77q0 -60 -43.5 -101.5 t-101.5 -41.5z" glyph-name="divide" horiz-adv-x="750" unicode="÷"/><glyph d="M882 788q119 -92 119 -268q0 -108 -45.5 -208t-124 -175t-190.5 -120t-237 -45q-74 0 -136 15l-29 -38h-179l75 98q-125 93 -125 274q0 108 45.5 208t124 174.5t190.5 119.5t237 45q78 0 144 -17l32 41h179zM313 369q0 -39 16 -69l235 307h-6q-106 0 -174.5 -74.5 t-70.5 -163.5zM457 233q70 1 126.5 38t85 90.5t30.5 109.5q0 35 -12 62z" glyph-name="oslash" unicode="ø"/><glyph d="M763 890h-275l-102 179h274zM377 -28q-240 0 -331.5 105t-24.5 307l150 456h307l-159 -478q-23 -65 1.5 -102t98.5 -37q76 0 120.5 40t73.5 129l146 448h307l-157 -483q-69 -210 -191.5 -297.5t-340.5 -87.5z" glyph-name="ugrave" horiz-adv-x="963" unicode="ù"/><glyph d="M486 890l103 179h274l-102 -179h-275zM377 -28q-240 0 -331.5 105t-24.5 307l150 456h307l-159 -478q-23 -65 1.5 -102t98.5 -37q76 0 120.5 40t73.5 129l146 448h307l-157 -483q-69 -210 -191.5 -297.5t-340.5 -87.5z" glyph-name="uacute" horiz-adv-x="963" unicode="ú"/><glyph d="M295 890l175 179h382l74 -179h-246l-24 73h-35l-58 -73h-268zM377 -28q-240 0 -331.5 105t-24.5 307l150 456h307l-159 -478q-23 -65 1.5 -102t98.5 -37q76 0 120.5 40t73.5 129l146 448h307l-157 -483q-69 -210 -191.5 -297.5t-340.5 -87.5z" glyph-name="ucircumflex" horiz-adv-x="963" unicode="û"/><glyph d="M468 891q-38 0 -63 25.5t-25 60.5q0 46 38 81.5t83 35.5q38 0 63 -25.5t25 -61.5q0 -46 -38 -81t-83 -35zM790 891q-38 0 -63 25.5t-25 60.5q0 46 38 81.5t83 35.5q38 0 63 -25.5t25 -61.5q0 -46 -38 -81t-83 -35zM377 -28q-240 0 -331.5 105t-24.5 307l150 456h307 l-159 -478q-23 -65 1.5 -102t98.5 -37q76 0 120.5 40t73.5 129l146 448h307l-157 -483q-69 -210 -191.5 -297.5t-340.5 -87.5z" glyph-name="udieresis" horiz-adv-x="963" unicode="ü"/><glyph d="M862 1069l-102 -179h-275l103 179h274zM1105 840l-527 -586l-82 -254h-302l86 272l-146 568h305l65 -288h22l247 288h332z" glyph-name="yacute" horiz-adv-x="977" unicode="ý"/><glyph d="M559 750q197 0 281 -90.5t27 -270.5q-52 -157 -175.5 -228t-319.5 -71h-142l-29 -90h-303l271 840h302l-29 -90h117zM577 451q11 28 -5 38t-60 10h-151l-50 -158h121q46 0 87.5 29t57.5 81z" glyph-name="thorn" horiz-adv-x="892" unicode="þ"/><glyph d="M467 891q-38 0 -63 25.5t-25 60.5q0 46 38 81.5t83 35.5q38 0 63 -25.5t25 -61.5q0 -46 -38 -81t-83 -35zM789 891q-38 0 -63 25.5t-25 60.5q0 46 38 81.5t83 35.5q38 0 63 -25.5t25 -61.5q0 -46 -38 -81t-83 -35zM1105 840l-527 -586l-82 -254h-302l86 272l-146 568h305 l65 -288h22l247 288h332z" glyph-name="ydieresis" horiz-adv-x="977" unicode="ÿ"/><glyph d="M507 1113h480l-72 -219h-480zM431 840h427l32 -840h-301v101h-335l-65 -101h-323zM398 324h191v232h-42z" glyph-name="Amacron" horiz-adv-x="1014" unicode="Ā"/><glyph d="M507 1113h480l-72 -219h-480zM431 840h427l32 -840h-301v101h-335l-65 -101h-323zM398 324h191v232h-42z" glyph-name="amacron" horiz-adv-x="1014" unicode="ā"/><glyph d="M787 1069h168q-22 -102 -89.5 -140.5t-175.5 -38.5q-119 0 -175 39t-30 140h170q-12 -55 51 -55q29 0 52 13.5t29 41.5zM431 840h427l32 -840h-301v101h-335l-65 -101h-323zM398 324h191v232h-42z" glyph-name="Abreve" horiz-adv-x="1014" unicode="Ă"/><glyph d="M787 1069h168q-22 -102 -89.5 -140.5t-175.5 -38.5q-119 0 -175 39t-30 140h170q-12 -55 51 -55q29 0 52 13.5t29 41.5zM431 840h427l32 -840h-301v101h-335l-65 -101h-323zM398 324h191v232h-42z" glyph-name="abreve" horiz-adv-x="1014" unicode="ă"/><glyph d="M593 0q-73 0 -73 -44v-1q0 -8 1 -14.5t12 -14.5t31 -8v-162q-40 0 -78.5 7t-77.5 23.5t-63 49t-24 77.5q0 31 12 56.5t27.5 41.5t43.5 28t47.5 18t52.5 10t46 4.5l39 1.5v28h-335l-65 -101h-323l565 840h427l32 -840h-297zM398 324h191v232h-42z" glyph-name="Aogonek" horiz-adv-x="1014" unicode="Ą"/><glyph d="M593 0q-73 0 -73 -44v-1q0 -8 1 -14.5t12 -14.5t31 -8v-162q-40 0 -78.5 7t-77.5 23.5t-63 49t-24 77.5q0 31 12 56.5t27.5 41.5t43.5 28t47.5 18t52.5 10t46 4.5l39 1.5v28h-335l-65 -101h-323l565 840h427l32 -840h-297zM398 324h191v232h-42z" glyph-name="aogonek" horiz-adv-x="1014" unicode="ą"/><glyph d="M527 890l103 179h274l-102 -179h-275zM404 -28q-187 0 -290 93.5t-103 260.5q0 106 45.5 204.5t124 173.5t192.5 119.5t243 44.5q133 0 229.5 -52.5t135 -141.5t9.5 -193h-291q0 60 -38.5 93t-102.5 33q-107 0 -175.5 -72.5t-68.5 -166.5q0 -65 42 -100t106 -35 q136 0 204 121h291q-28 -89 -77.5 -158t-106 -110t-124 -67.5t-126.5 -36.5t-119 -10z" glyph-name="Cacute" horiz-adv-x="997" unicode="Ć"/><glyph d="M527 890l103 179h274l-102 -179h-275zM404 -28q-187 0 -290 93.5t-103 260.5q0 106 45.5 204.5t124 173.5t192.5 119.5t243 44.5q133 0 229.5 -52.5t135 -141.5t9.5 -193h-291q0 60 -38.5 93t-102.5 33q-107 0 -175.5 -72.5t-68.5 -166.5q0 -65 42 -100t106 -35 q136 0 204 121h291q-28 -89 -77.5 -158t-106 -110t-124 -67.5t-126.5 -36.5t-119 -10z" glyph-name="cacute" horiz-adv-x="997" unicode="ć"/><glyph d="M691 891q-38 0 -63 25.5t-25 60.5q0 46 38 81.5t83 35.5q38 0 63 -25.5t25 -61.5q0 -46 -38 -81t-83 -35zM404 -28q-187 0 -290 93.5t-103 260.5q0 106 45.5 204.5t124 173.5t192.5 119.5t243 44.5q133 0 229.5 -52.5t135 -141.5t9.5 -193h-291q0 60 -38.5 93t-102.5 33 q-107 0 -175.5 -72.5t-68.5 -166.5q0 -65 42 -100t106 -35q136 0 204 121h291q-28 -89 -77.5 -158t-106 -110t-124 -67.5t-126.5 -36.5t-119 -10z" glyph-name="Cdotaccent" horiz-adv-x="997" unicode="Ċ"/><glyph d="M691 891q-38 0 -63 25.5t-25 60.5q0 46 38 81.5t83 35.5q38 0 63 -25.5t25 -61.5q0 -46 -38 -81t-83 -35zM404 -28q-187 0 -290 93.5t-103 260.5q0 106 45.5 204.5t124 173.5t192.5 119.5t243 44.5q133 0 229.5 -52.5t135 -141.5t9.5 -193h-291q0 60 -38.5 93t-102.5 33 q-107 0 -175.5 -72.5t-68.5 -166.5q0 -65 42 -100t106 -35q136 0 204 121h291q-28 -89 -77.5 -158t-106 -110t-124 -67.5t-126.5 -36.5t-119 -10z" glyph-name="cdotaccent" horiz-adv-x="997" unicode="ċ"/><glyph d="M733 856q150 -32 222 -137t35 -238h-291q0 60 -38.5 93t-102.5 33q-107 0 -175.5 -72.5t-68.5 -166.5q0 -65 42 -100t106 -35q136 0 204 121h291q-28 -89 -77.5 -158t-106 -110t-124 -67.5t-126.5 -36.5t-119 -10q-187 0 -290 93.5t-103 260.5q0 189 132.5 339.5 t342.5 190.5h-33l-74 179h246l24 -73h35l58 73h268l-175 -179h-102z" glyph-name="Ccaron" horiz-adv-x="997" unicode="Č"/><glyph d="M733 856q150 -32 222 -137t35 -238h-291q0 60 -38.5 93t-102.5 33q-107 0 -175.5 -72.5t-68.5 -166.5q0 -65 42 -100t106 -35q136 0 204 121h291q-28 -89 -77.5 -158t-106 -110t-124 -67.5t-126.5 -36.5t-119 -10q-187 0 -290 93.5t-103 260.5q0 189 132.5 339.5 t342.5 190.5h-33l-74 179h246l24 -73h35l58 73h268l-175 -179h-102z" glyph-name="ccaron" horiz-adv-x="997" unicode="č"/><glyph d="M962 1035l-175 -179h-382l-74 179h246l24 -73h35l58 73h268zM-102 0l271 840h397q199 0 294 -84t95 -236q0 -163 -79.5 -282.5t-213 -178.5t-302.5 -59h-462zM282 253h131q99 0 167.5 64.5t68.5 160.5q0 61 -41 85t-125 24h-92z" glyph-name="Dcaron" horiz-adv-x="969" unicode="Ď"/><glyph d="M962 1035l-175 -179h-382l-74 179h246l24 -73h35l58 73h268zM-102 0l271 840h397q199 0 294 -84t95 -236q0 -163 -79.5 -282.5t-213 -178.5t-302.5 -59h-462zM282 253h131q99 0 167.5 64.5t68.5 160.5q0 61 -41 85t-125 24h-92z" glyph-name="dcaron" horiz-adv-x="969" unicode="ď"/><glyph d="M645 840q199 0 294 -84t95 -236q0 -163 -79.5 -282.5t-213 -178.5t-302.5 -59h-462l99 307h-102l72 219h101l101 314h397zM492 253q99 0 167.5 64.5t68.5 160.5q0 61 -41 85t-125 24h-92l-20 -61h131l-72 -219h-130l-18 -54h131z" glyph-name="Dcroat" horiz-adv-x="1048" unicode="Đ"/><glyph d="M645 840q199 0 294 -84t95 -236q0 -163 -79.5 -282.5t-213 -178.5t-302.5 -59h-462l99 307h-102l72 219h101l101 314h397zM492 253q99 0 167.5 64.5t68.5 160.5q0 61 -41 85t-125 24h-92l-20 -61h131l-72 -219h-130l-18 -54h131z" glyph-name="dcroat" horiz-adv-x="1048" unicode="đ"/><glyph d="M885 1113l-72 -219h-480l72 219h480zM867 599h-475l-26 -82h473l-62 -190h-473l-27 -86h473l-79 -241h-775l271 840h779z" glyph-name="Emacron" horiz-adv-x="840" unicode="Ē"/><glyph d="M885 1113l-72 -219h-480l72 219h480zM867 599h-475l-26 -82h473l-62 -190h-473l-27 -86h473l-79 -241h-775l271 840h779z" glyph-name="emacron" horiz-adv-x="840" unicode="ē"/><glyph d="M588 891q-38 0 -63 25.5t-25 60.5q0 46 38 81.5t83 35.5q38 0 63 -25.5t25 -61.5q0 -46 -38 -81t-83 -35zM867 599h-475l-26 -82h473l-62 -190h-473l-27 -86h473l-79 -241h-775l271 840h779z" glyph-name="Edotaccent" horiz-adv-x="840" unicode="Ė"/><glyph d="M588 891q-38 0 -63 25.5t-25 60.5q0 46 38 81.5t83 35.5q38 0 63 -25.5t25 -61.5q0 -46 -38 -81t-83 -35zM867 599h-475l-26 -82h473l-62 -190h-473l-27 -86h473l-79 -241h-775l271 840h779z" glyph-name="edotaccent" horiz-adv-x="840" unicode="ė"/><glyph d="M867 599h-475l-26 -82h473l-62 -190h-473l-27 -86h473l-78 -238v-3q-73 0 -73 -44v-1q0 -8 1 -14.5t12 -14.5t31 -8v-162q-40 0 -78.5 7t-77.5 23.5t-63 49t-24 77.5q0 52 30 87h-534l271 840h779z" glyph-name="Eogonek" horiz-adv-x="840" unicode="Ę"/><glyph d="M867 599h-475l-26 -82h473l-62 -190h-473l-27 -86h473l-78 -238v-3q-73 0 -73 -44v-1q0 -8 1 -14.5t12 -14.5t31 -8v-162q-40 0 -78.5 7t-77.5 23.5t-63 49t-24 77.5q0 52 30 87h-534l271 840h779z" glyph-name="eogonek" horiz-adv-x="840" unicode="ę"/><glyph d="M732 856h-382l-74 179h246l24 -73h35l58 73h268zM867 599h-475l-26 -82h473l-62 -190h-473l-27 -86h473l-79 -241h-775l271 840h779z" glyph-name="Ecaron" horiz-adv-x="840" unicode="Ě"/><glyph d="M732 856h-382l-74 179h246l24 -73h35l58 73h268zM867 599h-475l-26 -82h473l-62 -190h-473l-27 -86h473l-79 -241h-775l271 840h779z" glyph-name="ecaron" horiz-adv-x="840" unicode="ě"/><glyph d="M635 890q-119 0 -175 39t-30 140h170q-12 -55 51 -55q29 0 52 13.5t29 41.5h168q-22 -102 -89.5 -140.5t-175.5 -38.5zM558 607q-107 0 -175.5 -72.5t-68.5 -166.5q0 -65 42 -100t106 -35q131 0 184 92h-181l48 147h479l-152 -472h-149l26 98q-56 -58 -140 -92t-184 -34 q-181 0 -281.5 90.5t-100.5 256.5q0 109 45.5 209t124 175t192.5 120t243 45q186 0 294 -99t89 -236h-305q-16 33 -51.5 53.5t-84.5 20.5z" glyph-name="Gbreve" horiz-adv-x="1001" unicode="Ğ"/><glyph d="M635 890q-119 0 -175 39t-30 140h170q-12 -55 51 -55q29 0 52 13.5t29 41.5h168q-22 -102 -89.5 -140.5t-175.5 -38.5zM558 607q-107 0 -175.5 -72.5t-68.5 -166.5q0 -65 42 -100t106 -35q131 0 184 92h-181l48 147h479l-152 -472h-149l26 98q-56 -58 -140 -92t-184 -34 q-181 0 -281.5 90.5t-100.5 256.5q0 109 45.5 209t124 175t192.5 120t243 45q186 0 294 -99t89 -236h-305q-16 33 -51.5 53.5t-84.5 20.5z" glyph-name="gbreve" horiz-adv-x="1001" unicode="ğ"/><glyph d="M635 891q-38 0 -63 25.5t-25 60.5q0 46 38 81.5t83 35.5q38 0 63 -25.5t25 -61.5q0 -46 -38 -81t-83 -35zM558 607q-107 0 -175.5 -72.5t-68.5 -166.5q0 -65 42 -100t106 -35q131 0 184 92h-181l48 147h479l-152 -472h-149l26 98q-56 -58 -140 -92t-184 -34 q-181 0 -281.5 90.5t-100.5 256.5q0 109 45.5 209t124 175t192.5 120t243 45q186 0 294 -99t89 -236h-305q-16 33 -51.5 53.5t-84.5 20.5z" glyph-name="Gdotaccent" horiz-adv-x="1001" unicode="Ġ"/><glyph d="M635 891q-38 0 -63 25.5t-25 60.5q0 46 38 81.5t83 35.5q38 0 63 -25.5t25 -61.5q0 -46 -38 -81t-83 -35zM558 607q-107 0 -175.5 -72.5t-68.5 -166.5q0 -65 42 -100t106 -35q131 0 184 92h-181l48 147h479l-152 -472h-149l26 98q-56 -58 -140 -92t-184 -34 q-181 0 -281.5 90.5t-100.5 256.5q0 109 45.5 209t124 175t192.5 120t243 45q186 0 294 -99t89 -236h-305q-16 33 -51.5 53.5t-84.5 20.5z" glyph-name="gdotaccent" horiz-adv-x="1001" unicode="ġ"/><glyph d="M558 607q-107 0 -175.5 -72.5t-68.5 -166.5q0 -65 42 -100t106 -35q131 0 184 92h-181l48 147h479l-152 -472h-149l26 98q-56 -58 -140 -92t-184 -34q-181 0 -281.5 90.5t-100.5 256.5q0 109 45.5 209t124 175t192.5 120t243 45q186 0 294 -99t89 -236h-305 q-16 33 -51.5 53.5t-84.5 20.5zM544 -69q0 1 1 3t1 3zM176 -283l69 214h299q-100 -299 -206 -421h-137q47 105 75 207h-100z" glyph-name="Gcommaaccent" horiz-adv-x="1001" unicode="Ģ"/><glyph d="M558 607q-107 0 -175.5 -72.5t-68.5 -166.5q0 -65 42 -100t106 -35q131 0 184 92h-181l48 147h479l-152 -472h-149l26 98q-56 -58 -140 -92t-184 -34q-181 0 -281.5 90.5t-100.5 256.5q0 109 45.5 209t124 175t192.5 120t243 45q186 0 294 -99t89 -236h-305 q-16 33 -51.5 53.5t-84.5 20.5zM544 -69q0 1 1 3t1 3zM176 -283l69 214h299q-100 -299 -206 -421h-137q47 105 75 207h-100z" glyph-name="gcommaaccent" horiz-adv-x="1001" unicode="ģ"/><glyph d="M763 840h302l-270 -840h-302l91 282h-292l-91 -282h-303l271 840h302l-18 -56h292zM373 534h292l14 44h-292z" glyph-name="Hbar" horiz-adv-x="964" unicode="Ħ"/><glyph d="M763 840h302l-270 -840h-302l91 282h-292l-91 -282h-303l271 840h302l-18 -56h292zM373 534h292l14 44h-292z" glyph-name="hbar" horiz-adv-x="964" unicode="ħ"/><glyph d="M93 894l72 219h480l-72 -219h-480zM-104 0l271 840h303l-271 -840h-303z" glyph-name="Imacron" horiz-adv-x="367" unicode="Ī"/><glyph d="M93 894l72 219h480l-72 -219h-480zM-104 0l271 840h303l-271 -840h-303z" glyph-name="imacron" horiz-adv-x="367" unicode="ī"/><glyph d="M199 0q-73 0 -73 -44v-1q0 -8 1 -14.5t12 -14.5t31 -8v-162q-40 0 -78.5 7t-77.5 23.5t-63 49t-24 77.5q0 52 30 87h-61l271 840h303z" glyph-name="Iogonek" horiz-adv-x="367" unicode="Į"/><glyph d="M199 0q-73 0 -73 -44v-1q0 -8 1 -14.5t12 -14.5t31 -8v-162q-40 0 -78.5 7t-77.5 23.5t-63 49t-24 77.5q0 52 30 87h-61l271 840h303z" glyph-name="iogonek" horiz-adv-x="367" unicode="į"/><glyph d="M348 891q-38 0 -63 25.5t-25 60.5q0 46 38 81.5t83 35.5q38 0 63 -25.5t25 -61.5q0 -46 -38 -81t-83 -35zM-104 0l271 840h303l-271 -840h-303z" glyph-name="Idotaccent" horiz-adv-x="367" unicode="İ"/><glyph d="M-104 0l271 840h303l-271 -840h-303z" glyph-name="dotlessi" horiz-adv-x="367" unicode="ı"/><glyph d="M-104 0l271 840h303l-271 -840h-303zM671 -28q-420 0 -303 379h301q-8 -25 -9.5 -45.5t1 -33t10 -21.5t14 -13t18 -6.5t16 -2.5h12.5q92 0 131 116l159 495h303l-158 -492q-35 -109 -84 -184t-113 -116.5t-135 -58.5t-163 -17z" glyph-name="IJ" horiz-adv-x="1220" unicode="Ĳ"/><glyph d="M1083 840l-447 -382l272 -458h-301l-183 307h-27l-133 -105l-66 -202h-302l275 840h302l-86 -263h37l315 263h344zM496 -69q0 1 1 3t1 3zM128 -283l69 214h299q-100 -299 -206 -421h-137q47 105 75 207h-100z" glyph-name="Kcommaaccent" unicode="Ķ"/><glyph d="M1083 840l-447 -382l272 -458h-301l-183 307h-27l-133 -105l-66 -202h-302l275 840h302l-86 -263h37l315 263h344zM496 -69q0 1 1 3t1 3zM128 -283l69 214h299q-100 -299 -206 -421h-137q47 105 75 207h-100z" glyph-name="kcommaaccent" unicode="ķ"/><glyph d="M188 880l103 179h274l-102 -179h-275zM-104 0l274 840h302l-192 -588h454l-81 -252h-757z" glyph-name="Lacute" horiz-adv-x="823" unicode="Ĺ"/><glyph d="M188 880l103 179h274l-102 -179h-275zM-104 0l274 840h302l-192 -588h454l-81 -252h-757z" glyph-name="lacute" horiz-adv-x="823" unicode="ĺ"/><glyph d="M280 252h454l-81 -252h-757l274 840h302zM405 -69q1 1 1 3t1 3zM37 -283l69 214h299q-100 -299 -206 -421h-137q47 105 75 207h-100z" glyph-name="Lcommaaccent" horiz-adv-x="823" unicode="Ļ"/><glyph d="M280 252h454l-81 -252h-757l274 840h302zM405 -69q1 1 1 3t1 3zM37 -283l69 214h299q-100 -299 -206 -421h-137q47 105 75 207h-100z" glyph-name="lcommaaccent" horiz-adv-x="823" unicode="ļ"/><glyph d="M895 847l-2 -7q0 3 2 7zM472 840l-192 -588h454l-81 -252h-757l274 840h302zM460 588l81 252h352q-118 -351 -242 -495h-162q58 129 89 243h-118z" glyph-name="Lcaron" horiz-adv-x="823" unicode="Ľ"/><glyph d="M895 847l-2 -7q0 3 2 7zM472 840l-192 -588h454l-81 -252h-757l274 840h302zM460 588l81 252h352q-118 -351 -242 -495h-162q58 129 89 243h-118z" glyph-name="lcaron" horiz-adv-x="823" unicode="ľ"/><glyph d="M-104 0l274 840h302l-192 -588h454l-81 -252h-757zM661 383q-55 0 -90 35t-35 90q0 71 51 119.5t120 48.5q55 0 89.5 -35t34.5 -90q0 -71 -50.5 -119.5t-119.5 -48.5z" glyph-name="Ldot" horiz-adv-x="823" unicode="Ŀ"/><glyph d="M319 252h454l-81 -252h-757l54 166l-41 -23l18 213l104 58l139 426h302l-71 -219l135 76l-18 -213l-199 -111z" glyph-name="Lslash" horiz-adv-x="862" unicode="Ł"/><glyph d="M319 252h454l-81 -252h-757l54 166l-41 -23l18 213l104 58l139 426h302l-71 -219l135 76l-18 -213l-199 -111z" glyph-name="lslash" horiz-adv-x="862" unicode="ł"/><glyph d="M495 890l103 179h274l-102 -179h-275zM-104 0l275 840h335l112 -426h31l141 426h295l-273 -840h-327l-123 419h-31l-139 -419h-296z" glyph-name="Nacute" horiz-adv-x="981" unicode="Ń"/><glyph d="M495 890l103 179h274l-102 -179h-275zM-104 0l275 840h335l112 -426h31l141 426h295l-273 -840h-327l-123 419h-31l-139 -419h-296z" glyph-name="nacute" horiz-adv-x="981" unicode="ń"/><glyph d="M790 840h295l-273 -840h-327l-123 419h-31l-139 -419h-296l275 840h335l112 -426h31zM494 -69q0 1 1 3t1 3zM126 -283l69 214h299q-100 -299 -206 -421h-137q47 105 75 207h-100z" glyph-name="Ncommaaccent" horiz-adv-x="981" unicode="Ņ"/><glyph d="M790 840h295l-273 -840h-327l-123 419h-31l-139 -419h-296l275 840h335l112 -426h31zM494 -69q0 1 1 3t1 3zM126 -283l69 214h299q-100 -299 -206 -421h-137q47 105 75 207h-100z" glyph-name="ncommaaccent" horiz-adv-x="981" unicode="ņ"/><glyph d="M978 1035l-175 -179h-382l-74 179h246l24 -73h35l58 73h268zM-104 0l275 840h335l112 -426h31l141 426h295l-273 -840h-327l-123 419h-31l-139 -419h-296z" glyph-name="Ncaron" horiz-adv-x="981" unicode="Ň"/><glyph d="M978 1035l-175 -179h-382l-74 179h246l24 -73h35l58 73h268zM-104 0l275 840h335l112 -426h31l141 426h295l-273 -840h-327l-123 419h-31l-139 -419h-296z" glyph-name="ncaron" horiz-adv-x="981" unicode="ň"/><glyph d="M1085 840l-231 -710l-46 -143q-49 -151 -166.5 -217.5t-306.5 -66.5l61 253q92 0 119 44h-30l-123 419h-31l-139 -419h-296l275 840h335l112 -426h31l141 426h295z" glyph-name="Eng" horiz-adv-x="981" unicode="Ŋ"/><glyph d="M1085 840l-231 -710l-46 -143q-49 -151 -166.5 -217.5t-306.5 -66.5l61 253q92 0 119 44h-30l-123 419h-31l-139 -419h-296l275 840h335l112 -426h31l141 426h295z" glyph-name="eng" horiz-adv-x="981" unicode="ŋ"/><glyph d="M418 898l72 219h480l-72 -219h-480zM404 -28q-187 0 -290.5 92.5t-103.5 256.5q0 108 45.5 208t124 174.5t190.5 119.5t237 45q187 0 290.5 -92.5t103.5 -255.5q0 -108 -45.5 -208t-124 -175t-190.5 -120t-237 -45zM453 233q106 0 175 74.5t71 163.5q0 66 -40.5 101 t-100.5 35q-106 0 -174.5 -74.5t-70.5 -163.5q0 -66 40.5 -101t99.5 -35z" glyph-name="Omacron" unicode="Ō"/><glyph d="M418 898l72 219h480l-72 -219h-480zM404 -28q-187 0 -290.5 92.5t-103.5 256.5q0 108 45.5 208t124 174.5t190.5 119.5t237 45q187 0 290.5 -92.5t103.5 -255.5q0 -108 -45.5 -208t-124 -175t-190.5 -120t-237 -45zM453 233q106 0 175 74.5t71 163.5q0 66 -40.5 101 t-100.5 35q-106 0 -174.5 -74.5t-70.5 -163.5q0 -66 40.5 -101t99.5 -35z" glyph-name="omacron" unicode="ō"/><glyph d="M370 894l103 179h274l-102 -179h-275zM684 894l103 179h274l-102 -179h-275zM404 -28q-187 0 -290.5 92.5t-103.5 256.5q0 108 45.5 208t124 174.5t190.5 119.5t237 45q187 0 290.5 -92.5t103.5 -255.5q0 -108 -45.5 -208t-124 -175t-190.5 -120t-237 -45zM453 233 q106 0 175 74.5t71 163.5q0 66 -40.5 101t-100.5 35q-106 0 -174.5 -74.5t-70.5 -163.5q0 -66 40.5 -101t99.5 -35z" glyph-name="Ohungarumlaut" unicode="Ő"/><glyph d="M370 894l103 179h274l-102 -179h-275zM684 894l103 179h274l-102 -179h-275zM404 -28q-187 0 -290.5 92.5t-103.5 256.5q0 108 45.5 208t124 174.5t190.5 119.5t237 45q187 0 290.5 -92.5t103.5 -255.5q0 -108 -45.5 -208t-124 -175t-190.5 -120t-237 -45zM453 233 q106 0 175 74.5t71 163.5q0 66 -40.5 101t-100.5 35q-106 0 -174.5 -74.5t-70.5 -163.5q0 -66 40.5 -101t99.5 -35z" glyph-name="ohungarumlaut" unicode="ő"/><glyph d="M1528 599h-475l-26 -82h473l-62 -190h-473l-27 -86h473l-79 -241h-738q-92 -28 -190 -28q-187 0 -290.5 92.5t-103.5 256.5q0 108 45.5 208t124 174.5t190.5 119.5t237 45t216 -43l5 15h779zM313 369q0 -66 40.5 -101t99.5 -35q106 0 175 74.5t71 163.5q0 66 -40.5 101 t-100.5 35q-106 0 -174.5 -74.5t-70.5 -163.5z" glyph-name="OE" horiz-adv-x="1501" unicode="Œ"/><glyph d="M1528 599h-475l-26 -82h473l-62 -190h-473l-27 -86h473l-79 -241h-738q-92 -28 -190 -28q-187 0 -290.5 92.5t-103.5 256.5q0 108 45.5 208t124 174.5t190.5 119.5t237 45t216 -43l5 15h779zM313 369q0 -66 40.5 -101t99.5 -35q106 0 175 74.5t71 163.5q0 66 -40.5 101 t-100.5 35q-106 0 -174.5 -74.5t-70.5 -163.5z" glyph-name="oe" horiz-adv-x="1501" unicode="œ"/><glyph d="M844 1069l-102 -179h-275l103 179h274zM940 589q0 -107 -54 -190.5t-142 -133.5l59 -265h-290l-43 205h-203l-66 -205h-303l271 840h446q164 0 244.5 -62t80.5 -189zM391 589l-53 -164l179 2q39 0 76.5 25t37.5 71q0 36 -20.5 51t-65.5 15h-154z" glyph-name="Racute" horiz-adv-x="940" unicode="Ŕ"/><glyph d="M844 1069l-102 -179h-275l103 179h274zM940 589q0 -107 -54 -190.5t-142 -133.5l59 -265h-290l-43 205h-203l-66 -205h-303l271 840h446q164 0 244.5 -62t80.5 -189zM391 589l-53 -164l179 2q39 0 76.5 25t37.5 71q0 36 -20.5 51t-65.5 15h-154z" glyph-name="racute" horiz-adv-x="940" unicode="ŕ"/><glyph d="M940 589q0 -107 -54 -190.5t-142 -133.5l59 -265h-290l-43 205h-203l-66 -205h-303l271 840h446q164 0 244.5 -62t80.5 -189zM391 589l-53 -164l179 2q39 0 76.5 25t37.5 71q0 36 -20.5 51t-65.5 15h-154zM466 -69q0 1 1 3t1 3zM98 -283l69 214h299q-100 -299 -206 -421 h-137q47 105 75 207h-100z" glyph-name="Rcommaaccent" horiz-adv-x="940" unicode="Ŗ"/><glyph d="M940 589q0 -107 -54 -190.5t-142 -133.5l59 -265h-290l-43 205h-203l-66 -205h-303l271 840h446q164 0 244.5 -62t80.5 -189zM391 589l-53 -164l179 2q39 0 76.5 25t37.5 71q0 36 -20.5 51t-65.5 15h-154zM466 -69q0 1 1 3t1 3zM98 -283l69 214h299q-100 -299 -206 -421 h-137q47 105 75 207h-100z" glyph-name="rcommaaccent" horiz-adv-x="940" unicode="ŗ"/><glyph d="M775 856h-382l-74 179h246l24 -73h35l58 73h268zM615 840q164 0 244.5 -62t80.5 -189q0 -107 -54 -190.5t-142 -133.5l59 -265h-290l-43 205h-203l-66 -205h-303l271 840h446zM391 589l-53 -164l179 2q39 0 76.5 25t37.5 71q0 36 -20.5 51t-65.5 15h-154z" glyph-name="Rcaron" horiz-adv-x="940" unicode="Ř"/><glyph d="M775 856h-382l-74 179h246l24 -73h35l58 73h268zM615 840q164 0 244.5 -62t80.5 -189q0 -107 -54 -190.5t-142 -133.5l59 -265h-290l-43 205h-203l-66 -205h-303l271 840h446zM391 589l-53 -164l179 2q39 0 76.5 25t37.5 71q0 36 -20.5 51t-65.5 15h-154z" glyph-name="rcaron" horiz-adv-x="940" unicode="ř"/><glyph d="M463 890l103 179h274l-102 -179h-275zM333 -28q-69 0 -126 7t-104.5 21.5t-79.5 39.5t-50 59t-16.5 81t22.5 105h256q-8 -42 32.5 -62t108.5 -20q72 0 119.5 15.5t47.5 49.5q0 8 -2 14.5t-9.5 15.5t-26 15.5t-47.5 9.5l-67 10q-27 3 -43.5 5t-52 9.5t-60 16.5t-55.5 26 t-50 37.5t-32.5 52t-13.5 68.5q0 151 129 235.5t342 84.5q135 0 226.5 -36t124.5 -105.5t-13 -169.5h-248q6 29 -25.5 55t-106.5 26q-64 0 -102.5 -19t-38.5 -49q0 -39 69 -49l47 -7q15 -3 57.5 -9.5t67 -11.5t64.5 -15.5t64.5 -25t49.5 -35.5t37 -52t12 -69q0 -72 -27 -128 t-73.5 -92.5t-112 -60t-138 -33.5t-156.5 -10z" glyph-name="Sacute" horiz-adv-x="909" unicode="Ś"/><glyph d="M463 890l103 179h274l-102 -179h-275zM333 -28q-69 0 -126 7t-104.5 21.5t-79.5 39.5t-50 59t-16.5 81t22.5 105h256q-8 -42 32.5 -62t108.5 -20q72 0 119.5 15.5t47.5 49.5q0 8 -2 14.5t-9.5 15.5t-26 15.5t-47.5 9.5l-67 10q-27 3 -43.5 5t-52 9.5t-60 16.5t-55.5 26 t-50 37.5t-32.5 52t-13.5 68.5q0 151 129 235.5t342 84.5q135 0 226.5 -36t124.5 -105.5t-13 -169.5h-248q6 29 -25.5 55t-106.5 26q-64 0 -102.5 -19t-38.5 -49q0 -39 69 -49l47 -7q15 -3 57.5 -9.5t67 -11.5t64.5 -15.5t64.5 -25t49.5 -35.5t37 -52t12 -69q0 -72 -27 -128 t-73.5 -92.5t-112 -60t-138 -33.5t-156.5 -10z" glyph-name="sacute" horiz-adv-x="909" unicode="ś"/><glyph d="M893 557h-248q6 29 -25.5 55t-106.5 26q-64 0 -102.5 -19t-38.5 -49q0 -39 69 -49l47 -7q15 -3 57.5 -9.5t67 -11.5t64.5 -15.5t64.5 -25t49.5 -35.5t37 -52t12 -69q0 -71 -26.5 -126.5t-71 -91.5t-108.5 -60t-134.5 -34.5t-152.5 -11.5l-9 -5q34 -9 55.5 -36.5 t21.5 -72.5q0 -94 -92 -128.5t-211 4.5l32 104q38 -14 81 -10.5t43 25.5q0 9 -13 15t-38.5 7t-64.5 -7l17 58l72 49q-363 30 -262 310h256q-8 -42 32.5 -62t108.5 -20q72 0 119.5 15.5t47.5 49.5q0 8 -2 14.5t-9.5 15.5t-26 15.5t-47.5 9.5l-67 10q-27 3 -43.5 5t-52 9.5 t-60 16.5t-55.5 26t-50 37.5t-32.5 52t-13.5 68.5q0 151 129 235.5t342 84.5q135 0 226.5 -36t124.5 -105.5t-13 -169.5z" glyph-name="Scedilla" horiz-adv-x="909" unicode="Ş"/><glyph d="M893 557h-248q6 29 -25.5 55t-106.5 26q-64 0 -102.5 -19t-38.5 -49q0 -39 69 -49l47 -7q15 -3 57.5 -9.5t67 -11.5t64.5 -15.5t64.5 -25t49.5 -35.5t37 -52t12 -69q0 -71 -26.5 -126.5t-71 -91.5t-108.5 -60t-134.5 -34.5t-152.5 -11.5l-9 -5q34 -9 55.5 -36.5 t21.5 -72.5q0 -94 -92 -128.5t-211 4.5l32 104q38 -14 81 -10.5t43 25.5q0 9 -13 15t-38.5 7t-64.5 -7l17 58l72 49q-363 30 -262 310h256q-8 -42 32.5 -62t108.5 -20q72 0 119.5 15.5t47.5 49.5q0 8 -2 14.5t-9.5 15.5t-26 15.5t-47.5 9.5l-67 10q-27 3 -43.5 5t-52 9.5 t-60 16.5t-55.5 26t-50 37.5t-32.5 52t-13.5 68.5q0 151 129 235.5t342 84.5q135 0 226.5 -36t124.5 -105.5t-13 -169.5z" glyph-name="scedilla" horiz-adv-x="909" unicode="ş"/><glyph d="M695 856q141 -27 197.5 -104.5t0.5 -194.5h-248q6 29 -25.5 55t-106.5 26q-64 0 -102.5 -19t-38.5 -49q0 -39 69 -49l47 -7q15 -3 57.5 -9.5t67 -11.5t64.5 -15.5t64.5 -25t49.5 -35.5t37 -52t12 -69q0 -72 -27 -128t-73.5 -92.5t-112 -60t-138 -33.5t-156.5 -10 q-69 0 -126 7t-104.5 21.5t-79.5 39.5t-50 59t-16.5 81t22.5 105h256q-8 -42 32.5 -62t108.5 -20q72 0 119.5 15.5t47.5 49.5q0 8 -2 14.5t-9.5 15.5t-26 15.5t-47.5 9.5l-67 10q-27 3 -43.5 5t-52 9.5t-60 16.5t-55.5 26t-50 37.5t-32.5 52t-13.5 68.5q0 123 86.5 202.5 t237.5 105.5h-19l-74 179h246l24 -73h35l58 73h268l-175 -179h-76z" glyph-name="Scaron" horiz-adv-x="909" unicode="Š"/><glyph d="M695 856q141 -27 197.5 -104.5t0.5 -194.5h-248q6 29 -25.5 55t-106.5 26q-64 0 -102.5 -19t-38.5 -49q0 -39 69 -49l47 -7q15 -3 57.5 -9.5t67 -11.5t64.5 -15.5t64.5 -25t49.5 -35.5t37 -52t12 -69q0 -72 -27 -128t-73.5 -92.5t-112 -60t-138 -33.5t-156.5 -10 q-69 0 -126 7t-104.5 21.5t-79.5 39.5t-50 59t-16.5 81t22.5 105h256q-8 -42 32.5 -62t108.5 -20q72 0 119.5 15.5t47.5 49.5q0 8 -2 14.5t-9.5 15.5t-26 15.5t-47.5 9.5l-67 10q-27 3 -43.5 5t-52 9.5t-60 16.5t-55.5 26t-50 37.5t-32.5 52t-13.5 68.5q0 123 86.5 202.5 t237.5 105.5h-19l-74 179h246l24 -73h35l58 73h268l-175 -179h-76z" glyph-name="scaron" horiz-adv-x="909" unicode="š"/><glyph d="M1056 840l-82 -252h-291l-192 -588h-79l-58 -33q34 -9 55.5 -36.5t21.5 -72.5q0 -94 -92 -128.5t-211 4.5l32 104q38 -14 81 -10.5t43 25.5q0 9 -13 15t-38.5 7t-64.5 -7l17 58l108 74h-105l192 588h-298l80 252h894z" glyph-name="Tcommaaccent" horiz-adv-x="948" unicode="Ţ"/><glyph d="M1056 840l-82 -252h-291l-192 -588h-79l-58 -33q34 -9 55.5 -36.5t21.5 -72.5q0 -94 -92 -128.5t-211 4.5l32 104q38 -14 81 -10.5t43 25.5q0 9 -13 15t-38.5 7t-64.5 -7l17 58l108 74h-105l192 588h-298l80 252h894z" glyph-name="tcommaaccent" horiz-adv-x="948" unicode="ţ"/><glyph d="M787 856h-382l-74 179h246l24 -73h35l58 73h268zM1056 840l-82 -252h-291l-192 -588h-303l192 588h-298l80 252h894z" glyph-name="Tcaron" horiz-adv-x="948" unicode="Ť"/><glyph d="M787 856h-382l-74 179h246l24 -73h35l58 73h268zM1056 840l-82 -252h-291l-192 -588h-303l192 588h-298l80 252h894z" glyph-name="tcaron" horiz-adv-x="948" unicode="ť"/><glyph d="M974 588h-291l-29 -90h243l-83 -248h-241l-82 -250h-303l82 250h-235l83 248h233l29 90h-298l80 252h894z" glyph-name="Tbar" horiz-adv-x="948" unicode="Ŧ"/><glyph d="M974 588h-291l-29 -90h243l-83 -248h-241l-82 -250h-303l82 250h-235l83 248h233l29 90h-298l80 252h894z" glyph-name="tbar" horiz-adv-x="948" unicode="ŧ"/><glyph d="M395 894l72 219h480l-72 -219h-480zM377 -28q-240 0 -331.5 105t-24.5 307l150 456h307l-159 -478q-23 -65 1.5 -102t98.5 -37q76 0 120.5 40t73.5 129l146 448h307l-157 -483q-69 -210 -191.5 -297.5t-340.5 -87.5z" glyph-name="Umacron" horiz-adv-x="963" unicode="Ū"/><glyph d="M395 894l72 219h480l-72 -219h-480zM377 -28q-240 0 -331.5 105t-24.5 307l150 456h307l-159 -478q-23 -65 1.5 -102t98.5 -37q76 0 120.5 40t73.5 129l146 448h307l-157 -483q-69 -210 -191.5 -297.5t-340.5 -87.5z" glyph-name="umacron" horiz-adv-x="963" unicode="ū"/><glyph d="M650 890q-119 0 -175 39t-30 140h170q-12 -55 51 -55q29 0 52 13.5t29 41.5h168q-22 -102 -89.5 -140.5t-175.5 -38.5zM377 -28q-240 0 -331.5 105t-24.5 307l150 456h307l-159 -478q-23 -65 1.5 -102t98.5 -37q76 0 120.5 40t73.5 129l146 448h307l-157 -483 q-69 -210 -191.5 -297.5t-340.5 -87.5z" glyph-name="Ubreve" horiz-adv-x="963" unicode="Ŭ"/><glyph d="M650 890q-119 0 -175 39t-30 140h170q-12 -55 51 -55q29 0 52 13.5t29 41.5h168q-22 -102 -89.5 -140.5t-175.5 -38.5zM377 -28q-240 0 -331.5 105t-24.5 307l150 456h307l-159 -478q-23 -65 1.5 -102t98.5 -37q76 0 120.5 40t73.5 129l146 448h307l-157 -483 q-69 -210 -191.5 -297.5t-340.5 -87.5z" glyph-name="ubreve" horiz-adv-x="963" unicode="ŭ"/><glyph d="M610 825q-56 0 -90 34.5t-34 88.5q0 75 51.5 123t119.5 48q55 0 88.5 -33t33.5 -87q0 -72 -49.5 -123t-119.5 -51zM629 946q15 0 23.5 10t8.5 25q0 7 -5.5 13t-15.5 6q-14 0 -23.5 -10t-9.5 -24q0 -8 6 -14t16 -6zM377 -28q-240 0 -331.5 105t-24.5 307l150 456h307 l-159 -478q-23 -65 1.5 -102t98.5 -37q76 0 120.5 40t73.5 129l146 448h307l-157 -483q-69 -210 -191.5 -297.5t-340.5 -87.5z" glyph-name="Uring" horiz-adv-x="963" unicode="Ů"/><glyph d="M610 825q-56 0 -90 34.5t-34 88.5q0 75 51.5 123t119.5 48q55 0 88.5 -33t33.5 -87q0 -72 -49.5 -123t-119.5 -51zM629 946q15 0 23.5 10t8.5 25q0 7 -5.5 13t-15.5 6q-14 0 -23.5 -10t-9.5 -24q0 -8 6 -14t16 -6zM377 -28q-240 0 -331.5 105t-24.5 307l150 456h307 l-159 -478q-23 -65 1.5 -102t98.5 -37q76 0 120.5 40t73.5 129l146 448h307l-157 -483q-69 -210 -191.5 -297.5t-340.5 -87.5z" glyph-name="uring" horiz-adv-x="963" unicode="ů"/><glyph d="M347 890l103 179h274l-102 -179h-275zM661 890l103 179h274l-102 -179h-275zM377 -28q-240 0 -331.5 105t-24.5 307l150 456h307l-159 -478q-23 -65 1.5 -102t98.5 -37q76 0 120.5 40t73.5 129l146 448h307l-157 -483q-69 -210 -191.5 -297.5t-340.5 -87.5z" glyph-name="Uhungarumlaut" horiz-adv-x="963" unicode="Ű"/><glyph d="M347 890l103 179h274l-102 -179h-275zM661 890l103 179h274l-102 -179h-275zM377 -28q-240 0 -331.5 105t-24.5 307l150 456h307l-159 -478q-23 -65 1.5 -102t98.5 -37q76 0 120.5 40t73.5 129l146 448h307l-157 -483q-69 -210 -191.5 -297.5t-340.5 -87.5z" glyph-name="uhungarumlaut" horiz-adv-x="963" unicode="ű"/><glyph d="M759 840h307l-157 -483q-60 -182 -158 -270.5t-260 -108.5v-1q-52 -4 -73 -11t-21 -20q-1 -29 44 -28v-162q-40 0 -79 7t-78 23t-63 48.5t-24 76.5q0 45 28 75q-155 31 -206.5 131.5t2.5 266.5l150 456h307l-159 -478q-23 -65 1.5 -102t98.5 -37q76 0 120.5 40t73.5 129z " glyph-name="Uogonek" horiz-adv-x="963" unicode="Ų"/><glyph d="M759 840h307l-157 -483q-60 -182 -158 -270.5t-260 -108.5v-1q-52 -4 -73 -11t-21 -20q-1 -29 44 -28v-162q-40 0 -79 7t-78 23t-63 48.5t-24 76.5q0 45 28 75q-155 31 -206.5 131.5t2.5 266.5l150 456h307l-159 -478q-23 -65 1.5 -102t98.5 -37q76 0 120.5 40t73.5 129z " glyph-name="uogonek" horiz-adv-x="963" unicode="ų"/><glyph d="M460 890l175 179h382l74 -179h-246l-24 73h-35l-58 -73h-268zM32 0l118 840h303l-92 -516h28l270 516h237l-58 -516h27l240 516h314l-426 -840h-408l56 362h-25l-176 -362h-408z" glyph-name="Wcircumflex" horiz-adv-x="1301" unicode="Ŵ"/><glyph d="M460 890l175 179h382l74 -179h-246l-24 73h-35l-58 -73h-268zM32 0l118 840h303l-92 -516h28l270 516h237l-58 -516h27l240 516h314l-426 -840h-408l56 362h-25l-176 -362h-408z" glyph-name="wcircumflex" horiz-adv-x="1301" unicode="ŵ"/><glyph d="M620 963l-58 -73h-268l175 179h382l74 -179h-246l-24 73h-35zM1105 840l-527 -586l-82 -254h-302l86 272l-146 568h305l65 -288h22l247 288h332z" glyph-name="Ycircumflex" horiz-adv-x="977" unicode="Ŷ"/><glyph d="M620 963l-58 -73h-268l175 179h382l74 -179h-246l-24 73h-35zM1105 840l-527 -586l-82 -254h-302l86 272l-146 568h305l65 -288h22l247 288h332z" glyph-name="ycircumflex" horiz-adv-x="977" unicode="ŷ"/><glyph d="M467 891q-38 0 -63 25.5t-25 60.5q0 46 38 81.5t83 35.5q38 0 63 -25.5t25 -61.5q0 -46 -38 -81t-83 -35zM789 891q-38 0 -63 25.5t-25 60.5q0 46 38 81.5t83 35.5q38 0 63 -25.5t25 -61.5q0 -46 -38 -81t-83 -35zM1105 840l-527 -586l-82 -254h-302l86 272l-146 568h305 l65 -288h22l247 288h332z" glyph-name="Ydieresis" horiz-adv-x="977" unicode="Ÿ"/><glyph d="M432 890l103 179h274l-102 -179h-275zM-111 0l79 248l507 318l10 24h-399l83 250h803l-80 -248l-507 -318l-10 -24h398l-83 -250h-801z" glyph-name="Zacute" horiz-adv-x="859" unicode="Ź"/><glyph d="M432 890l103 179h274l-102 -179h-275zM-111 0l79 248l507 318l10 24h-399l83 250h803l-80 -248l-507 -318l-10 -24h398l-83 -250h-801z" glyph-name="zacute" horiz-adv-x="859" unicode="ź"/><glyph d="M596 891q-38 0 -63 25.5t-25 60.5q0 46 38 81.5t83 35.5q38 0 63 -25.5t25 -61.5q0 -46 -38 -81t-83 -35zM-111 0l79 248l507 318l10 24h-399l83 250h803l-80 -248l-507 -318l-10 -24h398l-83 -250h-801z" glyph-name="Zdotaccent" horiz-adv-x="859" unicode="Ż"/><glyph d="M596 891q-38 0 -63 25.5t-25 60.5q0 46 38 81.5t83 35.5q38 0 63 -25.5t25 -61.5q0 -46 -38 -81t-83 -35zM-111 0l79 248l507 318l10 24h-399l83 250h803l-80 -248l-507 -318l-10 -24h398l-83 -250h-801z" glyph-name="zdotaccent" horiz-adv-x="859" unicode="ż"/><glyph d="M915 1035l-175 -179h-382l-74 179h246l24 -73h35l58 73h268zM-111 0l79 248l507 318l10 24h-399l83 250h803l-80 -248l-507 -318l-10 -24h398l-83 -250h-801z" glyph-name="Zcaron" horiz-adv-x="859" unicode="Ž"/><glyph d="M915 1035l-175 -179h-382l-74 179h246l24 -73h35l58 73h268zM-111 0l79 248l507 318l10 24h-399l83 250h803l-80 -248l-507 -318l-10 -24h398l-83 -250h-801z" glyph-name="zcaron" horiz-adv-x="859" unicode="ž"/><glyph d="M705 665q-41 0 -73 -20t-45 -60l-11 -33h212l-75 -230h-210l-25 -78q-44 -130 -147 -195.5t-233 -65.5q-128 0 -178 37l70 218q68 -25 110 -25q41 0 73 20t45 59l10 30h-206l75 230h204l26 81q44 130 147 195.5t233 65.5q128 0 178 -37l-70 -218q-70 26 -110 26z" glyph-name="florin" horiz-adv-x="793" unicode="ƒ"/><glyph d="M834 856h-382l-74 179h246l24 -73h35l58 73h268zM431 840h427l32 -840h-301v101h-335l-65 -101h-323zM398 324h191v232h-42z" glyph-name="uni01CD" horiz-adv-x="1014" unicode="Ǎ"/><glyph d="M834 856h-382l-74 179h246l24 -73h35l58 73h268zM431 840h427l32 -840h-301v101h-335l-65 -101h-323zM398 324h191v232h-42z" glyph-name="uni01CE" horiz-adv-x="1014" unicode="ǎ"/><glyph d="M667 1035l-175 -179h-382l-74 179h246l24 -73h35l58 73h268zM-104 0l271 840h303l-271 -840h-303z" glyph-name="uni01CF" horiz-adv-x="367" unicode="Ǐ"/><glyph d="M667 1035l-175 -179h-382l-74 179h246l24 -73h35l58 73h268zM-104 0l271 840h303l-271 -840h-303z" glyph-name="uni01D0" horiz-adv-x="367" unicode="ǐ"/><glyph d="M708 860q141 -24 217 -112.5t76 -227.5q0 -108 -45.5 -208t-124 -175t-190.5 -120t-237 -45q-187 0 -290.5 92.5t-103.5 256.5q0 197 139.5 351t354.5 188h-69l-74 179h246l24 -73h35l58 73h268l-175 -179h-109zM453 233q106 0 175 74.5t71 163.5q0 66 -40.5 101 t-100.5 35q-106 0 -174.5 -74.5t-70.5 -163.5q0 -66 40.5 -101t99.5 -35z" glyph-name="uni01D1" unicode="Ǒ"/><glyph d="M708 860q141 -24 217 -112.5t76 -227.5q0 -108 -45.5 -208t-124 -175t-190.5 -120t-237 -45q-187 0 -290.5 92.5t-103.5 256.5q0 197 139.5 351t354.5 188h-69l-74 179h246l24 -73h35l58 73h268l-175 -179h-109zM453 233q106 0 175 74.5t71 163.5q0 66 -40.5 101 t-100.5 35q-106 0 -174.5 -74.5t-70.5 -163.5q0 -66 40.5 -101t99.5 -35z" glyph-name="uni01D2" unicode="ǒ"/><glyph d="M969 1035l-175 -179h-382l-74 179h246l24 -73h35l58 73h268zM377 -28q-240 0 -331.5 105t-24.5 307l150 456h307l-159 -478q-23 -65 1.5 -102t98.5 -37q76 0 120.5 40t73.5 129l146 448h307l-157 -483q-69 -210 -191.5 -297.5t-340.5 -87.5z" glyph-name="uni01D3" horiz-adv-x="963" unicode="Ǔ"/><glyph d="M969 1035l-175 -179h-382l-74 179h246l24 -73h35l58 73h268zM377 -28q-240 0 -331.5 105t-24.5 307l150 456h307l-159 -478q-23 -65 1.5 -102t98.5 -37q76 0 120.5 40t73.5 129l146 448h307l-157 -483q-69 -210 -191.5 -297.5t-340.5 -87.5z" glyph-name="uni01D4" horiz-adv-x="963" unicode="ǔ"/><glyph d="M474 -24q-4 -9 -4 -18v-1q0 -8 1 -14.5t12 -14.5t31 -8v-162q-40 0 -78.5 7t-77.5 23.5t-63 49t-24 77.5q0 39 17 68q-134 26 -206 114t-72 224q0 108 45.5 208t124 174.5t190.5 119.5t237 45q187 0 290.5 -92.5t103.5 -255.5q0 -206 -150 -363t-377 -181zM558 607 q-106 0 -174.5 -74.5t-70.5 -163.5q0 -66 40.5 -101t99.5 -35q106 0 175 74.5t71 163.5q0 66 -40.5 101t-100.5 35z" glyph-name="uni01EA" unicode="Ǫ"/><glyph d="M893 557h-248q6 29 -25.5 55t-106.5 26q-64 0 -102.5 -19t-38.5 -49q0 -39 69 -49l47 -7q15 -3 57.5 -9.5t67 -11.5t64.5 -15.5t64.5 -25t49.5 -35.5t37 -52t12 -69q0 -72 -27 -128t-73.5 -92.5t-112 -60t-138 -33.5t-156.5 -10q-69 0 -126 7t-104.5 21.5t-79.5 39.5 t-50 59t-16.5 81t22.5 105h256q-8 -42 32.5 -62t108.5 -20q72 0 119.5 15.5t47.5 49.5q0 8 -2 14.5t-9.5 15.5t-26 15.5t-47.5 9.5l-67 10q-27 3 -43.5 5t-52 9.5t-60 16.5t-55.5 26t-50 37.5t-32.5 52t-13.5 68.5q0 151 129 235.5t342 84.5q135 0 226.5 -36t124.5 -105.5 t-13 -169.5zM462 -69q0 1 1 3t1 3zM94 -283l69 214h299q-100 -299 -206 -421h-137q47 105 75 207h-100z" glyph-name="Scommaaccent" horiz-adv-x="909" unicode="Ș"/><glyph d="M893 557h-248q6 29 -25.5 55t-106.5 26q-64 0 -102.5 -19t-38.5 -49q0 -39 69 -49l47 -7q15 -3 57.5 -9.5t67 -11.5t64.5 -15.5t64.5 -25t49.5 -35.5t37 -52t12 -69q0 -72 -27 -128t-73.5 -92.5t-112 -60t-138 -33.5t-156.5 -10q-69 0 -126 7t-104.5 21.5t-79.5 39.5 t-50 59t-16.5 81t22.5 105h256q-8 -42 32.5 -62t108.5 -20q72 0 119.5 15.5t47.5 49.5q0 8 -2 14.5t-9.5 15.5t-26 15.5t-47.5 9.5l-67 10q-27 3 -43.5 5t-52 9.5t-60 16.5t-55.5 26t-50 37.5t-32.5 52t-13.5 68.5q0 151 129 235.5t342 84.5q135 0 226.5 -36t124.5 -105.5 t-13 -169.5zM462 -69q0 1 1 3t1 3zM94 -283l69 214h299q-100 -299 -206 -421h-137q47 105 75 207h-100z" glyph-name="scommaaccent" horiz-adv-x="909" unicode="ș"/><glyph d="M1056 840l-82 -252h-291l-192 -588h-303l192 588h-298l80 252h894zM478 -69q0 1 1 3t1 3zM110 -283l69 214h299q-100 -299 -206 -421h-137q47 105 75 207h-100z" glyph-name="uni021A" horiz-adv-x="948" unicode="Ț"/><glyph d="M1056 840l-82 -252h-291l-192 -588h-303l192 588h-298l80 252h894zM478 -69q0 1 1 3t1 3zM110 -283l69 214h299q-100 -299 -206 -421h-137q47 105 75 207h-100z" glyph-name="uni021B" horiz-adv-x="948" unicode="ț"/><glyph d="M84 680l175 179h382l74 -179h-246l-24 73h-35l-58 -73h-268z" glyph-name="circumflex" horiz-adv-x="631" unicode="ˆ"/><glyph d="M763 825l-175 -179h-382l-74 179h246l24 -73h35l58 73h268z" glyph-name="caron" horiz-adv-x="631" unicode="ˇ"/><glyph d="M346 680q-119 0 -175 39t-30 140h170q-12 -55 51 -55q29 0 52 13.5t29 41.5h168q-22 -102 -89.5 -140.5t-175.5 -38.5z" glyph-name="breve" horiz-adv-x="470" unicode="˘"/><glyph d="M206 681q-38 0 -63 25.5t-25 60.5q0 46 38 81.5t83 35.5q38 0 63 -25.5t25 -61.5q0 -46 -38 -81t-83 -35z" glyph-name="dotaccent" horiz-adv-x="208" unicode="˙"/><glyph d="M237 615q-56 0 -90 34.5t-34 88.5q0 75 51.5 123t119.5 48q55 0 88.5 -33t33.5 -87q0 -72 -49.5 -123t-119.5 -51zM256 736q15 0 23.5 10t8.5 25q0 7 -5.5 13t-15.5 6q-14 0 -23.5 -10t-9.5 -24q0 -8 6 -14t16 -6z" glyph-name="ring" horiz-adv-x="294" unicode="˚"/><glyph d="M87 -244q-40 0 -78.5 7t-77.5 23.5t-63 49t-24 77.5q0 42 20.5 73t49.5 47t68.5 25t67.5 11.5t58 3.5h8v-73q-73 0 -73 -44v-1q0 -8 1 -14.5t12 -14.5t31 -8v-162z" glyph-name="ogonek" horiz-adv-x="303" unicode="˛"/><glyph d="M463 678q-49 0 -115 27.5t-96 27.5q-26 0 -43.5 -10.5t-19.5 -30.5h-78q-15 87 33 132t117 45q49 0 115 -27.5t96 -27.5q25 0 43 10.5t20 31.5h77q15 -88 -32 -133t-117 -45z" glyph-name="tilde" horiz-adv-x="495" unicode="˜"/><glyph d="M84 680l103 179h274l-102 -179h-275zM398 680l103 179h274l-102 -179h-275z" glyph-name="hungarumlaut" horiz-adv-x="634" unicode="˝"/><glyph d="M-170 -63l-2 -6q0 1 1 3t1 3zM-540 -283l69 214h299q-100 -299 -206 -421h-137q47 105 75 207h-100z" glyph-name="uni0326" horiz-adv-x="0" unicode="̦"/><glyph d="M848 840l32 -840h-1013l564 840h417zM350 242h233l-1 314h-34z" glyph-name="Delta" horiz-adv-x="1004" unicode="Δ"/><glyph d="M-119 0l76 232h123l10 35q-48 51 -48 133q0 132 80.5 241t207.5 168t268 59q174 0 270 -74.5t96 -189.5q0 -91 -51.5 -179.5t-137.5 -145.5l-16 -47h115l-75 -232h-436l88 305q81 17 142 79t61 135q0 88 -119 88q-82 0 -144 -55.5t-62 -129.5q0 -80 77 -117l-88 -305 h-437z" glyph-name="Omega" horiz-adv-x="952" unicode="Ω"/><glyph d="M598 680h302l-220 -680h-297l23 88h-24q-80 -93 -189 -104l-43 -134h-303l270 830h302l-123 -378h1q-10 -26 -8 -43.5t6 -27.5t14 -15t15.5 -6t10.5 -1q47 0 86.5 31.5t56.5 69.5z" glyph-name="mu" horiz-adv-x="849" unicode="μ"/><glyph d="M891 468l-64 -195q-2 -6 -2.5 -11t-0.5 -8t1 -4.5t2.5 -2.5t4 -1.5t4.5 0t6 0.5h6q16 0 31.5 2.5t20 3.5t12.5 -1l-48 -218q-48 -41 -168 -41q-118 0 -171 60t-11 189l74 227h-154l-153 -468h-303l153 468h-81l67 212h923l-67 -212h-82z" glyph-name="pi" horiz-adv-x="1021" unicode="π"/><glyph d="M928 890h-275l-102 179h274zM32 0l118 840h303l-92 -516h28l270 516h237l-58 -516h27l240 516h314l-426 -840h-408l56 362h-25l-176 -362h-408z" glyph-name="Wgrave" horiz-adv-x="1301" unicode="Ẁ"/><glyph d="M928 890h-275l-102 179h274zM32 0l118 840h303l-92 -516h28l270 516h237l-58 -516h27l240 516h314l-426 -840h-408l56 362h-25l-176 -362h-408z" glyph-name="wgrave" horiz-adv-x="1301" unicode="ẁ"/><glyph d="M651 890l103 179h274l-102 -179h-275zM32 0l118 840h303l-92 -516h28l270 516h237l-58 -516h27l240 516h314l-426 -840h-408l56 362h-25l-176 -362h-408z" glyph-name="Wacute" horiz-adv-x="1301" unicode="Ẃ"/><glyph d="M651 890l103 179h274l-102 -179h-275zM32 0l118 840h303l-92 -516h28l270 516h237l-58 -516h27l240 516h314l-426 -840h-408l56 362h-25l-176 -362h-408z" glyph-name="wacute" horiz-adv-x="1301" unicode="ẃ"/><glyph d="M633 891q-38 0 -63 25.5t-25 60.5q0 46 38 81.5t83 35.5q38 0 63 -25.5t25 -61.5q0 -46 -38 -81t-83 -35zM955 891q-38 0 -63 25.5t-25 60.5q0 46 38 81.5t83 35.5q38 0 63 -25.5t25 -61.5q0 -46 -38 -81t-83 -35zM32 0l118 840h303l-92 -516h28l270 516h237l-58 -516h27 l240 516h314l-426 -840h-408l56 362h-25l-176 -362h-408z" glyph-name="Wdieresis" horiz-adv-x="1301" unicode="Ẅ"/><glyph d="M633 891q-38 0 -63 25.5t-25 60.5q0 46 38 81.5t83 35.5q38 0 63 -25.5t25 -61.5q0 -46 -38 -81t-83 -35zM955 891q-38 0 -63 25.5t-25 60.5q0 46 38 81.5t83 35.5q38 0 63 -25.5t25 -61.5q0 -46 -38 -81t-83 -35zM32 0l118 840h303l-92 -516h28l270 516h237l-58 -516h27 l240 516h314l-426 -840h-408l56 362h-25l-176 -362h-408z" glyph-name="wdieresis" horiz-adv-x="1301" unicode="ẅ"/><glyph d="M781 479q94 4 151.5 -42t57.5 -119q0 -160 -114 -250t-295 -90q-184 0 -243 68.5t-15 182.5h247q-2 -15 3.5 -26.5t13.5 -17t18 -8.5t15 -3.5t8 -0.5q34 0 58 22t24 55q0 26 -16.5 39.5t-41.5 13.5q-36 0 -60 -26h-247l271 311h-126q-38 0 -76 -29t-53 -82l-155 -477 h-308l185 576q23 69 51 116.5t60 76.5t78 45t93 21t116 5h638z" glyph-name="uni1E9E" horiz-adv-x="1059" unicode="ẞ"/><glyph d="M762 890h-275l-102 179h274zM1105 840l-527 -586l-82 -254h-302l86 272l-146 568h305l65 -288h22l247 288h332z" glyph-name="Ygrave" horiz-adv-x="977" unicode="Ỳ"/><glyph d="M762 890h-275l-102 179h274zM1105 840l-527 -586l-82 -254h-302l86 272l-146 568h305l65 -288h22l247 288h332z" glyph-name="ygrave" horiz-adv-x="977" unicode="ỳ"/><glyph d="M-9 273l83 252h820l-82 -252h-821z" glyph-name="endash" horiz-adv-x="900" unicode="–"/><glyph d="M-9 273l83 252h900l-82 -252h-901z" glyph-name="emdash" horiz-adv-x="980" unicode="—"/><glyph d="M459 600l-81 -252h-352q118 351 242 495h162q-58 -129 -89 -243h118zM24 341l2 7q0 -3 -2 -7z" glyph-name="quoteleft" horiz-adv-x="452" unicode="‘"/><glyph d="M539 847l-2 -7q0 3 2 7zM104 588l81 252h352q-118 -351 -242 -495h-162q58 129 89 243h-118z" glyph-name="quoteright" horiz-adv-x="451" unicode="’"/><glyph d="M349 259l-2 -7q0 3 2 7zM-86 0l81 252h352q-118 -351 -242 -495h-162q58 129 89 243h-118z" glyph-name="quotesinglbase" horiz-adv-x="451" unicode="‚"/><glyph d="M418 599l-72 -252h-311q104 350 214 495h143q-53 -135 -78 -243h104zM789 599l-72 -252h-311q104 350 214 495h143q-53 -135 -78 -243h104zM33 340l2 7q-1 -1 -1 -3.5t-1 -3.5zM404 340l2 7q0 -1 -1 -3.5t-1 -3.5z" glyph-name="quotedblleft" horiz-adv-x="789" unicode="“"/><glyph d="M499 847l-2 -7q1 1 1 3.5t1 3.5zM870 847l-2 -7q0 1 1 3.5t1 3.5zM186 840h311q-104 -350 -214 -495h-143q53 135 78 243h-104zM485 588l72 252h311q-104 -350 -214 -495h-143q53 135 78 243h-104z" glyph-name="quotedblright" horiz-adv-x="788" unicode="”"/><glyph d="M295 215l-2 -7q1 1 1 3.5t1 3.5zM666 215l-2 -7q0 1 1 3.5t1 3.5zM-18 208h311q-104 -350 -214 -495h-143q53 135 78 243h-104zM281 -44l72 252h311q-104 -350 -214 -495h-143q53 135 78 243h-104z" glyph-name="quotedblbase" horiz-adv-x="792" unicode="„"/><glyph d="M836 698l-78 -243h-217l-70 -214h-266l70 214h-212l78 243h213l71 216h266l-71 -216h216z" glyph-name="dagger" horiz-adv-x="797" unicode="†"/><glyph d="M758 455h-215l-53 -162h216l-78 -243h-217l-70 -214h-266l70 214h-212l78 243h211l53 162h-212l78 243h213l71 216h266l-71 -216h216z" glyph-name="daggerdbl" horiz-adv-x="797" unicode="‡"/><glyph d="M275 196q-80 0 -128.5 49.5t-48.5 126.5q0 109 84.5 190.5t187.5 81.5q81 0 129 -49.5t48 -125.5q0 -110 -84.5 -191.5t-187.5 -81.5z" glyph-name="bullet" horiz-adv-x="645" unicode="•"/><glyph d="M67 -16q-55 0 -90 35t-35 90q0 71 51 119.5t120 48.5q55 0 89.5 -35t34.5 -90q0 -71 -50.5 -119.5t-119.5 -48.5zM448 -16q-55 0 -90 35t-35 90q0 71 51 119.5t120 48.5q55 0 89.5 -35t34.5 -90q0 -71 -50.5 -119.5t-119.5 -48.5zM828 -16q-55 0 -90 35t-35 90 q0 71 51 119.5t120 48.5q55 0 89.5 -35t34.5 -90q0 -71 -50.5 -119.5t-119.5 -48.5z" glyph-name="ellipsis" horiz-adv-x="1123" unicode="…"/><glyph d="M257 -29l-108 84l801 819l106 -83zM305 396q-88 0 -140 45t-52 128q0 110 85 196.5t204 86.5q85 0 138.5 -45.5t53.5 -129.5q0 -114 -83.5 -197.5t-205.5 -83.5zM340 568q27 0 48 20.5t21 48.5q0 43 -43 43q-27 0 -47.5 -20.5t-20.5 -48.5q0 -43 42 -43zM806 -12 q-88 0 -140.5 45t-52.5 128q0 110 85 196.5t204 86.5q86 0 139.5 -45.5t53.5 -129.5q0 -114 -83.5 -197.5t-205.5 -83.5zM1313 -12q-88 0 -140.5 45t-52.5 128q0 110 85 196.5t204 86.5q86 0 139.5 -45.5t53.5 -129.5q0 -114 -83.5 -197.5t-205.5 -83.5zM841 160 q27 0 48 20.5t21 48.5q0 44 -44 44q-26 0 -47 -21t-21 -48q0 -44 43 -44zM1347 160q28 0 49 20.5t21 48.5q0 44 -44 44q-26 0 -47 -21t-21 -48q0 -44 42 -44z" glyph-name="perthousand" horiz-adv-x="1715" unicode="‰"/><glyph d="M676 725l-293 -303l110 -307h-327l-106 307l296 303h320z" glyph-name="guilsinglleft" horiz-adv-x="650" unicode="‹"/><glyph d="M-26 115l293 303l-110 307h327l106 -307l-296 -303h-320z" glyph-name="guilsinglright" horiz-adv-x="650" unicode="›"/><glyph d="M592 607q-108 0 -177 -84h163l-31 -94h-179q-3 -12 -7 -36h173l-31 -96h-126q36 -64 124 -64q130 0 194 121h277q-27 -89 -74 -158t-100.5 -110t-117.5 -67.5t-120.5 -36.5t-113.5 -10q-170 0 -268 85.5t-106 239.5h-93l31 96h65q4 24 7 36h-60l32 94h56 q64 152 208 248.5t330 96.5q192 0 295 -114t61 -273h-277q0 59 -37 92.5t-98 33.5z" glyph-name="Euro" horiz-adv-x="1012" unicode="€"/><glyph d="M983 407q-81 0 -127.5 45t-46.5 122q0 112 81.5 192t197.5 80q80 0 127 -46t47 -123q0 -110 -81.5 -190t-197.5 -80zM-104 0l273 840h263l-13 -359h25l116 359h272l-272 -840h-263l12 360h-26l-114 -360h-273zM1018 565q35 0 57.5 24t22.5 51q0 46 -46 46 q-35 0 -58 -24.5t-23 -52.5q0 -44 47 -44zM651 41l77 239h387l-77 -239h-387z" glyph-name="afii61352" horiz-adv-x="1209" unicode="№"/><glyph d="M797 840h180l-124 -383h-123l67 210h-12l-96 -210h-122l42 210h-18l-67 -210h-124l87 270h-100l-87 -270h-136l88 270h-125l37 113h538l-44 -252h20z" glyph-name="trademark" horiz-adv-x="869" unicode="™"/><glyph d="M574 862q208 0 273 -114.5t-10 -319.5q-32 -94 -74.5 -168.5t-108 -141t-161.5 -103.5t-216 -37q-155 0 -231.5 52.5t-76.5 150.5q0 105 63.5 183.5t170.5 118.5t241 40q97 0 140 -18q66 133 -86 133q-44 0 -86 -14.5t-59 -47.5h-246q46 141 170 213.5t297 72.5zM352 200 q66 0 111 27t45 70q0 59 -95 59q-66 0 -111.5 -25.5t-45.5 -67.5q0 -63 96 -63z" glyph-name="partialdiff" horiz-adv-x="866" unicode="∂"/><glyph d="M865 900l-81 -252h-1l-259 -798h-303l259 798h-71l-259 -798h-303l295 906h1l46 144h676z" glyph-name="product" horiz-adv-x="741" unicode="∏"/><glyph d="M-148 -150l76 252l406 264l-218 282l77 252h656l-81 -252h-329l213 -268l-2 -28l-380 -250h319l-81 -252h-656z" glyph-name="summation" horiz-adv-x="726" unicode="∑"/><glyph d="M9 295l83 252h650l-83 -252h-650z" glyph-name="minus" horiz-adv-x="750" unicode="−"/><glyph d="M98 -150l23 404h-125l81 252h288l-25 -376h21l374 770h245l-536 -1050h-346z" glyph-name="radical" horiz-adv-x="874" unicode="√"/><glyph d="M704 637q137 0 137 -130q0 -116 -85.5 -210.5t-200.5 -94.5q-63 0 -97.5 28t-57.5 81q-59 -53 -113 -81t-116 -28q-140 0 -140 129q0 116 87.5 211t201.5 95q62 0 97 -28.5t57 -81.5q122 110 230 110zM224 405q0 -14 8.5 -23t22.5 -9q43 0 105 49q-21 30 -36 39t-34 9 q-25 0 -45.5 -21t-20.5 -44zM586 373q25 0 44.5 20.5t19.5 43.5q0 13 -8 23t-22 10q-40 0 -104 -48q10 -17 19.5 -27.5t19 -15t15.5 -5.5t16 -1z" glyph-name="infinity" horiz-adv-x="874" unicode="∞"/><glyph d="M43 -150q-128 0 -178 37l70 218q68 -25 110 -25q92 0 118 80l152 473q29 92 89.5 152t133 84.5t157.5 24.5q128 0 177 -37l-69 -218q-70 26 -110 26q-92 0 -118 -80l-152 -474q-41 -130 -145.5 -195.5t-234.5 -65.5z" glyph-name="integral" horiz-adv-x="768" unicode="∫"/><glyph d="M480 431q-52 1 -120 35t-107 34q-73 0 -97 -60h-98q14 76 60.5 130t103.5 77t118 23q51 0 119 -34t106 -35q73 3 99 60h98q-20 -111 -103.5 -169.5t-178.5 -60.5zM397 168q-52 1 -120 35t-107 34q-73 0 -97 -60h-98q14 76 60.5 130t103.5 77t118 23q51 0 119 -34t106 -35 q73 3 99 60h98q-20 -111 -103.5 -169.5t-178.5 -60.5z" glyph-name="approxequal" horiz-adv-x="736" unicode="≈"/><glyph d="M860 849l-120 -149h51l-83 -253h-173l-43 -53h200l-83 -252h-320l-85 -105h-314l85 105h-16l83 252h136l43 53h-163l83 253h285l120 149h314z" glyph-name="notequal" horiz-adv-x="750" unicode="≠"/><glyph d="M665 310l-582 202l104 322l720 206l-84 -254l-437 -95l-10 -28l372 -95zM-86 0l83 252h650l-83 -252h-650z" glyph-name="lessequal" horiz-adv-x="750" unicode="≤"/><glyph d="M248 1033l561 -202l-100 -322l-695 -206l81 254l422 95l9 28l-358 95zM-90 0l83 252h650l-83 -252h-650z" glyph-name="greaterequal" horiz-adv-x="747" unicode="≥"/><glyph d="M113 0q-8 0 -15 11t-3 18l-45 391l301 421q2 4 3 2q2 -3 8 -3h306q8 0 15 -11t3 -18l45 -391l-300 -421q-3 -4 -4 -2q-2 3 -7 3h-307zM318 210l166 212l-20 208l-166 -212z" glyph-name="lozenge" horiz-adv-x="781" unicode="◊"/><glyph d="M558 607q-107 0 -175.5 -72.5t-68.5 -166.5q0 -65 42.5 -100t106.5 -35q134 0 188 92h-186l48 147h471q-19 -128 -71.5 -225t-131 -156.5t-175.5 -89t-212 -29.5q-180 0 -281.5 94t-101.5 260q0 106 45.5 204.5t124 173.5t192.5 119.5t243 44.5q186 0 293 -99t85 -236 h-304q-14 33 -49 53.5t-83 20.5z" glyph-name="G.aalt" horiz-adv-x="1004"/><glyph d="M348 891q-38 0 -63 25.5t-25 60.5q0 46 38 81.5t83 35.5q38 0 63 -25.5t25 -61.5q0 -46 -38 -81t-83 -35zM-104 0l271 840h303l-271 -840h-303z" glyph-name="i.aalt" horiz-adv-x="367"/><glyph d="M558 607q-107 0 -175.5 -72.5t-68.5 -166.5q0 -65 42.5 -100t106.5 -35q134 0 188 92h-186l48 147h471q-19 -128 -71.5 -225t-131 -156.5t-175.5 -89t-212 -29.5q-180 0 -281.5 94t-101.5 260q0 106 45.5 204.5t124 173.5t192.5 119.5t243 44.5q186 0 293 -99t85 -236 h-304q-14 33 -49 53.5t-83 20.5z" glyph-name="g.aalt" horiz-adv-x="1004"/></font>
</defs>
</svg>
