<?xml version="1.0" standalone="no"?>
<!DOCTYPE svg PUBLIC "-//W3C//DTD SVG 1.1//EN" "http://www.w3.org/Graphics/SVG/1.1/DTD/svg11.dtd">
<svg xmlns="http://www.w3.org/2000/svg"><metadata>This SVG WebFont was generated by YouWorkForThem.
Â© 2017 Connary Fagen</metadata><defs><font horiz-adv-x="1034" id="ywftsvg"><font-face ascent="960" bbox="-565 -506 1638 1134" cap-height="840" descent="-240" font-family="" font-stretch="normal" font-weight="900" panose-1="0 0 10 0 0 0 0 0 0 0" underline-position="0" underline-thickness="0" unicode-range="U+0020-25CA" units-per-em="1200" x-height="840"/><missing-glyph d="M431 900v-1050h-333v1050h333zM350 830h-174v-35h69v-39h-70v-34h175v34h-70v39h70v35zM280 694h-105v-109h175v36h-70v73zM245 659v-38h-35v38h35zM350 557h-175v-35h70v-39h-70v-34h105v73h70v35zM350 494h-35v-70h-140v-35h175v105zM350 366h-105v-59h35v24h35v-49 h-105v84h-35v-119h175v119zM350 184h-175v-119h175v119zM315 149v-49h-105v49h105zM350 41h-175v-35h74l-74 -49v-35h175v35h-107l73 49h34v35z" horiz-adv-x="525"/><glyph d="M431 900v-1050h-333v1050h333zM350 830h-174v-35h69v-39h-70v-34h175v34h-70v39h70v35zM280 694h-105v-109h175v36h-70v73zM245 659v-38h-35v38h35zM350 557h-175v-35h70v-39h-70v-34h105v73h70v35zM350 494h-35v-70h-140v-35h175v105zM350 366h-105v-59h35v24h35v-49 h-105v84h-35v-119h175v119zM350 184h-175v-119h175v119zM315 149v-49h-105v49h105zM350 41h-175v-35h74l-74 -49v-35h175v35h-107l73 49h34v35z" glyph-name=".notdef" horiz-adv-x="525"/><glyph glyph-name="glyph1" horiz-adv-x="0"/><glyph glyph-name="glyph2" horiz-adv-x="400"/><glyph glyph-name="space" horiz-adv-x="265" unicode=" "/><glyph d="M53 336l106 504h339l-243 -504h-202zM78 -16q-60 0 -97 37t-37 96q0 76 54.5 128t128.5 52q59 0 96 -37t37 -96q0 -76 -54.5 -128t-127.5 -52z" glyph-name="exclam" horiz-adv-x="385" unicode="!"/><glyph d="M81 449l105 391h282l-150 -391h-237zM397 449l105 391h282l-150 -391h-237z" glyph-name="quotedbl" horiz-adv-x="698" unicode="&quot;"/><glyph d="M853 458h-106l-18 -58h104l-78 -243h-105l-51 -157h-273l51 157h-58l-51 -157h-274l51 157h-105l78 243h106l18 58h-104l72 226h105l51 156h274l-51 -156h58l51 156h273l-51 -156h105zM456 400l18 58h-58l-18 -58h58z" glyph-name="numbersign" horiz-adv-x="865" unicode="#"/><glyph d="M806 521h-282q17 51 -19 60l-24 -75q38 -4 60.5 -7t62 -11t64 -20.5t50.5 -31.5t39 -48t13 -66q0 -119 -125.5 -194.5t-314.5 -85.5l-19 -59h-91l19 59q-343 17 -254 273h289q-12 -28 -1.5 -40t37.5 -15l22 69q-26 4 -35.5 5.5t-38 7t-42 10l-39 13t-39 18t-32 23.5 t-27.5 30t-16 37.5t-7 45.5q0 114 124 192.5t304 85.5l22 67h91l-22 -68q44 -2 80 -9t70 -20t56 -34t35 -50t10.5 -70t-20.5 -92zM365 546q0 -3 0.5 -5.5t7.5 -9t21 -11.5l21 63q-50 -9 -50 -37zM453 286q0 13 -36 25l-16 -52q52 5 52 27z" glyph-name="dollar" horiz-adv-x="822" unicode="$"/><glyph d="M276 -28l-115 88l797 815l113 -88zM309 387q-90 0 -144 45.5t-54 130.5q0 112 86.5 200.5t207.5 88.5q88 0 143 -46t55 -133q0 -116 -84.5 -201t-209.5 -85zM347 571q23 0 40 17.5t17 40.5q0 39 -38 39q-21 0 -38.5 -17.5t-17.5 -40.5q0 -39 37 -39zM830 -12 q-90 0 -144 45.5t-54 131.5q0 112 86 200.5t208 88.5q87 0 142.5 -46.5t55.5 -132.5q0 -116 -85 -201.5t-209 -85.5zM867 173q23 0 40.5 17.5t17.5 40.5q0 38 -38 38q-22 0 -39 -17.5t-17 -40.5q0 -38 36 -38z" glyph-name="percent" horiz-adv-x="1236" unicode="%"/><glyph d="M1042 452q-46 -143 -130 -245l66 -57l-195 -189l-88 80q-148 -68 -343 -68q-190 0 -288.5 62.5t-98.5 179.5q0 101 72.5 175t190.5 115q-22 52 -22 104q0 116 120 184.5t310 68.5q87 0 155.5 -20.5t115 -62t58 -104.5t-16.5 -149h-274q19 51 -10 74t-80 23 q-39 0 -64.5 -11.5t-25.5 -27.5q0 -11 11.5 -23.5t50.5 -44.5q20 -16 31 -26l131 -114q38 42 49 76h275zM415 225q29 0 68 7l-137 125q-43 -26 -43 -65q0 -67 112 -67z" glyph-name="ampersand" horiz-adv-x="1087" unicode="&amp;"/><glyph d="M81 449l105 391h282l-150 -391h-237z" glyph-name="quotesingle" horiz-adv-x="382" unicode="'"/><glyph d="M396 -145q-208 0 -302.5 102t-94.5 282q0 149 48 281.5t139.5 236.5t239.5 165t334 61l-79 -268q-94 0 -170 -41.5t-121 -107t-69 -139t-24 -144.5q0 -90 41 -124.5t140 -34.5z" glyph-name="parenleft" horiz-adv-x="612" unicode="("/><glyph d="M216 983q208 0 302.5 -102t94.5 -282q0 -149 -48 -281.5t-139.5 -236.5t-239.5 -165t-334 -61l79 268q94 0 170 41.5t121 107t69 139t24 144.5q0 90 -41 124.5t-140 34.5z" glyph-name="parenright" horiz-adv-x="615" unicode=")"/><glyph d="M692 619l-149 -62l115 -60l-138 -160l-98 90l-36 -151h-184l57 139l-133 -78l-46 160l149 62l-115 60l138 160l98 -88l35 149h184l-57 -139l134 78z" glyph-name="asterisk" horiz-adv-x="684" unicode="*"/><glyph d="M815 553l-85 -264h-220l-71 -216h-288l71 216h-214l85 264h215l71 217h289l-71 -217h218z" glyph-name="plus" horiz-adv-x="822" unicode="+"/><glyph d="M-52 -245q57 128 89 245h-123l88 274h376l4 10q-127 -377 -258 -529h-176z" glyph-name="comma" horiz-adv-x="475" unicode=","/><glyph d="M-8 277l92 273h580l-92 -273h-580z" glyph-name="hyphen" horiz-adv-x="660" unicode="-"/><glyph d="M78 -16q-60 0 -97 37t-37 96q0 76 54.5 128t128.5 52q59 0 96 -37t37 -96q0 -76 -54.5 -128t-127.5 -52z" glyph-name="period" horiz-adv-x="380" unicode="."/><glyph d="M-126 0l658 840h388l-658 -840h-388z" glyph-name="slash" horiz-adv-x="794" unicode="/"/><glyph d="M347 -22q-225 0 -308.5 126t-9.5 350q64 198 204.5 303t346.5 105q225 0 307.5 -125.5t9.5 -349.5q-63 -198 -203.5 -303.5t-346.5 -105.5zM402 242q75 0 126 55.5t78 151.5q21 65 1 107.5t-82 42.5q-146 0 -204 -207q-22 -65 -2 -107.5t83 -42.5z" glyph-name="zero" horiz-adv-x="921" unicode="0"/><glyph d="M740 840l-194 -593h181l-80 -247h-748l80 247h239l89 273q-84 -46 -236 -37l87 267q126 0 253 90h329z" glyph-name="one" horiz-adv-x="813" unicode="1"/><glyph d="M887 646q0 -58 -26.5 -108.5t-64.5 -84.5t-97.5 -67t-108 -52.5t-114.5 -45t-99 -41.5h397l-80 -247h-810l45 142q21 65 78 120.5t127 90t147 66t139.5 53t103.5 46t41 49.5q0 39 -66 39q-99 0 -123 -68h-305q30 152 155 238t318 86q166 0 254.5 -54.5t88.5 -161.5z" glyph-name="two" horiz-adv-x="853" unicode="2"/><glyph d="M313 -22q-100 0 -172.5 17.5t-120.5 56t-57.5 99.5t17.5 147h282q-2 -28 16 -42.5t39.5 -17.5t56.5 -3q133 0 133 50q0 23 -17 33q-25 15 -85 15h-59l56 179h57q66 0 98 11t32 39q0 43 -91 43q-62 0 -94 -15t-48 -51h-277q63 323 471 323q164 0 255 -53.5t91 -145.5 q0 -75 -47.5 -133.5t-139.5 -89.5l-5 -17q46 -19 77.5 -61t31.5 -98q0 -75 -42.5 -132t-115 -89.5t-158.5 -48.5t-184 -16z" glyph-name="three" horiz-adv-x="896" unicode="3"/><glyph d="M947 840l-154 -470h134l-78 -247h-134l-40 -123h-339l43 123h-448l82 247l542 470h392zM320 370h146l62 178z" glyph-name="four" horiz-adv-x="970" unicode="4"/><glyph d="M291 -22q-195 0 -280 84t-32 234h282q0 -64 91 -64q72 0 107 25t35 57q0 60 -92 60q-93 0 -134 -46h-276l172 512h713l-80 -245h-436l-24 -59q10 1 38 8.5t65.5 13t86.5 5.5q118 0 191 -56t73 -160q0 -166 -135 -267.5t-365 -101.5z" glyph-name="five" horiz-adv-x="853" unicode="5"/><glyph d="M890 567h-258q7 27 -19 43t-63 16q-31 0 -55 -4t-51 -16t-48 -39t-34 -67q68 28 183 28q285 0 285 -206q0 -164 -131.5 -254t-337.5 -90q-90 0 -157.5 25t-106 69t-57 98t-18.5 118q0 91 22.5 174.5t70 156.5t115.5 127t165.5 85t213.5 31q170 0 253.5 -84.5t27.5 -210.5 zM528 292q0 23 -23 36t-60 13q-60 0 -90.5 -25t-30.5 -60q0 -20 20 -33t63 -13q54 0 87.5 23.5t33.5 58.5z" glyph-name="six" horiz-adv-x="910" unicode="6"/><glyph d="M159 840h758l-86 -255l-574 -585h-352l585 585h-416z" glyph-name="seven" horiz-adv-x="793" unicode="7"/><glyph d="M335 -22q-194 0 -283 64.5t-89 164.5q0 84 55 149.5t161 102.5l7 14q-49 43 -49 121q0 119 108 193.5t295 74.5q159 0 238 -52.5t79 -141.5q0 -124 -141 -192l-6 -14q43 -32 70.5 -81.5t27.5 -107.5q0 -96 -64.5 -164t-169.5 -99.5t-239 -31.5zM476 543q37 0 60.5 13.5 t23.5 40.5q0 48 -62 48q-37 0 -60 -15.5t-23 -39.5q0 -47 61 -47zM369 218q62 0 93.5 20.5t31.5 53.5t-27.5 47t-61.5 14q-61 0 -92 -21.5t-31 -55.5q0 -58 87 -58z" glyph-name="eight" horiz-adv-x="884" unicode="8"/><glyph d="M549 862q90 0 157.5 -25t106 -69t57 -98t18.5 -118q0 -91 -22.5 -174.5t-70 -156.5t-115.5 -127t-165.5 -85t-213.5 -31q-170 0 -253.5 84.5t-27.5 210.5h258q-7 -27 19 -43t63 -16q31 0 55 4t51 16t48 39t34 67q-68 -28 -183 -28q-285 0 -285 206q0 164 131.5 254 t337.5 90zM382 548q0 -23 23 -36t60 -13q60 0 90.5 25t30.5 60q0 20 -20 33t-63 13q-54 0 -87.5 -23.5t-33.5 -58.5z" glyph-name="nine" horiz-adv-x="910" unicode="9"/><glyph d="M235 466q-60 0 -97 37t-37 96q0 76 54.5 128t128.5 52q59 0 96 -37t37 -96q0 -76 -54.5 -128t-127.5 -52zM100 51q-60 0 -97 37t-37 96q0 76 54.5 128t128.5 52q59 0 96 -37t37 -96q0 -76 -54.5 -128t-127.5 -52z" glyph-name="colon" horiz-adv-x="381" unicode=":"/><glyph d="M235 466q-60 0 -97 37t-37 96q0 76 54.5 128t128.5 52q59 0 96 -37t37 -96q0 -76 -54.5 -128t-127.5 -52zM-42 -169q57 128 89 245h-123l88 274h376l4 10q-127 -377 -258 -529h-176z" glyph-name="semicolon" horiz-adv-x="439" unicode=";"/><glyph d="M578 42l-581 200l109 351l715 206l-87 -275l-423 -87l-9 -29l364 -87z" glyph-name="less" horiz-adv-x="752" unicode="&lt;"/><glyph d="M58 448l90 273h672l-90 -273h-672zM-48 121l90 273h672l-90 -273h-672z" glyph-name="equal" horiz-adv-x="772" unicode="="/><glyph d="M173 798l581 -200l-109 -351l-715 -206l87 275l423 87l9 29l-364 87z" glyph-name="greater" horiz-adv-x="751" unicode=">"/><glyph d="M252 324q12 54 42 93t65.5 57.5t74.5 31.5t70.5 19.5t52 17.5t20.5 27q0 14 -25 24.5t-63 10.5q-107 0 -149 -87h-295q16 93 61.5 161t114 107t150 57.5t179.5 18.5q166 0 270.5 -58.5t104.5 -168.5q0 -66 -33 -115.5t-81.5 -76t-97 -45.5t-87.5 -37t-46 -37h-328z M344 -16q-60 0 -97 37t-37 96q0 76 54.5 128t128.5 52q59 0 96 -37t37 -96q0 -76 -54.5 -128t-127.5 -52z" glyph-name="question" horiz-adv-x="876" unicode="?"/><glyph d="M857 192q-78 -103 -198.5 -161.5t-269.5 -58.5q-179 0 -281.5 90.5t-102.5 246.5q0 108 46.5 209.5t126 179t194 124t241.5 46.5q176 0 280.5 -88.5t104.5 -232.5q0 -105 -57 -180t-167 -75q-39 0 -59 9t-26.5 32.5t10.5 65.5l99 246h-89l-33 -43h-12q-40 57 -127 57 q-85 0 -157.5 -49t-112 -122.5t-39.5 -149.5q0 -79 44 -121.5t118 -42.5q58 0 108 21.5t80 56.5h13q10 -35 47 -56.5t96 -21.5q70 0 113 26zM513 544q73 0 74 -78q0 -62 -47.5 -119.5t-108.5 -57.5q-71 0 -73 78q0 64 47 120.5t108 56.5z" glyph-name="at" horiz-adv-x="989" unicode="@"/><glyph d="M913 0h-327l1 91h-317l-57 -91h-349l559 840h463zM422 332h169l3 201h-46z" glyph-name="A" unicode="A"/><glyph d="M953 660q0 -65 -39 -120.5t-122 -85.5l-8 -18q47 -33 62 -53q35 -43 35 -114q0 -269 -449 -269h-538l271 840h519q269 0 269 -180zM629 555v1q0 7 -1 12.5t-11 13t-29 7.5h-174l-27 -84h180q31 0 46.5 16.5t15.5 33.5zM568 299q-6 35 -42 38h-193l-28 -86h201 q28 0 45 13.5t17 34.5z" glyph-name="B" horiz-adv-x="955" unicode="B"/><glyph d="M409 -28q-191 0 -295 94t-104 263q0 106 45 204t123.5 172t193 118.5t245.5 44.5q83 0 154.5 -21.5t120.5 -58.5t81.5 -88t36.5 -109.5t-14 -123.5h-316q2 55 -32.5 86.5t-93.5 31.5q-96 0 -156 -63.5t-60 -145.5q0 -59 38.5 -90t95.5 -31q125 0 186 114h315 q-27 -92 -77 -164t-108 -115t-127.5 -70.5t-130 -37.5t-121.5 -10z" glyph-name="C" horiz-adv-x="1006" unicode="C"/><glyph d="M-104 0l270 840h406q203 0 300 -84.5t97 -238.5q0 -100 -30 -184t-84 -145t-128.5 -103.5t-164 -63.5t-189.5 -21h-477zM312 275h119q86 0 145.5 56t59.5 140q0 55 -38 75t-116 20h-75z" glyph-name="D" horiz-adv-x="981" unicode="D"/><glyph d="M875 580h-466l-18 -57h466l-67 -203h-464l-19 -59h463l-85 -261h-791l271 840h795z" glyph-name="E" horiz-adv-x="851" unicode="E"/><glyph d="M863 567h-459l-20 -63h437l-83 -259h-438l-80 -245h-326l271 840h787z" glyph-name="F" horiz-adv-x="846" unicode="F"/><glyph d="M554 585q-96 0 -156 -63.5t-60 -145.5q0 -59 38.5 -90t95.5 -31q111 0 156 71h-160l50 153h484l-154 -479h-156l24 95q-54 -57 -137 -90t-182 -33q-185 0 -286 90.5t-101 259.5q0 108 45 208t123.5 174.5t193 119t245.5 44.5q192 0 302.5 -103t86.5 -241h-331 q-16 26 -47.5 43.5t-73.5 17.5z" glyph-name="G" horiz-adv-x="1005" unicode="G"/><glyph d="M755 840h329l-270 -840h-329l87 270h-260l-87 -270h-329l270 840h329l-95 -297h260z" glyph-name="H" horiz-adv-x="980" unicode="H"/><glyph d="M-106 0l271 840h328l-270 -840h-329z" glyph-name="I" horiz-adv-x="387" unicode="I"/><glyph d="M314 -28q-80 0 -140.5 12t-106.5 40.5t-69.5 72.5t-23.5 110t27 152h326q-9 -27 -10 -47.5t3.5 -31t12 -18.5t16.5 -9t16.5 -3t12.5 0h2q76 0 109 99l158 491h329l-156 -485q-36 -113 -86 -189t-115.5 -118t-138 -59t-166.5 -17z" glyph-name="J" horiz-adv-x="869" unicode="J"/><glyph d="M1107 840l-444 -381l275 -459h-327l-177 294h-29l-118 -94l-65 -200h-328l275 840h327l-77 -235h41l275 235h372z" glyph-name="K" horiz-adv-x="1039" unicode="K"/><glyph d="M-106 0l273 840h329l-186 -566h443l-87 -274h-772z" glyph-name="L" horiz-adv-x="835" unicode="L"/><glyph d="M-104 0l270 840h396l-44 -398h28l215 397h429l-268 -839h-315l91 282h-29l-138 -282h-235l33 282h-29l-91 -282h-313z" glyph-name="M" horiz-adv-x="1088" unicode="M"/><glyph d="M-106 0l275 840h363l87 -390h34l129 390h320l-273 -840h-355l-98 383h-34l-128 -383h-320z" glyph-name="N" horiz-adv-x="996" unicode="N"/><glyph d="M409 -28q-191 0 -295.5 93t-104.5 258q0 108 45.5 207.5t124.5 174t191 119t238 44.5q191 0 295.5 -93t104.5 -258q0 -108 -45.5 -207.5t-124.5 -174t-191 -119t-238 -44.5zM463 255q94 0 154 65.5t62 143.5q0 59 -36.5 90t-88.5 31q-94 0 -154.5 -65.5t-62.5 -142.5 q0 -59 37 -90.5t89 -31.5z" glyph-name="O" horiz-adv-x="1016" unicode="O"/><glyph d="M607 840q168 0 253.5 -62.5t85.5 -204.5q0 -203 -128.5 -315.5t-327.5 -112.5h-219l-48 -145h-329l275 840h438zM498 414q50 0 79.5 25.5t29.5 71.5q0 57 -72 57h-125l-51 -155z" glyph-name="P" horiz-adv-x="944" unicode="P"/><glyph d="M1008 517q0 -104 -41.5 -199.5t-116.5 -170.5l67 -97q-109 -100 -241 -186l-100 129q-78 -21 -167 -21q-191 0 -295.5 93t-104.5 258q0 108 45.5 207.5t124.5 174t191 119t238 44.5q191 0 295.5 -93t104.5 -258zM337 377q0 -59 37 -90.5t89 -31.5q94 0 154 65.5t62 143.5 q0 59 -36.5 90t-88.5 31q-94 0 -154.5 -65.5t-62.5 -142.5z" glyph-name="Q" horiz-adv-x="1026" unicode="Q"/><glyph d="M955 583q0 -106 -51 -188.5t-136 -133.5l56 -261h-315l-39 194h-183l-62 -194h-329l270 840h455q169 0 251.5 -63.5t82.5 -193.5zM407 568l-44 -136l165 1q29 0 60 20t31 58q0 32 -17.5 44.5t-57.5 12.5h-137z" glyph-name="R" horiz-adv-x="958" unicode="R"/><glyph d="M340 -28q-86 0 -152.5 10t-120.5 32.5t-80 59.5t-32 91t23 127h279q-8 -36 30.5 -53.5t98.5 -17.5q150 0 150 50v1q0 6 -1.5 10.5t-7 12.5t-22 14t-42.5 8l-67 8q-318 25 -318 216q0 154 132 240.5t352 86.5q139 0 234 -37t128.5 -107.5t-16.5 -173.5h-269q2 7 0 15 t-10.5 18t-21.5 17.5t-37 13t-54 5.5q-57 0 -90.5 -15t-33.5 -39q0 -32 58 -39l44 -6q15 -3 50.5 -7.5t59.5 -8.5t59.5 -12t59.5 -17.5t51.5 -25.5t44.5 -35.5t28 -48t11 -63.5q0 -92 -41 -158t-115.5 -102.5t-163 -53t-198.5 -16.5z" glyph-name="S" horiz-adv-x="923" unicode="S"/><glyph d="M1070 840l-89 -273h-287l-185 -567h-328l185 567h-294l88 273h910z" glyph-name="T" horiz-adv-x="959" unicode="T"/><glyph d="M389 -28q-249 0 -343 106.5t-26 312.5l149 449h333l-158 -473q-20 -58 1.5 -90.5t89.5 -32.5t106.5 36t66.5 119l143 441h334l-156 -478q-71 -215 -193.5 -302.5t-346.5 -87.5z" glyph-name="U" horiz-adv-x="979" unicode="U"/><glyph d="M163 0l-27 840h323l-7 -532h36l327 532h359l-559 -840h-452z" glyph-name="V" horiz-adv-x="1038" unicode="V"/><glyph d="M23 0l126 840h329l-97 -488h29l248 488h254l-62 -488h30l215 488h341l-418 -840h-442l61 320h-28l-144 -320h-442z" glyph-name="W" horiz-adv-x="1318" unicode="W"/><glyph d="M-136 0l409 416l12 28l-146 396h327l70 -216h31l178 216h361l-394 -402l-12 -29l151 -409h-343l-62 203h-31l-184 -203h-367z" glyph-name="X" horiz-adv-x="990" unicode="X"/><glyph d="M1125 840l-526 -587l-81 -253h-329l86 270l-144 570h331l57 -267h23l224 267h359z" glyph-name="Y" horiz-adv-x="994" unicode="Y"/><glyph d="M-114 0l87 269l472 275l11 25h-380l90 271h819l-88 -268l-472 -275l-11 -26h378l-90 -271h-816z" glyph-name="Z" horiz-adv-x="869" unicode="Z"/><glyph d="M-150 -135l360 1110h527l-89 -273h-198l-182 -563h198l-89 -274h-527z" glyph-name="bracketleft" horiz-adv-x="587" unicode="["/><glyph d="M524 0l-388 840h377l388 -840h-377z" glyph-name="backslash" horiz-adv-x="1037" unicode="\"/><glyph d="M737 975l-360 -1110h-527l89 273h198l182 563h-198l89 274h527z" glyph-name="bracketright" horiz-adv-x="587" unicode="]"/><glyph d="M-14 227l375 647h373l-7 -647h-262l43 410h-34l-222 -410h-266z" glyph-name="asciicircum" horiz-adv-x="841" unicode="^"/><glyph d="M-176 -274l90 274h625l-90 -274h-625z" glyph-name="underscore" horiz-adv-x="725" unicode="_"/><glyph d="M542 680h-297l-103 183h297z" glyph-name="grave" horiz-adv-x="458" unicode="`"/><glyph d="M913 0h-327l1 91h-317l-57 -91h-349l559 840h463zM422 332h169l3 201h-46z" glyph-name="a" unicode="a"/><glyph d="M953 660q0 -65 -39 -120.5t-122 -85.5l-8 -18q47 -33 62 -53q35 -43 35 -114q0 -269 -449 -269h-538l271 840h519q269 0 269 -180zM629 555v1q0 7 -1 12.5t-11 13t-29 7.5h-174l-27 -84h180q31 0 46.5 16.5t15.5 33.5zM568 299q-6 35 -42 38h-193l-28 -86h201 q28 0 45 13.5t17 34.5z" glyph-name="b" horiz-adv-x="955" unicode="b"/><glyph d="M409 -28q-191 0 -295 94t-104 263q0 106 45 204t123.5 172t193 118.5t245.5 44.5q83 0 154.5 -21.5t120.5 -58.5t81.5 -88t36.5 -109.5t-14 -123.5h-316q2 55 -32.5 86.5t-93.5 31.5q-96 0 -156 -63.5t-60 -145.5q0 -59 38.5 -90t95.5 -31q125 0 186 114h315 q-27 -92 -77 -164t-108 -115t-127.5 -70.5t-130 -37.5t-121.5 -10z" glyph-name="c" horiz-adv-x="1006" unicode="c"/><glyph d="M-104 0l270 840h406q203 0 300 -84.5t97 -238.5q0 -100 -30 -184t-84 -145t-128.5 -103.5t-164 -63.5t-189.5 -21h-477zM312 275h119q86 0 145.5 56t59.5 140q0 55 -38 75t-116 20h-75z" glyph-name="d" horiz-adv-x="981" unicode="d"/><glyph d="M875 580h-466l-18 -57h466l-67 -203h-464l-19 -59h463l-85 -261h-791l271 840h795z" glyph-name="e" horiz-adv-x="851" unicode="e"/><glyph d="M863 567h-459l-20 -63h437l-83 -259h-438l-80 -245h-326l271 840h787z" glyph-name="f" horiz-adv-x="846" unicode="f"/><glyph d="M554 585q-96 0 -156 -63.5t-60 -145.5q0 -59 38.5 -90t95.5 -31q111 0 156 71h-160l50 153h484l-154 -479h-156l24 95q-54 -57 -137 -90t-182 -33q-185 0 -286 90.5t-101 259.5q0 108 45 208t123.5 174.5t193 119t245.5 44.5q192 0 302.5 -103t86.5 -241h-331 q-16 26 -47.5 43.5t-73.5 17.5z" glyph-name="g" horiz-adv-x="1005" unicode="g"/><glyph d="M755 840h329l-270 -840h-329l87 270h-260l-87 -270h-329l270 840h329l-95 -297h260z" glyph-name="h" horiz-adv-x="980" unicode="h"/><glyph d="M-106 0l271 840h328l-270 -840h-329z" glyph-name="i" horiz-adv-x="387" unicode="i"/><glyph d="M314 -28q-80 0 -140.5 12t-106.5 40.5t-69.5 72.5t-23.5 110t27 152h326q-9 -27 -10 -47.5t3.5 -31t12 -18.5t16.5 -9t16.5 -3t12.5 0h2q76 0 109 99l158 491h329l-156 -485q-36 -113 -86 -189t-115.5 -118t-138 -59t-166.5 -17z" glyph-name="j" horiz-adv-x="869" unicode="j"/><glyph d="M1107 840l-444 -381l275 -459h-327l-177 294h-29l-118 -94l-65 -200h-328l275 840h327l-77 -235h41l275 235h372z" glyph-name="k" horiz-adv-x="1039" unicode="k"/><glyph d="M-106 0l273 840h329l-186 -566h443l-87 -274h-772z" glyph-name="l" horiz-adv-x="835" unicode="l"/><glyph d="M-104 0l270 840h396l-44 -398h28l215 397h429l-268 -839h-315l91 282h-29l-138 -282h-235l33 282h-29l-91 -282h-313z" glyph-name="m" horiz-adv-x="1088" unicode="m"/><glyph d="M-106 0l275 840h363l87 -390h34l129 390h320l-273 -840h-355l-98 383h-34l-128 -383h-320z" glyph-name="n" horiz-adv-x="996" unicode="n"/><glyph d="M409 -28q-191 0 -295.5 93t-104.5 258q0 108 45.5 207.5t124.5 174t191 119t238 44.5q191 0 295.5 -93t104.5 -258q0 -108 -45.5 -207.5t-124.5 -174t-191 -119t-238 -44.5zM463 255q94 0 154 65.5t62 143.5q0 59 -36.5 90t-88.5 31q-94 0 -154.5 -65.5t-62.5 -142.5 q0 -59 37 -90.5t89 -31.5z" glyph-name="o" horiz-adv-x="1016" unicode="o"/><glyph d="M607 840q168 0 253.5 -62.5t85.5 -204.5q0 -203 -128.5 -315.5t-327.5 -112.5h-219l-48 -145h-329l275 840h438zM498 414q50 0 79.5 25.5t29.5 71.5q0 57 -72 57h-125l-51 -155z" glyph-name="p" horiz-adv-x="944" unicode="p"/><glyph d="M1008 517q0 -104 -41.5 -199.5t-116.5 -170.5l67 -97q-109 -100 -241 -186l-100 129q-78 -21 -167 -21q-191 0 -295.5 93t-104.5 258q0 108 45.5 207.5t124.5 174t191 119t238 44.5q191 0 295.5 -93t104.5 -258zM337 377q0 -59 37 -90.5t89 -31.5q94 0 154 65.5t62 143.5 q0 59 -36.5 90t-88.5 31q-94 0 -154.5 -65.5t-62.5 -142.5z" glyph-name="q" horiz-adv-x="1026" unicode="q"/><glyph d="M955 583q0 -106 -51 -188.5t-136 -133.5l56 -261h-315l-39 194h-183l-62 -194h-329l270 840h455q169 0 251.5 -63.5t82.5 -193.5zM407 568l-44 -136l165 1q29 0 60 20t31 58q0 32 -17.5 44.5t-57.5 12.5h-137z" glyph-name="r" horiz-adv-x="958" unicode="r"/><glyph d="M340 -28q-86 0 -152.5 10t-120.5 32.5t-80 59.5t-32 91t23 127h279q-8 -36 30.5 -53.5t98.5 -17.5q150 0 150 50v1q0 6 -1.5 10.5t-7 12.5t-22 14t-42.5 8l-67 8q-318 25 -318 216q0 154 132 240.5t352 86.5q139 0 234 -37t128.5 -107.5t-16.5 -173.5h-269q2 7 0 15 t-10.5 18t-21.5 17.5t-37 13t-54 5.5q-57 0 -90.5 -15t-33.5 -39q0 -32 58 -39l44 -6q15 -3 50.5 -7.5t59.5 -8.5t59.5 -12t59.5 -17.5t51.5 -25.5t44.5 -35.5t28 -48t11 -63.5q0 -92 -41 -158t-115.5 -102.5t-163 -53t-198.5 -16.5z" glyph-name="s" horiz-adv-x="923" unicode="s"/><glyph d="M1070 840l-89 -273h-287l-185 -567h-328l185 567h-294l88 273h910z" glyph-name="t" horiz-adv-x="959" unicode="t"/><glyph d="M389 -28q-249 0 -343 106.5t-26 312.5l149 449h333l-158 -473q-20 -58 1.5 -90.5t89.5 -32.5t106.5 36t66.5 119l143 441h334l-156 -478q-71 -215 -193.5 -302.5t-346.5 -87.5z" glyph-name="u" horiz-adv-x="979" unicode="u"/><glyph d="M163 0l-27 840h323l-7 -532h36l327 532h359l-559 -840h-452z" glyph-name="v" horiz-adv-x="1038" unicode="v"/><glyph d="M23 0l126 840h329l-97 -488h29l248 488h254l-62 -488h30l215 488h341l-418 -840h-442l61 320h-28l-144 -320h-442z" glyph-name="w" horiz-adv-x="1318" unicode="w"/><glyph d="M-136 0l409 416l12 28l-146 396h327l70 -216h31l178 216h361l-394 -402l-12 -29l151 -409h-343l-62 203h-31l-184 -203h-367z" glyph-name="x" horiz-adv-x="990" unicode="x"/><glyph d="M1125 840l-526 -587l-81 -253h-329l86 270l-144 570h331l57 -267h23l224 267h359z" glyph-name="y" horiz-adv-x="994" unicode="y"/><glyph d="M-114 0l87 269l472 275l11 25h-380l90 271h819l-88 -268l-472 -275l-11 -26h378l-90 -271h-816z" glyph-name="z" horiz-adv-x="869" unicode="z"/><glyph d="M163 -135q-20 0 -39 4t-42 15t-34 30.5t-15.5 51.5t13.5 78l76 224l-73 142l2 26l162 137l88 256q13 42 33 71.5t37.5 43.5t43 21.5t39 8.5t37.5 1h7h391l-89 -273h-158q-19 0 -42 -15t-29 -33l-20 -80l-169 -148l-4 -26l64 -134l-32 -111q-2 -8 -3 -11.5t1 -5t4.5 -1 t9.5 1t13 0.5h183l-89 -274h-366z" glyph-name="braceleft" horiz-adv-x="754" unicode="{"/><glyph d="M-139 -100l338 1040h329l-338 -1040h-329z" glyph-name="bar" horiz-adv-x="389" unicode="|"/><glyph d="M590 975q20 0 39 -4t42 -15t34 -30.5t15.5 -51.5t-13.5 -78l-76 -224l73 -142l-2 -26l-162 -137l-88 -256q-13 -42 -33 -71.5t-37.5 -43.5t-43 -21.5t-39 -8.5t-37.5 -1h-7h-391l89 273h158q19 0 42 15t29 33l20 80l169 148l4 26l-64 134l32 111q2 8 3 11.5t-1 5t-4.5 1 t-9.5 -1t-13 -0.5h-183l89 274h366z" glyph-name="braceright" horiz-adv-x="753" unicode="}"/><glyph d="M449 303q-52 2 -122.5 34t-111.5 32q-72 0 -98 -61h-101q14 80 63 137t108 81t122 24q51 0 121.5 -32.5t109.5 -33.5q76 5 101 61h101q-14 -80 -64 -136.5t-108.5 -80t-120.5 -25.5z" glyph-name="asciitilde" horiz-adv-x="753" unicode="~"/><glyph d="M237 640q60 0 97 -37t37 -96q0 -76 -54.5 -128t-128.5 -52q-59 0 -96 37t-37 96q0 76 54.5 128t127.5 52zM262 288l-106 -504h-339l243 504h202z" glyph-name="exclamdown" horiz-adv-x="385" unicode="¡"/><glyph d="M908 463h-287q1 43 -22 71l-205 -260q16 -4 38 -4q114 0 169 103h287q-25 -84 -70.5 -149t-98 -104t-116 -64t-118.5 -34t-110 -9q-94 0 -166 26l-31 -39h-94l57 72q-129 84 -129 265q0 129 69 240.5t197 180.5t286 69q86 0 154 -24l29 37h94l-54 -68q85 -50 118 -133 t3 -176zM310 380q0 -40 21 -67l201 255q-16 2 -25 2q-87 0 -142 -57.5t-55 -132.5z" glyph-name="cent" horiz-adv-x="919" unicode="¢"/><glyph d="M839 503h-307q21 51 -1 71t-57 20q-50 0 -74 -21.5t-24 -56.5q0 -17 7.5 -42t9.5 -35h289l-42 -128h-274q-19 -27 -68 -56v-8h464l-80 -247h-803l80 247q86 19 127 64h-101l43 128h62q-21 67 -21 121q0 90 62 160t164.5 106t226.5 36q93 0 166.5 -22t121.5 -67t57 -112.5 t-28 -157.5z" glyph-name="sterling" horiz-adv-x="830" unicode="£"/><glyph d="M730 571q0 -35 -9 -70l59 -60l-142 -141l-40 39q-64 -37 -137 -37t-136 36l-38 -38l-142 141l55 55q-10 40 -10 75q0 40 13 84l-58 59l142 141l47 -46q59 31 127 31q67 0 129 -32l48 47l142 -141l-62 -64q12 -38 12 -79zM461 490q26 0 44.5 8t26 19t12 23t3 20.5 t-0.5 10.5q-1 2 0.5 10.5t-3 21t-12 24t-26 20t-44.5 8.5q-27 0 -45.5 -8.5t-26 -20t-12 -24t-3 -21t0.5 -10.5q1 -2 -0.5 -10.5t3 -20.5t12 -23t26 -19t45.5 -8z" glyph-name="currency" horiz-adv-x="823" unicode="¤"/><glyph d="M1125 840l-429 -479h204l-41 -119h-263l-12 -35h267l-41 -121h-264l-28 -86h-329l27 86h-264l41 121h262l11 35h-264l41 119h209l-121 479h331l57 -267h23l224 267h359z" glyph-name="yen" horiz-adv-x="994" unicode="¥"/><glyph d="M39 448l160 492h329l-160 -492h-329zM-139 -100l160 493h329l-160 -493h-329z" glyph-name="brokenbar" horiz-adv-x="389" unicode="¦"/><glyph d="M964 659h-293q6 35 -21 52.5t-95 17.5q-99 0 -115 -41q-10 -31 38 -39l79 -14q25 -5 74 -12t81 -12.5t73 -18t65.5 -29.5t42 -47t17.5 -70q0 -160 -130 -243q26 -35 26 -90q0 -112 -80 -193t-203 -118.5t-270 -36.5q-226 1 -316 78.5t-25 247.5h298q-13 -35 14 -52.5 t106 -18.5q62 -1 97.5 10.5t40.5 29.5q-1 4 2 11.5t-10.5 17t-44.5 13.5l-100 17q-126 21 -169 35q-138 48 -138 175q0 132 156 196q-48 50 -48 134q0 162 142.5 243t381.5 81q47 0 88 -4t82.5 -14t73.5 -26t57 -41.5t36.5 -58.5t9 -79t-22.5 -101zM575 371q0 12 -2 20.5 t-15.5 19t-37.5 13.5l-100 17q-1 0 -3 0.5t-3 0.5q-36 0 -59 -17.5t-23 -47.5q0 -41 49 -50l72 -14q1 -1 5 -1t5 -1q48 -7 80 10t32 50z" glyph-name="section" horiz-adv-x="931" unicode="§"/><glyph d="M212 679q-40 0 -66.5 26.5t-26.5 64.5q0 48 40 85.5t88 37.5q40 0 66 -27t26 -64q0 -49 -39.5 -86t-87.5 -37zM545 679q-40 0 -66.5 26.5t-26.5 64.5q0 48 40 85.5t88 37.5q40 0 66 -27t26 -64q0 -49 -39.5 -86t-87.5 -37z" glyph-name="dieresis" horiz-adv-x="553" unicode="¨"/><glyph d="M293 319q-97 0 -155.5 57t-58.5 155q0 134 96.5 232.5t241.5 98.5q97 0 155.5 -57t58.5 -154q0 -135 -96.5 -233.5t-241.5 -98.5zM312 418q33 0 66 8.5t70 36t57 71.5h-99q-29 -37 -73 -37q-64 0 -64 70q0 46 34 83t80 37q23 0 40 -10.5t19 -30.5h100q-1 60 -42.5 91 t-101.5 31q-98 0 -160 -67.5t-62 -151.5q0 -62 35 -96.5t101 -34.5z" glyph-name="copyright" horiz-adv-x="598" unicode="©"/><glyph d="M502 840h147l-140 -433h-137l-11 24q-50 -24 -94 -24q-75 0 -121 48t-46 124q0 113 77 190t180 77q69 0 112 -46zM288 626q0 -37 39 -37q19 0 30 11t11 28q0 39 -37 39q-18 0 -30.5 -13t-12.5 -28z" glyph-name="ordfeminine" horiz-adv-x="548" unicode="ª"/><glyph d="M706 730l-296 -308l110 -312h-354l-106 312l299 308h347zM1130 730l-296 -308l110 -312h-354l-106 312l299 308h347z" glyph-name="guillemotleft" horiz-adv-x="1103" unicode="«"/><glyph d="M437 257l36 110h-439l69 216h707l-105 -326h-268z" glyph-name="logicalnot" horiz-adv-x="807" unicode="¬"/><glyph d="M-8 277l92 273h580l-92 -273h-580z" glyph-name="uni00AD" horiz-adv-x="660" unicode="­"/><glyph d="M293 319q-97 0 -155.5 57t-58.5 155q0 134 96.5 232.5t241.5 98.5q97 0 155.5 -57t58.5 -154q0 -135 -96.5 -233.5t-241.5 -98.5zM178 434h88l29 95h61l26 -95h90l-33 111q82 37 82 113q0 89 -121 89h-121zM318 600l23 72h55q19 0 28 -9.5t9 -21.5q0 -18 -14.5 -29.5 t-35.5 -11.5h-65z" glyph-name="registered" horiz-adv-x="598" unicode="®"/><glyph d="M86 684l78 236h500l-78 -236h-500z" glyph-name="macron" horiz-adv-x="503" unicode="¯"/><glyph d="M296 379q-87 0 -137 49t-50 130q0 120 84.5 204t207.5 84q87 0 137 -49t50 -131q0 -119 -85 -203t-207 -84zM339 579q18 0 29.5 13t11.5 26q0 29 -24 29q-19 0 -30 -13t-11 -28q0 -27 24 -27z" glyph-name="degree" horiz-adv-x="574" unicode="°"/><glyph d="M678 798h218l-85 -264h-220l-71 -216h-288l71 216h-214l85 264h215l71 217h289zM-39 0l90 274h672l-90 -274h-672z" glyph-name="plusminus" horiz-adv-x="821" unicode="±"/><glyph d="M84 680l103 183h297l-103 -183h-297z" glyph-name="acute" horiz-adv-x="342" unicode="´"/><glyph d="M595 680h329l-220 -680h-324l23 86h-26q-70 -81 -159 -99l-44 -137h-329l269 830h329l-120 -369h1q-24 -71 20 -83q4 -1 8 -1q41 0 76 29t52 68z" glyph-name="uni00B5" horiz-adv-x="870" unicode="µ"/><glyph d="M420 0l54 167h-101q-334 0 -334 252q0 200 145.5 310.5t383.5 110.5h452l-272 -840h-328zM882 0l272 840h328l-272 -840h-328z" glyph-name="paragraph" horiz-adv-x="1376" unicode="¶"/><glyph d="M215 264q-60 0 -97 37t-37 96q0 76 54.5 128t128.5 52q59 0 96 -37t37 -96q0 -76 -54.5 -128t-127.5 -52z" glyph-name="periodcentered" horiz-adv-x="478" unicode="·"/><glyph d="M15 -32q35 -9 57.5 -37t22.5 -75q0 -96 -95 -130t-219 7l34 109q37 -14 80.5 -13t43.5 22q0 8 -13.5 14t-39.5 7t-65 -7l17 59l111 76h125z" glyph-name="cedilla" horiz-adv-x="285" unicode="¸"/><glyph d="M275 409q-78 0 -127 49.5t-49 126.5q0 105 78 183t188 78q78 0 126 -48.5t48 -126.5q0 -107 -78 -184.5t-186 -77.5zM317 589q19 0 29.5 12t10.5 30t-10.5 27t-24.5 9q-18 0 -29 -14t-11 -31q0 -33 35 -33z" glyph-name="ordmasculine" horiz-adv-x="503" unicode="º"/><glyph d="M-27 110l296 308l-110 312h354l106 -312l-299 -308h-347zM397 110l296 308l-110 312h354l106 -312l-299 -308h-347z" glyph-name="guillemotright" horiz-adv-x="1103" unicode="»"/><glyph d="M435 640q60 0 97 -37t37 -96q0 -76 -54.5 -128t-128.5 -52q-59 0 -96 37t-37 96q0 76 54.5 128t127.5 52zM527 300q-12 -54 -42 -93t-65.5 -57.5t-74.5 -31.5t-70.5 -19.5t-52 -17.5t-20.5 -27q0 -14 25 -24.5t63 -10.5q107 0 149 87h295q-16 -93 -61.5 -161t-114 -107 t-150 -57.5t-179.5 -18.5q-166 0 -270.5 58.5t-104.5 168.5q0 66 33 115.5t81.5 76t97 45.5t87.5 37t46 37h328z" glyph-name="questiondown" horiz-adv-x="864" unicode="¿"/><glyph d="M825 890h-297l-103 183h297zM913 0h-327l1 91h-317l-57 -91h-349l559 840h463zM422 332h169l3 201h-46z" glyph-name="Agrave" unicode="À"/><glyph d="M925 1073l-103 -183h-297l103 183h297zM423 840h463l27 -840h-327l1 91h-317l-57 -91h-349zM422 332h169l3 201h-46z" glyph-name="Aacute" unicode="Á"/><glyph d="M669 961l-51 -71h-288l174 183h413l72 -183h-266l-20 71h-34zM423 840h463l27 -840h-327l1 91h-317l-57 -91h-349zM422 332h169l3 201h-46z" glyph-name="Acircumflex" unicode="Â"/><glyph d="M513 860h-80q-17 91 33 138t121 47q49 0 117 -26t98 -26q26 0 44.5 10.5t19.5 30.5h81q17 -92 -32.5 -138.5t-122.5 -46.5q-49 0 -117 26t-98 26q-25 0 -43.5 -10.5t-20.5 -30.5zM423 840h463l27 -840h-327l1 91h-317l-57 -91h-349zM422 332h169l3 201h-46z" glyph-name="Atilde" unicode="Ã"/><glyph d="M511 889q-40 0 -66.5 26.5t-26.5 64.5q0 48 40 85.5t88 37.5q40 0 66 -27t26 -64q0 -49 -39.5 -86t-87.5 -37zM879 1103q40 0 66 -27t26 -64q0 -49 -39.5 -86t-87.5 -37q-40 0 -66.5 26.5t-26.5 64.5q0 48 40 85.5t88 37.5zM423 840h463l27 -840h-327l1 91h-317l-57 -91 h-349zM422 332h169l3 201h-46z" glyph-name="Adieresis" unicode="Ä"/><glyph d="M913 0h-327l1 91h-317l-57 -91h-349l559 840h169q-62 33 -62 112t53 128.5t124 49.5q57 0 91.5 -35t34.5 -91q0 -53 -28 -97.5t-74 -66.5h155zM688 1004q-13 0 -21.5 -9.5t-8.5 -23.5q0 -6 5 -12t15 -6q14 0 22 9t8 23q0 7 -5 13t-15 6zM422 332h169l3 201h-46z" glyph-name="Aring" unicode="Å"/><glyph d="M1509 580h-466l-18 -57h466l-67 -203h-464l-19 -59h463l-85 -261h-791l38 119h-270l-86 -119h-346l651 840h1079zM467 357h176l68 210h-93z" glyph-name="AE" horiz-adv-x="1485" unicode="Æ"/><glyph d="M996 467h-316q2 55 -32.5 86.5t-93.5 31.5q-96 0 -156 -63.5t-60 -145.5q0 -59 38.5 -90t95.5 -31q125 0 186 114h315q-27 -92 -77 -164t-108 -115t-127.5 -70.5t-130 -37.5t-121.5 -10h-21l-8 -4q35 -9 57.5 -37t22.5 -75q0 -96 -95 -130t-219 7l34 109q37 -14 80.5 -13 t43.5 22q0 8 -13.5 14t-39.5 7t-65 -7l17 59l86 59q-135 28 -207 117t-72 229q0 106 45 204t123.5 172t193 118.5t245.5 44.5q83 0 154.5 -21.5t120.5 -58.5t81.5 -88t36.5 -109.5t-14 -123.5z" glyph-name="Ccedilla" horiz-adv-x="1006" unicode="Ç"/><glyph d="M718 890h-297l-103 183h297zM875 580h-466l-18 -57h466l-67 -203h-464l-19 -59h463l-85 -261h-791l271 840h795z" glyph-name="Egrave" horiz-adv-x="851" unicode="È"/><glyph d="M818 1073l-103 -183h-297l103 183h297zM875 580h-466l-18 -57h466l-67 -203h-464l-19 -59h463l-85 -261h-791l271 840h795z" glyph-name="Eacute" horiz-adv-x="851" unicode="É"/><glyph d="M562 961l-51 -71h-288l174 183h413l72 -183h-266l-20 71h-34zM875 580h-466l-18 -57h466l-67 -203h-464l-19 -59h463l-85 -261h-791l271 840h795z" glyph-name="Ecircumflex" horiz-adv-x="851" unicode="Ê"/><glyph d="M404 889q-40 0 -66.5 26.5t-26.5 64.5q0 48 40 85.5t88 37.5q40 0 66 -27t26 -64q0 -49 -39.5 -86t-87.5 -37zM737 889q-40 0 -66.5 26.5t-26.5 64.5q0 48 40 85.5t88 37.5q40 0 66 -27t26 -64q0 -49 -39.5 -86t-87.5 -37zM875 580h-466l-18 -57h466l-67 -203h-464 l-19 -59h463l-85 -261h-791l271 840h795z" glyph-name="Edieresis" horiz-adv-x="851" unicode="Ë"/><glyph d="M483 890h-297l-103 183h297zM-106 0l271 840h328l-270 -840h-329z" glyph-name="Igrave" horiz-adv-x="387" unicode="Ì"/><glyph d="M183 890l103 183h297l-103 -183h-297zM-106 0l271 840h328l-270 -840h-329z" glyph-name="Iacute" horiz-adv-x="387" unicode="Í"/><glyph d="M-12 890l174 183h413l72 -183h-266l-20 71h-34l-51 -71h-288zM-106 0l271 840h328l-270 -840h-329z" glyph-name="Icircumflex" horiz-adv-x="387" unicode="Î"/><glyph d="M169 889q-40 0 -66.5 26.5t-26.5 64.5q0 48 40 85.5t88 37.5q40 0 66 -27t26 -64q0 -49 -39.5 -86t-87.5 -37zM502 889q-40 0 -66.5 26.5t-26.5 64.5q0 48 40 85.5t88 37.5q40 0 66 -27t26 -64q0 -49 -39.5 -86t-87.5 -37zM-106 0l271 840h328l-270 -840h-329z" glyph-name="Idieresis" horiz-adv-x="387" unicode="Ï"/><glyph d="M655 840q203 0 300 -84.5t97 -238.5q0 -100 -30 -184t-84 -145t-128.5 -103.5t-164 -63.5t-189.5 -21h-477l96 298h-104l78 236h102l98 306h406zM514 275q86 0 145.5 56t59.5 140q0 55 -38 75t-116 20h-75l-10 -32h129l-78 -236h-128l-8 -23h119z" glyph-name="Eth" horiz-adv-x="1064" unicode="Ð"/><glyph d="M759 849q-49 0 -117 26t-98 26q-25 0 -43.5 -10.5t-20.5 -30.5h-80q-17 91 33 138t121 47q48 0 116 -26t99 -26q26 0 44.5 10.5t19.5 30.5h81q17 -92 -32.5 -138.5t-122.5 -46.5zM-106 0l275 840h363l87 -390h34l129 390h320l-273 -840h-355l-98 383h-34l-128 -383h-320z " glyph-name="Ntilde" horiz-adv-x="996" unicode="Ñ"/><glyph d="M801 894h-297l-103 183h297zM409 -28q-191 0 -295.5 93t-104.5 258q0 108 45.5 207.5t124.5 174t191 119t238 44.5q191 0 295.5 -93t104.5 -258q0 -108 -45.5 -207.5t-124.5 -174t-191 -119t-238 -44.5zM463 255q94 0 154 65.5t62 143.5q0 59 -36.5 90t-88.5 31 q-94 0 -154.5 -65.5t-62.5 -142.5q0 -59 37 -90.5t89 -31.5z" glyph-name="Ograve" horiz-adv-x="1016" unicode="Ò"/><glyph d="M501 894l103 183h297l-103 -183h-297zM409 -28q-191 0 -295.5 93t-104.5 258q0 108 45.5 207.5t124.5 174t191 119t238 44.5q191 0 295.5 -93t104.5 -258q0 -108 -45.5 -207.5t-124.5 -174t-191 -119t-238 -44.5zM463 255q94 0 154 65.5t62 143.5q0 59 -36.5 90t-88.5 31 q-94 0 -154.5 -65.5t-62.5 -142.5q0 -59 37 -90.5t89 -31.5z" glyph-name="Oacute" horiz-adv-x="1016" unicode="Ó"/><glyph d="M306 894l174 183h413l72 -183h-266l-20 71h-34l-51 -71h-288zM409 -28q-191 0 -295.5 93t-104.5 258q0 108 45.5 207.5t124.5 174t191 119t238 44.5q191 0 295.5 -93t104.5 -258q0 -108 -45.5 -207.5t-124.5 -174t-191 -119t-238 -44.5zM463 255q94 0 154 65.5t62 143.5 q0 59 -36.5 90t-88.5 31q-94 0 -154.5 -65.5t-62.5 -142.5q0 -59 37 -90.5t89 -31.5z" glyph-name="Ocircumflex" horiz-adv-x="1016" unicode="Ô"/><glyph d="M738 855q130 -28 200 -116t70 -222q0 -108 -45.5 -207.5t-124.5 -174t-191 -119t-238 -44.5q-191 0 -295.5 93t-104.5 258q0 108 45.5 207.5t124.5 174t191 119t238 44.5q56 0 99 -7q-19 5 -72 24.5t-82 19.5q-25 0 -43.5 -10.5t-20.5 -30.5h-80q-17 91 33 138t121 47 q49 0 117 -26t98 -26q26 0 44.5 10.5t19.5 30.5h81q17 -92 -32.5 -138.5t-122.5 -46.5q-12 0 -30 2zM463 255q94 0 154 65.5t62 143.5q0 59 -36.5 90t-88.5 31q-94 0 -154.5 -65.5t-62.5 -142.5q0 -59 37 -90.5t89 -31.5z" glyph-name="Otilde" horiz-adv-x="1016" unicode="Õ"/><glyph d="M487 893q-40 0 -66.5 26.5t-26.5 64.5q0 48 40 85.5t88 37.5q40 0 66 -27t26 -64q0 -49 -39.5 -86t-87.5 -37zM820 893q-40 0 -66.5 26.5t-26.5 64.5q0 48 40 85.5t88 37.5q40 0 66 -27t26 -64q0 -49 -39.5 -86t-87.5 -37zM409 -28q-191 0 -295.5 93t-104.5 258 q0 108 45.5 207.5t124.5 174t191 119t238 44.5q191 0 295.5 -93t104.5 -258q0 -108 -45.5 -207.5t-124.5 -174t-191 -119t-238 -44.5zM463 255q94 0 154 65.5t62 143.5q0 59 -36.5 90t-88.5 31q-94 0 -154.5 -65.5t-62.5 -142.5q0 -59 37 -90.5t89 -31.5z" glyph-name="Odieresis" horiz-adv-x="1016" unicode="Ö"/><glyph d="M770 564l-207 -157l97 -144l-233 -174l-96 143l-202 -153l-128 189l202 153l-106 157l233 174l105 -156l209 157z" glyph-name="multiply" horiz-adv-x="774" unicode="×"/><glyph d="M890 786q118 -92 118 -269q0 -108 -45.5 -207.5t-124.5 -174t-191 -119t-238 -44.5q-71 0 -133 14l-28 -37h-191l77 100q-125 91 -125 274q0 108 45.5 207.5t124.5 174t191 119t238 44.5q80 0 141 -16l31 40h191zM337 377q0 -29 9 -51l198 259q-90 -4 -147.5 -68.5 t-59.5 -139.5zM483 256q86 8 140 71.5t56 136.5q0 20 -5 40z" glyph-name="Oslash" horiz-adv-x="1016" unicode="Ø"/><glyph d="M783 890h-297l-103 183h297zM389 -28q-249 0 -343 106.5t-26 312.5l149 449h333l-158 -473q-20 -58 1.5 -90.5t89.5 -32.5t106.5 36t66.5 119l143 441h334l-156 -478q-71 -215 -193.5 -302.5t-346.5 -87.5z" glyph-name="Ugrave" horiz-adv-x="979" unicode="Ù"/><glyph d="M483 890l103 183h297l-103 -183h-297zM389 -28q-249 0 -343 106.5t-26 312.5l149 449h333l-158 -473q-20 -58 1.5 -90.5t89.5 -32.5t106.5 36t66.5 119l143 441h334l-156 -478q-71 -215 -193.5 -302.5t-346.5 -87.5z" glyph-name="Uacute" horiz-adv-x="979" unicode="Ú"/><glyph d="M288 890l174 183h413l72 -183h-266l-20 71h-34l-51 -71h-288zM389 -28q-249 0 -343 106.5t-26 312.5l149 449h333l-158 -473q-20 -58 1.5 -90.5t89.5 -32.5t106.5 36t66.5 119l143 441h334l-156 -478q-71 -215 -193.5 -302.5t-346.5 -87.5z" glyph-name="Ucircumflex" horiz-adv-x="979" unicode="Û"/><glyph d="M469 889q-40 0 -66.5 26.5t-26.5 64.5q0 48 40 85.5t88 37.5q40 0 66 -27t26 -64q0 -49 -39.5 -86t-87.5 -37zM802 889q-40 0 -66.5 26.5t-26.5 64.5q0 48 40 85.5t88 37.5q40 0 66 -27t26 -64q0 -49 -39.5 -86t-87.5 -37zM389 -28q-249 0 -343 106.5t-26 312.5l149 449 h333l-158 -473q-20 -58 1.5 -90.5t89.5 -32.5t106.5 36t66.5 119l143 441h334l-156 -478q-71 -215 -193.5 -302.5t-346.5 -87.5z" glyph-name="Udieresis" horiz-adv-x="979" unicode="Ü"/><glyph d="M882 1073l-103 -183h-297l103 183h297zM1125 840l-526 -587l-81 -253h-329l86 270l-144 570h331l57 -267h23l224 267h359z" glyph-name="Yacute" horiz-adv-x="994" unicode="Ý"/><glyph d="M567 757q202 0 289 -91.5t28 -278.5q-54 -161 -180 -232t-327 -71h-125l-27 -84h-329l270 840h329l-27 -83h99zM568 454q8 20 -4.5 25.5t-48.5 5.5h-134l-42 -129h103q38 0 75 26t51 72z" glyph-name="Thorn" horiz-adv-x="906" unicode="Þ"/><glyph d="M-106 0l182 562q31 93 84 156t121.5 92.5t131.5 40.5t141 11q184 0 266.5 -60t82.5 -150q0 -63 -38 -113t-106 -79l-7 -23q25 -18 41 -34t31.5 -52.5t15.5 -83.5q0 -71 -34.5 -123.5t-97.5 -83t-142 -45.5t-175 -15h-125l79 246h94q101 0 101 55q0 8 -1 12t-5 11 t-15.5 10.5t-30.5 3.5h-112l58 176h71q75 0 75 36q0 34 -70 34q-99 0 -122 -72l-165 -512h-329z" glyph-name="germandbls" horiz-adv-x="912" unicode="ß"/><glyph d="M825 890h-297l-103 183h297zM913 0h-327l1 91h-317l-57 -91h-349l559 840h463zM422 332h169l3 201h-46z" glyph-name="agrave" unicode="à"/><glyph d="M925 1073l-103 -183h-297l103 183h297zM423 840h463l27 -840h-327l1 91h-317l-57 -91h-349zM422 332h169l3 201h-46z" glyph-name="aacute" unicode="á"/><glyph d="M669 961l-51 -71h-288l174 183h413l72 -183h-266l-20 71h-34zM423 840h463l27 -840h-327l1 91h-317l-57 -91h-349zM422 332h169l3 201h-46z" glyph-name="acircumflex" unicode="â"/><glyph d="M513 860h-80q-17 91 33 138t121 47q49 0 117 -26t98 -26q26 0 44.5 10.5t19.5 30.5h81q17 -92 -32.5 -138.5t-122.5 -46.5q-49 0 -117 26t-98 26q-25 0 -43.5 -10.5t-20.5 -30.5zM423 840h463l27 -840h-327l1 91h-317l-57 -91h-349zM422 332h169l3 201h-46z" glyph-name="atilde" unicode="ã"/><glyph d="M511 889q-40 0 -66.5 26.5t-26.5 64.5q0 48 40 85.5t88 37.5q40 0 66 -27t26 -64q0 -49 -39.5 -86t-87.5 -37zM879 1103q40 0 66 -27t26 -64q0 -49 -39.5 -86t-87.5 -37q-40 0 -66.5 26.5t-26.5 64.5q0 48 40 85.5t88 37.5zM423 840h463l27 -840h-327l1 91h-317l-57 -91 h-349zM422 332h169l3 201h-46z" glyph-name="adieresis" unicode="ä"/><glyph d="M913 0h-327l1 91h-317l-57 -91h-349l559 840h169q-62 33 -62 112t53 128.5t124 49.5q57 0 91.5 -35t34.5 -91q0 -53 -28 -97.5t-74 -66.5h155zM688 1004q-13 0 -21.5 -9.5t-8.5 -23.5q0 -6 5 -12t15 -6q14 0 22 9t8 23q0 7 -5 13t-15 6zM422 332h169l3 201h-46z" glyph-name="aring" unicode="å"/><glyph d="M1509 580h-466l-18 -57h466l-67 -203h-464l-19 -59h463l-85 -261h-791l38 119h-270l-86 -119h-346l651 840h1079zM467 357h176l68 210h-93z" glyph-name="ae" horiz-adv-x="1485" unicode="æ"/><glyph d="M996 467h-316q2 55 -32.5 86.5t-93.5 31.5q-96 0 -156 -63.5t-60 -145.5q0 -59 38.5 -90t95.5 -31q125 0 186 114h315q-27 -92 -77 -164t-108 -115t-127.5 -70.5t-130 -37.5t-121.5 -10h-21l-8 -4q35 -9 57.5 -37t22.5 -75q0 -96 -95 -130t-219 7l34 109q37 -14 80.5 -13 t43.5 22q0 8 -13.5 14t-39.5 7t-65 -7l17 59l86 59q-135 28 -207 117t-72 229q0 106 45 204t123.5 172t193 118.5t245.5 44.5q83 0 154.5 -21.5t120.5 -58.5t81.5 -88t36.5 -109.5t-14 -123.5z" glyph-name="ccedilla" horiz-adv-x="1006" unicode="ç"/><glyph d="M718 890h-297l-103 183h297zM875 580h-466l-18 -57h466l-67 -203h-464l-19 -59h463l-85 -261h-791l271 840h795z" glyph-name="egrave" horiz-adv-x="851" unicode="è"/><glyph d="M818 1073l-103 -183h-297l103 183h297zM875 580h-466l-18 -57h466l-67 -203h-464l-19 -59h463l-85 -261h-791l271 840h795z" glyph-name="eacute" horiz-adv-x="851" unicode="é"/><glyph d="M562 961l-51 -71h-288l174 183h413l72 -183h-266l-20 71h-34zM875 580h-466l-18 -57h466l-67 -203h-464l-19 -59h463l-85 -261h-791l271 840h795z" glyph-name="ecircumflex" horiz-adv-x="851" unicode="ê"/><glyph d="M404 889q-40 0 -66.5 26.5t-26.5 64.5q0 48 40 85.5t88 37.5q40 0 66 -27t26 -64q0 -49 -39.5 -86t-87.5 -37zM737 889q-40 0 -66.5 26.5t-26.5 64.5q0 48 40 85.5t88 37.5q40 0 66 -27t26 -64q0 -49 -39.5 -86t-87.5 -37zM875 580h-466l-18 -57h466l-67 -203h-464 l-19 -59h463l-85 -261h-791l271 840h795z" glyph-name="edieresis" horiz-adv-x="851" unicode="ë"/><glyph d="M483 890h-297l-103 183h297zM-106 0l271 840h328l-270 -840h-329z" glyph-name="igrave" horiz-adv-x="387" unicode="ì"/><glyph d="M183 890l103 183h297l-103 -183h-297zM-106 0l271 840h328l-270 -840h-329z" glyph-name="iacute" horiz-adv-x="387" unicode="í"/><glyph d="M-12 890l174 183h413l72 -183h-266l-20 71h-34l-51 -71h-288zM-106 0l271 840h328l-270 -840h-329z" glyph-name="icircumflex" horiz-adv-x="387" unicode="î"/><glyph d="M169 889q-40 0 -66.5 26.5t-26.5 64.5q0 48 40 85.5t88 37.5q40 0 66 -27t26 -64q0 -49 -39.5 -86t-87.5 -37zM502 889q-40 0 -66.5 26.5t-26.5 64.5q0 48 40 85.5t88 37.5q40 0 66 -27t26 -64q0 -49 -39.5 -86t-87.5 -37zM-106 0l271 840h328l-270 -840h-329z" glyph-name="idieresis" horiz-adv-x="387" unicode="ï"/><glyph d="M655 840q203 0 300 -84.5t97 -238.5q0 -100 -30 -184t-84 -145t-128.5 -103.5t-164 -63.5t-189.5 -21h-477l96 298h-104l78 236h102l98 306h406zM514 275q86 0 145.5 56t59.5 140q0 55 -38 75t-116 20h-75l-10 -32h129l-78 -236h-128l-8 -23h119z" glyph-name="eth" horiz-adv-x="1064" unicode="ð"/><glyph d="M759 849q-49 0 -117 26t-98 26q-25 0 -43.5 -10.5t-20.5 -30.5h-80q-17 91 33 138t121 47q48 0 116 -26t99 -26q26 0 44.5 10.5t19.5 30.5h81q17 -92 -32.5 -138.5t-122.5 -46.5zM-106 0l275 840h363l87 -390h34l129 390h320l-273 -840h-355l-98 383h-34l-128 -383h-320z " glyph-name="ntilde" horiz-adv-x="996" unicode="ñ"/><glyph d="M801 894h-297l-103 183h297zM409 -28q-191 0 -295.5 93t-104.5 258q0 108 45.5 207.5t124.5 174t191 119t238 44.5q191 0 295.5 -93t104.5 -258q0 -108 -45.5 -207.5t-124.5 -174t-191 -119t-238 -44.5zM463 255q94 0 154 65.5t62 143.5q0 59 -36.5 90t-88.5 31 q-94 0 -154.5 -65.5t-62.5 -142.5q0 -59 37 -90.5t89 -31.5z" glyph-name="ograve" horiz-adv-x="1016" unicode="ò"/><glyph d="M501 894l103 183h297l-103 -183h-297zM409 -28q-191 0 -295.5 93t-104.5 258q0 108 45.5 207.5t124.5 174t191 119t238 44.5q191 0 295.5 -93t104.5 -258q0 -108 -45.5 -207.5t-124.5 -174t-191 -119t-238 -44.5zM463 255q94 0 154 65.5t62 143.5q0 59 -36.5 90t-88.5 31 q-94 0 -154.5 -65.5t-62.5 -142.5q0 -59 37 -90.5t89 -31.5z" glyph-name="oacute" horiz-adv-x="1016" unicode="ó"/><glyph d="M306 894l174 183h413l72 -183h-266l-20 71h-34l-51 -71h-288zM409 -28q-191 0 -295.5 93t-104.5 258q0 108 45.5 207.5t124.5 174t191 119t238 44.5q191 0 295.5 -93t104.5 -258q0 -108 -45.5 -207.5t-124.5 -174t-191 -119t-238 -44.5zM463 255q94 0 154 65.5t62 143.5 q0 59 -36.5 90t-88.5 31q-94 0 -154.5 -65.5t-62.5 -142.5q0 -59 37 -90.5t89 -31.5z" glyph-name="ocircumflex" horiz-adv-x="1016" unicode="ô"/><glyph d="M738 855q130 -28 200 -116t70 -222q0 -108 -45.5 -207.5t-124.5 -174t-191 -119t-238 -44.5q-191 0 -295.5 93t-104.5 258q0 108 45.5 207.5t124.5 174t191 119t238 44.5q56 0 99 -7q-19 5 -72 24.5t-82 19.5q-25 0 -43.5 -10.5t-20.5 -30.5h-80q-17 91 33 138t121 47 q49 0 117 -26t98 -26q26 0 44.5 10.5t19.5 30.5h81q17 -92 -32.5 -138.5t-122.5 -46.5q-12 0 -30 2zM463 255q94 0 154 65.5t62 143.5q0 59 -36.5 90t-88.5 31q-94 0 -154.5 -65.5t-62.5 -142.5q0 -59 37 -90.5t89 -31.5z" glyph-name="otilde" horiz-adv-x="1016" unicode="õ"/><glyph d="M487 893q-40 0 -66.5 26.5t-26.5 64.5q0 48 40 85.5t88 37.5q40 0 66 -27t26 -64q0 -49 -39.5 -86t-87.5 -37zM820 893q-40 0 -66.5 26.5t-26.5 64.5q0 48 40 85.5t88 37.5q40 0 66 -27t26 -64q0 -49 -39.5 -86t-87.5 -37zM409 -28q-191 0 -295.5 93t-104.5 258 q0 108 45.5 207.5t124.5 174t191 119t238 44.5q191 0 295.5 -93t104.5 -258q0 -108 -45.5 -207.5t-124.5 -174t-191 -119t-238 -44.5zM463 255q94 0 154 65.5t62 143.5q0 59 -36.5 90t-88.5 31q-94 0 -154.5 -65.5t-62.5 -142.5q0 -59 37 -90.5t89 -31.5z" glyph-name="odieresis" horiz-adv-x="1016" unicode="ö"/><glyph d="M453 592q-50 0 -81 31t-31 80q0 64 46 107.5t108 43.5q49 0 80 -31t31 -80q0 -64 -45.5 -107.5t-107.5 -43.5zM15 309l70 224h672l-70 -224h-672zM257 -25q-50 0 -81 31t-31 80q0 64 46 107.5t108 43.5q49 0 80 -31t31 -80q0 -64 -45.5 -107.5t-107.5 -43.5z" glyph-name="divide" horiz-adv-x="772" unicode="÷"/><glyph d="M890 786q118 -92 118 -269q0 -108 -45.5 -207.5t-124.5 -174t-191 -119t-238 -44.5q-71 0 -133 14l-28 -37h-191l77 100q-125 91 -125 274q0 108 45.5 207.5t124.5 174t191 119t238 44.5q80 0 141 -16l31 40h191zM337 377q0 -29 9 -51l198 259q-90 -4 -147.5 -68.5 t-59.5 -139.5zM483 256q86 8 140 71.5t56 136.5q0 20 -5 40z" glyph-name="oslash" horiz-adv-x="1016" unicode="ø"/><glyph d="M783 890h-297l-103 183h297zM389 -28q-249 0 -343 106.5t-26 312.5l149 449h333l-158 -473q-20 -58 1.5 -90.5t89.5 -32.5t106.5 36t66.5 119l143 441h334l-156 -478q-71 -215 -193.5 -302.5t-346.5 -87.5z" glyph-name="ugrave" horiz-adv-x="979" unicode="ù"/><glyph d="M483 890l103 183h297l-103 -183h-297zM389 -28q-249 0 -343 106.5t-26 312.5l149 449h333l-158 -473q-20 -58 1.5 -90.5t89.5 -32.5t106.5 36t66.5 119l143 441h334l-156 -478q-71 -215 -193.5 -302.5t-346.5 -87.5z" glyph-name="uacute" horiz-adv-x="979" unicode="ú"/><glyph d="M288 890l174 183h413l72 -183h-266l-20 71h-34l-51 -71h-288zM389 -28q-249 0 -343 106.5t-26 312.5l149 449h333l-158 -473q-20 -58 1.5 -90.5t89.5 -32.5t106.5 36t66.5 119l143 441h334l-156 -478q-71 -215 -193.5 -302.5t-346.5 -87.5z" glyph-name="ucircumflex" horiz-adv-x="979" unicode="û"/><glyph d="M469 889q-40 0 -66.5 26.5t-26.5 64.5q0 48 40 85.5t88 37.5q40 0 66 -27t26 -64q0 -49 -39.5 -86t-87.5 -37zM802 889q-40 0 -66.5 26.5t-26.5 64.5q0 48 40 85.5t88 37.5q40 0 66 -27t26 -64q0 -49 -39.5 -86t-87.5 -37zM389 -28q-249 0 -343 106.5t-26 312.5l149 449 h333l-158 -473q-20 -58 1.5 -90.5t89.5 -32.5t106.5 36t66.5 119l143 441h334l-156 -478q-71 -215 -193.5 -302.5t-346.5 -87.5z" glyph-name="udieresis" horiz-adv-x="979" unicode="ü"/><glyph d="M882 1073l-103 -183h-297l103 183h297zM1125 840l-526 -587l-81 -253h-329l86 270l-144 570h331l57 -267h23l224 267h359z" glyph-name="yacute" horiz-adv-x="994" unicode="ý"/><glyph d="M567 757q202 0 289 -91.5t28 -278.5q-54 -161 -180 -232t-327 -71h-125l-27 -84h-329l270 840h329l-27 -83h99zM568 454q8 20 -4.5 25.5t-48.5 5.5h-134l-42 -129h103q38 0 75 26t51 72z" glyph-name="thorn" horiz-adv-x="906" unicode="þ"/><glyph d="M468 889q-40 0 -66.5 26.5t-26.5 64.5q0 48 40 85.5t88 37.5q40 0 66 -27t26 -64q0 -49 -39.5 -86t-87.5 -37zM801 889q-40 0 -66.5 26.5t-26.5 64.5q0 48 40 85.5t88 37.5q40 0 66 -27t26 -64q0 -49 -39.5 -86t-87.5 -37zM1125 840l-526 -587l-81 -253h-329l86 270 l-144 570h331l57 -267h23l224 267h359z" glyph-name="ydieresis" horiz-adv-x="994" unicode="ÿ"/><glyph d="M513 1130h500l-78 -236h-500zM423 840h463l27 -840h-327l1 91h-317l-57 -91h-349zM422 332h169l3 201h-46z" glyph-name="Amacron" unicode="Ā"/><glyph d="M513 1130h500l-78 -236h-500zM423 840h463l27 -840h-327l1 91h-317l-57 -91h-349zM422 332h169l3 201h-46z" glyph-name="amacron" unicode="ā"/><glyph d="M793 1073h180q-11 -55 -36.5 -92.5t-63 -56.5t-78.5 -26.5t-94 -7.5q-39 0 -69.5 3t-59.5 10.5t-47.5 21t-32.5 33.5t-13.5 48.5t7.5 66.5h182q-11 -51 50 -51q63 0 75 51zM423 840h463l27 -840h-327l1 91h-317l-57 -91h-349zM422 332h169l3 201h-46z" glyph-name="Abreve" unicode="Ă"/><glyph d="M793 1073h180q-11 -55 -36.5 -92.5t-63 -56.5t-78.5 -26.5t-94 -7.5q-39 0 -69.5 3t-59.5 10.5t-47.5 21t-32.5 33.5t-13.5 48.5t7.5 66.5h182q-11 -51 50 -51q63 0 75 51zM423 840h463l27 -840h-327l1 91h-317l-57 -91h-349zM422 332h169l3 201h-46z" glyph-name="abreve" unicode="ă"/><glyph d="M589 0q-67 0 -67 -38q-5 -35 37 -33v-174q-33 0 -65 4t-67 15t-61 28.5t-43 46.5t-17 66q0 33 13 59t29 42t47 28t50 17.5t56 9.5t46.5 4t39.5 1v15h-317l-57 -91h-349l559 840h463l27 -840h-324zM422 332h169l3 201h-46z" glyph-name="Aogonek" unicode="Ą"/><glyph d="M589 0q-67 0 -67 -38q-5 -35 37 -33v-174q-33 0 -65 4t-67 15t-61 28.5t-43 46.5t-17 66q0 33 13 59t29 42t47 28t50 17.5t56 9.5t46.5 4t39.5 1v15h-317l-57 -91h-349l559 840h463l27 -840h-324zM422 332h169l3 201h-46z" glyph-name="aogonek" unicode="ą"/><glyph d="M520 890l103 183h297l-103 -183h-297zM409 -28q-191 0 -295 94t-104 263q0 106 45 204t123.5 172t193 118.5t245.5 44.5q83 0 154.5 -21.5t120.5 -58.5t81.5 -88t36.5 -109.5t-14 -123.5h-316q2 55 -32.5 86.5t-93.5 31.5q-96 0 -156 -63.5t-60 -145.5q0 -59 38.5 -90 t95.5 -31q125 0 186 114h315q-27 -92 -77 -164t-108 -115t-127.5 -70.5t-130 -37.5t-121.5 -10z" glyph-name="Cacute" horiz-adv-x="1006" unicode="Ć"/><glyph d="M520 890l103 183h297l-103 -183h-297zM409 -28q-191 0 -295 94t-104 263q0 106 45 204t123.5 172t193 118.5t245.5 44.5q83 0 154.5 -21.5t120.5 -58.5t81.5 -88t36.5 -109.5t-14 -123.5h-316q2 55 -32.5 86.5t-93.5 31.5q-96 0 -156 -63.5t-60 -145.5q0 -59 38.5 -90 t95.5 -31q125 0 186 114h315q-27 -92 -77 -164t-108 -115t-127.5 -70.5t-130 -37.5t-121.5 -10z" glyph-name="cacute" horiz-adv-x="1006" unicode="ć"/><glyph d="M695 889q-40 0 -66.5 26.5t-26.5 64.5q0 48 40 85.5t88 37.5q40 0 66 -27t26 -64q0 -49 -39.5 -86t-87.5 -37zM409 -28q-191 0 -295 94t-104 263q0 106 45 204t123.5 172t193 118.5t245.5 44.5q83 0 154.5 -21.5t120.5 -58.5t81.5 -88t36.5 -109.5t-14 -123.5h-316 q2 55 -32.5 86.5t-93.5 31.5q-96 0 -156 -63.5t-60 -145.5q0 -59 38.5 -90t95.5 -31q125 0 186 114h315q-27 -92 -77 -164t-108 -115t-127.5 -70.5t-130 -37.5t-121.5 -10z" glyph-name="Cdotaccent" horiz-adv-x="1006" unicode="Ċ"/><glyph d="M695 889q-40 0 -66.5 26.5t-26.5 64.5q0 48 40 85.5t88 37.5q40 0 66 -27t26 -64q0 -49 -39.5 -86t-87.5 -37zM409 -28q-191 0 -295 94t-104 263q0 106 45 204t123.5 172t193 118.5t245.5 44.5q83 0 154.5 -21.5t120.5 -58.5t81.5 -88t36.5 -109.5t-14 -123.5h-316 q2 55 -32.5 86.5t-93.5 31.5q-96 0 -156 -63.5t-60 -145.5q0 -59 38.5 -90t95.5 -31q125 0 186 114h315q-27 -92 -77 -164t-108 -115t-127.5 -70.5t-130 -37.5t-121.5 -10z" glyph-name="cdotaccent" horiz-adv-x="1006" unicode="ċ"/><glyph d="M752 852q149 -38 217.5 -145.5t26.5 -239.5h-316q2 55 -32.5 86.5t-93.5 31.5q-96 0 -156 -63.5t-60 -145.5q0 -59 38.5 -90t95.5 -31q125 0 186 114h315q-27 -92 -77 -164t-108 -115t-127.5 -70.5t-130 -37.5t-121.5 -10q-191 0 -295 94t-104 263q0 121 56 229 t160.5 186.5t239.5 107.5h-27l-72 183h266l20 -71h34l51 71h288l-174 -183h-100z" glyph-name="Ccaron" horiz-adv-x="1006" unicode="Č"/><glyph d="M752 852q149 -38 217.5 -145.5t26.5 -239.5h-316q2 55 -32.5 86.5t-93.5 31.5q-96 0 -156 -63.5t-60 -145.5q0 -59 38.5 -90t95.5 -31q125 0 186 114h315q-27 -92 -77 -164t-108 -115t-127.5 -70.5t-130 -37.5t-121.5 -10q-191 0 -295 94t-104 263q0 121 56 229 t160.5 186.5t239.5 107.5h-27l-72 183h266l20 -71h34l51 71h288l-174 -183h-100z" glyph-name="ccaron" horiz-adv-x="1006" unicode="č"/><glyph d="M983 1035l-174 -183h-413l-72 183h266l20 -71h34l51 71h288zM-104 0l270 840h406q203 0 300 -84.5t97 -238.5q0 -100 -30 -184t-84 -145t-128.5 -103.5t-164 -63.5t-189.5 -21h-477zM312 275h119q86 0 145.5 56t59.5 140q0 55 -38 75t-116 20h-75z" glyph-name="Dcaron" horiz-adv-x="981" unicode="Ď"/><glyph d="M983 1035l-174 -183h-413l-72 183h266l20 -71h34l51 71h288zM-104 0l270 840h406q203 0 300 -84.5t97 -238.5q0 -100 -30 -184t-84 -145t-128.5 -103.5t-164 -63.5t-189.5 -21h-477zM312 275h119q86 0 145.5 56t59.5 140q0 55 -38 75t-116 20h-75z" glyph-name="dcaron" horiz-adv-x="981" unicode="ď"/><glyph d="M655 840q203 0 300 -84.5t97 -238.5q0 -100 -30 -184t-84 -145t-128.5 -103.5t-164 -63.5t-189.5 -21h-477l96 298h-104l78 236h102l98 306h406zM514 275q86 0 145.5 56t59.5 140q0 55 -38 75t-116 20h-75l-10 -32h129l-78 -236h-128l-8 -23h119z" glyph-name="Dcroat" horiz-adv-x="1064" unicode="Đ"/><glyph d="M655 840q203 0 300 -84.5t97 -238.5q0 -100 -30 -184t-84 -145t-128.5 -103.5t-164 -63.5t-189.5 -21h-477l96 298h-104l78 236h102l98 306h406zM514 275q86 0 145.5 56t59.5 140q0 55 -38 75t-116 20h-75l-10 -32h129l-78 -236h-128l-8 -23h119z" glyph-name="dcroat" horiz-adv-x="1064" unicode="đ"/><glyph d="M906 1130l-78 -236h-500l78 236h500zM875 580h-466l-18 -57h466l-67 -203h-464l-19 -59h463l-85 -261h-791l271 840h795z" glyph-name="Emacron" horiz-adv-x="851" unicode="Ē"/><glyph d="M906 1130l-78 -236h-500l78 236h500zM875 580h-466l-18 -57h466l-67 -203h-464l-19 -59h463l-85 -261h-791l271 840h795z" glyph-name="emacron" horiz-adv-x="851" unicode="ē"/><glyph d="M593 889q-40 0 -66.5 26.5t-26.5 64.5q0 48 40 85.5t88 37.5q40 0 66 -27t26 -64q0 -49 -39.5 -86t-87.5 -37zM875 580h-466l-18 -57h466l-67 -203h-464l-19 -59h463l-85 -261h-791l271 840h795z" glyph-name="Edotaccent" horiz-adv-x="851" unicode="Ė"/><glyph d="M593 889q-40 0 -66.5 26.5t-26.5 64.5q0 48 40 85.5t88 37.5q40 0 66 -27t26 -64q0 -49 -39.5 -86t-87.5 -37zM875 580h-466l-18 -57h466l-67 -203h-464l-19 -59h463l-85 -261h-791l271 840h795z" glyph-name="edotaccent" horiz-adv-x="851" unicode="ė"/><glyph d="M875 580h-466l-18 -57h466l-67 -203h-464l-19 -59h463l-83 -255v-6q-67 0 -67 -38q-5 -35 37 -33v-174q-33 0 -65 4t-67 15t-61 28.5t-43 46.5t-17 66q0 49 28 85h-538l271 840h795z" glyph-name="Eogonek" horiz-adv-x="851" unicode="Ę"/><glyph d="M875 580h-466l-18 -57h466l-67 -203h-464l-19 -59h463l-83 -255v-6q-67 0 -67 -38q-5 -35 37 -33v-174q-33 0 -65 4t-67 15t-61 28.5t-43 46.5t-17 66q0 49 28 85h-538l271 840h795z" glyph-name="eogonek" horiz-adv-x="851" unicode="ę"/><glyph d="M750 852h-413l-72 183h266l20 -71h34l51 71h288zM875 580h-466l-18 -57h466l-67 -203h-464l-19 -59h463l-85 -261h-791l271 840h795z" glyph-name="Ecaron" horiz-adv-x="851" unicode="Ě"/><glyph d="M750 852h-413l-72 183h266l20 -71h34l51 71h288zM875 580h-466l-18 -57h466l-67 -203h-464l-19 -59h463l-85 -261h-791l271 840h795z" glyph-name="ecaron" horiz-adv-x="851" unicode="ě"/><glyph d="M637 890q-39 0 -69.5 3t-59.5 10.5t-47.5 21t-32.5 33.5t-13.5 48.5t7.5 66.5h182q-11 -51 50 -51q63 0 75 51h180q-11 -55 -36.5 -92.5t-63 -56.5t-78.5 -26.5t-94 -7.5zM554 585q-96 0 -156 -63.5t-60 -145.5q0 -59 38.5 -90t95.5 -31q111 0 156 71h-160l50 153h484 l-154 -479h-156l24 95q-54 -57 -137 -90t-182 -33q-185 0 -286 90.5t-101 259.5q0 108 45 208t123.5 174.5t193 119t245.5 44.5q192 0 302.5 -103t86.5 -241h-331q-16 26 -47.5 43.5t-73.5 17.5z" glyph-name="Gbreve" horiz-adv-x="1005" unicode="Ğ"/><glyph d="M637 890q-39 0 -69.5 3t-59.5 10.5t-47.5 21t-32.5 33.5t-13.5 48.5t7.5 66.5h182q-11 -51 50 -51q63 0 75 51h180q-11 -55 -36.5 -92.5t-63 -56.5t-78.5 -26.5t-94 -7.5zM554 585q-96 0 -156 -63.5t-60 -145.5q0 -59 38.5 -90t95.5 -31q111 0 156 71h-160l50 153h484 l-154 -479h-156l24 95q-54 -57 -137 -90t-182 -33q-185 0 -286 90.5t-101 259.5q0 108 45 208t123.5 174.5t193 119t245.5 44.5q192 0 302.5 -103t86.5 -241h-331q-16 26 -47.5 43.5t-73.5 17.5z" glyph-name="gbreve" horiz-adv-x="1005" unicode="ğ"/><glyph d="M636 889q-40 0 -66.5 26.5t-26.5 64.5q0 48 40 85.5t88 37.5q40 0 66 -27t26 -64q0 -49 -39.5 -86t-87.5 -37zM554 585q-96 0 -156 -63.5t-60 -145.5q0 -59 38.5 -90t95.5 -31q111 0 156 71h-160l50 153h484l-154 -479h-156l24 95q-54 -57 -137 -90t-182 -33 q-185 0 -286 90.5t-101 259.5q0 108 45 208t123.5 174.5t193 119t245.5 44.5q192 0 302.5 -103t86.5 -241h-331q-16 26 -47.5 43.5t-73.5 17.5z" glyph-name="Gdotaccent" horiz-adv-x="1005" unicode="Ġ"/><glyph d="M636 889q-40 0 -66.5 26.5t-26.5 64.5q0 48 40 85.5t88 37.5q40 0 66 -27t26 -64q0 -49 -39.5 -86t-87.5 -37zM554 585q-96 0 -156 -63.5t-60 -145.5q0 -59 38.5 -90t95.5 -31q111 0 156 71h-160l50 153h484l-154 -479h-156l24 95q-54 -57 -137 -90t-182 -33 q-185 0 -286 90.5t-101 259.5q0 108 45 208t123.5 174.5t193 119t245.5 44.5q192 0 302.5 -103t86.5 -241h-331q-16 26 -47.5 43.5t-73.5 17.5z" glyph-name="gdotaccent" horiz-adv-x="1005" unicode="ġ"/><glyph d="M554 585q-96 0 -156 -63.5t-60 -145.5q0 -59 38.5 -90t95.5 -31q111 0 156 71h-160l50 153h484l-154 -479h-156l24 95q-54 -57 -137 -90t-182 -33q-185 0 -286 90.5t-101 259.5q0 108 45 208t123.5 174.5t193 119t245.5 44.5q192 0 302.5 -103t86.5 -241h-331 q-16 26 -47.5 43.5t-73.5 17.5zM238 -70h315l3 8q-106 -318 -216 -444h-148q46 102 75 206h-103z" glyph-name="Gcommaaccent" horiz-adv-x="1005" unicode="Ģ"/><glyph d="M554 585q-96 0 -156 -63.5t-60 -145.5q0 -59 38.5 -90t95.5 -31q111 0 156 71h-160l50 153h484l-154 -479h-156l24 95q-54 -57 -137 -90t-182 -33q-185 0 -286 90.5t-101 259.5q0 108 45 208t123.5 174.5t193 119t245.5 44.5q192 0 302.5 -103t86.5 -241h-331 q-16 26 -47.5 43.5t-73.5 17.5zM238 -70h315l3 8q-106 -318 -216 -444h-148q46 102 75 206h-103z" glyph-name="gcommaaccent" horiz-adv-x="1005" unicode="ģ"/><glyph d="M755 840h329l-270 -840h-329l87 270h-260l-87 -270h-329l270 840h329l-13 -41h260zM400 543h260l10 34h-260z" glyph-name="Hbar" horiz-adv-x="980" unicode="Ħ"/><glyph d="M755 840h329l-270 -840h-329l87 270h-260l-87 -270h-329l270 840h329l-13 -41h260zM400 543h260l10 34h-260z" glyph-name="hbar" horiz-adv-x="980" unicode="ħ"/><glyph d="M93 894l78 236h500l-78 -236h-500zM-106 0l271 840h328l-270 -840h-329z" glyph-name="Imacron" horiz-adv-x="387" unicode="Ī"/><glyph d="M93 894l78 236h500l-78 -236h-500zM-106 0l271 840h328l-270 -840h-329z" glyph-name="imacron" horiz-adv-x="387" unicode="ī"/><glyph d="M223 0q-67 0 -67 -38q-5 -35 37 -33v-174q-33 0 -65 4t-67 15t-61 28.5t-43 46.5t-17 66q0 49 28 85h-74l271 840h328z" glyph-name="Iogonek" horiz-adv-x="387" unicode="Į"/><glyph d="M223 0q-67 0 -67 -38q-5 -35 37 -33v-174q-33 0 -65 4t-67 15t-61 28.5t-43 46.5t-17 66q0 49 28 85h-74l271 840h328z" glyph-name="iogonek" horiz-adv-x="387" unicode="į"/><glyph d="M358 889q-40 0 -66.5 26.5t-26.5 64.5q0 48 40 85.5t88 37.5q40 0 66 -27t26 -64q0 -49 -39.5 -86t-87.5 -37zM-106 0l271 840h328l-270 -840h-329z" glyph-name="Idotaccent" horiz-adv-x="387" unicode="İ"/><glyph d="M-106 0l271 840h328l-270 -840h-329z" glyph-name="dotlessi" horiz-adv-x="387" unicode="ı"/><glyph d="M-106 0l271 840h328l-270 -840h-329zM706 -28q-80 0 -140.5 12t-106.5 40.5t-69.5 72.5t-23.5 110t27 152h326q-9 -27 -10 -47.5t3.5 -31t12 -18.5t16.5 -9t16.5 -3t12.5 0h2q76 0 109 99l158 491h329l-156 -485q-36 -113 -86 -189t-115.5 -118t-138 -59t-166.5 -17z" glyph-name="IJ" horiz-adv-x="1261" unicode="Ĳ"/><glyph d="M1107 840l-444 -381l275 -459h-327l-177 294h-29l-118 -94l-65 -200h-328l275 840h327l-77 -235h41l275 235h372zM200 -70h315l3 8q-106 -318 -216 -444h-148q46 102 75 206h-103z" glyph-name="Kcommaaccent" horiz-adv-x="1039" unicode="Ķ"/><glyph d="M1107 840l-444 -381l275 -459h-327l-177 294h-29l-118 -94l-65 -200h-328l275 840h327l-77 -235h41l275 235h372zM200 -70h315l3 8q-106 -318 -216 -444h-148q46 102 75 206h-103z" glyph-name="kcommaaccent" horiz-adv-x="1039" unicode="ķ"/><glyph d="M187 880l103 183h297l-103 -183h-297zM-106 0l273 840h329l-186 -566h443l-87 -274h-772z" glyph-name="Lacute" horiz-adv-x="835" unicode="Ĺ"/><glyph d="M187 880l103 183h297l-103 -183h-297zM-106 0l273 840h329l-186 -566h443l-87 -274h-772z" glyph-name="lacute" horiz-adv-x="835" unicode="ĺ"/><glyph d="M-106 0l273 840h329l-186 -566h443l-87 -274h-772zM57 -506q46 102 75 206h-103l74 230h315l3 8q-106 -318 -216 -444h-148z" glyph-name="Lcommaaccent" horiz-adv-x="835" unicode="Ļ"/><glyph d="M-106 0l273 840h329l-186 -566h443l-87 -274h-772zM57 -506q46 102 75 206h-103l74 230h315l3 8q-106 -318 -216 -444h-148z" glyph-name="lcommaaccent" horiz-adv-x="835" unicode="ļ"/><glyph d="M502 322q57 128 89 245h-123l88 274h376l4 10q-127 -377 -258 -529h-176zM-106 0l273 840h329l-186 -566h443l-87 -274h-772z" glyph-name="Lcaron" horiz-adv-x="835" unicode="Ľ"/><glyph d="M502 322q57 128 89 245h-123l88 274h376l4 10q-127 -377 -258 -529h-176zM-106 0l273 840h329l-186 -566h443l-87 -274h-772z" glyph-name="lcaron" horiz-adv-x="835" unicode="ľ"/><glyph d="M-106 0l273 840h329l-186 -566h443l-87 -274h-772zM681 373q-60 0 -97 37t-37 96q0 76 54.5 128t128.5 52q59 0 96 -37t37 -96q0 -76 -54.5 -128t-127.5 -52z" glyph-name="Ldot" horiz-adv-x="835" unicode="Ŀ"/><glyph d="M352 274h443l-87 -274h-772l50 154l-41 -22l20 227l107 58l137 423h329l-67 -205l131 72l-19 -227l-199 -109z" glyph-name="Lslash" horiz-adv-x="877" unicode="Ł"/><glyph d="M352 274h443l-87 -274h-772l50 154l-41 -22l20 227l107 58l137 423h329l-67 -205l131 72l-19 -227l-199 -109z" glyph-name="lslash" horiz-adv-x="877" unicode="ł"/><glyph d="M492 890l103 183h297l-103 -183h-297zM-106 0l275 840h363l87 -390h34l129 390h320l-273 -840h-355l-98 383h-34l-128 -383h-320z" glyph-name="Nacute" horiz-adv-x="996" unicode="Ń"/><glyph d="M492 890l103 183h297l-103 -183h-297zM-106 0l275 840h363l87 -390h34l129 390h320l-273 -840h-355l-98 383h-34l-128 -383h-320z" glyph-name="nacute" horiz-adv-x="996" unicode="ń"/><glyph d="M-106 0l275 840h363l87 -390h34l129 390h320l-273 -840h-355l-98 383h-34l-128 -383h-320zM149 -506q46 102 75 206h-103l74 230h315l3 8q-106 -318 -216 -444h-148z" glyph-name="Ncommaaccent" horiz-adv-x="996" unicode="Ņ"/><glyph d="M-106 0l275 840h363l87 -390h34l129 390h320l-273 -840h-355l-98 383h-34l-128 -383h-320zM149 -506q46 102 75 206h-103l74 230h315l3 8q-106 -318 -216 -444h-148z" glyph-name="ncommaaccent" horiz-adv-x="996" unicode="ņ"/><glyph d="M998 1035l-174 -183h-413l-72 183h266l20 -71h34l51 71h288zM-106 0l275 840h363l87 -390h34l129 390h320l-273 -840h-355l-98 383h-34l-128 -383h-320z" glyph-name="Ncaron" horiz-adv-x="996" unicode="Ň"/><glyph d="M998 1035l-174 -183h-413l-72 183h266l20 -71h34l51 71h288zM-106 0l275 840h363l87 -390h34l129 390h320l-273 -840h-355l-98 383h-34l-128 -383h-320z" glyph-name="ncaron" horiz-adv-x="996" unicode="ň"/><glyph d="M1102 840l-273 -840l-5 -14q-49 -151 -168.5 -217t-313.5 -66l68 274q74 0 95 23h-31l-98 383h-34l-128 -383h-320l275 840h363l87 -390h34l35 109h1l93 281h320z" glyph-name="Eng" horiz-adv-x="996" unicode="Ŋ"/><glyph d="M1102 840l-273 -840l-5 -14q-49 -151 -168.5 -217t-313.5 -66l68 274q74 0 95 23h-31l-98 383h-34l-128 -383h-320l275 840h363l87 -390h34l35 109h1l93 281h320z" glyph-name="eng" horiz-adv-x="996" unicode="ŋ"/><glyph d="M411 898l78 236h500l-78 -236h-500zM409 -28q-191 0 -295.5 93t-104.5 258q0 108 45.5 207.5t124.5 174t191 119t238 44.5q191 0 295.5 -93t104.5 -258q0 -108 -45.5 -207.5t-124.5 -174t-191 -119t-238 -44.5zM463 255q94 0 154 65.5t62 143.5q0 59 -36.5 90t-88.5 31 q-94 0 -154.5 -65.5t-62.5 -142.5q0 -59 37 -90.5t89 -31.5z" glyph-name="Omacron" horiz-adv-x="1016" unicode="Ō"/><glyph d="M411 898l78 236h500l-78 -236h-500zM409 -28q-191 0 -295.5 93t-104.5 258q0 108 45.5 207.5t124.5 174t191 119t238 44.5q191 0 295.5 -93t104.5 -258q0 -108 -45.5 -207.5t-124.5 -174t-191 -119t-238 -44.5zM463 255q94 0 154 65.5t62 143.5q0 59 -36.5 90t-88.5 31 q-94 0 -154.5 -65.5t-62.5 -142.5q0 -59 37 -90.5t89 -31.5z" glyph-name="omacron" horiz-adv-x="1016" unicode="ō"/><glyph d="M357 894l103 183h297l-103 -183h-297zM686 894l103 183h297l-103 -183h-297zM409 -28q-191 0 -295.5 93t-104.5 258q0 108 45.5 207.5t124.5 174t191 119t238 44.5q191 0 295.5 -93t104.5 -258q0 -108 -45.5 -207.5t-124.5 -174t-191 -119t-238 -44.5zM463 255 q94 0 154 65.5t62 143.5q0 59 -36.5 90t-88.5 31q-94 0 -154.5 -65.5t-62.5 -142.5q0 -59 37 -90.5t89 -31.5z" glyph-name="Ohungarumlaut" horiz-adv-x="1016" unicode="Ő"/><glyph d="M357 894l103 183h297l-103 -183h-297zM686 894l103 183h297l-103 -183h-297zM409 -28q-191 0 -295.5 93t-104.5 258q0 108 45.5 207.5t124.5 174t191 119t238 44.5q191 0 295.5 -93t104.5 -258q0 -108 -45.5 -207.5t-124.5 -174t-191 -119t-238 -44.5zM463 255 q94 0 154 65.5t62 143.5q0 59 -36.5 90t-88.5 31q-94 0 -154.5 -65.5t-62.5 -142.5q0 -59 37 -90.5t89 -31.5z" glyph-name="ohungarumlaut" horiz-adv-x="1016" unicode="ő"/><glyph d="M1520 580h-466l-18 -57h466l-67 -203h-464l-19 -59h463l-85 -261h-729q-93 -28 -192 -28q-191 0 -295.5 93t-104.5 258q0 108 45.5 207.5t124.5 174t191 119t238 44.5q115 0 200 -35l2 7h795zM337 377q0 -59 37 -90.5t89 -31.5q94 0 154 65.5t62 143.5q0 59 -36.5 90 t-88.5 31q-94 0 -154.5 -65.5t-62.5 -142.5z" glyph-name="OE" horiz-adv-x="1496" unicode="Œ"/><glyph d="M1520 580h-466l-18 -57h466l-67 -203h-464l-19 -59h463l-85 -261h-729q-93 -28 -192 -28q-191 0 -295.5 93t-104.5 258q0 108 45.5 207.5t124.5 174t191 119t238 44.5q115 0 200 -35l2 7h795zM337 377q0 -59 37 -90.5t89 -31.5q94 0 154 65.5t62 143.5q0 59 -36.5 90 t-88.5 31q-94 0 -154.5 -65.5t-62.5 -142.5z" glyph-name="oe" horiz-adv-x="1496" unicode="œ"/><glyph d="M865 1073l-103 -183h-297l103 183h297zM955 583q0 -106 -51 -188.5t-136 -133.5l56 -261h-315l-39 194h-183l-62 -194h-329l270 840h455q169 0 251.5 -63.5t82.5 -193.5zM407 568l-44 -136l165 1q29 0 60 20t31 58q0 32 -17.5 44.5t-57.5 12.5h-137z" glyph-name="Racute" horiz-adv-x="958" unicode="Ŕ"/><glyph d="M865 1073l-103 -183h-297l103 183h297zM955 583q0 -106 -51 -188.5t-136 -133.5l56 -261h-315l-39 194h-183l-62 -194h-329l270 840h455q169 0 251.5 -63.5t82.5 -193.5zM407 568l-44 -136l165 1q29 0 60 20t31 58q0 32 -17.5 44.5t-57.5 12.5h-137z" glyph-name="racute" horiz-adv-x="958" unicode="ŕ"/><glyph d="M955 583q0 -106 -51 -188.5t-136 -133.5l56 -261h-315l-39 194h-183l-62 -194h-329l270 840h455q169 0 251.5 -63.5t82.5 -193.5zM407 568l-44 -136l165 1q29 0 60 20t31 58q0 32 -17.5 44.5t-57.5 12.5h-137zM168 -70h315l3 8q-106 -318 -216 -444h-148q46 102 75 206 h-103z" glyph-name="Rcommaaccent" horiz-adv-x="958" unicode="Ŗ"/><glyph d="M955 583q0 -106 -51 -188.5t-136 -133.5l56 -261h-315l-39 194h-183l-62 -194h-329l270 840h455q169 0 251.5 -63.5t82.5 -193.5zM407 568l-44 -136l165 1q29 0 60 20t31 58q0 32 -17.5 44.5t-57.5 12.5h-137zM168 -70h315l3 8q-106 -318 -216 -444h-148q46 102 75 206 h-103z" glyph-name="rcommaaccent" horiz-adv-x="958" unicode="ŗ"/><glyph d="M797 852h-413l-72 183h266l20 -71h34l51 71h288zM621 840q169 0 251.5 -63.5t82.5 -193.5q0 -106 -51 -188.5t-136 -133.5l56 -261h-315l-39 194h-183l-62 -194h-329l270 840h455zM407 568l-44 -136l165 1q29 0 60 20t31 58q0 32 -17.5 44.5t-57.5 12.5h-137z" glyph-name="Rcaron" horiz-adv-x="958" unicode="Ř"/><glyph d="M797 852h-413l-72 183h266l20 -71h34l51 71h288zM621 840q169 0 251.5 -63.5t82.5 -193.5q0 -106 -51 -188.5t-136 -133.5l56 -261h-315l-39 194h-183l-62 -194h-329l270 840h455zM407 568l-44 -136l165 1q29 0 60 20t31 58q0 32 -17.5 44.5t-57.5 12.5h-137z" glyph-name="rcaron" horiz-adv-x="958" unicode="ř"/><glyph d="M461 890l103 183h297l-103 -183h-297zM340 -28q-86 0 -152.5 10t-120.5 32.5t-80 59.5t-32 91t23 127h279q-8 -36 30.5 -53.5t98.5 -17.5q150 0 150 50v1q0 6 -1.5 10.5t-7 12.5t-22 14t-42.5 8l-67 8q-318 25 -318 216q0 154 132 240.5t352 86.5q139 0 234 -37 t128.5 -107.5t-16.5 -173.5h-269q2 7 0 15t-10.5 18t-21.5 17.5t-37 13t-54 5.5q-57 0 -90.5 -15t-33.5 -39q0 -32 58 -39l44 -6q15 -3 50.5 -7.5t59.5 -8.5t59.5 -12t59.5 -17.5t51.5 -25.5t44.5 -35.5t28 -48t11 -63.5q0 -92 -41 -158t-115.5 -102.5t-163 -53 t-198.5 -16.5z" glyph-name="Sacute" horiz-adv-x="923" unicode="Ś"/><glyph d="M461 890l103 183h297l-103 -183h-297zM340 -28q-86 0 -152.5 10t-120.5 32.5t-80 59.5t-32 91t23 127h279q-8 -36 30.5 -53.5t98.5 -17.5q150 0 150 50v1q0 6 -1.5 10.5t-7 12.5t-22 14t-42.5 8l-67 8q-318 25 -318 216q0 154 132 240.5t352 86.5q139 0 234 -37 t128.5 -107.5t-16.5 -173.5h-269q2 7 0 15t-10.5 18t-21.5 17.5t-37 13t-54 5.5q-57 0 -90.5 -15t-33.5 -39q0 -32 58 -39l44 -6q15 -3 50.5 -7.5t59.5 -8.5t59.5 -12t59.5 -17.5t51.5 -25.5t44.5 -35.5t28 -48t11 -63.5q0 -92 -41 -158t-115.5 -102.5t-163 -53 t-198.5 -16.5z" glyph-name="sacute" horiz-adv-x="923" unicode="ś"/><glyph d="M908 550h-269q2 7 0 15t-10.5 18t-21.5 17.5t-37 13t-54 5.5q-57 0 -90.5 -15t-33.5 -39q0 -32 58 -39l44 -6q15 -3 50.5 -7.5t59.5 -8.5t59.5 -12t59.5 -17.5t51.5 -25.5t44.5 -35.5t28 -48t11 -63.5q0 -90 -39.5 -155.5t-111 -102t-158 -54t-193.5 -18.5l-7 -4 q35 -9 57.5 -37t22.5 -75q0 -96 -95 -130t-219 7l34 109q37 -14 80.5 -13t43.5 22q0 8 -13.5 14t-39.5 7t-65 -7l17 59l75 51q-375 29 -269 317h279q-8 -36 30.5 -53.5t98.5 -17.5q150 0 150 50v1q0 6 -1.5 10.5t-7 12.5t-22 14t-42.5 8l-67 8q-318 25 -318 216 q0 154 132 240.5t352 86.5q139 0 234 -37t128.5 -107.5t-16.5 -173.5z" glyph-name="Scedilla" horiz-adv-x="923" unicode="Ş"/><glyph d="M908 550h-269q2 7 0 15t-10.5 18t-21.5 17.5t-37 13t-54 5.5q-57 0 -90.5 -15t-33.5 -39q0 -32 58 -39l44 -6q15 -3 50.5 -7.5t59.5 -8.5t59.5 -12t59.5 -17.5t51.5 -25.5t44.5 -35.5t28 -48t11 -63.5q0 -90 -39.5 -155.5t-111 -102t-158 -54t-193.5 -18.5l-7 -4 q35 -9 57.5 -37t22.5 -75q0 -96 -95 -130t-219 7l34 109q37 -14 80.5 -13t43.5 22q0 8 -13.5 14t-39.5 7t-65 -7l17 59l75 51q-375 29 -269 317h279q-8 -36 30.5 -53.5t98.5 -17.5q150 0 150 50v1q0 6 -1.5 10.5t-7 12.5t-22 14t-42.5 8l-67 8q-318 25 -318 216 q0 154 132 240.5t352 86.5q139 0 234 -37t128.5 -107.5t-16.5 -173.5z" glyph-name="scedilla" horiz-adv-x="923" unicode="ş"/><glyph d="M725 852q89 -19 142.5 -59.5t67 -101.5t-26.5 -141h-269q2 7 0 15t-10.5 18t-21.5 17.5t-37 13t-54 5.5q-57 0 -90.5 -15t-33.5 -39q0 -32 58 -39l44 -6q15 -3 50.5 -7.5t59.5 -8.5t59.5 -12t59.5 -17.5t51.5 -25.5t44.5 -35.5t28 -48t11 -63.5q0 -92 -41 -158 t-115.5 -102.5t-163 -53t-198.5 -16.5q-86 0 -152.5 10t-120.5 32.5t-80 59.5t-32 91t23 127h279q-8 -36 30.5 -53.5t98.5 -17.5q150 0 150 50v1q0 6 -1.5 10.5t-7 12.5t-22 14t-42.5 8l-67 8q-318 25 -318 216q0 121 83 201t230 110h-11l-72 183h266l20 -71h34l51 71h288 l-174 -183h-68z" glyph-name="Scaron" horiz-adv-x="923" unicode="Š"/><glyph d="M725 852q89 -19 142.5 -59.5t67 -101.5t-26.5 -141h-269q2 7 0 15t-10.5 18t-21.5 17.5t-37 13t-54 5.5q-57 0 -90.5 -15t-33.5 -39q0 -32 58 -39l44 -6q15 -3 50.5 -7.5t59.5 -8.5t59.5 -12t59.5 -17.5t51.5 -25.5t44.5 -35.5t28 -48t11 -63.5q0 -92 -41 -158 t-115.5 -102.5t-163 -53t-198.5 -16.5q-86 0 -152.5 10t-120.5 32.5t-80 59.5t-32 91t23 127h279q-8 -36 30.5 -53.5t98.5 -17.5q150 0 150 50v1q0 6 -1.5 10.5t-7 12.5t-22 14t-42.5 8l-67 8q-318 25 -318 216q0 121 83 201t230 110h-11l-72 183h266l20 -71h34l51 71h288 l-174 -183h-68z" glyph-name="scaron" horiz-adv-x="923" unicode="š"/><glyph d="M1070 840l-89 -273h-287l-185 -567h-88l-59 -32q35 -9 57.5 -37t22.5 -75q0 -96 -95 -130t-219 7l34 109q37 -14 80.5 -13t43.5 22q0 8 -13.5 14t-39.5 7t-65 -7l17 59l111 76h-115l185 567h-294l88 273h910z" glyph-name="Tcommaaccent" horiz-adv-x="959" unicode="Ţ"/><glyph d="M1070 840l-89 -273h-287l-185 -567h-88l-59 -32q35 -9 57.5 -37t22.5 -75q0 -96 -95 -130t-219 7l34 109q37 -14 80.5 -13t43.5 22q0 8 -13.5 14t-39.5 7t-65 -7l17 59l111 76h-115l185 567h-294l88 273h910z" glyph-name="tcommaaccent" horiz-adv-x="959" unicode="ţ"/><glyph d="M806 852h-413l-72 183h266l20 -71h34l51 71h288zM1070 840l-89 -273h-287l-185 -567h-328l185 567h-294l88 273h910z" glyph-name="Tcaron" horiz-adv-x="959" unicode="Ť"/><glyph d="M806 852h-413l-72 183h266l20 -71h34l51 71h288zM1070 840l-89 -273h-287l-185 -567h-328l185 567h-294l88 273h910z" glyph-name="tcaron" horiz-adv-x="959" unicode="ť"/><glyph d="M981 567h-287l-22 -69h254l-90 -268h-252l-75 -230h-328l75 230h-243l90 268h241l22 69h-294l88 273h910z" glyph-name="Tbar" horiz-adv-x="959" unicode="Ŧ"/><glyph d="M981 567h-287l-22 -69h254l-90 -268h-252l-75 -230h-328l75 230h-243l90 268h241l22 69h-294l88 273h910z" glyph-name="tbar" horiz-adv-x="959" unicode="ŧ"/><glyph d="M393 894l78 236h500l-78 -236h-500zM389 -28q-249 0 -343 106.5t-26 312.5l149 449h333l-158 -473q-20 -58 1.5 -90.5t89.5 -32.5t106.5 36t66.5 119l143 441h334l-156 -478q-71 -215 -193.5 -302.5t-346.5 -87.5z" glyph-name="Umacron" horiz-adv-x="979" unicode="Ū"/><glyph d="M393 894l78 236h500l-78 -236h-500zM389 -28q-249 0 -343 106.5t-26 312.5l149 449h333l-158 -473q-20 -58 1.5 -90.5t89.5 -32.5t106.5 36t66.5 119l143 441h334l-156 -478q-71 -215 -193.5 -302.5t-346.5 -87.5z" glyph-name="umacron" horiz-adv-x="979" unicode="ū"/><glyph d="M659 890q-39 0 -69.5 3t-59.5 10.5t-47.5 21t-32.5 33.5t-13.5 48.5t7.5 66.5h182q-11 -51 50 -51q63 0 75 51h180q-11 -55 -36.5 -92.5t-63 -56.5t-78.5 -26.5t-94 -7.5zM389 -28q-249 0 -343 106.5t-26 312.5l149 449h333l-158 -473q-20 -58 1.5 -90.5t89.5 -32.5 t106.5 36t66.5 119l143 441h334l-156 -478q-71 -215 -193.5 -302.5t-346.5 -87.5z" glyph-name="Ubreve" horiz-adv-x="979" unicode="Ŭ"/><glyph d="M659 890q-39 0 -69.5 3t-59.5 10.5t-47.5 21t-32.5 33.5t-13.5 48.5t7.5 66.5h182q-11 -51 50 -51q63 0 75 51h180q-11 -55 -36.5 -92.5t-63 -56.5t-78.5 -26.5t-94 -7.5zM389 -28q-249 0 -343 106.5t-26 312.5l149 449h333l-158 -473q-20 -58 1.5 -90.5t89.5 -32.5 t106.5 36t66.5 119l143 441h334l-156 -478q-71 -215 -193.5 -302.5t-346.5 -87.5z" glyph-name="ubreve" horiz-adv-x="979" unicode="ŭ"/><glyph d="M617 824q-58 0 -93.5 36t-35.5 92q0 79 53 128.5t124 49.5q57 0 91.5 -35t34.5 -91q0 -74 -51 -127t-123 -53zM636 953q14 0 22 9t8 23q0 7 -5 13t-15 6q-13 0 -21.5 -9.5t-8.5 -23.5q0 -6 5 -12t15 -6zM389 -28q-249 0 -343 106.5t-26 312.5l149 449h333l-158 -473 q-20 -58 1.5 -90.5t89.5 -32.5t106.5 36t66.5 119l143 441h334l-156 -478q-71 -215 -193.5 -302.5t-346.5 -87.5z" glyph-name="Uring" horiz-adv-x="979" unicode="Ů"/><glyph d="M617 824q-58 0 -93.5 36t-35.5 92q0 79 53 128.5t124 49.5q57 0 91.5 -35t34.5 -91q0 -74 -51 -127t-123 -53zM636 953q14 0 22 9t8 23q0 7 -5 13t-15 6q-13 0 -21.5 -9.5t-8.5 -23.5q0 -6 5 -12t15 -6zM389 -28q-249 0 -343 106.5t-26 312.5l149 449h333l-158 -473 q-20 -58 1.5 -90.5t89.5 -32.5t106.5 36t66.5 119l143 441h334l-156 -478q-71 -215 -193.5 -302.5t-346.5 -87.5z" glyph-name="uring" horiz-adv-x="979" unicode="ů"/><glyph d="M339 890l103 183h297l-103 -183h-297zM668 890l103 183h297l-103 -183h-297zM389 -28q-249 0 -343 106.5t-26 312.5l149 449h333l-158 -473q-20 -58 1.5 -90.5t89.5 -32.5t106.5 36t66.5 119l143 441h334l-156 -478q-71 -215 -193.5 -302.5t-346.5 -87.5z" glyph-name="Uhungarumlaut" horiz-adv-x="979" unicode="Ű"/><glyph d="M339 890l103 183h297l-103 -183h-297zM668 890l103 183h297l-103 -183h-297zM389 -28q-249 0 -343 106.5t-26 312.5l149 449h333l-158 -473q-20 -58 1.5 -90.5t89.5 -32.5t106.5 36t66.5 119l143 441h334l-156 -478q-71 -215 -193.5 -302.5t-346.5 -87.5z" glyph-name="uhungarumlaut" horiz-adv-x="979" unicode="ű"/><glyph d="M751 840h334l-156 -478q-62 -186 -161 -275.5t-265 -108.5v-1q-52 -3 -71.5 -8.5t-19.5 -16.5q0 -19 22 -22q6 -1 15 -1v-174q-42 0 -82 7t-80.5 23.5t-65 49.5t-24.5 78t26 74q-155 33 -206.5 135t3.5 269l149 449h333l-158 -473q-20 -58 1.5 -90.5t89.5 -32.5t106.5 36 t66.5 119z" glyph-name="Uogonek" horiz-adv-x="979" unicode="Ų"/><glyph d="M751 840h334l-156 -478q-62 -186 -161 -275.5t-265 -108.5v-1q-52 -3 -71.5 -8.5t-19.5 -16.5q0 -19 22 -22q6 -1 15 -1v-174q-42 0 -82 7t-80.5 23.5t-65 49.5t-24.5 78t26 74q-155 33 -206.5 135t3.5 269l149 449h333l-158 -473q-20 -58 1.5 -90.5t89.5 -32.5t106.5 36 t66.5 119z" glyph-name="uogonek" horiz-adv-x="979" unicode="ų"/><glyph d="M453 890l174 183h413l72 -183h-266l-20 71h-34l-51 -71h-288zM23 0l126 840h329l-97 -488h29l248 488h254l-62 -488h30l215 488h341l-418 -840h-442l61 320h-28l-144 -320h-442z" glyph-name="Wcircumflex" horiz-adv-x="1318" unicode="Ŵ"/><glyph d="M453 890l174 183h413l72 -183h-266l-20 71h-34l-51 -71h-288zM23 0l126 840h329l-97 -488h29l248 488h254l-62 -488h30l215 488h341l-418 -840h-442l61 320h-28l-144 -320h-442z" glyph-name="wcircumflex" horiz-adv-x="1318" unicode="ŵ"/><glyph d="M626 961l-51 -71h-288l174 183h413l72 -183h-266l-20 71h-34zM1125 840l-526 -587l-81 -253h-329l86 270l-144 570h331l57 -267h23l224 267h359z" glyph-name="Ycircumflex" horiz-adv-x="994" unicode="Ŷ"/><glyph d="M626 961l-51 -71h-288l174 183h413l72 -183h-266l-20 71h-34zM1125 840l-526 -587l-81 -253h-329l86 270l-144 570h331l57 -267h23l224 267h359z" glyph-name="ycircumflex" horiz-adv-x="994" unicode="ŷ"/><glyph d="M468 889q-40 0 -66.5 26.5t-26.5 64.5q0 48 40 85.5t88 37.5q40 0 66 -27t26 -64q0 -49 -39.5 -86t-87.5 -37zM801 889q-40 0 -66.5 26.5t-26.5 64.5q0 48 40 85.5t88 37.5q40 0 66 -27t26 -64q0 -49 -39.5 -86t-87.5 -37zM1125 840l-526 -587l-81 -253h-329l86 270 l-144 570h331l57 -267h23l224 267h359z" glyph-name="Ydieresis" horiz-adv-x="994" unicode="Ÿ"/><glyph d="M426 890l103 183h297l-103 -183h-297zM-114 0l87 269l472 275l11 25h-380l90 271h819l-88 -268l-472 -275l-11 -26h378l-90 -271h-816z" glyph-name="Zacute" horiz-adv-x="869" unicode="Ź"/><glyph d="M426 890l103 183h297l-103 -183h-297zM-114 0l87 269l472 275l11 25h-380l90 271h819l-88 -268l-472 -275l-11 -26h378l-90 -271h-816z" glyph-name="zacute" horiz-adv-x="869" unicode="ź"/><glyph d="M601 889q-40 0 -66.5 26.5t-26.5 64.5q0 48 40 85.5t88 37.5q40 0 66 -27t26 -64q0 -49 -39.5 -86t-87.5 -37zM-114 0l87 269l472 275l11 25h-380l90 271h819l-88 -268l-472 -275l-11 -26h378l-90 -271h-816z" glyph-name="Zdotaccent" horiz-adv-x="869" unicode="Ż"/><glyph d="M601 889q-40 0 -66.5 26.5t-26.5 64.5q0 48 40 85.5t88 37.5q40 0 66 -27t26 -64q0 -49 -39.5 -86t-87.5 -37zM-114 0l87 269l472 275l11 25h-380l90 271h819l-88 -268l-472 -275l-11 -26h378l-90 -271h-816z" glyph-name="zdotaccent" horiz-adv-x="869" unicode="ż"/><glyph d="M932 1035l-174 -183h-413l-72 183h266l20 -71h34l51 71h288zM-114 0l87 269l472 275l11 25h-380l90 271h819l-88 -268l-472 -275l-11 -26h378l-90 -271h-816z" glyph-name="Zcaron" horiz-adv-x="869" unicode="Ž"/><glyph d="M932 1035l-174 -183h-413l-72 183h266l20 -71h34l51 71h288zM-114 0l87 269l472 275l11 25h-380l90 271h819l-88 -268l-472 -275l-11 -26h378l-90 -271h-816z" glyph-name="zcaron" horiz-adv-x="869" unicode="ž"/><glyph d="M708 647q-38 0 -67.5 -17.5t-41.5 -51.5l-8 -25h204l-81 -248h-201l-19 -59q-44 -130 -151 -197.5t-240 -67.5q-134 0 -183 38l75 235q67 -24 109 -24q38 0 67.5 18t41.5 52l2 5h-198l81 248h195l25 78q44 130 150.5 197.5t240.5 67.5q133 0 183 -37l-75 -235 q-64 23 -109 23z" glyph-name="florin" horiz-adv-x="800" unicode="ƒ"/><glyph d="M857 852h-413l-72 183h266l20 -71h34l51 71h288zM423 840h463l27 -840h-327l1 91h-317l-57 -91h-349zM422 332h169l3 201h-46z" glyph-name="uni01CD" unicode="Ǎ"/><glyph d="M857 852h-413l-72 183h266l20 -71h34l51 71h288zM423 840h463l27 -840h-327l1 91h-317l-57 -91h-349zM422 332h169l3 201h-46z" glyph-name="uni01CE" unicode="ǎ"/><glyph d="M689 1035l-174 -183h-413l-72 183h266l20 -71h34l51 71h288zM-106 0l271 840h328l-270 -840h-329z" glyph-name="uni01CF" horiz-adv-x="387" unicode="Ǐ"/><glyph d="M689 1035l-174 -183h-413l-72 183h266l20 -71h34l51 71h288zM-106 0l271 840h328l-270 -840h-329z" glyph-name="uni01D0" horiz-adv-x="387" unicode="ǐ"/><glyph d="M732 856q133 -28 204.5 -116t71.5 -223q0 -108 -45.5 -207.5t-124.5 -174t-191 -119t-238 -44.5q-191 0 -295.5 93t-104.5 258q0 192 132.5 342.5t339.5 190.5h-61l-72 183h266l20 -71h34l51 71h288l-174 -183h-101zM463 255q94 0 154 65.5t62 143.5q0 59 -36.5 90 t-88.5 31q-94 0 -154.5 -65.5t-62.5 -142.5q0 -59 37 -90.5t89 -31.5z" glyph-name="uni01D1" horiz-adv-x="1016" unicode="Ǒ"/><glyph d="M732 856q133 -28 204.5 -116t71.5 -223q0 -108 -45.5 -207.5t-124.5 -174t-191 -119t-238 -44.5q-191 0 -295.5 93t-104.5 258q0 192 132.5 342.5t339.5 190.5h-61l-72 183h266l20 -71h34l51 71h288l-174 -183h-101zM463 255q94 0 154 65.5t62 143.5q0 59 -36.5 90 t-88.5 31q-94 0 -154.5 -65.5t-62.5 -142.5q0 -59 37 -90.5t89 -31.5z" glyph-name="uni01D2" horiz-adv-x="1016" unicode="ǒ"/><glyph d="M989 1035l-174 -183h-413l-72 183h266l20 -71h34l51 71h288zM389 -28q-249 0 -343 106.5t-26 312.5l149 449h333l-158 -473q-20 -58 1.5 -90.5t89.5 -32.5t106.5 36t66.5 119l143 441h334l-156 -478q-71 -215 -193.5 -302.5t-346.5 -87.5z" glyph-name="uni01D3" horiz-adv-x="979" unicode="Ǔ"/><glyph d="M989 1035l-174 -183h-413l-72 183h266l20 -71h34l51 71h288zM389 -28q-249 0 -343 106.5t-26 312.5l149 449h333l-158 -473q-20 -58 1.5 -90.5t89.5 -32.5t106.5 36t66.5 119l143 441h334l-156 -478q-71 -215 -193.5 -302.5t-346.5 -87.5z" glyph-name="uni01D4" horiz-adv-x="979" unicode="ǔ"/><glyph d="M482 -24q-2 -5 -2 -12q-5 -35 37 -33v-174q-33 0 -65 4t-67 15t-61 28.5t-43 46.5t-17 66q0 38 16 68q-131 28 -201 116t-70 222q0 108 45.5 207.5t124.5 174t191 119t238 44.5q191 0 295.5 -93t104.5 -258q0 -134 -67 -252t-188 -195.5t-271 -93.5zM554 585 q-94 0 -154.5 -65.5t-62.5 -142.5q0 -59 37 -90.5t89 -31.5q94 0 154 65.5t62 143.5q0 59 -36.5 90t-88.5 31z" glyph-name="uni01EA" horiz-adv-x="1016" unicode="Ǫ"/><glyph d="M340 -28q-86 0 -152.5 10t-120.5 32.5t-80 59.5t-32 91t23 127h279q-8 -36 30.5 -53.5t98.5 -17.5q150 0 150 50v1q0 6 -1.5 10.5t-7 12.5t-22 14t-42.5 8l-67 8q-318 25 -318 216q0 154 132 240.5t352 86.5q139 0 234 -37t128.5 -107.5t-16.5 -173.5h-269q2 7 0 15 t-10.5 18t-21.5 17.5t-37 13t-54 5.5q-57 0 -90.5 -15t-33.5 -39q0 -32 58 -39l44 -6q15 -3 50.5 -7.5t59.5 -8.5t59.5 -12t59.5 -17.5t51.5 -25.5t44.5 -35.5t28 -48t11 -63.5q0 -92 -41 -158t-115.5 -102.5t-163 -53t-198.5 -16.5zM118 -506q46 102 75 206h-103l74 230 h315l3 8q-106 -318 -216 -444h-148z" glyph-name="Scommaaccent" horiz-adv-x="923" unicode="Ș"/><glyph d="M340 -28q-86 0 -152.5 10t-120.5 32.5t-80 59.5t-32 91t23 127h279q-8 -36 30.5 -53.5t98.5 -17.5q150 0 150 50v1q0 6 -1.5 10.5t-7 12.5t-22 14t-42.5 8l-67 8q-318 25 -318 216q0 154 132 240.5t352 86.5q139 0 234 -37t128.5 -107.5t-16.5 -173.5h-269q2 7 0 15 t-10.5 18t-21.5 17.5t-37 13t-54 5.5q-57 0 -90.5 -15t-33.5 -39q0 -32 58 -39l44 -6q15 -3 50.5 -7.5t59.5 -8.5t59.5 -12t59.5 -17.5t51.5 -25.5t44.5 -35.5t28 -48t11 -63.5q0 -92 -41 -158t-115.5 -102.5t-163 -53t-198.5 -16.5zM118 -506q46 102 75 206h-103l74 230 h315l3 8q-106 -318 -216 -444h-148z" glyph-name="scommaaccent" horiz-adv-x="923" unicode="ș"/><glyph d="M1070 840l-89 -273h-287l-185 -567h-328l185 567h-294l88 273h910zM177 -70h315l3 8q-106 -318 -216 -444h-148q46 102 75 206h-103z" glyph-name="uni021A" horiz-adv-x="959" unicode="Ț"/><glyph d="M1070 840l-89 -273h-287l-185 -567h-328l185 567h-294l88 273h910zM177 -70h315l3 8q-106 -318 -216 -444h-148q46 102 75 206h-103z" glyph-name="uni021B" horiz-adv-x="959" unicode="ț"/><glyph d="M84 680l174 183h413l72 -183h-266l-20 71h-34l-51 -71h-288z" glyph-name="circumflex" horiz-adv-x="659" unicode="ˆ"/><glyph d="M791 825l-174 -183h-413l-72 183h266l20 -71h34l51 71h288z" glyph-name="caron" horiz-adv-x="659" unicode="ˇ"/><glyph d="M357 680q-39 0 -69.5 3t-59.5 10.5t-47.5 21t-32.5 33.5t-13.5 48.5t7.5 66.5h182q-11 -51 50 -51q63 0 75 51h180q-11 -55 -36.5 -92.5t-63 -56.5t-78.5 -26.5t-94 -7.5z" glyph-name="breve" horiz-adv-x="487" unicode="˘"/><glyph d="M212 679q-40 0 -66.5 26.5t-26.5 64.5q0 48 40 85.5t88 37.5q40 0 66 -27t26 -64q0 -49 -39.5 -86t-87.5 -37z" glyph-name="dotaccent" horiz-adv-x="220" unicode="˙"/><glyph d="M244 614q-58 0 -93.5 36t-35.5 92q0 79 53 128.5t124 49.5q57 0 91.5 -35t34.5 -91q0 -74 -51 -127t-123 -53zM263 743q14 0 22 9t8 23q0 7 -5 13t-15 6q-13 0 -21.5 -9.5t-8.5 -23.5q0 -6 5 -12t15 -6z" glyph-name="ring" horiz-adv-x="305" unicode="˚"/><glyph d="M97 -245q-33 0 -65 4t-67 15t-61 28.5t-43 46.5t-17 66t14.5 65t40 44.5t53.5 27.5t61 15.5t57.5 6t47.5 2.5h9v-76q-67 0 -67 -38q-5 -35 37 -33v-174z" glyph-name="ogonek" horiz-adv-x="312" unicode="˛"/><glyph d="M472 679q-49 0 -117 26t-98 26q-25 0 -43.5 -10.5t-20.5 -30.5h-80q-17 91 33 138t121 47q49 0 117 -26t98 -26q26 0 44.5 10.5t19.5 30.5h81q17 -92 -32.5 -138.5t-122.5 -46.5z" glyph-name="tilde" horiz-adv-x="508" unicode="˜"/><glyph d="M84 680l103 183h297l-103 -183h-297zM413 680l103 183h297l-103 -183h-297z" glyph-name="hungarumlaut" horiz-adv-x="671" unicode="˝"/><glyph d="M-537 -506q46 102 75 206h-103l74 230h315l3 8q-106 -318 -216 -444h-148z" glyph-name="uni0326" horiz-adv-x="0" unicode="̦"/><glyph d="M875 840l27 -840h-1038l559 840h452zM384 262h198l4 270h-36z" glyph-name="Delta" horiz-adv-x="1023" unicode="Δ"/><glyph d="M785 299l-17 -48h113l-82 -251h-920l81 251h121l9 33q-20 20 -33.5 55.5t-13.5 69.5q0 131 80.5 238t206.5 164t266 57q176 0 273 -73.5t97 -185.5q0 -87 -49.5 -173t-131.5 -137zM433 323q78 12 136.5 68.5t58.5 124.5q0 32 -21 50.5t-79 18.5q-69 0 -121 -44.5 t-52 -106.5q0 -80 78 -111z" glyph-name="Omega" horiz-adv-x="950" unicode="Ω"/><glyph d="M595 680h329l-220 -680h-324l23 86h-26q-70 -81 -159 -99l-44 -137h-329l269 830h329l-120 -369h1q-24 -71 20 -83q4 -1 8 -1q41 0 76 29t52 68z" glyph-name="mu" horiz-adv-x="870" unicode="μ"/><glyph d="M912 452l-53 -161q-3 -10 -3 -15.5t2.5 -7.5t5 -2t8 0.5t8.5 0.5q16 0 31.5 2.5t19.5 3.5t11 -2l-52 -235q-23 -21 -59 -31.5t-57.5 -11.5t-60.5 -1q-126 0 -182.5 63t-11.5 200l64 197h-133l-147 -452h-329l147 452h-79l72 228h950l-72 -228h-80z" glyph-name="pi" horiz-adv-x="1044" unicode="π"/><glyph d="M948 890h-297l-103 183h297zM23 0l126 840h329l-97 -488h29l248 488h254l-62 -488h30l215 488h341l-418 -840h-442l61 320h-28l-144 -320h-442z" glyph-name="Wgrave" horiz-adv-x="1318" unicode="Ẁ"/><glyph d="M948 890h-297l-103 183h297zM23 0l126 840h329l-97 -488h29l248 488h254l-62 -488h30l215 488h341l-418 -840h-442l61 320h-28l-144 -320h-442z" glyph-name="wgrave" horiz-adv-x="1318" unicode="ẁ"/><glyph d="M648 890l103 183h297l-103 -183h-297zM23 0l126 840h329l-97 -488h29l248 488h254l-62 -488h30l215 488h341l-418 -840h-442l61 320h-28l-144 -320h-442z" glyph-name="Wacute" horiz-adv-x="1318" unicode="Ẃ"/><glyph d="M648 890l103 183h297l-103 -183h-297zM23 0l126 840h329l-97 -488h29l248 488h254l-62 -488h30l215 488h341l-418 -840h-442l61 320h-28l-144 -320h-442z" glyph-name="wacute" horiz-adv-x="1318" unicode="ẃ"/><glyph d="M634 889q-40 0 -66.5 26.5t-26.5 64.5q0 48 40 85.5t88 37.5q40 0 66 -27t26 -64q0 -49 -39.5 -86t-87.5 -37zM967 889q-40 0 -66.5 26.5t-26.5 64.5q0 48 40 85.5t88 37.5q40 0 66 -27t26 -64q0 -49 -39.5 -86t-87.5 -37zM23 0l126 840h329l-97 -488h29l248 488h254 l-62 -488h30l215 488h341l-418 -840h-442l61 320h-28l-144 -320h-442z" glyph-name="Wdieresis" horiz-adv-x="1318" unicode="Ẅ"/><glyph d="M634 889q-40 0 -66.5 26.5t-26.5 64.5q0 48 40 85.5t88 37.5q40 0 66 -27t26 -64q0 -49 -39.5 -86t-87.5 -37zM967 889q-40 0 -66.5 26.5t-26.5 64.5q0 48 40 85.5t88 37.5q40 0 66 -27t26 -64q0 -49 -39.5 -86t-87.5 -37zM23 0l126 840h329l-97 -488h29l248 488h254 l-62 -488h30l215 488h341l-418 -840h-442l61 320h-28l-144 -320h-442z" glyph-name="wdieresis" horiz-adv-x="1318" unicode="ẅ"/><glyph d="M818 480q93 2 149 -43.5t56 -116.5q0 -164 -115 -253t-301 -89q-190 0 -249.5 68t-15.5 181h267q-3 -40 51 -40q24 0 41.5 16.5t17.5 41.5q0 44 -49 44q-27 0 -46 -19l-6 -6h-265l259 303h-111q-34 0 -70 -26.5t-51 -78.5l-150 -462h-334l183 571q23 72 52.5 121t62 78.5 t80.5 45t95 20t120 4.5h662z" glyph-name="uni1E9E" horiz-adv-x="1089" unicode="ẞ"/><glyph d="M782 890h-297l-103 183h297zM1125 840l-526 -587l-81 -253h-329l86 270l-144 570h331l57 -267h23l224 267h359z" glyph-name="Ygrave" horiz-adv-x="994" unicode="Ỳ"/><glyph d="M782 890h-297l-103 183h297zM1125 840l-526 -587l-81 -253h-329l86 270l-144 570h331l57 -267h23l224 267h359z" glyph-name="ygrave" horiz-adv-x="994" unicode="ỳ"/><glyph d="M-13 259l89 274h820l-89 -274h-820z" glyph-name="endash" horiz-adv-x="900" unicode="–"/><glyph d="M-13 259l89 274h900l-89 -274h-900z" glyph-name="emdash" horiz-adv-x="980" unicode="—"/><glyph d="M449 842q-57 -128 -89 -245h123l-88 -274h-376l-4 -10q127 377 258 529h176z" glyph-name="quoteleft" horiz-adv-x="477" unicode="‘"/><glyph d="M131 322q57 128 89 245h-123l88 274h376l4 10q-127 -377 -258 -529h-176z" glyph-name="quoteright" horiz-adv-x="475" unicode="’"/><glyph d="M-52 -245q57 128 89 245h-123l88 274h376l4 10q-127 -377 -258 -529h-176z" glyph-name="quotesinglbase" horiz-adv-x="475" unicode="‚"/><glyph d="M407 842q-51 -129 -79 -245h109l-78 -274h-331l-3 -10q112 380 227 529h155zM801 842q-51 -129 -79 -245h109l-78 -274h-331l-3 -10q112 380 227 529h155z" glyph-name="quotedblleft" horiz-adv-x="833" unicode="“"/><glyph d="M137 322q51 129 79 245h-109l78 274h331l3 10q-112 -380 -227 -529h-155zM531 322q51 129 79 245h-109l78 274h331l3 10q-112 -380 -227 -529h-155z" glyph-name="quotedblright" horiz-adv-x="831" unicode="”"/><glyph d="M-63 -296q51 129 79 245h-109l78 274h331l3 10q-112 -380 -227 -529h-155zM331 -296q51 129 79 245h-109l78 274h331l3 10q-112 -380 -227 -529h-155z" glyph-name="quotedblbase" horiz-adv-x="835" unicode="„"/><glyph d="M863 698l-85 -264h-220l-71 -216h-288l71 216h-214l85 264h215l71 217h289l-71 -217h218z" glyph-name="dagger" horiz-adv-x="825" unicode="†"/><glyph d="M778 434h-217l-39 -119h218l-85 -264h-220l-71 -216h-288l71 216h-214l85 264h213l39 119h-214l85 264h215l71 217h289l-71 -217h218z" glyph-name="daggerdbl" horiz-adv-x="825" unicode="‡"/><glyph d="M285 184q-85 0 -136 52.5t-51 132.5q0 116 89 202t198 86q85 0 136.5 -52.5t51.5 -133.5q0 -116 -89 -201.5t-199 -85.5z" glyph-name="bullet" horiz-adv-x="671" unicode="•"/><glyph d="M78 -16q-60 0 -97 37t-37 96q0 76 54.5 128t128.5 52q59 0 96 -37t37 -96q0 -76 -54.5 -128t-127.5 -52zM480 -16q-60 0 -97 37t-37 96q0 76 54.5 128t128.5 52q59 0 96 -37t37 -96q0 -76 -54.5 -128t-127.5 -52zM882 -16q-60 0 -97 37t-37 96q0 76 54.5 128t128.5 52 q59 0 96 -37t37 -96q0 -76 -54.5 -128t-127.5 -52z" glyph-name="ellipsis" horiz-adv-x="1184" unicode="…"/><glyph d="M276 -28l-115 88l797 815l113 -88zM309 387q-90 0 -144 45.5t-54 130.5q0 112 86.5 200.5t207.5 88.5q88 0 143 -46t55 -133q0 -116 -84.5 -201t-209.5 -85zM347 571q23 0 40 17.5t17 40.5q0 39 -38 39q-21 0 -38.5 -17.5t-17.5 -40.5q0 -39 37 -39zM830 -12 q-90 0 -144 45.5t-54 131.5q0 112 86 200.5t208 88.5q87 0 142.5 -46.5t55.5 -132.5q0 -116 -85 -201.5t-209 -85.5zM1344 -12q-90 0 -144 45.5t-54 131.5q0 111 86.5 200t207.5 89q88 0 143 -46.5t55 -132.5q0 -116 -84.5 -201.5t-209.5 -85.5zM867 173q23 0 40.5 17.5 t17.5 40.5q0 38 -38 38q-22 0 -39 -17.5t-17 -40.5q0 -38 36 -38zM1382 173q23 0 40 17.5t17 40.5q0 38 -38 38q-21 0 -38.5 -17.5t-17.5 -40.5q0 -38 37 -38z" glyph-name="perthousand" horiz-adv-x="1750" unicode="‰"/><glyph d="M706 730l-296 -308l110 -312h-354l-106 312l299 308h347z" glyph-name="guilsinglleft" horiz-adv-x="679" unicode="‹"/><glyph d="M-27 110l296 308l-110 312h354l106 -312l-299 -308h-347z" glyph-name="guilsinglright" horiz-adv-x="679" unicode="›"/><glyph d="M1010 467h-301q1 55 -31.5 86.5t-88.5 31.5q-87 0 -144 -59h149l-33 -99h-172q-4 -23 -5 -32h166l-33 -100h-106q36 -40 100 -40q119 0 177 114h300q-26 -92 -74 -164t-103 -115t-121 -70.5t-123.5 -37.5t-115.5 -10q-173 0 -271 85t-108 238h-97l33 100h67l5 32h-60 l32 99h58q63 151 206.5 246.5t332.5 95.5q131 0 226 -55.5t131 -148t4 -197.5z" glyph-name="Euro" horiz-adv-x="1020" unicode="€"/><glyph d="M1013 394q-84 0 -131.5 46.5t-47.5 126.5q0 115 83.5 197t202.5 82q83 0 131 -47.5t48 -126.5q0 -114 -83.5 -196t-202.5 -82zM-106 0l272 840h282l-16 -324h28l104 324h295l-272 -840h-282l14 325h-27l-103 -325h-295zM1051 563q32 0 52 22t20 46q0 44 -42 44 q-32 0 -53 -22.5t-21 -47.5q0 -42 44 -42zM665 2l84 258h398l-84 -258h-398z" glyph-name="afii61352" horiz-adv-x="1246" unicode="№"/><glyph d="M800 840h189l-125 -386h-130l66 205h-13l-91 -205h-126l45 205h-20l-66 -205h-129l87 268h-98l-86 -268h-145l87 268h-123l39 118h551l-47 -248h21z" glyph-name="trademark" horiz-adv-x="878" unicode="™"/><glyph d="M581 862q211 0 279 -113t-7 -319q-24 -72 -53.5 -131t-77.5 -121t-107 -104t-144 -69t-186 -27q-316 0 -316 203q0 158 135.5 249t343.5 91q85 0 128 -13q65 113 -77 113q-38 0 -76 -11.5t-52 -39.5h-265q45 146 170.5 219t304.5 73zM366 217q60 0 97.5 20.5t37.5 55.5 q0 48 -85 48q-59 0 -97.5 -19t-38.5 -52q0 -53 86 -53z" glyph-name="partialdiff" horiz-adv-x="881" unicode="∂"/><glyph d="M876 900l-88 -273h-1l-252 -777h-329l252 777h-32l-252 -777h-329l291 897h1l49 153h690z" glyph-name="product" horiz-adv-x="750" unicode="∏"/><glyph d="M-151 -150l83 274l397 242l-221 261l83 273h664l-87 -273h-310l217 -246l-2 -29l-369 -228h298l-88 -274h-665z" glyph-name="summation" horiz-adv-x="729" unicode="∑"/><glyph d="M5 284l90 274h672l-90 -274h-672z" glyph-name="minus" horiz-adv-x="772" unicode="−"/><glyph d="M92 -150l25 395h-124l88 273h298l-26 -366h23l355 748h264l-530 -1050h-373z" glyph-name="radical" horiz-adv-x="889" unicode="√"/><glyph d="M711 640q140 0 140 -134q0 -117 -87 -212t-204 -95q-63 0 -98.5 27.5t-58.5 77.5q-58 -51 -112 -78t-116 -27q-144 0 -144 133q0 117 89 212.5t206 95.5q62 0 97 -27.5t58 -79.5q121 107 230 107zM266 383h6h7.5t9.5 1t13.5 4t15.5 7t20 11.5t23 16.5q-15 18 -29 27 t-19.5 9.5t-18.5 0.5q-21 0 -38.5 -16t-17.5 -34q0 -12 8 -19.5t20 -7.5zM592 383q21 0 38 15.5t17 33.5q0 11 -7.5 19.5t-19.5 8.5q-40 0 -93 -37q6 -10 11.5 -17t11.5 -11t9.5 -7t9.5 -4t8 -1h8h7z" glyph-name="infinity" horiz-adv-x="884" unicode="∞"/><glyph d="M46 -150q-133 0 -183 37l75 235q64 -23 109 -23q38 0 67.5 17.5t41.5 51.5l147 463q29 92 91 153t137 86.5t163 25.5q133 0 183 -37l-75 -235q-64 23 -109 23q-86 0 -109 -69l-147 -463q-41 -130 -149 -197.5t-242 -67.5z" glyph-name="integral" horiz-adv-x="770" unicode="∫"/><glyph d="M490 431q-52 2 -122.5 34t-111.5 32q-72 0 -98 -61h-101q14 80 63 137t108 81t122 24q51 0 121.5 -32.5t109.5 -33.5q76 5 101 61h101q-14 -80 -64 -136.5t-108.5 -80t-120.5 -25.5zM404 160q-52 2 -122.5 34t-111.5 32q-72 0 -98 -61h-101q14 80 63 137t108 81t122 24 q51 0 121.5 -32.5t109.5 -33.5q76 5 101 61h101q-14 -80 -64 -136.5t-108.5 -80t-120.5 -25.5z" glyph-name="approxequal" horiz-adv-x="754" unicode="≈"/><glyph d="M892 860l-112 -139h40l-90 -273h-171l-44 -54h199l-90 -273h-329l-72 -89h-343l72 89l90 273h131l44 54h-159l90 273h290l112 139h342z" glyph-name="notequal" horiz-adv-x="772" unicode="≠"/><glyph d="M693 326l-606 200l114 351l746 206l-91 -275l-441 -87l-10 -29l380 -87zM-88 0l90 274h672l-90 -274h-672z" glyph-name="lessequal" horiz-adv-x="772" unicode="≤"/><glyph d="M261 1073l581 -200l-109 -351l-715 -206l87 275l423 87l9 29l-364 87zM-92 0l90 274h672l-90 -274h-672z" glyph-name="greaterequal" horiz-adv-x="768" unicode="≥"/><glyph d="M110 0q-8 0 -15 12t-3 19l-42 389l297 422q3 4 3 2q1 -4 7 -4h333q9 0 16 -11.5t3 -18.5l41 -390l-297 -422l-1 -2l-1 -1q-1 5 -8 5h-333zM332 226l152 196l-16 193l-152 -197z" glyph-name="lozenge" horiz-adv-x="800" unicode="◊"/><glyph d="M554 585q-96 0 -156 -63.5t-60 -145.5q0 -59 38.5 -90t95.5 -31q113 0 162 71h-166l50 153h475q-19 -131 -71.5 -229.5t-132 -158.5t-177.5 -89.5t-214 -29.5q-184 0 -286 94.5t-102 262.5q0 106 45 204t123.5 172t193 118.5t245.5 44.5q192 0 301 -103t83 -241h-331 q-14 26 -44 43.5t-72 17.5z" glyph-name="G.aalt" horiz-adv-x="1009"/><glyph d="M358 889q-40 0 -66.5 26.5t-26.5 64.5q0 48 40 85.5t88 37.5q40 0 66 -27t26 -64q0 -49 -39.5 -86t-87.5 -37zM-106 0l271 840h328l-270 -840h-329z" glyph-name="i.aalt" horiz-adv-x="387"/><glyph d="M554 585q-96 0 -156 -63.5t-60 -145.5q0 -59 38.5 -90t95.5 -31q113 0 162 71h-166l50 153h475q-19 -131 -71.5 -229.5t-132 -158.5t-177.5 -89.5t-214 -29.5q-184 0 -286 94.5t-102 262.5q0 106 45 204t123.5 172t193 118.5t245.5 44.5q192 0 301 -103t83 -241h-331 q-14 26 -44 43.5t-72 17.5z" glyph-name="g.aalt" horiz-adv-x="1009"/></font>
</defs>
</svg>
